<svg width="500" height="500" viewBox="0 0 500 500" fill="none" xmlns="http://www.w3.org/2000/svg">
<path d="M322.1 97.3398C321.063 98.1731 319.854 98.7672 318.56 99.0798C315.01 99.8698 305.56 99.4698 303.96 103.81C303.449 105.112 302.652 106.284 301.63 107.239C300.607 108.194 299.384 108.908 298.05 109.33C298.05 109.33 290.56 109.73 290.16 111.33C289.76 112.93 287.01 115.67 287.01 115.67H416C416 115.67 420.34 108.97 413.24 102.67C407.03 97.1498 395.68 105.51 394.24 98.6698" stroke="#263238" stroke-linecap="round" stroke-linejoin="round"/>
<path d="M393.07 88.6296C391.63 83.4396 388.6 76.4396 382.45 73.8396C372.19 69.4996 363.52 75.4196 361.15 81.3296C358.78 87.2396 357.21 91.1896 348.15 86.0596C339.09 80.9296 331.15 81.3296 328.43 88.0596C327.645 90.0079 326.664 91.8709 325.5 93.6196" stroke="#263238" stroke-linecap="round" stroke-linejoin="round"/>
<path d="M103.05 166.099H147.84C147.84 166.099 150.46 162.099 146.17 158.229C141.88 154.359 133.52 161.569 134.72 153.459C134.72 153.459 133.72 143.459 127.56 140.819C125.974 140.092 124.227 139.793 122.49 139.951C120.753 140.109 119.088 140.718 117.66 141.719" stroke="#263238" stroke-linecap="round" stroke-linejoin="round"/>
<path d="M114.68 145.35C113.25 148.93 112.29 151.35 106.81 148.21C101.33 145.07 96.55 145.35 94.88 149.41C93.21 153.47 91.06 155.61 88.88 156.08C86.7 156.55 81.01 156.32 80.05 158.95C79.7383 159.737 79.2554 160.445 78.6362 161.023C78.017 161.6 77.2771 162.033 76.47 162.29C76.47 162.29 71.94 162.52 71.7 163.48C71.2229 164.459 70.5763 165.346 69.79 166.1H96" stroke="#263238" stroke-linecap="round" stroke-linejoin="round"/>
<path d="M327.25 166.1H348.4C348.4 166.1 351.02 162.1 346.73 158.23C342.44 154.36 334.09 161.57 335.28 153.46C335.28 153.46 334.33 143.46 328.12 140.82C321.91 138.18 316.68 141.82 315.24 145.35C313.8 148.88 312.86 151.35 307.37 148.21C301.88 145.07 297.11 145.35 295.45 149.41C293.79 153.47 291.63 155.61 289.45 156.08C287.27 156.55 281.58 156.32 280.63 158.95C280.317 159.737 279.834 160.444 279.215 161.022C278.596 161.599 277.856 162.032 277.05 162.29C277.05 162.29 272.52 162.52 272.28 163.48C271.803 164.459 271.156 165.346 270.37 166.1H320.19" stroke="#263238" stroke-linecap="round" stroke-linejoin="round"/>
<g opacity="0.1">
<path opacity="0.1" d="M23.23 232.17C27.17 232.95 35.92 230.84 35.92 230.84C35.92 230.84 32.78 225.49 32.54 225.18C29.73 221.56 22.17 216.18 17.36 217.98C16.5686 218.294 15.8522 218.772 15.2571 219.381C14.662 219.99 14.2015 220.717 13.9055 221.516C13.6095 222.314 13.4845 223.166 13.5387 224.016C13.5929 224.866 13.825 225.695 14.22 226.45C15.79 229.71 19.88 231.5 23.23 232.17Z" fill="black"/>
<path opacity="0.1" d="M31.8202 256.999C35.6602 256.729 43.0101 252.749 43.6001 252.429C45.8717 256.637 48.4207 260.689 51.2302 264.559C52.8502 266.819 54.5602 269.049 56.3002 271.259C55.3502 270.369 54.5002 269.579 54.3702 269.479C50.7102 266.739 42.0102 263.589 37.8302 266.549C37.1499 267.062 36.5849 267.712 36.1718 268.456C35.7587 269.201 35.5068 270.025 35.4323 270.873C35.3578 271.722 35.4625 272.577 35.7394 273.382C36.0164 274.188 36.4596 274.926 37.0402 275.549C39.4202 278.269 43.8302 278.919 47.2402 278.679C50.6502 278.439 57.0402 275.159 58.7002 274.279C59.3802 275.119 60.0402 275.969 60.7002 276.809C63.9602 280.809 67.2302 284.809 70.3202 288.869C71.4102 290.289 72.4202 291.729 73.4501 293.159C72.6101 292.369 71.9002 291.709 71.7802 291.619C68.1102 288.869 59.4202 285.719 55.2402 288.689C54.5572 289.2 53.9898 289.849 53.5749 290.594C53.16 291.339 52.907 292.163 52.8324 293.012C52.7578 293.862 52.8634 294.718 53.1422 295.523C53.4209 296.329 53.8666 297.067 54.4502 297.689C56.8302 300.419 61.2402 301.059 64.6502 300.819C68.0602 300.579 73.8302 297.619 75.8102 296.579C76.8102 298.079 77.8102 299.579 78.7302 301.079C79.3302 302.079 79.9702 303.079 80.5102 304.149L82.1702 307.279C83.1702 309.279 84.1702 311.399 85.0802 313.399C85.7202 314.789 86.3102 316.119 86.9002 317.469C85.8302 316.039 83.6902 313.289 83.4802 313.079C80.2802 309.819 72.1602 305.389 67.5702 307.679C66.8202 308.082 66.1634 308.638 65.6424 309.312C65.1214 309.985 64.7478 310.76 64.546 311.587C64.3442 312.414 64.3186 313.275 64.471 314.112C64.6233 314.95 64.9501 315.746 65.4302 316.449C67.3702 319.509 71.6302 320.809 75.0402 321.089C78.7902 321.399 86.3701 318.719 87.3102 318.379C88.3102 320.609 89.2102 322.779 90.0502 324.849C90.6835 326.369 91.2735 327.839 91.8202 329.259L94.9402 328.579C94.2735 327.012 93.5768 325.372 92.8502 323.659C91.8502 321.399 90.7802 318.999 89.6301 316.549C91.7732 315.101 93.8269 313.525 95.7802 311.829C98.9501 314.049 106.23 315.829 107.17 316.099C106.75 318.489 106.33 320.809 105.89 322.999C105.66 324.159 105.43 325.249 105.2 326.339L108.5 325.619C108.63 324.939 108.75 324.269 108.87 323.559C109.31 321.129 109.72 318.559 110.12 315.849C111.12 315.849 119.12 315.719 122.57 314.129C125.67 312.679 129.21 309.979 129.97 306.439C130.176 305.613 130.206 304.752 130.057 303.913C129.908 303.075 129.585 302.277 129.108 301.571C128.631 300.866 128.01 300.268 127.287 299.818C126.564 299.368 125.754 299.076 124.91 298.959C119.82 298.399 113.74 305.369 111.91 309.549C111.8 309.799 110.91 312.609 110.37 314.389C110.52 313.289 110.69 312.229 110.83 311.099C111.14 308.869 111.38 306.639 111.65 304.229C111.74 303.069 111.83 301.889 111.92 300.699C112.01 299.509 112.01 298.269 112.06 297.039C112.06 294.179 112.06 291.289 111.88 288.379C113.88 288.639 120.79 289.479 124.08 288.519C127.37 287.559 131.28 285.419 132.56 282.039C132.891 281.254 133.052 280.408 133.033 279.557C133.015 278.705 132.817 277.867 132.453 277.097C132.089 276.327 131.566 275.642 130.919 275.088C130.273 274.534 129.517 274.122 128.7 273.879C123.7 272.549 116.7 278.519 114.2 282.369C114.05 282.609 112.58 285.569 111.8 287.209C111.7 285.459 111.6 283.719 111.44 281.949C110.97 276.849 110.34 271.699 109.74 266.559C109.55 264.979 109.38 263.409 109.21 261.839C109.9 261.939 118.15 263.119 121.84 262.039C125.12 261.039 129.03 258.939 130.32 255.559C130.649 254.773 130.808 253.927 130.788 253.075C130.768 252.224 130.57 251.386 130.205 250.616C129.84 249.847 129.317 249.162 128.67 248.608C128.023 248.054 127.267 247.642 126.45 247.399C121.45 246.069 114.45 252.049 111.96 255.889C111.77 256.179 109.66 260.449 109.18 261.559C108.8 258.089 108.45 254.639 108.25 251.219C107.95 246.604 107.95 241.974 108.25 237.359C108.57 237.409 117.17 238.679 120.95 237.569C124.23 236.569 128.15 234.479 129.43 231.089C129.759 230.304 129.919 229.458 129.9 228.607C129.88 227.756 129.682 226.919 129.318 226.149C128.954 225.38 128.432 224.695 127.787 224.14C127.141 223.586 126.386 223.173 125.57 222.929C120.57 221.609 113.57 227.579 111.07 231.429C110.88 231.729 108.61 236.309 108.26 237.179C108.26 236.909 108.26 236.629 108.26 236.359C108.689 231.74 109.529 227.169 110.77 222.699C111.42 220.219 112.19 217.889 112.98 215.639C114.56 216.039 121.79 217.789 125.3 217.169C128.81 216.549 132.79 214.879 134.44 211.659C134.852 210.914 135.103 210.091 135.176 209.243C135.249 208.395 135.143 207.541 134.865 206.737C134.587 205.933 134.143 205.196 133.561 204.574C132.98 203.953 132.274 203.46 131.49 203.129C126.71 201.259 119.04 206.429 116.15 209.979C116 210.169 114.62 212.309 113.63 213.879C114.01 212.879 114.37 211.819 114.75 210.879C116.16 207.269 117.67 204.049 119.03 201.199C119.82 199.589 120.56 198.199 121.27 196.809C123.02 196.399 130.07 194.639 132.85 192.509C135.63 190.379 138.44 187.029 138.42 183.409C138.444 182.557 138.288 181.71 137.963 180.923C137.638 180.135 137.15 179.425 136.532 178.838C135.914 178.252 135.18 177.802 134.377 177.517C133.574 177.233 132.719 177.121 131.87 177.189C126.77 177.739 122.34 185.849 121.42 190.339C121.34 190.719 120.78 196.929 120.87 196.909H120.97C120.26 198.189 119.52 199.559 118.73 201.079C117.31 203.899 115.73 207.079 114.23 210.689C112.594 214.517 111.181 218.437 110 222.429C108.644 226.928 107.693 231.54 107.16 236.209C107.155 236.266 107.155 236.323 107.16 236.379C106.86 234.909 105.9 230.819 105.79 230.509C104.25 226.199 98.7402 218.779 93.6102 218.939C92.7617 218.992 91.9338 219.222 91.18 219.615C90.4263 220.009 89.7635 220.556 89.2346 221.221C88.7057 221.887 88.3226 222.656 88.1099 223.479C87.8973 224.302 87.8599 225.161 88.0002 225.999C88.4802 229.579 91.8001 232.549 94.7802 234.239C98.1402 236.129 106.47 236.859 107.13 236.919C106.703 241.683 106.593 246.47 106.8 251.249C106.91 254.029 107.1 256.829 107.33 259.639C107.04 258.369 106.76 257.239 106.71 257.089C105.17 252.779 99.6502 245.359 94.5302 245.519C93.6803 245.569 92.8504 245.797 92.0947 246.189C91.339 246.582 90.6743 247.128 90.1441 247.795C89.6139 248.461 89.2299 249.231 89.0173 250.055C88.8047 250.88 88.7682 251.74 88.9102 252.579C89.3902 256.169 92.7102 259.139 95.6902 260.819C98.6702 262.499 105.8 263.299 107.69 263.479C107.79 264.549 107.87 265.629 107.98 266.699C108.47 271.859 108.98 276.999 109.34 282.069C109.47 283.849 109.52 285.609 109.59 287.369C109.32 286.249 109.09 285.309 109.04 285.169C107.5 280.849 102.04 273.429 96.8602 273.589C96.0098 273.64 95.1798 273.87 94.4241 274.263C93.6683 274.656 93.0038 275.204 92.4737 275.871C91.9436 276.538 91.5598 277.309 91.3473 278.134C91.1348 278.959 91.0983 279.819 91.2402 280.659C91.7202 284.249 95.0501 287.219 98.0201 288.899C100.99 290.579 107.44 291.299 109.67 291.519C109.67 293.319 109.67 295.129 109.67 296.879C109.59 298.079 109.6 299.229 109.46 300.429C109.32 301.629 109.23 302.789 109.12 303.949C108.81 306.189 108.52 308.489 108.12 310.659C107.89 312.169 107.64 313.609 107.39 315.059C107.29 313.279 107.01 309.799 106.96 309.519C106.034 305.594 104.116 301.972 101.39 298.999C101.311 298.558 101.187 298.125 101.02 297.709C100.737 296.906 100.288 296.171 99.7027 295.553C99.1169 294.935 98.4074 294.447 97.6205 294.122C96.8336 293.796 95.987 293.64 95.1357 293.664C94.2845 293.688 93.4478 293.89 92.6802 294.259C88.1202 296.599 86.9002 305.769 87.6802 310.259C87.6802 310.519 88.5302 313.359 89.0602 315.139C88.5901 314.139 88.1402 313.139 87.6402 312.139C86.6402 310.139 85.6402 308.139 84.5302 305.959L82.8102 302.869C82.2501 301.869 81.5402 300.789 80.9002 299.739C79.3702 297.329 77.7002 294.959 75.9702 292.619C77.7502 291.759 83.9702 288.619 86.2302 285.999C88.4902 283.379 90.5202 279.449 89.7302 275.919C89.5668 275.085 89.2303 274.294 88.7424 273.598C88.2545 272.902 87.626 272.316 86.8976 271.878C86.1692 271.44 85.357 271.159 84.5134 271.054C83.6698 270.949 82.8137 271.023 82.0002 271.269C77.1402 272.899 74.5502 281.779 74.6002 286.349C74.6002 286.639 75.0102 289.919 75.2602 291.719C74.2602 290.319 73.1702 288.909 72.0602 287.519C68.8601 283.519 65.4902 279.579 62.1502 275.629C61.1502 274.419 60.1502 273.199 59.1502 271.989C59.7802 271.689 67.3102 268.119 69.7902 265.179C72.0002 262.569 74.0802 258.629 73.2902 255.099C73.132 254.262 72.7991 253.467 72.3129 252.767C71.8268 252.067 71.1985 251.477 70.469 251.036C69.7395 250.596 68.9252 250.314 68.0793 250.209C67.2335 250.104 66.3751 250.179 65.5602 250.429C60.7001 252.049 58.1102 260.929 58.1602 265.509C58.1602 265.849 58.7602 270.569 58.9602 271.759C56.7402 269.089 54.5402 266.399 52.4902 263.659C49.6981 259.974 47.1462 256.112 44.8501 252.099C45.1402 251.959 53.0102 248.269 55.5502 245.259C57.7602 242.649 59.8502 238.709 59.0502 235.179C58.8918 234.343 58.5591 233.549 58.0736 232.85C57.5881 232.151 56.9608 231.562 56.2325 231.121C55.5041 230.68 54.6912 230.398 53.8465 230.293C53.0018 230.187 52.1444 230.261 51.3302 230.509C46.4602 232.129 43.8701 241.009 43.9201 245.589C43.9201 245.949 44.5702 251.029 44.7502 251.939C44.6202 251.699 44.4501 251.479 44.3202 251.239C42.1364 247.146 40.3161 242.87 38.8802 238.459C38.0602 236.039 37.4102 233.669 36.8802 231.349C38.4202 230.819 45.4102 228.289 48.0002 225.829C50.5902 223.369 53.0002 219.829 52.5802 216.199C52.516 215.35 52.2735 214.523 51.8683 213.774C51.4632 213.024 50.9046 212.368 50.2289 211.849C49.5533 211.33 48.7758 210.96 47.9472 210.762C47.1186 210.563 46.2575 210.542 45.4201 210.699C40.4201 211.779 36.8601 220.319 36.4201 224.879C36.4201 225.129 36.4202 227.669 36.4802 229.529C36.2302 228.479 35.9602 227.399 35.7402 226.389C34.9202 222.599 34.4002 219.079 33.9702 215.959C33.7402 214.179 33.5701 212.569 33.4201 211.059C34.6501 209.749 39.5502 204.389 40.7002 201.059C41.8502 197.729 42.3402 193.399 40.3302 190.399C39.8795 189.676 39.2818 189.055 38.5758 188.577C37.8698 188.1 37.0713 187.776 36.232 187.627C35.3928 187.478 34.5316 187.507 33.7043 187.713C32.8771 187.918 32.1023 188.295 31.4302 188.819C27.4902 192.089 28.2702 201.309 29.9701 205.559C30.1102 205.929 33.0702 211.409 33.1302 211.339L33.2101 211.259C33.3201 212.719 33.4601 214.259 33.6402 215.979C34.0101 219.109 34.4501 222.649 35.1901 226.479C35.9525 230.607 36.9542 234.687 38.1901 238.699C39.5412 243.196 41.2915 247.564 43.4201 251.749C43.4201 251.749 43.4802 251.849 43.5002 251.899C42.5002 250.829 39.3902 247.949 39.1302 247.759C35.4602 245.009 26.7702 241.859 22.5902 244.829C21.9072 245.34 21.3398 245.989 20.9249 246.734C20.51 247.479 20.257 248.303 20.1824 249.152C20.1078 250.002 20.2134 250.858 20.4922 251.663C20.7709 252.469 21.2166 253.207 21.8002 253.829C24.0002 256.569 28.4102 257.209 31.8202 256.999Z" fill="black"/>
<path opacity="0.1" d="M112.58 214.709C112.67 214.709 112.91 208.519 112.88 208.129C112.53 203.559 109.17 194.949 104.19 193.749C103.357 193.574 102.496 193.576 101.663 193.755C100.83 193.934 100.045 194.286 99.3569 194.789C98.6693 195.292 98.0953 195.934 97.672 196.673C97.2487 197.412 96.9858 198.232 96.9002 199.079C96.4202 202.669 98.8402 206.409 101.26 208.819C104.11 211.649 112.58 214.709 112.58 214.709Z" fill="black"/>
</g>
<g opacity="0.1">
<path opacity="0.1" d="M469.06 318.289C465.68 318.409 458.69 315.489 458.69 315.489C458.69 315.489 462.01 311.489 462.26 311.239C465.07 308.609 472.06 305.189 475.83 307.239C476.446 307.607 476.977 308.099 477.391 308.685C477.804 309.271 478.09 309.937 478.229 310.64C478.369 311.343 478.359 312.068 478.201 312.767C478.042 313.467 477.739 314.125 477.31 314.699C475.56 317.239 471.93 318.179 469.06 318.289Z" fill="black"/>
<path opacity="0.1" d="M458.61 337.749C455.45 337.019 449.88 332.749 449.43 332.379C446.971 335.577 444.298 338.604 441.43 341.439C439.78 343.109 438.07 344.729 436.33 346.339C437.23 345.719 438.04 345.179 438.17 345.119C441.58 343.319 449.22 341.869 452.3 344.889C452.797 345.405 453.181 346.02 453.425 346.694C453.67 347.367 453.77 348.085 453.719 348.8C453.668 349.515 453.467 350.211 453.13 350.843C452.792 351.475 452.325 352.029 451.76 352.469C449.42 354.419 445.67 354.359 442.87 353.709C440.07 353.059 435.19 349.479 433.93 348.519C433.25 349.129 432.59 349.749 431.93 350.349C428.69 353.269 425.44 356.159 422.33 359.099C421.24 360.099 420.2 361.189 419.16 362.239C419.96 361.699 420.64 361.239 420.75 361.179C424.16 359.389 431.81 357.939 434.89 360.959C435.387 361.474 435.77 362.088 436.015 362.761C436.259 363.434 436.359 364.151 436.308 364.865C436.257 365.579 436.057 366.274 435.719 366.906C435.382 367.537 434.915 368.09 434.35 368.529C432.01 370.529 428.26 370.429 425.45 369.779C422.64 369.129 418.25 365.889 416.74 364.779C415.74 365.889 414.67 367.009 413.74 368.129C413.1 368.909 412.44 369.619 411.85 370.449L410.05 372.829C408.97 374.379 407.84 375.979 406.82 377.519C406.1 378.589 405.44 379.619 404.76 380.659C405.84 379.609 407.99 377.659 408.19 377.469C411.29 375.179 418.62 372.589 422.13 375.099C422.699 375.535 423.17 376.086 423.513 376.715C423.856 377.345 424.063 378.039 424.121 378.754C424.178 379.468 424.085 380.187 423.847 380.863C423.609 381.539 423.232 382.158 422.74 382.679C420.74 384.959 417 385.479 414.13 385.249C410.98 385.009 405.04 381.769 404.3 381.359C403.19 383.079 402.13 384.759 401.16 386.359C400.44 387.539 399.75 388.689 399.1 389.789L396.6 388.789C397.35 387.569 398.15 386.309 398.99 384.979C400.11 383.229 401.34 381.389 402.62 379.499C401.032 378.012 399.536 376.429 398.14 374.759C395.21 376.179 388.92 376.759 388.14 376.759C388.14 378.759 388.21 380.759 388.29 382.659C388.29 383.659 388.37 384.599 388.41 385.529L385.77 384.529C385.77 383.939 385.77 383.369 385.77 382.759C385.77 380.679 385.77 378.459 385.77 376.189C384.95 376.049 378.27 374.879 375.65 373.099C373.27 371.479 370.65 368.759 370.53 365.719C370.468 365.005 370.557 364.286 370.792 363.608C371.027 362.931 371.401 362.31 371.892 361.788C372.383 361.265 372.978 360.851 373.64 360.574C374.301 360.297 375.013 360.163 375.73 360.179C380.03 360.399 384.15 366.999 385.15 370.719C385.21 370.939 385.58 373.389 385.79 374.949C385.79 374.009 385.79 373.109 385.84 372.149C385.84 370.259 385.98 368.369 386.07 366.339C386.16 365.339 386.24 364.339 386.32 363.339C386.4 362.339 386.57 361.339 386.7 360.279C387.03 357.899 387.49 355.509 388 353.109C386.34 353.109 380.45 352.839 377.84 351.599C375.23 350.359 372.28 348.069 371.66 345.079C371.493 344.383 371.473 343.66 371.604 342.955C371.734 342.251 372.011 341.582 372.416 340.992C372.822 340.402 373.347 339.904 373.957 339.529C374.568 339.155 375.25 338.913 375.96 338.819C380.25 338.379 385.32 344.279 386.87 347.819C386.97 348.039 387.8 350.699 388.22 352.159C388.54 350.719 388.85 349.279 389.22 347.839C390.29 343.659 391.5 339.469 392.69 335.279C393.06 333.989 393.4 332.709 393.76 331.429C393.17 331.429 386.16 331.299 383.24 329.909C380.64 328.669 377.67 326.369 377.06 323.389C376.889 322.693 376.868 321.968 376.997 321.263C377.126 320.558 377.402 319.888 377.808 319.297C378.214 318.706 378.74 318.207 379.352 317.834C379.965 317.46 380.649 317.22 381.36 317.129C385.65 316.689 390.72 322.589 392.27 326.129C392.38 326.389 393.57 330.219 393.82 331.199C394.6 328.379 395.35 325.549 395.97 322.739C396.836 318.947 397.454 315.102 397.82 311.229C397.54 311.229 390.23 311.129 387.24 309.699C384.64 308.469 381.67 306.169 381.05 303.189C380.881 302.492 380.861 301.768 380.99 301.063C381.12 300.357 381.396 299.687 381.802 299.096C382.207 298.504 382.733 298.005 383.344 297.63C383.956 297.255 384.639 297.013 385.35 296.919C389.65 296.479 394.71 302.389 396.26 305.919C396.39 306.199 397.66 310.319 397.84 311.079C397.84 310.849 397.9 310.619 397.92 310.399C398.179 306.502 398.089 302.59 397.65 298.709C397.44 296.569 397.12 294.529 396.76 292.549C395.4 292.669 389.16 293.159 386.32 292.179C383.48 291.199 380.4 289.279 379.46 286.379C379.216 285.705 379.117 284.987 379.169 284.272C379.221 283.557 379.423 282.861 379.762 282.229C380.1 281.597 380.568 281.044 381.134 280.604C381.701 280.165 382.354 279.85 383.05 279.679C387.26 278.769 392.95 284.079 394.88 287.419C394.98 287.599 395.88 289.559 396.45 290.999C396.28 290.109 396.11 289.189 395.93 288.339C395.24 285.149 394.41 282.269 393.66 279.729C393.22 278.289 392.79 276.989 392.38 275.729C390.98 275.149 385.38 272.729 383.38 270.609C381.38 268.489 379.46 265.309 379.96 262.309C380.052 261.598 380.293 260.914 380.668 260.301C381.042 259.689 381.542 259.163 382.133 258.757C382.725 258.351 383.396 258.075 384.102 257.946C384.808 257.817 385.533 257.839 386.23 258.009C390.39 259.149 392.99 266.479 393.17 270.329C393.17 270.669 392.82 275.889 392.75 275.859H392.66C393.08 277.019 393.52 278.259 393.97 279.629C394.78 282.159 395.67 285.029 396.43 288.209C397.296 291.635 397.964 295.107 398.43 298.609C398.954 302.529 399.132 306.488 398.96 310.439C398.954 310.486 398.954 310.533 398.96 310.579C399.4 309.389 400.75 306.119 400.88 305.879C402.73 302.509 408.3 297.069 412.54 297.879C413.239 298.035 413.898 298.337 414.473 298.764C415.049 299.191 415.528 299.734 415.88 300.358C416.231 300.983 416.448 301.674 416.515 302.387C416.582 303.101 416.499 303.82 416.27 304.499C415.39 307.419 412.27 309.499 409.54 310.499C406.49 311.629 399.47 311.119 398.92 311.079C398.576 315.088 397.968 319.07 397.1 322.999C396.64 325.299 396.1 327.599 395.54 329.899C395.95 328.899 396.33 327.989 396.4 327.899C398.26 324.519 403.83 319.089 408.06 319.899C408.76 320.054 409.42 320.354 409.996 320.781C410.572 321.208 411.052 321.751 411.404 322.376C411.756 323.001 411.972 323.693 412.039 324.407C412.105 325.121 412.02 325.84 411.79 326.519C410.91 329.429 407.79 331.459 405.06 332.459C402.33 333.459 396.33 333.169 394.74 333.059C394.52 333.939 394.3 334.829 394.07 335.699C392.97 339.919 391.86 344.129 390.89 348.289C390.55 349.759 390.26 351.209 389.98 352.669C390.35 351.769 390.66 351.019 390.72 350.909C392.58 347.529 398.15 342.099 402.39 342.909C403.089 343.065 403.748 343.367 404.323 343.794C404.899 344.221 405.378 344.764 405.73 345.388C406.081 346.013 406.298 346.704 406.365 347.417C406.432 348.131 406.349 348.85 406.12 349.529C405.24 352.439 402.12 354.469 399.38 355.469C396.64 356.469 391.24 356.199 389.38 356.089C389.13 357.589 388.88 359.089 388.7 360.559C388.61 361.559 388.45 362.559 388.4 363.559L388.22 366.559C388.17 368.459 388.11 370.409 388.11 372.259C388.11 373.549 388.11 374.779 388.11 376.009C388.43 374.549 389.11 371.699 389.21 371.469C390.493 368.334 392.559 365.579 395.21 363.469C395.337 363.121 395.498 362.786 395.69 362.469C396.034 361.841 396.505 361.292 397.075 360.858C397.644 360.424 398.299 360.114 398.995 359.949C399.692 359.784 400.416 359.768 401.119 359.9C401.823 360.033 402.491 360.312 403.08 360.719C406.56 363.279 406.35 371.059 405.08 374.719C405.01 374.929 403.97 377.189 403.29 378.599C403.82 377.829 404.29 377.079 404.87 376.289C405.95 374.739 407.07 373.209 408.28 371.569L410.12 369.229C410.72 368.439 411.45 367.669 412.12 366.879C413.72 365.089 415.42 363.339 417.17 361.619C415.8 360.669 411.02 357.229 409.53 354.759C408.04 352.289 406.83 348.759 407.97 345.909C408.214 345.241 408.595 344.63 409.089 344.118C409.583 343.605 410.179 343.201 410.838 342.933C411.498 342.664 412.206 342.537 412.917 342.559C413.629 342.581 414.328 342.751 414.97 343.059C418.79 345.059 419.76 352.779 419.11 356.579C419.11 356.809 418.29 359.489 417.84 360.939C418.9 359.939 419.95 358.889 421.06 357.889C424.26 354.989 427.58 352.159 430.88 349.329L433.88 346.699C433.39 346.369 427.61 342.399 425.94 339.629C424.45 337.169 423.25 333.629 424.38 330.789C424.624 330.121 425.005 329.51 425.499 328.997C425.993 328.485 426.588 328.081 427.247 327.811C427.906 327.542 428.614 327.413 429.326 327.434C430.038 327.454 430.737 327.623 431.38 327.929C435.2 329.929 436.17 337.649 435.52 341.449C435.52 341.739 434.35 345.579 434.02 346.539C436.23 344.619 438.41 342.669 440.48 340.669C443.343 337.96 446.022 335.064 448.5 331.999C448.27 331.839 442.23 327.729 440.5 324.889C439.01 322.419 437.8 318.889 438.93 316.039C439.175 315.366 439.56 314.752 440.058 314.236C440.556 313.721 441.157 313.315 441.821 313.047C442.486 312.778 443.199 312.652 443.916 312.676C444.632 312.701 445.335 312.876 445.98 313.189C449.8 315.189 450.77 322.909 450.12 326.709C450.07 327.009 448.86 331.139 448.59 331.869C448.73 331.699 448.89 331.529 449.03 331.349C451.395 328.243 453.48 324.934 455.26 321.459C456.26 319.549 457.12 317.669 457.91 315.829C456.7 315.179 451.23 312.139 449.41 309.759C447.59 307.379 446.07 304.069 446.88 301.139C447.047 300.442 447.359 299.787 447.797 299.218C448.234 298.65 448.786 298.179 449.418 297.839C450.049 297.498 450.745 297.294 451.461 297.241C452.176 297.188 452.895 297.286 453.57 297.529C457.57 299.099 459.4 306.659 459.17 310.529C459.17 310.739 458.79 312.849 458.51 314.379C458.85 313.549 459.22 312.689 459.51 311.879C460.69 308.879 461.59 305.979 462.37 303.439C462.8 301.999 463.16 300.679 463.48 299.439C462.63 298.179 459.27 293.079 458.76 290.179C458.25 287.279 458.42 283.589 460.49 281.369C460.96 280.828 461.539 280.392 462.188 280.089C462.838 279.786 463.544 279.623 464.261 279.61C464.978 279.598 465.689 279.737 466.349 280.018C467.008 280.298 467.602 280.714 468.09 281.239C470.94 284.489 469.09 292.039 467.09 295.339C466.92 295.629 463.73 299.789 463.69 299.729L463.63 299.649C463.35 300.849 463.02 302.119 462.63 303.509C462 305.999 461.12 308.919 460 311.999C458.825 315.33 457.456 318.589 455.9 321.759C454.178 325.318 452.14 328.715 449.81 331.909C449.783 331.948 449.753 331.985 449.72 332.019C450.72 331.279 453.67 329.289 453.91 329.159C457.32 327.369 464.97 325.909 468.05 328.929C468.547 329.445 468.931 330.06 469.175 330.734C469.42 331.407 469.52 332.125 469.469 332.84C469.418 333.555 469.217 334.251 468.88 334.883C468.542 335.515 468.075 336.069 467.51 336.509C465.17 338.459 461.41 338.409 458.61 337.749Z" fill="black"/>
<path opacity="0.1" d="M397.14 291.869C397.06 291.869 397.69 286.679 397.77 286.349C398.67 282.609 402.61 275.899 406.91 275.569C407.625 275.534 408.34 275.65 409.008 275.91C409.676 276.169 410.282 276.567 410.785 277.076C411.289 277.586 411.68 278.196 411.932 278.866C412.185 279.537 412.293 280.253 412.25 280.969C412.18 283.969 409.67 286.799 407.33 288.479C404.58 290.449 397.14 291.859 397.14 291.869Z" fill="black"/>
</g>
<path d="M208.65 33.3594L221.15 152.149" stroke="#263238" stroke-linecap="round" stroke-linejoin="round"/>
<path d="M246.14 58.5996L236.82 60.7396L228.29 77.6096L214.78 73.7496L214.4 77.4296L231.2 84.3996L237.21 76.0596V90.6096L255.25 91.3896L258.94 74.8996L265.53 80.7196V96.0396H269.41L271.74 76.8396L261.46 60.1596L246.14 58.5996Z" fill="white" stroke="#263238" stroke-linecap="round" stroke-linejoin="round"/>
<path d="M237.21 76.0596L237.07 67.8496" stroke="#263238" stroke-linecap="round" stroke-linejoin="round"/>
<path d="M246 63.9986L248.53 68.7486C248.53 68.7486 255.53 70.9686 256.77 71.2786C258.01 71.5886 261.84 70.3286 265 69.6986C268.16 69.0686 278.31 74.1286 278.31 74.1286L287.18 74.4486L282.43 68.7486L265.32 66.2086L256.45 69.0686L250.45 67.4786L251.73 64.9986L248.88 60.5586L246 63.9986Z" fill="black" stroke="#263238" stroke-linecap="round" stroke-linejoin="round"/>
<path d="M246.91 57.2392C246.395 57.1418 245.862 57.2507 245.426 57.5425C244.99 57.8343 244.686 58.2856 244.58 58.7992C244.2 60.7392 243.81 65.5892 243.81 65.5892L248.46 64.2292L253.9 66.5592C253.9 66.5592 255.64 61.5092 254.67 59.7692C253.7 58.0292 249.24 55.6892 246.91 57.2392Z" fill="white" stroke="#263238" stroke-linecap="round" stroke-linejoin="round"/>
<path d="M245.94 54.5293C245.94 54.5293 246.52 59.9593 246.72 61.8993C246.92 63.8393 248.08 66.7493 248.85 66.1693C249.62 65.5893 252.34 60.1693 252.34 60.1693L253.7 56.4893L245.94 54.5293Z" fill="white" stroke="#263238" stroke-linecap="round" stroke-linejoin="round"/>
<path d="M246 46.5991C246 46.5991 244.3 46.4491 244.3 49.2291C244.3 52.0091 245.53 52.1591 245.53 52.1591L246 46.5991Z" fill="white" stroke="#263238" stroke-linecap="round" stroke-linejoin="round"/>
<path d="M257.37 48.9199C257.59 48.9317 257.805 48.9916 258 49.0954C258.195 49.1992 258.364 49.3444 258.497 49.5207C258.629 49.6971 258.721 49.9003 258.767 50.1161C258.812 50.3319 258.81 50.5551 258.76 50.7699C258.45 52.4699 255.52 54.7699 255.52 54.7699L257.37 48.9199Z" fill="white" stroke="#263238" stroke-linecap="round" stroke-linejoin="round"/>
<path d="M251.76 40.9986C251.76 40.9986 248.66 40.2186 246.91 43.9086C245.16 47.5986 245.55 52.0586 245.91 54.5786C246.27 57.0986 248.63 58.2586 250.96 58.2586C253.29 58.2586 256.77 53.4186 257.55 49.7286C258.33 46.0386 257.77 40.9986 251.76 40.9986Z" fill="white" stroke="#263238" stroke-linecap="round" stroke-linejoin="round"/>
<path d="M211.03 71.599L211.8 77.419L215.29 77.809L214.71 71.209L211.03 71.599Z" fill="white" stroke="#263238" stroke-linecap="round" stroke-linejoin="round"/>
<path d="M214.78 71.5103L216.19 71.3203L216.47 74.4203L215.06 74.6103L214.78 71.5103Z" fill="white" stroke="#263238" stroke-linecap="round" stroke-linejoin="round"/>
<path d="M265.53 96.0391L263.41 99.3591L263.96 102.689L265.81 102.509L268.96 101.399L269.41 96.0391H265.53Z" fill="white" stroke="#263238" stroke-linecap="round" stroke-linejoin="round"/>
<path d="M237.21 90.6094L235.84 96.5894L220.66 116.569L230.84 145.259L233.43 144.699L231.21 117.309L243.61 104.169L245.09 105.099L245.13 119.759L259.34 143.779L262.3 143.029L255.64 119.899L256.01 95.2894L255.25 91.3894L237.21 90.6094Z" fill="#263238" stroke="#263238" stroke-linecap="round" stroke-linejoin="round"/>
<path d="M230.84 145.259L228.62 148.399C228.62 148.399 225.1 150.069 224.55 150.989C224 151.909 227.55 151.729 227.55 151.729L231.62 151.359L235.88 148.589L233.47 144.699L230.84 145.259Z" fill="white" stroke="#263238" stroke-linecap="round" stroke-linejoin="round"/>
<path d="M209.18 37.5898C209.18 37.5898 207.32 41.8298 199.64 44.7398C191.96 47.6498 180.84 49.2398 177.93 55.3298C175.02 61.4198 175.02 60.8998 174.49 64.3298C174.207 66.3349 173.276 68.1924 171.84 69.6198C171.84 69.6198 174.49 69.8898 175.84 68.0398C177.19 66.1898 177.7 60.8898 179.84 60.0898C181.98 59.2898 185.87 57.9998 185.87 57.9998C185.87 57.9998 182.17 61.1798 181.87 62.7698C181.57 64.3598 181.34 68.0698 180.81 70.4498C180.579 71.751 179.946 72.9471 179 73.8698C179 73.8698 182.44 73.8698 183.5 71.4898C184.56 69.1098 183.5 65.9298 186.94 63.5398C190.38 61.1498 194.09 62.2198 199.94 62.4798C205.79 62.7398 211.33 59.3098 211.33 59.3098L209.18 37.5898Z" fill="black" stroke="#263238" stroke-linecap="round" stroke-linejoin="round"/>
<path d="M259.34 143.779L256.79 152.249L263.12 151.999L262.3 143.029L259.34 143.779Z" fill="white" stroke="#263238" stroke-linecap="round" stroke-linejoin="round"/>
<path d="M249.64 48.43C249.53 48.93 249.18 49.28 248.84 49.21C248.5 49.14 248.32 48.67 248.43 48.21C248.54 47.75 248.89 47.36 249.23 47.43C249.57 47.5 249.74 47.93 249.64 48.43Z" fill="#263238"/>
<path d="M254.27 49.5101C254.16 50.0101 253.81 50.3601 253.47 50.2901C253.13 50.2201 252.95 49.7501 253.06 49.2901C253.17 48.8301 253.52 48.4401 253.86 48.5101C254.2 48.5801 254.37 49.0001 254.27 49.5101Z" fill="#263238"/>
<path d="M251.19 49.0703L249.96 52.7803H251.97" stroke="#263238" stroke-linecap="round" stroke-linejoin="round"/>
<path d="M248.42 53.8594C248.42 53.8594 249.5 55.7094 252.28 54.6294" stroke="#263238" stroke-linecap="round" stroke-linejoin="round"/>
<path d="M248.26 45.8299C248.662 45.6128 249.127 45.54 249.576 45.6237C250.026 45.7074 250.433 45.9425 250.73 46.2899" stroke="#263238" stroke-linecap="round" stroke-linejoin="round"/>
<path d="M253.05 46.9087C253.32 46.7603 253.619 46.6707 253.926 46.6458C254.234 46.6209 254.543 46.6612 254.834 46.7641C255.125 46.867 255.39 47.0302 255.614 47.243C255.837 47.4557 256.013 47.7132 256.13 47.9987" stroke="#263238" stroke-linecap="round" stroke-linejoin="round"/>
<path d="M245.33 45.3687L256.44 43.9987C256.44 43.9987 255.98 45.8487 256.6 46.3087C257.22 46.7687 257.37 48.9387 257.37 48.9387L256.91 51.4087L259.38 47.0887C259.38 47.0887 260.15 43.6887 259.53 42.6087C259.327 42.2827 259.057 42.0036 258.738 41.7899C258.419 41.5761 258.059 41.4325 257.68 41.3687C257.019 40.3682 256.087 39.5765 254.992 39.086C253.898 38.5955 252.687 38.4265 251.5 38.5987C247.18 39.0587 245.33 41.2187 245.33 42.9187V45.3687Z" fill="#263238" stroke="#263238" stroke-linecap="round" stroke-linejoin="round"/>
<path d="M237.13 465.199L256.73 352.729L182.75 284.839L209.6 193.359L180.86 193.999L168.72 204.859L143.35 204.239L139.92 216.609L132.96 215.739L130.56 220.079L118.69 243.779L112.52 267.449L89.5198 296.199L86.9998 364.039L49.9198 417.559L38.2598 465.199H237.13Z" fill="#808080" stroke="#39515E" stroke-linecap="round" stroke-linejoin="round"/>
<path d="M404.06 465.2L379.51 411.37L419.51 438.02V395.37L396 367.52L399.48 336.19L363.78 268.3L362 244.8L349.82 233.48L287.3 238L282.84 216.05L242.84 193.42L218.84 251.53L196.73 261.31L212.31 282.67L209.79 299.6L215 325.74L128 344.89C128 344.89 127.13 386.67 127.13 390.15C127.13 393.63 109.72 413.65 109.72 413.65L108.91 465.2H404.06Z" fill="#ABABAB" stroke="#39515E" stroke-linecap="round" stroke-linejoin="round"/>
<path d="M452.51 465.201L442.12 460.651L429.06 432.801L413.39 421.491L406.43 404.951L399.47 391.891L362.27 373.721L368.04 465.201H452.51Z" fill="#CCCCCC" stroke="#39515E" stroke-linecap="round" stroke-linejoin="round"/>
<path d="M63.1498 465.09H109.66L110.5 438.02L106.15 422.36V380.58L95.7098 378.84L86.9998 388.41L73.0798 396.25L42.9098 465.2H63.1498V465.09Z" fill="#CCCCCC" stroke="#39515E" stroke-linecap="round" stroke-linejoin="round"/>
<path d="M79.2397 419.77L80.2598 415.43" stroke="#39515E" stroke-miterlimit="10"/>
<path d="M63.1499 465.2L69.3499 440.71L75.1999 436.99L78.6199 422.41" stroke="#39515E" stroke-miterlimit="10"/>
<path d="M53.1097 465.46L62.9597 437.52" stroke="#39515E" stroke-miterlimit="10"/>
<path d="M95.8496 390.4L94.8896 394.94" stroke="#39515E" stroke-miterlimit="10"/>
<path d="M98.0798 379.779L96.2598 388.449" stroke="#39515E" stroke-miterlimit="10"/>
<path d="M109.66 465.09L110.5 438.02L106.15 422.36V380.58L97.4499 436.28L89.6099 438.89L86.9999 454.56L85.3799 465.09H109.66Z" fill="white" stroke="#39515E" stroke-linecap="round" stroke-linejoin="round"/>
<path d="M258.61 434.22C263.558 433.55 268.396 432.232 273 430.3C276.676 428.801 279.91 426.392 282.4 423.3C282.69 422.91 282.96 422.5 283.22 422.09L276.35 391.09L262.8 379.27L260.54 369.13L247.54 358.99L243.04 374.77L235.71 384.91L235.15 422.1L242.15 435.48C247.659 435.434 253.158 435.013 258.61 434.22Z" fill="white" stroke="#39515E" stroke-linecap="round" stroke-linejoin="round"/>
<path d="M258.61 434.22L257.23 422.64L261.3 411.67V405.17L260.48 395.01" stroke="#39515E" stroke-miterlimit="10"/>
<path d="M266.86 399.02L269.02 411.26L273.08 412.07L272.27 422.23L273.89 427.52" stroke="#39515E" stroke-miterlimit="10"/>
<path d="M265.36 390.539L266.08 394.619" stroke="#39515E" stroke-miterlimit="10"/>
<path d="M251.95 364.529L255.2 397.849" stroke="#39515E" stroke-miterlimit="10"/>
<path d="M212.25 433.39C221.599 434.811 231.043 435.513 240.5 435.49C242.4 435.49 244.26 435.44 246.09 435.37L245.89 424.91L242.51 420.41V388.29L248.15 382.65L247.58 359L240.82 371.4L231.82 379.28L226.18 395.62L217.18 406.33L214.92 417.6L204.22 426.6L199.95 431.15C203.983 432.01 208.083 432.757 212.25 433.39Z" fill="#CCCCCC" stroke="#39515E" stroke-linecap="round" stroke-linejoin="round"/>
<path d="M375.1 465.2L422.35 465.11L361.17 428.45L346.38 392.76L334.19 391.02L323.75 377.1L318.52 382.32L322 412.78L308.95 434.54V448.47L302.86 464.13L332.3 465.2H375.1Z" fill="white" stroke="#39515E" stroke-linecap="round" stroke-linejoin="round"/>
<path d="M351.4 465.141L349.17 452.691L352.68 445.341L351.72 430.971L354.6 433.851L374.08 465.141H351.4Z" fill="#CCCCCC" stroke="#39515E" stroke-linecap="round" stroke-linejoin="round"/>
<path d="M351.72 430.971L365.46 437.681L370.88 444.381L386.53 452.371L397.39 459.081L404.06 465.201L374.08 465.141L351.72 430.971Z" fill="white" stroke="#39515E" stroke-linecap="round" stroke-linejoin="round"/>
<path d="M308.95 434.54V448.47L302.39 464.92L327.24 465.24L322 435.41L332.45 425.84L318.52 382.32L322 412.78L308.95 434.54Z" fill="#CCCCCC" stroke="#39515E" stroke-linecap="round" stroke-linejoin="round"/>
<path d="M334.19 391.02L343.38 410.45L347.44 410.86L350.69 420.61" stroke="#39515E" stroke-miterlimit="10"/>
<path d="M340.36 449.801L341.76 454.341" stroke="#39515E" stroke-miterlimit="10"/>
<path d="M334.85 414.51L337.69 425.49L342.57 433.61L336.88 438.49L339.34 446.48" stroke="#39515E" stroke-miterlimit="10"/>
<path d="M218.74 191.25L198.34 213.56L197.64 172.66L217.95 148L218.74 191.25Z" fill="#CCCCCC" stroke="#39515E" stroke-linecap="round" stroke-linejoin="round"/>
<path d="M204.58 280.569L225.44 262.159C226.936 260.861 228.601 259.771 230.39 258.919C232.634 257.855 234.979 257.017 237.39 256.419C240.48 255.667 243.622 255.146 246.79 254.859C250.778 254.492 254.785 254.345 258.79 254.419C268.473 254.547 278.133 255.4 287.69 256.969C295.632 258.284 303.485 260.098 311.2 262.399C318.14 264.469 324.2 266.689 329.43 268.739C334.66 270.789 338.98 272.669 342.48 274.049L315.41 291.599C312.1 290.299 307.99 288.529 303.06 286.599C298.13 284.669 292.38 282.599 285.81 280.599C278.512 278.432 271.084 276.732 263.57 275.509C254.522 274.039 245.376 273.25 236.21 273.149C232.411 273.084 228.612 273.231 224.83 273.589C221.833 273.865 218.862 274.363 215.94 275.079C213.641 275.644 211.406 276.441 209.27 277.459C207.573 278.28 205.996 279.326 204.58 280.569Z" fill="#CCCCCC" stroke="#39515E" stroke-linecap="round" stroke-linejoin="round"/>
<path d="M271 431.111L247.46 440.111C249.517 439.347 251.488 438.368 253.34 437.191C254.98 436.145 256.457 434.861 257.72 433.381C258.912 431.979 259.834 430.369 260.44 428.631C261.063 426.78 261.354 424.833 261.3 422.881C261.283 419.475 260.238 416.153 258.3 413.351C255.815 410.056 252.641 407.343 249 405.401C243.755 402.536 238.242 400.191 232.54 398.401C225.74 396.111 217.54 393.851 207.89 391.501C194.747 388.44 181.877 384.307 169.41 379.141C158.151 374.527 147.581 368.382 138 360.881C129.2 354.007 121.952 345.351 116.73 335.481C111.435 324.992 108.694 313.401 108.73 301.651C108.68 296.879 109.014 292.11 109.73 287.391C110.413 282.855 111.484 278.385 112.93 274.031C114.354 269.765 116.151 265.632 118.3 261.681C120.465 257.727 122.972 253.97 125.79 250.451L142 230.121C136.022 237.558 131.423 246.004 128.42 255.061C126.874 259.664 125.73 264.391 125 269.191C124.259 274.189 123.925 279.239 124 284.291C123.992 296.747 126.921 309.029 132.55 320.141C138.088 330.604 145.768 339.783 155.09 347.081C164.57 354.711 175.84 361.081 188.37 366.411C201.561 371.896 215.18 376.291 229.09 379.551C239.34 382.051 247.97 384.461 255.16 386.891C261.196 388.809 267.027 391.317 272.57 394.381C277.05 396.991 280.26 399.751 282.38 402.791C284.446 405.752 285.566 409.27 285.59 412.881C285.657 414.949 285.352 417.011 284.69 418.971C284.053 420.8 283.083 422.495 281.83 423.971C280.493 425.527 278.933 426.875 277.2 427.971C275.25 429.233 273.171 430.286 271 431.111Z" fill="#CCCCCC" stroke="#39515E" stroke-linecap="round" stroke-linejoin="round"/>
<path d="M155.09 347.08C164.57 354.71 175.84 361.08 188.37 366.41C201.561 371.895 215.18 376.29 229.09 379.55C239.34 382.05 247.97 384.46 255.16 386.89C261.196 388.808 267.027 391.316 272.57 394.38C277.05 396.99 280.26 399.75 282.38 402.79C284.446 405.751 285.566 409.269 285.59 412.88C285.755 416.628 284.617 420.317 282.37 423.32C279.88 426.412 276.646 428.821 272.97 430.32C268.375 432.249 263.547 433.567 258.61 434.24C252.613 435.108 246.56 435.532 240.5 435.51C231.043 435.533 221.599 434.831 212.25 433.41C203.272 432.049 194.386 430.142 185.64 427.7C177.14 425.33 169.05 422.59 161.51 419.7C153.97 416.81 146.97 413.7 140.66 410.7L127.88 465H357.57C364.727 457.028 370.327 447.785 374.08 437.75C378.013 427.058 379.84 415.706 379.46 404.32C379.12 392.15 377.27 381.32 373.64 371.61C370.028 361.903 364.405 353.07 357.14 345.69C349.67 338.03 340.14 331.28 328.28 325.26C316.42 319.24 302.14 313.91 285.28 309.1C274.426 305.94 264.936 302.907 256.81 300C249.871 297.599 243.103 294.732 236.55 291.42C231.15 288.59 227.1 285.78 224.4 282.9C221.7 280.02 220.32 277.09 220.26 274.01C220.184 271.491 220.726 268.991 221.84 266.73C223.228 264.101 225.301 261.897 227.84 260.35C231.487 258.152 235.507 256.643 239.7 255.9C246.018 254.718 252.445 254.218 258.87 254.41C268.553 254.538 278.214 255.391 287.77 256.96C295.713 258.275 303.565 260.089 311.28 262.39C318.22 264.46 324.28 266.68 329.51 268.73C334.74 270.78 339.06 272.66 342.56 274.04L357.44 207.04C352.76 205.04 347.73 203.04 342.22 201.14C336.71 199.24 330.71 197.46 324.12 195.85C317.53 194.24 310.33 192.85 302.41 191.64C294.49 190.43 285.82 189.57 276.32 189.01L275.45 149.39L218 148L218.79 191.25C204.819 193.178 191.187 197.052 178.29 202.76C167.185 207.667 157.049 214.521 148.36 223C140.41 230.85 134.161 240.251 130 250.62C125.803 261.339 123.764 272.781 124 284.29C123.992 296.746 126.921 309.028 132.55 320.14C138.088 330.603 145.768 339.782 155.09 347.08Z" fill="white" stroke="#39515E" stroke-linecap="round" stroke-linejoin="round"/>
<path d="M127.88 465L140.66 410.67L124.29 420.91L113.87 465H127.88Z" fill="#CCCCCC" stroke="#39515E" stroke-linecap="round" stroke-linejoin="round"/>
<path d="M404.15 451.891C403.143 451.702 402.101 451.906 401.24 452.461L405.72 455.151C405.84 454.835 405.893 454.497 405.878 454.159C405.863 453.822 405.78 453.49 405.633 453.185C405.486 452.881 405.279 452.609 405.024 452.386C404.769 452.164 404.472 451.996 404.15 451.891Z" fill="#263238"/>
<path d="M405.41 416.491C405.41 416.491 406.01 413.971 406.03 413.811C406.23 411.921 405.5 408.141 403.55 407.271C403.222 407.136 402.869 407.072 402.515 407.083C402.16 407.094 401.812 407.18 401.493 407.335C401.174 407.49 400.891 407.71 400.663 407.982C400.435 408.253 400.267 408.57 400.17 408.911C399.7 410.341 400.41 412.051 401.22 413.221C402.18 414.601 405.41 416.481 405.41 416.491Z" fill="#263238"/>
<path d="M435.06 431.871C436.28 430.401 437.75 426.871 436.6 425.051C436.402 424.757 436.144 424.508 435.842 424.321C435.541 424.134 435.204 424.013 434.852 423.966C434.501 423.918 434.143 423.946 433.803 424.047C433.463 424.148 433.149 424.32 432.88 424.551C432.339 425.096 431.924 425.752 431.665 426.475C431.406 427.197 431.309 427.967 431.38 428.731C431.38 430.401 433.07 433.731 433.08 433.731C433.09 433.731 435 432.001 435.06 431.871Z" fill="#263238"/>
<path d="M393.86 445.771C395.273 446.673 396.818 447.348 398.44 447.771C398.31 448.511 398.18 449.251 398.02 449.961C398.02 450.141 397.93 450.321 397.89 450.511L398.83 451.071C398.89 450.781 398.95 450.481 399.02 450.191C399.25 449.021 399.44 447.831 399.59 446.631C401.195 447.223 402.882 447.56 404.59 447.631C405.363 447.611 406.121 447.421 406.812 447.075C407.504 446.73 408.11 446.237 408.59 445.631C408.782 445.331 408.909 444.994 408.962 444.643C409.016 444.291 408.995 443.932 408.9 443.588C408.806 443.245 408.641 442.926 408.415 442.65C408.189 442.375 407.908 442.151 407.59 441.991C405.66 441.081 402.32 442.991 401.01 444.381C400.93 444.471 400.11 445.571 399.67 446.191C399.76 445.461 399.85 444.741 399.92 444.001C400.11 441.881 400.24 439.721 400.37 437.571C400.37 436.921 400.46 436.261 400.51 435.571C400.79 435.671 404.07 436.771 405.67 436.571C407.08 436.421 408.85 435.841 409.67 434.571C409.862 434.272 409.989 433.936 410.042 433.585C410.095 433.234 410.074 432.875 409.98 432.533C409.886 432.19 409.72 431.872 409.495 431.597C409.269 431.323 408.988 431.099 408.67 430.941C406.74 430.031 403.4 431.941 402.09 433.331C402 433.441 400.81 435.031 400.53 435.441C400.63 434.001 400.75 432.561 400.92 431.141C401.135 429.232 401.469 427.338 401.92 425.471C402.05 425.471 405.48 426.681 407.11 426.471C408.53 426.321 410.29 425.741 411.11 424.471C411.302 424.172 411.429 423.836 411.482 423.485C411.535 423.134 411.514 422.775 411.42 422.433C411.326 422.09 411.16 421.772 410.935 421.497C410.709 421.223 410.428 420.999 410.11 420.841C408.18 419.921 404.84 421.841 403.54 423.231C403.43 423.341 402.16 425.051 401.95 425.371C401.95 425.261 402 425.151 402.03 425.041C402.554 423.184 403.24 421.377 404.08 419.641C404.53 418.641 405.02 417.771 405.51 416.911C406.13 417.191 408.96 418.451 410.44 418.461C411.92 418.471 413.68 418.091 414.6 416.891C414.825 416.616 414.99 416.298 415.084 415.955C415.177 415.613 415.198 415.255 415.144 414.904C415.091 414.553 414.964 414.217 414.772 413.919C414.58 413.62 414.327 413.365 414.03 413.171C412.22 412.051 408.69 413.591 407.24 414.831C407.16 414.901 406.43 415.671 405.91 416.241C406.14 415.851 406.37 415.451 406.6 415.081C407.45 413.711 408.31 412.511 409.08 411.441C409.52 410.841 409.93 410.311 410.32 409.811C412.046 409.777 413.756 409.477 415.39 408.921C416.65 408.271 418.09 407.091 418.39 405.611C418.457 405.267 418.452 404.913 418.376 404.571C418.299 404.23 418.152 403.908 417.944 403.626C417.736 403.344 417.472 403.108 417.169 402.933C416.865 402.758 416.528 402.649 416.18 402.611C414.05 402.461 411.63 405.451 410.91 407.211C410.85 407.371 410.15 409.861 410.19 409.861H410.24C409.85 410.331 409.44 410.861 409.01 411.401C408.21 412.451 407.32 413.641 406.44 415.001C405.48 416.458 404.602 417.967 403.81 419.521C402.916 421.262 402.18 423.079 401.61 424.951C401.61 424.951 401.61 425.001 401.61 425.021C401.61 424.391 401.52 422.651 401.5 422.511C401.19 420.631 399.5 417.181 397.38 416.861C397.028 416.819 396.671 416.851 396.332 416.955C395.994 417.06 395.68 417.234 395.413 417.467C395.145 417.699 394.929 417.985 394.779 418.306C394.629 418.627 394.547 418.976 394.54 419.331C394.47 420.841 395.61 422.331 396.7 423.221C397.94 424.221 401.29 425.221 401.56 425.221C401.029 427.139 400.625 429.09 400.35 431.061C400.18 432.211 400.05 433.371 399.94 434.541C399.94 434.001 399.88 433.541 399.87 433.451C399.56 431.571 397.87 428.111 395.75 427.801C395.398 427.757 395.041 427.788 394.702 427.892C394.363 427.996 394.05 428.17 393.783 428.403C393.516 428.636 393.301 428.923 393.152 429.245C393.004 429.567 392.925 429.916 392.92 430.271C392.85 431.771 393.99 433.271 395.08 434.151C396.539 435.054 398.127 435.729 399.79 436.151C399.79 436.591 399.7 437.041 399.67 437.491C399.48 439.641 399.31 441.781 399.07 443.881C398.99 444.621 398.88 445.351 398.77 446.071C398.77 445.591 398.77 445.191 398.77 445.131C398.46 443.251 396.77 439.801 394.65 439.481C394.298 439.437 393.941 439.468 393.602 439.572C393.263 439.676 392.95 439.85 392.683 440.083C392.416 440.316 392.201 440.603 392.052 440.925C391.904 441.247 391.825 441.596 391.82 441.951C391.63 443.391 392.77 444.861 393.86 445.771Z" fill="#263238"/>
<path d="M449.71 428.051C448.02 426.741 444.35 427.901 442.78 428.981C442.64 429.071 440.68 430.771 440.72 430.791C440.14 430.961 439.52 431.161 438.84 431.391C437.6 431.831 436.2 432.331 434.72 432.981C433.11 433.657 431.544 434.432 430.03 435.301C428.325 436.259 426.709 437.367 425.2 438.611L425.15 438.661C425.48 438.131 426.38 436.661 426.43 436.511C427.21 434.771 427.7 430.951 426.11 429.511C425.841 429.281 425.526 429.111 425.186 429.011C424.846 428.911 424.489 428.883 424.138 428.93C423.787 428.978 423.45 429.098 423.149 429.284C422.848 429.471 422.589 429.718 422.39 430.011C421.5 431.221 421.64 433.071 422.04 434.441C422.51 435.981 424.79 438.601 424.98 438.811C423.472 440.109 422.058 441.512 420.75 443.011C419.97 443.881 419.22 444.771 418.48 445.681C418.76 445.221 419 444.801 419.03 444.741C419.81 443.001 420.3 439.181 418.71 437.741C418.441 437.511 418.126 437.341 417.786 437.241C417.446 437.141 417.089 437.113 416.738 437.16C416.387 437.208 416.05 437.328 415.749 437.514C415.448 437.701 415.189 437.948 414.99 438.241C414.1 439.451 414.24 441.311 414.65 442.671C415.369 444.225 416.324 445.658 417.48 446.921L416.64 447.921C415.3 449.621 413.97 451.311 412.64 452.921C412.17 453.491 411.64 454.041 411.19 454.581L411.66 453.761C412.44 452.031 412.93 448.211 411.34 446.761C411.071 446.531 410.756 446.361 410.416 446.261C410.076 446.161 409.719 446.133 409.368 446.18C409.017 446.228 408.68 446.348 408.379 446.534C408.078 446.721 407.819 446.968 407.62 447.261C406.73 448.471 406.87 450.321 407.28 451.691C407.948 453.265 408.867 454.721 410 456.001L409 457.081L409.88 457.611C410.49 456.981 411.08 456.321 411.67 455.611C412.686 456.977 413.907 458.178 415.29 459.171C415.946 459.572 416.681 459.824 417.445 459.91C418.208 459.997 418.981 459.915 419.71 459.671C420.035 459.531 420.327 459.323 420.566 459.062C420.806 458.801 420.988 458.493 421.1 458.157C421.212 457.821 421.252 457.465 421.218 457.113C421.184 456.76 421.075 456.419 420.9 456.111C419.79 454.281 415.9 454.041 414.1 454.481C413.98 454.481 412.69 454.971 411.98 455.241C412.45 454.681 412.93 454.131 413.39 453.551C414.72 451.891 416.02 450.161 417.32 448.441L418.52 446.881C418.7 447.111 420.84 449.881 422.26 450.581C422.915 450.98 423.648 451.231 424.41 451.317C425.171 451.403 425.943 451.323 426.67 451.081C426.995 450.941 427.287 450.733 427.526 450.472C427.766 450.211 427.948 449.903 428.06 449.567C428.172 449.231 428.213 448.875 428.178 448.523C428.144 448.17 428.035 447.829 427.86 447.521C426.76 445.691 422.92 445.441 421.06 445.881C420.92 445.881 419.06 446.591 418.6 446.781C419.48 445.631 420.37 444.501 421.3 443.411C422.538 441.936 423.874 440.546 425.3 439.251C425.38 439.361 427.59 442.251 429.05 442.981C430.31 443.641 432.1 444.131 433.46 443.481C433.786 443.342 434.079 443.135 434.319 442.874C434.56 442.614 434.743 442.306 434.856 441.97C434.969 441.634 435.01 441.277 434.977 440.924C434.943 440.571 434.835 440.23 434.66 439.921C433.55 438.091 429.71 437.851 427.86 438.281C427.71 438.281 425.71 439.041 425.35 439.201L425.6 438.961C427.061 437.701 428.63 436.574 430.29 435.591C431.2 435.031 432.1 434.591 432.99 434.111C433.35 434.681 434.99 437.291 436.25 438.111C437.51 438.931 439.16 439.581 440.58 439.111C440.918 439.007 441.231 438.832 441.498 438.599C441.765 438.366 441.979 438.079 442.128 437.758C442.277 437.436 442.357 437.087 442.363 436.733C442.368 436.378 442.299 436.027 442.16 435.701C441.26 433.761 437.47 433.101 435.58 433.331C435.47 433.331 434.44 433.591 433.69 433.781C434.1 433.581 434.51 433.371 434.9 433.191C436.37 432.511 437.75 431.981 438.98 431.521L440.92 430.851C442.377 431.769 443.965 432.46 445.63 432.901C446.386 433.038 447.162 433.008 447.905 432.813C448.648 432.618 449.339 432.262 449.93 431.771C450.176 431.521 450.367 431.222 450.491 430.893C450.614 430.564 450.667 430.213 450.647 429.862C450.626 429.512 450.532 429.169 450.37 428.857C450.209 428.545 449.984 428.271 449.71 428.051Z" fill="#263238"/>
<path d="M398.72 465.16L399.87 465.87L400.58 465.35L400.85 465.15L398.72 465.16Z" fill="#263238"/>
<path d="M67.4099 399C67.113 399.193 66.8599 399.446 66.6671 399.743C66.4742 400.04 66.3458 400.374 66.2902 400.724C66.2346 401.074 66.253 401.431 66.3442 401.773C66.4355 402.115 66.5975 402.435 66.8199 402.71C67.5347 403.537 68.534 404.065 69.6199 404.19L71.7699 399.28C70.2599 398.6 68.5199 398.28 67.4099 399Z" fill="#263238"/>
<path d="M77.36 392.551C76.6837 393.057 76.2032 393.781 76 394.601L79.77 392.491C79.3987 392.287 78.9802 392.186 78.5569 392.196C78.1337 392.207 77.7207 392.329 77.36 392.551Z" fill="#263238"/>
<path d="M77.9999 356.811C79.2799 357.891 82.8899 358.871 82.8899 358.871C82.8899 358.871 82.8199 356.291 82.7899 356.131C82.4899 354.251 80.7899 350.791 78.6999 350.461C78.3478 350.415 77.9899 350.443 77.6497 350.545C77.3095 350.647 76.9948 350.82 76.7263 351.052C76.4579 351.285 76.2419 351.572 76.0925 351.894C75.9432 352.216 75.8639 352.566 75.8599 352.921C75.8199 354.421 76.9999 355.891 77.9999 356.811Z" fill="#263238"/>
<path d="M51.67 368.15C51.67 368.15 50.18 366.04 50.07 365.92C48.79 364.52 45.47 362.56 43.53 363.45C43.2125 363.608 42.9318 363.83 42.7062 364.104C42.4806 364.377 42.3152 364.695 42.2209 365.037C42.1265 365.378 42.1052 365.736 42.1585 366.086C42.2118 366.437 42.3384 366.772 42.53 367.07C43.29 368.37 45.04 368.97 46.46 369.14C48.11 369.33 51.67 368.16 51.67 368.15Z" fill="#263238"/>
<path d="M49.79 360.172C49.89 360.772 50 361.412 50.13 362.112C50.39 363.402 50.69 364.852 51.13 366.412C51.5755 368.11 52.1232 369.78 52.77 371.412C53.484 373.232 54.3574 374.985 55.38 376.652V376.712C54.91 376.312 53.54 375.212 53.38 375.142C51.77 374.142 48.05 373.142 46.38 374.482C46.1152 374.718 45.9033 375.008 45.7582 375.332C45.6131 375.656 45.5381 376.007 45.5381 376.362C45.5381 376.717 45.6131 377.068 45.7582 377.392C45.9033 377.716 46.1152 378.005 46.38 378.242C47.46 379.292 49.31 379.412 50.72 379.242C52.31 379.002 55.22 377.092 55.45 376.942C56.5404 378.61 57.7362 380.206 59.03 381.722C59.78 382.602 60.56 383.472 61.36 384.332L60.5 383.652C58.89 382.652 55.17 381.652 53.5 383.002C53.2366 383.239 53.0259 383.529 52.8817 383.853C52.7376 384.177 52.6631 384.527 52.6631 384.882C52.6631 385.236 52.7376 385.587 52.8817 385.911C53.0259 386.234 53.2366 386.524 53.5 386.762C54.1106 387.226 54.8154 387.552 55.565 387.716C56.3146 387.88 57.091 387.879 57.84 387.712C59.4796 387.212 61.034 386.467 62.45 385.502C62.76 385.822 63.06 386.152 63.37 386.502C64.86 388.062 66.37 389.612 67.77 391.182C68.27 391.732 68.77 392.292 69.22 392.852L68.47 392.272C66.86 391.272 63.14 390.272 61.47 391.612C61.2066 391.849 60.9959 392.139 60.8517 392.463C60.7076 392.787 60.6331 393.137 60.6331 393.492C60.6331 393.846 60.7076 394.197 60.8517 394.521C60.9959 394.845 61.2066 395.134 61.47 395.372C62.55 396.422 64.41 396.542 65.81 396.372C67.4081 395.894 68.9227 395.172 70.3 394.232C70.77 394.812 71.24 395.402 71.67 396.002C71.95 396.412 72.25 396.782 72.51 397.212V397.272L72.89 396.412L73.11 396.282L72.46 395.402C71.74 394.452 70.97 393.522 70.17 392.612C71.6523 391.79 73.0011 390.749 74.17 389.522C74.657 388.927 75.0086 388.233 75.2003 387.489C75.392 386.745 75.4192 385.968 75.28 385.212C75.1856 384.87 75.0205 384.553 74.7952 384.28C74.57 384.007 74.2897 383.784 73.9727 383.627C73.6558 383.469 73.3091 383.38 72.9554 383.365C72.6017 383.351 72.2489 383.411 71.92 383.542C69.92 384.382 69.18 388.152 69.36 390.042C69.36 390.162 69.65 391.512 69.82 392.252C69.33 391.702 68.82 391.152 68.35 390.612C66.88 389.062 65.35 387.542 63.83 386.012L62.45 384.612C62.7 384.462 65.7 382.732 66.63 381.422C67.1796 380.838 67.5887 380.136 67.8261 379.37C68.0635 378.604 68.123 377.794 68 377.002C67.9054 376.66 67.7402 376.343 67.5151 376.07C67.2901 375.796 67.0101 375.573 66.6934 375.415C66.3767 375.256 66.0303 375.166 65.6766 375.15C65.3229 375.134 64.9697 375.193 64.64 375.322C62.64 376.162 61.9 379.932 62.08 381.832C62.08 381.972 62.49 383.912 62.62 384.402C61.62 383.402 60.62 382.322 59.62 381.262C58.3347 379.828 57.1454 378.312 56.06 376.722C56.18 376.652 59.32 374.852 60.27 373.522C60.7568 372.929 61.1083 372.237 61.3 371.494C61.4918 370.752 61.5191 369.976 61.38 369.222C61.2903 368.874 61.1278 368.55 60.9033 368.271C60.6788 367.991 60.3974 367.762 60.0778 367.6C59.7582 367.437 59.4077 367.344 59.0494 367.327C58.6912 367.31 58.3335 367.37 58 367.502C56 368.342 55.26 372.112 55.44 374.012C55.44 374.162 55.89 376.242 55.99 376.612L55.79 376.342C54.7459 374.717 53.8458 373.003 53.1 371.222C52.68 370.222 52.33 369.282 52.01 368.342C53.6158 367.686 55.1102 366.785 56.44 365.672C56.9864 365.135 57.4091 364.486 57.6786 363.769C57.948 363.052 58.0577 362.285 58 361.522C57.9388 361.175 57.8059 360.845 57.6099 360.553C57.4139 360.26 57.159 360.012 56.8616 359.824C56.5642 359.636 56.2308 359.512 55.8827 359.46C55.5346 359.408 55.1795 359.429 54.84 359.522C52.84 360.142 51.62 363.802 51.58 365.712C51.58 365.812 51.68 366.872 51.76 367.642C51.63 367.212 51.48 366.772 51.35 366.362C50.88 364.822 50.55 363.362 50.27 362.092C50.11 361.362 49.98 360.702 49.87 360.092C50.9847 358.776 51.8887 357.295 52.55 355.702C52.793 354.974 52.8732 354.202 52.7851 353.44C52.697 352.678 52.4426 351.945 52.04 351.292C51.8293 351.007 51.5608 350.769 51.252 350.595C50.9433 350.421 50.6012 350.314 50.2482 350.28C49.8953 350.247 49.5393 350.289 49.2036 350.403C48.8679 350.517 48.56 350.701 48.3 350.942C46.77 352.432 47.4 356.222 48.3 357.942C48.36 358.002 49.77 360.202 49.79 360.172Z" fill="#263238"/>
<path d="M76.1901 367.581C77.6501 368.251 81.1301 368.271 81.4101 368.281C81.3885 370.286 81.5021 372.291 81.7501 374.281C81.8901 375.431 82.0701 376.591 82.2601 377.741C82.0901 377.231 81.9401 376.741 81.9101 376.741C81.1301 375.001 78.5901 372.111 76.4701 372.351C76.119 372.4 75.7822 372.523 75.4816 372.712C75.1811 372.9 74.9234 373.149 74.7254 373.443C74.5274 373.737 74.3934 374.07 74.3322 374.419C74.271 374.769 74.2839 375.127 74.3701 375.471C74.6901 376.941 76.1701 378.061 77.4701 378.661C79.1106 379.154 80.8174 379.39 82.5301 379.361C82.6101 379.801 82.6801 380.241 82.7601 380.681C83.1401 382.811 83.5301 384.921 83.8501 387.011C83.9601 387.751 84.0401 388.481 84.1301 389.211L83.8301 388.311C83.0401 386.571 80.5001 383.681 78.3801 383.921C78.0335 383.971 77.7012 384.093 77.4043 384.279C77.1074 384.464 76.8525 384.71 76.6558 385C76.4592 385.29 76.3251 385.617 76.2621 385.962C76.1991 386.306 76.2087 386.66 76.2901 387.001C76.6101 388.471 78.0901 389.591 79.3801 390.191C80.4804 390.577 81.6343 390.79 82.8001 390.821L85.1301 389.511L86.9701 388.511L92.0001 383.001C91.8863 382.958 91.7693 382.925 91.6501 382.901C89.5501 382.521 86.8201 385.231 85.9201 386.901C85.9201 387.011 85.3601 388.291 85.0901 388.991C84.9901 388.271 84.8901 387.551 84.7601 386.821C84.4001 384.721 83.9601 382.611 83.5401 380.491C83.4001 379.851 83.2801 379.201 83.1601 378.551C83.4501 378.551 86.9101 378.781 88.4001 378.211C89.7301 377.701 91.2901 376.681 91.7001 375.211C91.8034 374.874 91.8347 374.519 91.7922 374.169C91.7497 373.819 91.6342 373.482 91.4533 373.179C91.2723 372.877 91.0299 372.616 90.7417 372.413C90.4535 372.21 90.1259 372.069 89.7801 372.001C87.6801 371.621 84.9601 374.331 84.0601 376.001C83.9901 376.131 83.2601 378.001 83.0601 378.451C82.7901 377.021 82.5301 375.601 82.3301 374.191C82.0473 372.287 81.8903 370.366 81.8601 368.441C82.0001 368.441 85.6101 368.681 87.1401 368.101C87.8754 367.871 88.5517 367.484 89.1217 366.966C89.6917 366.447 90.1417 365.811 90.4401 365.101C90.5502 364.764 90.5881 364.408 90.5513 364.055C90.5144 363.703 90.4037 363.362 90.2263 363.056C90.0489 362.749 89.8088 362.483 89.5217 362.276C89.2346 362.068 88.9069 361.923 88.5601 361.851C86.4601 361.461 83.7301 364.181 82.8301 365.851C82.7601 365.981 81.9801 367.961 81.8301 368.331C81.8301 368.221 81.8301 368.101 81.8301 367.991C81.8599 366.061 82.054 364.138 82.4101 362.241C82.6001 361.191 82.8401 360.241 83.0901 359.241C83.7601 359.351 86.8201 359.831 88.2501 359.451C89.6801 359.071 91.2501 358.251 91.8601 356.861C92.0055 356.538 92.0815 356.188 92.0832 355.834C92.0849 355.48 92.0122 355.129 91.8699 354.805C91.7275 354.481 91.5187 354.19 91.2569 353.952C90.9951 353.713 90.6862 353.532 90.3501 353.421C88.3501 352.811 85.3501 355.211 84.2201 356.781C84.1601 356.861 83.6601 357.781 83.3001 358.481C83.4201 358.051 83.5401 357.601 83.6601 357.191C84.1301 355.651 84.6601 354.261 85.1101 353.031C85.3901 352.341 85.6501 351.721 85.8901 351.141C86.6101 350.901 89.4701 349.941 90.5501 348.961C91.6301 347.981 92.6901 346.491 92.5501 344.961C92.5308 344.607 92.4372 344.26 92.2754 343.945C92.1136 343.629 91.8872 343.351 91.6109 343.128C91.3346 342.905 91.0146 342.743 90.6716 342.653C90.3286 342.562 89.9704 342.544 89.6201 342.601C87.5201 343.001 85.9601 346.521 85.7201 348.411C85.7201 348.581 85.7201 351.171 85.7201 351.161C85.4701 351.721 85.2101 352.311 84.9301 352.971C84.4401 354.191 83.9301 355.571 83.3901 357.111C82.8378 358.767 82.3804 360.453 82.0201 362.161C81.6426 364.086 81.4352 366.04 81.4001 368.001V368.071C81.2301 367.471 80.6901 365.801 80.6401 365.681C79.8501 363.941 77.3101 361.051 75.1901 361.291C74.8392 361.34 74.5026 361.463 74.2024 361.651C73.9022 361.84 73.6451 362.089 73.4478 362.384C73.2506 362.678 73.1177 363.011 73.0578 363.36C72.9978 363.709 73.0123 364.067 73.1001 364.411C73.4201 365.861 74.9001 367.001 76.1901 367.581Z" fill="#263238"/>
<path d="M221.22 389.76C220.869 389.81 220.533 389.932 220.232 390.121C219.932 390.309 219.675 390.559 219.478 390.853C219.28 391.147 219.148 391.48 219.088 391.83C219.028 392.179 219.042 392.537 219.13 392.88C219.38 393.606 219.786 394.267 220.32 394.819C220.854 395.37 221.503 395.797 222.22 396.07C223.204 396.424 224.236 396.626 225.28 396.67L226.17 395.61L226.67 394.16C225.88 392.41 223.34 389.52 221.22 389.76Z" fill="#263238"/>
<path d="M210.25 404.871C209.953 405.064 209.7 405.318 209.507 405.615C209.315 405.912 209.186 406.246 209.131 406.595C209.075 406.945 209.093 407.303 209.185 407.645C209.276 407.987 209.438 408.306 209.66 408.581C210.56 409.791 212.38 410.181 213.8 410.181C214.73 410.113 215.644 409.904 216.51 409.561L217.09 406.641L217.03 406.581C215.59 405.331 212.07 403.771 210.25 404.871Z" fill="#263238"/>
<path d="M220.2 398.47C218.57 399.47 218.25 402.69 218.54 404.67L223.33 398.98C222.952 398.539 222.431 398.246 221.858 398.153C221.285 398.06 220.698 398.172 220.2 398.47Z" fill="#263238"/>
<path d="M205.43 391.322C205.74 391.642 206.04 391.972 206.35 392.322C207.84 393.882 209.35 395.432 210.75 397.002C211.25 397.552 211.75 398.112 212.2 398.672L211.45 398.092C209.84 397.092 206.12 396.092 204.45 397.432C204.187 397.669 203.976 397.959 203.832 398.283C203.688 398.607 203.613 398.957 203.613 399.312C203.613 399.666 203.688 400.017 203.832 400.341C203.976 400.664 204.187 400.954 204.45 401.192C205.53 402.242 207.39 402.362 208.79 402.192C210.388 401.714 211.903 400.992 213.28 400.052C213.75 400.642 214.22 401.222 214.65 401.822C214.93 402.232 215.23 402.602 215.49 403.032L216.28 404.272C216.64 404.892 217.01 405.512 217.36 406.122L218.13 405.212C217.83 404.712 217.52 404.212 217.19 403.682L216.37 402.452C216.11 402.042 215.78 401.632 215.48 401.222C214.76 400.222 213.99 399.342 213.19 398.432C214.672 397.61 216.021 396.568 217.19 395.342C217.677 394.747 218.029 394.053 218.221 393.309C218.412 392.565 218.439 391.788 218.3 391.032C218.211 390.692 218.053 390.375 217.834 390.101C217.616 389.826 217.343 389.601 217.032 389.438C216.722 389.275 216.381 389.179 216.031 389.155C215.681 389.132 215.33 389.182 215 389.302C213 390.142 212.26 393.912 212.44 395.802C212.44 395.922 212.73 397.272 212.9 398.012C212.41 397.462 211.9 396.912 211.43 396.382C209.96 394.832 208.43 393.302 206.91 391.772L205.53 390.372C205.78 390.222 208.78 388.492 209.71 387.182C210.198 386.589 210.549 385.897 210.741 385.155C210.933 384.412 210.96 383.636 210.82 382.882C210.726 382.54 210.56 382.223 210.335 381.95C210.11 381.676 209.83 381.453 209.514 381.295C209.197 381.136 208.851 381.046 208.497 381.03C208.143 381.014 207.79 381.073 207.46 381.202C205.46 382.042 204.72 385.812 204.9 387.712C204.9 387.852 205.31 389.792 205.44 390.282C204.44 389.282 203.44 388.202 202.44 387.142C201.155 385.708 199.966 384.192 198.88 382.602C199 382.532 202.14 380.732 203.09 379.402C203.577 378.809 203.929 378.117 204.12 377.374C204.312 376.632 204.339 375.856 204.2 375.102C204.106 374.76 203.94 374.443 203.715 374.17C203.49 373.896 203.21 373.673 202.894 373.515C202.577 373.356 202.231 373.266 201.877 373.25C201.523 373.234 201.17 373.293 200.84 373.422C198.84 374.262 198.1 378.032 198.28 379.932C198.28 380.082 198.73 382.162 198.83 382.532L198.63 382.262C197.586 380.637 196.686 378.923 195.94 377.142C195.52 376.142 195.17 375.202 194.85 374.262C196.454 373.606 197.948 372.709 199.28 371.602C200.23 370.532 201.14 368.922 200.85 367.442C200.789 367.095 200.656 366.765 200.46 366.473C200.264 366.18 200.009 365.932 199.712 365.744C199.414 365.556 199.081 365.432 198.733 365.379C198.385 365.327 198.03 365.349 197.69 365.442C195.69 366.062 194.47 369.732 194.43 371.632C194.43 371.732 194.53 372.792 194.61 373.562C194.48 373.132 194.33 372.692 194.2 372.282C193.73 370.742 193.4 369.282 193.12 368.012C192.96 367.282 192.83 366.622 192.72 366.012C193.835 364.695 194.739 363.215 195.4 361.622C195.643 360.894 195.723 360.122 195.635 359.36C195.547 358.598 195.293 357.865 194.89 357.212C194.679 356.927 194.411 356.689 194.102 356.515C193.793 356.341 193.451 356.233 193.098 356.2C192.745 356.167 192.389 356.209 192.054 356.323C191.718 356.437 191.41 356.621 191.15 356.862C189.62 358.352 190.25 362.152 191.15 363.862C191.23 364.012 192.64 366.182 192.66 366.152C192.76 366.752 192.87 367.392 193 368.092C193.26 369.382 193.56 370.832 194 372.392C194.446 374.09 194.993 375.76 195.64 377.392C196.356 379.214 197.229 380.971 198.25 382.642C198.254 382.658 198.254 382.675 198.25 382.692C197.78 382.292 196.41 381.192 196.3 381.122C194.69 380.122 190.97 379.122 189.3 380.472C189.037 380.708 188.827 380.997 188.682 381.32C188.538 381.643 188.464 381.993 188.464 382.347C188.464 382.7 188.538 383.05 188.682 383.373C188.827 383.696 189.037 383.985 189.3 384.222C190.38 385.282 192.23 385.392 193.64 385.222C195.23 384.982 198.14 383.072 198.37 382.922C199.461 384.59 200.656 386.186 201.95 387.702C202.7 388.582 203.48 389.452 204.28 390.312L203.42 389.632C201.81 388.632 198.09 387.632 196.42 388.982C196.155 389.218 195.943 389.508 195.798 389.832C195.653 390.156 195.578 390.507 195.578 390.862C195.578 391.217 195.653 391.568 195.798 391.892C195.943 392.216 196.155 392.505 196.42 392.742C197.49 393.792 199.35 393.912 200.75 393.692C202.424 393.149 204.003 392.35 205.43 391.322Z" fill="#263238"/>
<path d="M220.88 362.73C222.16 363.81 225.77 364.79 225.77 364.79C225.77 364.79 225.7 362.21 225.67 362.05C225.37 360.17 223.67 356.71 221.58 356.38C221.228 356.335 220.871 356.364 220.531 356.467C220.192 356.569 219.878 356.742 219.61 356.975C219.342 357.207 219.126 357.493 218.976 357.814C218.826 358.136 218.745 358.485 218.74 358.84C218.66 360.34 219.79 361.81 220.88 362.73Z" fill="#263238"/>
<path d="M194.51 374.08C194.51 374.08 193.02 371.96 192.91 371.84C191.63 370.44 188.31 368.48 186.37 369.37C186.052 369.528 185.772 369.75 185.546 370.024C185.32 370.297 185.155 370.615 185.061 370.957C184.966 371.298 184.945 371.656 184.998 372.006C185.052 372.357 185.178 372.692 185.37 372.99C186.13 374.29 187.88 374.89 189.3 375.06C191 375.25 194.51 374.08 194.51 374.08Z" fill="#263238"/>
<path d="M219 373.501C220.46 374.171 223.94 374.201 224.22 374.201C224.201 376.19 224.314 378.177 224.56 380.151C224.7 381.301 224.88 382.461 225.07 383.621C224.9 383.101 224.75 382.621 224.72 382.621C223.94 380.881 221.4 377.991 219.28 378.231C218.929 378.281 218.592 378.403 218.292 378.592C217.991 378.78 217.733 379.029 217.535 379.323C217.337 379.618 217.203 379.95 217.142 380.299C217.081 380.649 217.094 381.007 217.18 381.351C217.5 382.821 218.98 383.941 220.28 384.541C221.921 385.034 223.627 385.27 225.34 385.241C225.42 385.681 225.49 386.121 225.57 386.561C225.95 388.691 226.34 390.811 226.66 392.891C226.66 393.201 226.73 393.511 226.77 393.821L227.4 392.021C227.06 390.161 226.68 388.291 226.31 386.421C226.18 385.781 226.05 385.131 225.93 384.491C227.294 384.573 228.662 384.543 230.02 384.401L231.78 379.311L233.17 378.101C232.987 378.011 232.791 377.947 232.59 377.911C230.49 377.531 227.77 380.241 226.87 381.911C226.8 382.041 226.07 383.911 225.87 384.361C225.6 382.931 225.34 381.511 225.14 380.101C224.857 378.197 224.7 376.276 224.67 374.351C224.81 374.351 228.42 374.591 229.95 374.011C230.685 373.781 231.362 373.394 231.932 372.876C232.502 372.358 232.952 371.721 233.25 371.011C233.36 370.674 233.398 370.318 233.361 369.966C233.324 369.613 233.214 369.273 233.036 368.966C232.859 368.659 232.619 368.393 232.332 368.186C232.045 367.978 231.717 367.833 231.37 367.761C229.27 367.371 226.54 370.091 225.64 371.761C225.57 371.891 224.79 373.871 224.64 374.241C224.64 374.131 224.64 374.021 224.64 373.901C224.67 371.971 224.864 370.048 225.22 368.151C225.41 367.151 225.65 366.151 225.9 365.151C226.57 365.261 229.63 365.741 231.06 365.361C232.49 364.981 234.06 364.161 234.67 362.771C234.815 362.448 234.891 362.098 234.893 361.744C234.895 361.39 234.822 361.04 234.68 360.715C234.538 360.391 234.329 360.1 234.067 359.862C233.805 359.623 233.496 359.442 233.16 359.331C231.16 358.721 228.16 361.121 227.03 362.691C226.97 362.771 226.47 363.691 226.11 364.391C226.23 363.961 226.35 363.511 226.47 363.101C226.94 361.561 227.47 360.171 227.92 358.941C228.2 358.251 228.46 357.631 228.7 357.051C229.42 356.811 232.28 355.851 233.36 354.871C234.44 353.891 235.5 352.401 235.36 350.871C235.341 350.517 235.247 350.17 235.085 349.855C234.924 349.539 234.697 349.261 234.421 349.038C234.145 348.816 233.825 348.654 233.482 348.563C233.139 348.472 232.78 348.454 232.43 348.511C230.33 348.911 228.77 352.431 228.54 354.321C228.54 354.491 228.49 357.081 228.54 357.071C228.29 357.631 228.03 358.221 227.76 358.881C227.26 360.101 226.71 361.481 226.21 363.021C225.658 364.677 225.2 366.363 224.84 368.071C224.434 369.986 224.196 371.934 224.13 373.891V374.001C223.96 373.401 223.42 371.731 223.37 371.611C222.58 369.871 220.04 366.981 217.92 367.221C217.569 367.27 217.233 367.393 216.932 367.582C216.632 367.77 216.375 368.019 216.178 368.314C215.981 368.608 215.848 368.941 215.788 369.29C215.728 369.64 215.742 369.998 215.83 370.341C216.26 371.781 217.74 372.901 219 373.501Z" fill="#263238"/>
<path d="M370.64 286.161L366.65 281.211L370.24 278.381L372.65 281.391L371.83 283.301L372.51 284.821L371.1 285.831" fill="white"/>
<path d="M370.64 286.161L366.65 281.211L370.24 278.381L372.65 281.391L371.83 283.301L372.51 284.821L371.1 285.831" stroke="#263238" stroke-linecap="round" stroke-linejoin="round"/>
<path d="M403 294.75C403 294.75 400.27 292.31 399.25 292.47C398.23 292.63 384.85 294.87 384.85 294.87L372.54 284.82L370.66 286.16L382.44 300.94L395.24 300.14L392.49 314.14L380.84 323L399.84 334.35L403.67 322.27L418.8 307.37L412.92 300L403 294.75Z" fill="black" stroke="#263238" stroke-linecap="round" stroke-linejoin="round"/>
<path d="M406.9 291.521L404.75 296.042L403.96 295.322L402.45 306.311L412.93 299.961L411.88 298.301L412.12 294.871L406.9 291.521Z" fill="white" stroke="#263238" stroke-linecap="round" stroke-linejoin="round"/>
<path d="M402.45 306.31L408.58 302.59L403.46 298.99L402.45 306.31Z" fill="white" stroke="#263238" stroke-linecap="round" stroke-linejoin="round"/>
<path d="M419 280.751C419 280.751 423.63 275.331 428.34 278.751C433.05 282.171 431.75 285.511 435.11 283.681C438.47 281.851 444.78 277.201 448.58 283.121C452.38 289.041 449.45 295.241 447.06 296.661C444.67 298.081 445.3 295.371 445.35 294.061C445.4 292.751 441.48 291.061 440.61 293.761C439.74 296.461 435.17 300.621 429.37 300.231C423.57 299.841 422.45 292.711 422.58 288.521C422.572 287.264 422.236 286.03 421.607 284.941C420.978 283.852 420.076 282.946 418.99 282.311L419 280.751Z" fill="#263238" stroke="#263238" stroke-linecap="round" stroke-linejoin="round"/>
<path d="M407.9 279.631C407.9 279.631 405 286.091 405.6 289.901C406.2 293.711 405.88 296.641 407.82 297.381C409.76 298.121 416.19 294.231 417.61 291.661C419.03 289.091 421.06 285.381 420.5 281.821C419.94 278.261 413.12 273.081 407.9 279.631Z" fill="white" stroke="#263238" stroke-linecap="round" stroke-linejoin="round"/>
<path d="M409 286.411C408.85 286.911 408.53 287.251 408.28 287.171C408.03 287.091 407.95 286.631 408.1 286.171C408.25 285.711 408.57 285.331 408.82 285.411C409.07 285.491 409.11 285.911 409 286.411Z" fill="#263238"/>
<path d="M413.62 288.331C413.47 288.831 413.14 289.181 412.89 289.101C412.64 289.021 412.56 288.561 412.71 288.101C412.86 287.641 413.19 287.261 413.44 287.331C413.69 287.401 413.77 287.831 413.62 288.331Z" fill="#263238"/>
<path d="M410.17 287.24C410.17 287.24 410.47 287.46 410.05 288.24C409.63 289.02 408.62 288.74 408.73 289.41C408.84 290.08 410.11 290.41 410.11 290.41" stroke="#263238" stroke-linecap="round" stroke-linejoin="round"/>
<path d="M407.84 291.57C407.84 291.57 409.45 293.09 410.89 292.72" stroke="#263238" stroke-linecap="round" stroke-linejoin="round"/>
<path d="M415.14 286.731L412.15 285.971" stroke="#263238" stroke-linecap="round" stroke-linejoin="round"/>
<path d="M409.79 284.841L408.36 283.561" stroke="#263238" stroke-linecap="round" stroke-linejoin="round"/>
<path d="M407.9 279.631C407.9 279.631 407.47 280.631 406.97 282.001C408.66 281.121 411.57 280.131 414.23 281.771C416.89 283.411 418.23 287.181 418.77 289.491C419.9 287.201 420.91 284.491 420.5 281.821C419.94 278.261 413.12 273.081 407.9 279.631Z" fill="#263238" stroke="#263238" stroke-linecap="round" stroke-linejoin="round"/>
<path d="M418.08 289.39C418.08 289.39 420.16 287.48 420.08 289.22C420 290.96 417.61 291.99 417.08 292.07C416.55 292.15 416.59 291.48 416.59 291.48" fill="white"/>
<path d="M418.08 289.39C418.08 289.39 420.16 287.48 420.08 289.22C420 290.96 417.61 291.99 417.08 292.07C416.55 292.15 416.59 291.48 416.59 291.48" stroke="#263238" stroke-linecap="round" stroke-linejoin="round"/>
<path d="M418.79 307.381L415.59 330.191C415.52 330.677 415.281 331.122 414.915 331.449C414.55 331.777 414.08 331.965 413.59 331.981H412.9C412.368 332.001 411.848 331.816 411.448 331.465C411.048 331.113 410.798 330.621 410.75 330.091L409.5 316.371L418.79 307.381Z" fill="black" stroke="#263238" stroke-linecap="round" stroke-linejoin="round"/>
<path d="M413 327.06L402.73 318L400.43 319.93L410.29 331.34C410.506 331.573 410.772 331.754 411.069 331.869C411.365 331.983 411.684 332.028 412 332H412.81C413.121 331.987 413.424 331.905 413.699 331.76C413.974 331.615 414.213 331.411 414.399 331.162C414.585 330.913 414.713 330.625 414.773 330.32C414.834 330.016 414.826 329.701 414.75 329.4" fill="black"/>
<path d="M413 327.06L402.73 318L400.43 319.93L410.29 331.34C410.506 331.573 410.772 331.754 411.069 331.869C411.365 331.983 411.684 332.028 412 332H412.81C413.121 331.987 413.424 331.905 413.699 331.76C413.974 331.615 414.213 331.411 414.399 331.162C414.585 330.913 414.713 330.625 414.773 330.32C414.834 330.016 414.826 329.701 414.75 329.4V329.4" stroke="#263238" stroke-linecap="round" stroke-linejoin="round"/>
<path d="M402.73 317.991L400.32 314.141L394.9 313.541L394.93 316.771L397.53 318.941L399.18 319.171L400.43 319.921L402.73 317.991Z" fill="white" stroke="#263238" stroke-linecap="round" stroke-linejoin="round"/>
<path d="M373.71 330C373.71 330 362.39 344.73 363.01 347.17C363.63 349.61 380.17 375.44 380.17 375.44L382.47 373.92L373.38 345.54L391.65 338.27L373.71 330Z" fill="white" stroke="#263238" stroke-linecap="round" stroke-linejoin="round"/>
<path d="M382.83 335.461L384.17 341.351L390.22 339.031L382.83 335.461Z" fill="#263238" stroke="#263238" stroke-miterlimit="10"/>
<path d="M380.17 375.391L377.17 380.391C377.17 380.391 374.78 383.971 375.48 384.191C377.01 384.681 380.97 382.081 382.1 381.281C383.23 380.481 384.44 379.951 385.19 379.421C385.94 378.891 387.44 378.581 385.39 376.681C384.7 376.051 382.51 373.871 382.51 373.871L380.17 375.391Z" fill="white" stroke="#263238" stroke-linecap="round" stroke-linejoin="round"/>
<path d="M398.86 325.301C393.764 323.268 388.552 321.542 383.25 320.131C374.08 317.641 367.3 315.711 367.43 318.001C367.56 320.291 384.24 357.181 384.24 357.181L387.1 356.271L382.74 335.931C382.74 335.931 389.74 340.831 394.91 338.401C400.08 335.971 402.05 329.401 401.69 327.161" fill="#263238"/>
<path d="M398.86 325.301C393.764 323.268 388.552 321.542 383.25 320.131C374.08 317.641 367.3 315.711 367.43 318.001C367.56 320.291 384.24 357.181 384.24 357.181L387.1 356.271L382.74 335.931C382.74 335.931 389.74 340.831 394.91 338.401C400.08 335.971 402.05 329.401 401.69 327.161" stroke="#263238" stroke-linecap="round" stroke-linejoin="round"/>
<path d="M381.3 319.6C373.14 317.39 367.3 315.87 367.43 318C367.56 320.29 384.24 357.18 384.24 357.18L387.1 356.27L382.74 335.93C384.23 332.3 382.65 324.67 381.3 319.6Z" fill="white" stroke="#263238" stroke-linecap="round" stroke-linejoin="round"/>
<path d="M382.74 335.93L375.55 325.5" stroke="#263238" stroke-linecap="round" stroke-linejoin="round"/>
<path d="M384.24 357.181L381.56 362.232C381.56 362.232 376.15 367.471 377.35 367.741C378.55 368.011 388.72 363.642 389.48 362.602C390.24 361.562 387.1 356.271 387.1 356.271L384.24 357.181Z" fill="white" stroke="#263238" stroke-linecap="round" stroke-linejoin="round"/>
<path d="M371.8 283.721L397.02 313.751" stroke="#263238" stroke-miterlimit="10"/>
<path d="M294.2 190.721L368.21 279.281" stroke="#263238" stroke-miterlimit="10"/>
<path d="M399.18 319.16V465.16" stroke="#263238" stroke-miterlimit="10"/>
<path d="M158.33 278.59C158.33 278.59 163.65 309.72 157.87 319.59C152.09 329.46 137.59 322.36 137.59 322.36V464.16" stroke="#263238" stroke-miterlimit="10"/>
<path d="M126.39 290.239C126.39 290.239 131.1 289.699 131.46 290.789C131.658 291.682 131.658 292.607 131.46 293.499C131.46 293.499 134.17 296.399 134.17 298.389C134.17 300.379 131.28 301.289 131.28 301.289L130.74 305.989L123.5 306.349L122.59 300.739C122.59 300.739 119.87 290.059 126.39 290.239Z" fill="white" stroke="#263238" stroke-linecap="round" stroke-linejoin="round"/>
<path d="M127.84 298.001L125.84 295.101C126.511 294.01 126.884 292.762 126.92 291.481C126.92 289.481 126.74 285.871 122.58 285.871C118.42 285.871 115.7 289.131 114.8 296.191C113.9 303.251 118.05 306.691 124.03 305.421C130.01 304.151 127.84 298.001 127.84 298.001Z" fill="#263238" stroke="#263238" stroke-linecap="round" stroke-linejoin="round"/>
<path d="M127.66 296.76C127.66 296.76 124.58 296.4 124.76 298.76C124.808 299.267 125.008 299.748 125.334 300.139C125.661 300.53 126.098 300.813 126.589 300.951C127.079 301.089 127.6 301.074 128.082 300.91C128.565 300.745 128.986 300.439 129.29 300.03" fill="white"/>
<path d="M127.66 296.76C127.66 296.76 124.58 296.4 124.76 298.76C124.808 299.267 125.008 299.748 125.334 300.139C125.661 300.53 126.098 300.813 126.589 300.951C127.079 301.089 127.6 301.074 128.082 300.91C128.565 300.745 128.986 300.439 129.29 300.03" stroke="#263238" stroke-linecap="round" stroke-linejoin="round"/>
<path d="M123.37 308.121L116.7 310.001C116.7 310.001 116.18 311.301 115.4 313.001C114.35 315.311 111.46 320.001 111.46 320.001L98.1101 323.811L93.8201 337.641L92.8701 343.361L100.49 339.541L100.97 326.201L112.97 324.351L118.12 311.351L123.37 308.121Z" fill="#263238" stroke="#263238" stroke-linecap="round" stroke-linejoin="round"/>
<path d="M134 306.17C134 306.17 128.75 303.82 124.77 304.36C120.79 304.9 121.15 306.9 121.15 306.9L121.33 309.61C121.33 309.61 128 307.62 134 306.17Z" fill="black" stroke="#263238" stroke-linecap="round" stroke-linejoin="round"/>
<path d="M116.07 319.391L119.82 336.731C119.849 336.939 119.927 337.137 120.047 337.309C120.168 337.481 120.327 337.621 120.513 337.719C120.699 337.817 120.905 337.869 121.115 337.871C121.325 337.873 121.533 337.825 121.72 337.731L130.19 333.501L116.07 319.391Z" fill="black" stroke="#263238" stroke-linecap="round" stroke-linejoin="round"/>
<path d="M125.49 328.621L123.5 332.601" stroke="#263238" stroke-linecap="round" stroke-linejoin="round"/>
<path d="M143.04 346.179L153.97 364.259L152.52 388.709L157.77 388.529L163.02 359.369L155.35 338.939L143.04 346.179Z" fill="#263238" stroke="#263238" stroke-linecap="round" stroke-linejoin="round"/>
<path d="M121.32 309.611C121.32 309.611 116.07 318.661 116.07 319.391C116.07 320.121 136.53 339.841 136.53 339.841L152.1 329.521L142.32 312.521L156.4 298.701L157.48 280.051L154.95 279.871L150.42 293.451L135.42 305.271L121.32 309.611Z" fill="black" stroke="#263238" stroke-linecap="round" stroke-linejoin="round"/>
<path d="M154.95 279.87L155.13 275.71L159.65 272.27L160.02 273.17V275.89L160.2 278.06L157.48 280.05L154.95 279.87Z" fill="white" stroke="#263238" stroke-linecap="round" stroke-linejoin="round"/>
<path d="M136.53 339.84C136.53 339.84 139.97 345.63 142.53 347.44C145.09 349.25 153 343.64 155 342C157 340.36 164.6 330.6 164.6 330.6L171.66 360.68L176.01 358.87C176.01 358.87 173.46 318.87 172.2 317.75C170.94 316.63 151.38 329.33 151.38 329.33L136.53 339.84Z" fill="#263238" stroke="#263238" stroke-linecap="round" stroke-linejoin="round"/>
<path d="M176 358.879H182.15C183.24 358.879 185.95 357.249 186.15 358.519C186.35 359.789 180.9 363.219 178.72 364.309C176.627 365.122 174.44 365.67 172.21 365.939L171.66 360.689L176 358.879Z" fill="white" stroke="#263238" stroke-linecap="round" stroke-linejoin="round"/>
<path d="M157.77 388.529L160.85 394.139C160.85 394.139 164.65 395.769 164.65 396.499C164.65 397.229 158.5 396.859 157.95 396.859C157.4 396.859 151.26 390.859 151.26 390.859L152.52 388.679L157.77 388.529Z" fill="white" stroke="#263238" stroke-linecap="round" stroke-linejoin="round"/>
<path d="M159.65 272.27L218.74 191.25" stroke="#263238" stroke-miterlimit="10"/>
<path d="M12 465.199H486" stroke="#263238" stroke-linecap="round" stroke-linejoin="round"/>
</svg>
