<svg width="371" height="247" viewBox="0 0 371 247" fill="none" xmlns="http://www.w3.org/2000/svg">
<path d="M298.591 151.48C298.591 151.48 292.511 148.106 292.061 155.748C291.611 163.391 290.483 213.102 290.483 213.102" stroke="#263238" stroke-width="2" stroke-linecap="round" stroke-linejoin="round"/>
<path d="M288.885 156.424C288.885 156.424 293.832 167.445 291.591 212.424" stroke="#263238" stroke-width="2" stroke-linecap="round" stroke-linejoin="round"/>
<path d="M293.778 153.015C293.778 153.015 291.448 154.497 290.127 152.803C288.806 151.108 291.022 147.976 289.068 146.643C287.114 145.309 283.736 147.344 283.736 147.344C283.736 147.344 286.333 148.105 286.249 149.523C286.165 150.94 284.913 151.499 284.765 150.856C284.616 150.214 283.355 147.117 281.243 148.416C280.635 148.776 280.107 149.254 279.69 149.823C279.272 150.392 278.974 151.039 278.814 151.726C278.814 151.726 283.726 151.202 284.023 153.05C284.32 154.897 282.01 152.729 279.981 152.61C277.953 152.492 276.103 152.788 276.237 154.013C276.282 155.097 276.217 156.183 276.044 157.254C277.153 156.33 278.557 155.836 280.001 155.861C282.232 155.989 282.148 157.407 280.12 157.288C278.092 157.17 276.351 159.096 276.351 159.096C276.351 159.096 278.201 162.253 280.55 163.814C282.9 165.375 283.746 164.802 284.013 163.612C284.28 162.421 283.657 159.324 285.076 159.408C286.496 159.492 282.727 164.758 284.537 165.069C286.348 165.38 287.807 164.851 288.282 163.661L288.777 162.47C288.777 162.47 288.143 159.388 288.42 158.182C288.697 156.977 289.029 158.217 289.35 159.664C289.672 161.112 289.875 164.575 290.493 164.407C291.111 164.239 293.095 161.715 293.56 160.727C294.025 159.739 290.948 156.71 290.983 156.103C291.017 155.495 293.392 156.651 293.763 157.283C294.032 157.764 294.274 158.259 294.49 158.765C294.49 158.765 295.974 157.837 295.934 154.991C295.895 152.146 293.778 153.015 293.778 153.015Z" fill="white"/>
<path opacity="0.3" d="M293.778 153.015C293.778 153.015 291.448 154.497 290.127 152.803C288.806 151.108 291.022 147.976 289.068 146.643C287.114 145.309 283.736 147.344 283.736 147.344C283.736 147.344 286.333 148.105 286.249 149.523C286.165 150.94 284.913 151.499 284.765 150.856C284.616 150.214 283.355 147.117 281.243 148.416C280.635 148.776 280.107 149.254 279.69 149.823C279.272 150.392 278.974 151.039 278.814 151.726C278.814 151.726 283.726 151.202 284.023 153.05C284.32 154.897 282.01 152.729 279.981 152.61C277.953 152.492 276.103 152.788 276.237 154.013C276.282 155.097 276.217 156.183 276.044 157.254C277.153 156.33 278.557 155.836 280.001 155.861C282.232 155.989 282.148 157.407 280.12 157.288C278.092 157.17 276.351 159.096 276.351 159.096C276.351 159.096 278.201 162.253 280.55 163.814C282.9 165.375 283.746 164.802 284.013 163.612C284.28 162.421 283.657 159.324 285.076 159.408C286.496 159.492 282.727 164.758 284.537 165.069C286.348 165.38 287.807 164.851 288.282 163.661L288.777 162.47C288.777 162.47 288.143 159.388 288.42 158.182C288.697 156.977 289.029 158.217 289.35 159.664C289.672 161.112 289.875 164.575 290.493 164.407C291.111 164.239 293.095 161.715 293.56 160.727C294.025 159.739 290.948 156.71 290.983 156.103C291.017 155.495 293.392 156.651 293.763 157.283C294.032 157.764 294.274 158.259 294.49 158.765C294.49 158.765 295.974 157.837 295.934 154.991C295.895 152.146 293.778 153.015 293.778 153.015Z" fill="#263238"/>
<path d="M281.985 159.689C283.503 157.817 285.734 155.283 287.609 154.072" stroke="#263238" stroke-linecap="round" stroke-linejoin="round"/>
<path d="M280.224 161.973C280.224 161.973 280.615 161.429 281.248 160.619" stroke="#263238" stroke-linecap="round" stroke-linejoin="round"/>
<path d="M288.599 154.537C288.599 154.537 290.854 157.718 291.27 160.994" stroke="#263238" stroke-linecap="round" stroke-linejoin="round"/>
<path d="M286.046 156.419C286.046 156.419 286.679 156.053 286.442 160.099" stroke="#263238" stroke-linecap="round" stroke-linejoin="round"/>
<path d="M287.693 152.645C287.693 152.645 288.979 151.499 288.302 149.227" stroke="#263238" stroke-linecap="round" stroke-linejoin="round"/>
<path d="M285.952 154.586L285.032 152.906" stroke="#263238" stroke-linecap="round" stroke-linejoin="round"/>
<path d="M284.018 156.3C284.018 156.3 281.099 154.097 279.274 153.988" stroke="#263238" stroke-linecap="round" stroke-linejoin="round"/>
<path d="M302.068 147.014C302.068 147.014 301.974 150.353 299.362 150.516C296.751 150.679 295.138 146.337 292.467 147.379C289.796 148.422 289.538 153.189 289.538 153.189C289.538 153.189 292.071 151.109 293.436 152.161C294.802 153.213 294.485 154.829 293.748 154.572C293.011 154.315 289.039 153.431 288.905 156.424C288.85 157.277 288.968 158.132 289.253 158.938C289.538 159.744 289.983 160.483 290.562 161.113C290.562 161.113 293.387 155.846 295.445 156.805C297.503 157.763 293.748 158.598 292.244 160.544C290.74 162.491 289.771 164.541 291.102 165.247C292.218 165.941 293.263 166.745 294.218 167.648C294.218 167.648 293.862 164.892 295.514 162.753C297.166 160.614 298.527 161.661 297.028 163.607C295.529 165.554 296.271 168.606 296.271 168.606C296.271 168.606 300.693 168.913 303.859 167.618C307.025 166.324 307.045 165.104 306.026 164.007C305.007 162.911 301.485 161.444 302.533 160.08C303.582 158.717 306.293 166.077 307.841 164.477C309.389 162.876 309.849 161.063 308.984 159.774L308.113 158.484C308.113 158.484 304.591 157.002 303.572 155.921C302.553 154.839 304.022 155.333 305.689 155.995C307.356 156.657 310.962 158.815 311.22 158.084C311.477 157.353 310.295 153.638 309.622 152.512C308.949 151.386 303.814 152.384 303.231 151.934C302.647 151.484 305.422 149.899 306.308 149.958C307.193 150.017 308.286 150.23 308.286 150.23C308.286 150.23 308.365 148.12 305.486 146.214C302.607 144.307 302.068 147.014 302.068 147.014Z" fill="white"/>
<path opacity="0.2" d="M302.068 147.014C302.068 147.014 301.974 150.353 299.362 150.516C296.751 150.679 295.138 146.337 292.467 147.379C289.796 148.422 289.538 153.189 289.538 153.189C289.538 153.189 292.071 151.109 293.436 152.161C294.802 153.213 294.485 154.829 293.748 154.572C293.011 154.315 289.039 153.431 288.905 156.424C288.85 157.277 288.968 158.132 289.253 158.938C289.538 159.744 289.983 160.483 290.562 161.113C290.562 161.113 293.387 155.846 295.445 156.805C297.503 157.763 293.748 158.598 292.244 160.544C290.74 162.491 289.771 164.541 291.102 165.247C292.218 165.941 293.263 166.745 294.218 167.648C294.218 167.648 293.862 164.892 295.514 162.753C297.166 160.614 298.527 161.661 297.028 163.607C295.529 165.554 296.271 168.606 296.271 168.606C296.271 168.606 300.693 168.913 303.859 167.618C307.025 166.324 307.045 165.104 306.026 164.007C305.007 162.911 301.485 161.444 302.533 160.08C303.582 158.717 306.293 166.077 307.841 164.477C309.389 162.876 309.849 161.063 308.984 159.774L308.113 158.484C308.113 158.484 304.591 157.002 303.572 155.921C302.553 154.839 304.022 155.333 305.689 155.995C307.356 156.657 310.962 158.815 311.22 158.084C311.477 157.353 310.295 153.638 309.622 152.512C308.949 151.386 303.814 152.384 303.231 151.934C302.647 151.484 305.422 149.899 306.308 149.958C307.193 150.017 308.286 150.23 308.286 150.23C308.286 150.23 308.365 148.12 305.486 146.214C302.607 144.307 302.068 147.014 302.068 147.014Z" fill="#263238"/>
<path d="M300.718 163.356C299.877 160.56 298.858 156.598 298.927 153.9" stroke="#263238" stroke-linecap="round" stroke-linejoin="round"/>
<path d="M301.806 166.666C301.806 166.666 301.529 165.91 301.148 164.725" stroke="#263238" stroke-linecap="round" stroke-linejoin="round"/>
<path d="M300.065 153.229C300.065 153.229 304.789 153.145 308.355 154.958" stroke="#263238" stroke-linecap="round" stroke-linejoin="round"/>
<path d="M300.213 157.062C300.213 157.062 300.273 156.182 304.171 159.181" stroke="#263238" stroke-linecap="round" stroke-linejoin="round"/>
<path d="M297.562 152.853C297.562 152.853 297.295 150.784 294.549 149.914" stroke="#263238" stroke-linecap="round" stroke-linejoin="round"/>
<path d="M298.309 155.911L295.999 155.684" stroke="#263238" stroke-linecap="round" stroke-linejoin="round"/>
<path d="M298.71 159.008C298.71 159.008 294.51 160.431 293.159 162.179" stroke="#263238" stroke-linecap="round" stroke-linejoin="round"/>
<path d="M274.045 169.244C274.045 169.244 287.332 178.018 287.105 211.975" stroke="#263238" stroke-width="2" stroke-linecap="round" stroke-linejoin="round"/>
<path d="M290.429 166.926C290.429 166.926 290.003 170.77 286.966 170.715C283.929 170.661 282.484 165.489 279.309 166.442C276.133 167.396 275.376 172.864 275.376 172.864C275.376 172.864 278.497 170.706 279.977 172.044C281.456 173.383 280.931 175.221 280.105 174.855C279.279 174.49 274.783 173.097 274.342 176.54C274.199 177.52 274.257 178.519 274.512 179.476C274.767 180.433 275.214 181.328 275.826 182.107C275.826 182.107 279.586 176.293 281.866 177.592C284.147 178.891 279.739 179.504 277.82 181.608C275.9 183.713 274.599 185.99 276.054 186.929C277.28 187.832 278.41 188.858 279.427 189.991C279.427 189.991 279.274 186.775 281.406 184.463C283.538 182.152 284.987 183.475 283.073 185.59C281.159 187.704 281.728 191.291 281.728 191.291C281.728 191.291 286.808 192.061 290.582 190.876C294.356 189.69 294.49 188.277 293.417 186.924C292.343 185.57 288.42 183.535 289.761 182.063C291.102 180.591 293.53 189.334 295.469 187.635C297.409 185.936 298.111 183.885 297.23 182.315L296.305 180.744C296.305 180.744 292.383 178.713 291.309 177.355C290.236 175.996 291.883 176.722 293.743 177.641C295.603 178.56 299.565 181.396 299.926 180.571C300.288 179.746 299.273 175.369 298.625 173.991C297.977 172.612 291.938 173.299 291.304 172.726C290.671 172.153 294.03 170.582 295.044 170.75C295.799 170.876 296.547 171.041 297.285 171.244C297.285 171.244 297.572 168.814 294.431 166.344C291.29 163.874 290.429 166.926 290.429 166.926Z" fill="white"/>
<path opacity="0.3" d="M290.429 166.926C290.429 166.926 290.003 170.77 286.966 170.715C283.929 170.661 282.484 165.489 279.309 166.442C276.133 167.396 275.376 172.864 275.376 172.864C275.376 172.864 278.497 170.706 279.977 172.044C281.456 173.383 280.931 175.221 280.105 174.855C279.279 174.49 274.783 173.097 274.342 176.54C274.199 177.52 274.257 178.519 274.512 179.476C274.767 180.433 275.214 181.328 275.826 182.107C275.826 182.107 279.586 176.293 281.866 177.592C284.147 178.891 279.739 179.504 277.82 181.608C275.9 183.713 274.599 185.99 276.054 186.929C277.28 187.832 278.41 188.858 279.427 189.991C279.427 189.991 279.274 186.775 281.406 184.463C283.538 182.152 284.987 183.475 283.073 185.59C281.159 187.704 281.728 191.291 281.728 191.291C281.728 191.291 286.808 192.061 290.582 190.876C294.356 189.69 294.49 188.277 293.417 186.924C292.343 185.57 288.42 183.535 289.761 182.063C291.102 180.591 293.53 189.334 295.469 187.635C297.409 185.936 298.111 183.885 297.23 182.315L296.305 180.744C296.305 180.744 292.383 178.713 291.309 177.355C290.236 175.996 291.883 176.722 293.743 177.641C295.603 178.56 299.565 181.396 299.926 180.571C300.288 179.746 299.273 175.369 298.625 173.991C297.977 172.612 291.938 173.299 291.304 172.726C290.671 172.153 294.03 170.582 295.044 170.75C295.799 170.876 296.547 171.041 297.285 171.244C297.285 171.244 297.572 168.814 294.431 166.344C291.29 163.874 290.429 166.926 290.429 166.926Z" fill="#263238"/>
<path d="M287.332 185.654C286.62 182.354 285.823 177.685 286.15 174.578" stroke="#263238" stroke-linecap="round" stroke-linejoin="round"/>
<path d="M288.272 189.577C288.272 189.577 288.025 188.678 287.693 187.275" stroke="#263238" stroke-linecap="round" stroke-linejoin="round"/>
<path d="M287.53 173.887C287.53 173.887 292.971 174.237 296.929 176.668" stroke="#263238" stroke-linecap="round" stroke-linejoin="round"/>
<path d="M287.337 178.334C287.337 178.334 287.491 177.346 291.705 181.15" stroke="#263238" stroke-linecap="round" stroke-linejoin="round"/>
<path d="M284.676 173.24C284.676 173.24 284.562 170.829 281.48 169.564" stroke="#263238" stroke-linecap="round" stroke-linejoin="round"/>
<path d="M285.25 176.837L282.608 176.357" stroke="#263238" stroke-linecap="round" stroke-linejoin="round"/>
<path d="M285.423 180.453C285.423 180.453 280.441 181.693 278.715 183.585" stroke="#263238" stroke-linecap="round" stroke-linejoin="round"/>
<path d="M279.224 196.008C279.224 196.008 287.782 202.529 288.683 212.201L286.907 179.814" stroke="#263238" stroke-width="2" stroke-linecap="round" stroke-linejoin="round"/>
<path d="M299.941 191.287C288.683 189.261 288.683 212.203 288.683 212.203" stroke="#263238" stroke-width="2" stroke-linecap="round" stroke-linejoin="round"/>
<path d="M290.033 211.975C290.033 211.975 283.503 164.521 302.4 164.521" stroke="#263238" stroke-width="2" stroke-linecap="round" stroke-linejoin="round"/>
<path d="M295.652 189.918C294.114 188.193 290.844 188.193 288.925 192.61C287.006 197.026 288.732 196.256 288.732 196.256C288.732 196.256 292.383 195.105 294.668 194.334C296.953 193.563 300.05 191.647 300.243 192.802C300.436 193.958 298.705 195.105 296.587 195.49C294.47 195.875 288.9 197.407 289.474 198.563C290.048 199.718 291.398 203.167 291.398 203.167C293.042 201.775 294.775 200.493 296.587 199.328C299.09 197.792 300.629 198.37 299.283 200.094C297.938 201.818 294.089 203.745 294.861 206.047C295.633 208.349 300.263 211.234 300.263 211.234C300.263 211.234 300.837 206.432 302.187 204.896C303.537 203.359 303.532 205.088 303.147 207.776C302.954 208.92 302.825 210.075 302.761 211.234L308.143 213.15C309.023 211.812 309.986 210.53 311.027 209.312L312.016 208.354C312.016 208.354 307.787 204.703 307.594 202.426C307.401 200.148 310.478 202.426 311.437 202.811C312.397 203.196 313.935 205.879 313.935 205.879C313.935 205.879 314.9 201.467 315.093 199.951L315.286 198.414C315.286 198.414 311.244 196.878 309.706 196.878C308.168 196.878 307.401 198.029 307.401 196.493C307.401 194.956 308.939 193.998 310.671 194.191C312.237 194.45 313.781 194.835 315.286 195.342C315.286 195.342 316.438 194.378 316.052 191.498C315.667 188.618 314.707 188.618 312.402 189.389C310.097 190.16 308.553 191.859 306.822 191.859C305.091 191.859 306.055 189.75 307.208 189.172C308.36 188.594 311.244 187.443 311.823 187.25C312.402 187.057 308.746 184.37 306.822 183.99C304.898 183.609 302.41 184.978 302.593 186.87C302.959 190.881 297.191 191.671 295.652 189.918Z" fill="white"/>
<path d="M308.029 209.688C308.089 210.265 308.128 210.848 308.148 211.426" stroke="#263238" stroke-linecap="round" stroke-linejoin="round"/>
<path d="M304.166 195.904C305.855 199.708 307.071 203.705 307.787 207.805" stroke="#263238" stroke-linecap="round" stroke-linejoin="round"/>
<path d="M303.473 194.364C302.523 192.319 301.806 191.074 301.806 191.074C302.846 190.573 303.708 189.769 304.279 188.767C304.73 187.859 305.389 187.07 306.204 186.465" stroke="#263238" stroke-linecap="round" stroke-linejoin="round"/>
<path d="M295.074 197.599C295.074 197.599 301.999 194.719 301.999 195.297" stroke="#263238" stroke-linecap="round" stroke-linejoin="round"/>
<path d="M305.843 193.954C305.843 193.954 308.919 192.418 311.61 192.418" stroke="#263238" stroke-linecap="round" stroke-linejoin="round"/>
<path d="M304.715 198.588C303.381 199.682 302.157 200.903 301.059 202.234C299.937 203.556 299.029 205.047 298.368 206.65" stroke="#263238" stroke-linecap="round" stroke-linejoin="round"/>
<path d="M306.802 199.329C306.802 199.329 310.844 198.178 312.956 200.095" stroke="#263238" stroke-linecap="round" stroke-linejoin="round"/>
<path d="M314.113 173.393C312.021 172.158 309.706 172.128 308.568 170.824C307.43 169.52 309.661 168.848 310.853 169.342C312.046 169.836 314.811 171.254 315.33 171.565C315.85 171.876 315.493 167.356 314.524 165.637C313.554 163.918 310.898 162.945 309.577 164.333C306.782 167.267 302.419 163.419 302.716 161.127C303.013 158.835 300.871 156.369 296.286 157.817C291.7 159.264 293.402 160.06 293.402 160.06C293.402 160.06 296.666 162.06 298.764 163.3C300.861 164.54 304.324 165.597 303.577 166.496C302.83 167.396 300.827 166.847 299.15 165.508C297.473 164.17 292.66 160.969 292.165 162.159C291.67 163.35 289.939 166.605 289.939 166.605C292.07 166.931 294.177 167.398 296.246 168.003C299.046 168.878 299.62 170.414 297.433 170.532C295.247 170.651 291.27 169.011 290.013 171.101C288.757 173.19 289.622 178.56 289.622 178.56C289.622 178.56 293.629 175.848 295.672 175.858C297.715 175.868 296.409 176.999 294.124 178.471C293.134 179.077 292.178 179.737 291.26 180.447L293.337 185.767C294.926 185.552 296.527 185.438 298.131 185.427L299.486 185.52C299.486 185.52 299.486 179.938 301.089 178.283C302.692 176.628 302.978 180.457 303.32 181.435C303.661 182.413 302.637 185.333 302.637 185.333C302.637 185.333 306.594 183.164 307.89 182.304L309.182 181.44C309.182 181.44 307.698 177.389 306.708 176.228C305.719 175.067 304.329 175.24 305.486 174.252C306.644 173.264 308.385 173.758 309.374 175.206C310.203 176.558 310.922 177.973 311.526 179.439C311.526 179.439 313.01 179.681 314.934 177.503C316.859 175.324 316.211 174.623 314.113 173.393ZM295.92 179.538C294.381 178.772 298.032 177.236 298.032 177.236C299.382 177.034 297.458 180.309 295.924 179.528L295.92 179.538ZM298.507 172.37C297.854 172.044 299.818 171.382 299.818 171.382C302.667 171.911 299.17 172.691 298.512 172.36L298.507 172.37Z" fill="white"/>
<path d="M295.88 183.441C295.481 183.866 295.07 184.276 294.648 184.671" stroke="#263238" stroke-linecap="round" stroke-linejoin="round"/>
<path d="M303.77 171.492C302.003 175.261 299.779 178.798 297.146 182.024" stroke="#263238" stroke-linecap="round" stroke-linejoin="round"/>
<path d="M304.482 169.959C305.407 167.9 305.877 166.541 305.877 166.541C306.94 167.009 308.121 167.14 309.261 166.916C310.243 166.66 311.272 166.64 312.263 166.857" stroke="#263238" stroke-linecap="round" stroke-linejoin="round"/>
<path d="M302.81 169.44C303.246 169.065 296.533 165.73 296.533 165.73" stroke="#263238" stroke-linecap="round" stroke-linejoin="round"/>
<path d="M306.347 171.477C306.347 171.477 309.528 172.791 311.294 174.821" stroke="#263238" stroke-linecap="round" stroke-linejoin="round"/>
<path d="M302.108 173.626C300.405 173.341 298.679 173.22 296.953 173.265C295.219 173.284 293.498 173.576 291.854 174.13" stroke="#263238" stroke-linecap="round" stroke-linejoin="round"/>
<path d="M302.914 175.725C302.914 175.725 306.431 178.017 306.377 180.867" stroke="#263238" stroke-linecap="round" stroke-linejoin="round"/>
<path d="M284.24 199.991C282.559 199.003 280.694 198.973 279.788 197.921C278.883 196.868 280.664 196.34 281.624 196.74C282.583 197.14 284.804 198.276 285.23 198.523C285.655 198.77 285.358 195.139 284.577 193.771C283.795 192.403 281.658 191.602 280.62 192.724C278.369 195.08 274.857 191.988 275.099 190.14C275.341 188.293 273.615 186.312 269.91 187.477C266.205 188.643 267.59 189.286 267.59 189.286C267.59 189.286 270.217 190.896 271.903 191.889C273.59 192.882 276.355 193.736 275.777 194.463C275.198 195.189 273.566 194.744 272.215 193.662C270.865 192.581 266.991 190.007 266.591 190.965C266.19 191.923 264.805 194.566 264.805 194.566C266.52 194.828 268.215 195.202 269.88 195.688C272.131 196.394 272.591 197.634 270.83 197.728C269.069 197.822 265.883 196.503 264.894 198.182C263.905 199.862 264.582 204.185 264.582 204.185C264.582 204.185 267.808 202.006 269.45 202.011C271.092 202.016 270.044 202.93 268.208 204.115C267.41 204.601 266.638 205.13 265.898 205.701L267.57 209.984C268.849 209.81 270.138 209.718 271.429 209.708L272.522 209.787C272.522 209.787 272.522 205.291 273.813 203.962C275.104 202.633 275.332 205.711 275.604 206.497C275.876 207.282 275.055 209.633 275.055 209.633C275.055 209.633 278.25 207.89 279.284 207.193L280.323 206.501C280.323 206.501 279.126 203.241 278.314 202.307C277.503 201.374 276.395 201.512 277.325 200.702C278.255 199.892 279.655 200.321 280.451 201.473C281.119 202.561 281.7 203.701 282.188 204.881C282.188 204.881 283.38 205.074 284.928 203.32C286.476 201.566 285.917 200.983 284.24 199.991ZM269.598 204.931C268.362 204.313 271.3 203.078 271.3 203.078C272.383 202.925 270.835 205.553 269.593 204.935L269.598 204.931ZM271.686 199.161C271.157 198.899 272.739 198.37 272.739 198.37C275.035 198.815 272.21 199.432 271.686 199.166V199.161Z" fill="white"/>
<path d="M269.593 208.082C269.272 208.423 268.94 208.754 268.604 209.07" stroke="#263238" stroke-linecap="round" stroke-linejoin="round"/>
<path d="M275.915 198.469C274.491 201.5 272.7 204.345 270.583 206.941" stroke="#263238" stroke-linecap="round" stroke-linejoin="round"/>
<path d="M276.489 197.234C277.231 195.579 277.612 194.482 277.612 194.482C278.466 194.859 279.416 194.964 280.333 194.784C281.122 194.578 281.949 194.561 282.747 194.734" stroke="#263238" stroke-linecap="round" stroke-linejoin="round"/>
<path d="M270.088 193.846C270.088 193.846 275.495 196.528 275.143 196.81" stroke="#263238" stroke-linecap="round" stroke-linejoin="round"/>
<path d="M278.003 198.453C278.003 198.453 280.56 199.51 281.96 201.141" stroke="#263238" stroke-linecap="round" stroke-linejoin="round"/>
<path d="M274.575 200.182C273.206 199.951 271.817 199.853 270.429 199.891C269.033 199.907 267.647 200.142 266.324 200.587" stroke="#263238" stroke-linecap="round" stroke-linejoin="round"/>
<path d="M275.223 201.873C275.223 201.873 278.057 203.716 278.003 206.013" stroke="#263238" stroke-linecap="round" stroke-linejoin="round"/>
<path d="M277.374 168.285C277.374 168.285 275.257 169.822 273.912 168.285C272.566 166.749 274.491 163.676 272.561 162.525C270.632 161.374 267.565 163.484 267.565 163.484C267.565 163.484 270.063 164.062 270.063 165.405C270.063 166.749 268.911 167.322 268.718 166.749C268.525 166.176 267.179 163.291 265.255 164.635C264.7 165.008 264.227 165.49 263.864 166.051C263.501 166.612 263.256 167.241 263.143 167.9C263.143 167.9 267.753 167.129 268.139 168.858C268.525 170.587 266.215 168.666 264.295 168.666C262.376 168.666 260.64 169.051 260.833 170.202C260.938 171.224 260.938 172.253 260.833 173.275C261.829 172.343 263.125 171.799 264.488 171.738C266.601 171.738 266.601 173.082 264.681 173.082C262.762 173.082 261.219 175.004 261.219 175.004C261.219 175.004 263.143 177.884 265.448 179.227C267.753 180.571 268.525 179.998 268.718 178.842C268.911 177.686 268.139 174.811 269.485 174.811C270.83 174.811 267.565 179.998 269.292 180.186C271.018 180.373 272.368 179.805 272.754 178.649L273.14 177.498C273.14 177.498 272.368 174.618 272.561 173.467C272.754 172.316 273.14 173.467 273.521 174.811C273.902 176.155 274.293 179.42 274.866 179.227C275.44 179.035 277.177 176.54 277.562 175.582C277.948 174.623 274.866 171.931 274.866 171.358C274.866 170.785 277.177 171.738 277.562 172.316C277.841 172.751 278.097 173.199 278.329 173.66C278.329 173.66 279.675 172.702 279.482 170.009C279.289 167.317 277.374 168.285 277.374 168.285Z" fill="white"/>
<path d="M266.625 175.246C267.956 173.393 269.925 170.874 271.631 169.629" stroke="#263238" stroke-linecap="round" stroke-linejoin="round"/>
<path d="M265.067 177.498C265.067 177.498 265.408 176.964 265.958 176.164" stroke="#263238" stroke-linecap="round" stroke-linejoin="round"/>
<path d="M272.561 170.01C272.561 170.01 274.867 172.89 275.445 175.962" stroke="#263238" stroke-linecap="round" stroke-linejoin="round"/>
<path d="M270.261 171.911C270.261 171.911 270.835 171.526 270.835 175.369" stroke="#263238" stroke-linecap="round" stroke-linejoin="round"/>
<path d="M271.607 168.285C271.607 168.285 272.759 167.129 271.988 165.02" stroke="#263238" stroke-linecap="round" stroke-linejoin="round"/>
<path d="M270.068 170.202L269.104 168.666" stroke="#263238" stroke-linecap="round" stroke-linejoin="round"/>
<path d="M268.337 171.912C268.337 171.912 265.453 169.99 263.722 169.99" stroke="#263238" stroke-linecap="round" stroke-linejoin="round"/>
<path d="M296.79 211.299H281.925V232.664H296.79V211.299Z" fill="#263238" stroke="#263238" stroke-width="2" stroke-linecap="round" stroke-linejoin="round"/>
<path d="M162.904 47.1167C162.904 47.1167 163.083 40.8034 162.859 35.3743C162.636 29.9453 163.088 18.3066 163.088 18.3066" stroke="#263238" stroke-miterlimit="10"/>
<path d="M162.983 25.1543L160.514 23.2129" stroke="#263238" stroke-miterlimit="10"/>
<path d="M162.953 26.4881L163.834 25.0703" stroke="#263238" stroke-miterlimit="10"/>
<path d="M162.755 32.104L164.947 30.291" stroke="#263238" stroke-miterlimit="10"/>
<path d="M163.087 20.6928L161.929 19.6406" stroke="#263238" stroke-miterlimit="10"/>
<path d="M162.736 33.0883L161.286 31.5371" stroke="#263238" stroke-miterlimit="10"/>
<path d="M162.859 39.1841L159.847 36.4375" stroke="#263238" stroke-miterlimit="10"/>
<path d="M162.938 42.5677C163.706 42.2704 164.453 41.9222 165.174 41.5254" stroke="#263238" stroke-miterlimit="10"/>
<path d="M161.261 26.1281C160.049 25.1944 155.983 25.3574 155.202 27.2988C154.42 29.2403 156.908 32.4068 159.283 32.1845C160.218 32.0956 160.623 32.0314 160.989 31.5077L157.65 28.2473L161.266 31.152C161.368 30.963 161.451 30.7644 161.514 30.5592C161.553 30.416 161.593 30.2579 161.622 30.0949C161.875 28.934 162.404 27.0024 161.261 26.1281Z" fill="white"/>
<path d="M169.131 23.875V23.9442C168.805 25.3916 167.153 26.2116 165.753 26.0881C165.559 26.0717 165.367 26.0369 165.179 25.9844C164.852 26.5016 164.65 27.0876 164.588 27.6962C164.526 28.3049 164.606 28.9195 164.823 29.4918C164.881 29.6554 164.959 29.8113 165.055 29.9561C165.466 29.6202 169.859 25.8757 169.859 25.8757L165.298 30.2624C166.673 31.7444 169.898 31.532 171.021 28.8101C172.144 26.0881 170.714 24.2653 169.131 23.875Z" fill="white"/>
<path d="M166.896 18.8107C164.531 18.3167 162.414 19.3639 162.444 21.829C162.457 22.3724 162.581 22.9075 162.809 23.4011C163.037 23.8947 163.364 24.3365 163.769 24.6991L166.208 21.3795L164.16 25.0005C164.619 25.313 165.15 25.5035 165.704 25.5538C167.098 25.6723 168.756 24.8523 169.082 23.4049C169.423 21.7895 169.26 19.3294 166.896 18.8107Z" fill="white"/>
<path d="M164.135 10.2402C164.135 10.2402 163.893 10.3143 162.379 11.0504C161.493 11.5384 160.836 12.3569 160.553 13.327C160.269 14.2972 160.382 15.34 160.866 16.2275C161.285 17.0567 162.01 17.6909 162.889 17.996L163.497 12.1224L163.24 18.0751C163.355 18.0869 163.471 18.0869 163.586 18.0751C164.576 17.9763 166.124 16.8006 166.272 14.3948C166.421 11.989 164.135 10.2402 164.135 10.2402Z" fill="white"/>
<path d="M157.225 15.5798L161.791 19.2255C161.836 19.065 161.851 18.8975 161.835 18.7315C161.622 16.6468 159.54 15.4365 158.165 15.0018C156.79 14.5671 155.835 15.3427 156.72 17.3384C157.606 19.3342 159.926 20.3024 160.96 20.0011C161.205 19.9407 161.426 19.8061 161.593 19.6158L157.225 15.5798Z" fill="white"/>
<path d="M160.366 20.2544C159.666 20.204 158.987 19.9955 158.379 19.6447C157.772 19.2938 157.252 18.8098 156.859 18.229C156.374 18.1831 155.89 18.3284 155.511 18.634C155.132 18.9396 154.888 19.3811 154.831 19.8642C154.366 22.0378 155.939 24.3102 158.209 24.0335C158.922 23.9964 159.599 23.7075 160.119 23.2184L156.062 19.5184L160.406 22.8232C160.491 22.6707 160.545 22.5028 160.564 22.3292C160.704 21.6333 160.635 20.9114 160.366 20.2544Z" fill="white"/>
<path d="M160.341 32.3418C159.972 32.4996 159.579 32.5931 159.179 32.6184C157.695 32.7568 156.181 31.5959 155.429 30.2324C154.988 30.2622 154.569 30.439 154.24 30.7346C153.911 31.0301 153.69 31.4273 153.614 31.8626C153.164 34.4067 155.523 37.761 157.908 37.2275C158.527 37.107 159.101 36.8161 159.565 36.3877L154.361 31.3884L159.866 36.0616C160.181 35.6585 160.384 35.1797 160.455 34.6735C160.716 33.9101 160.675 33.0762 160.341 32.3418Z" fill="white"/>
<path d="M170.813 37.5427C169.062 35.5173 166.98 37.3303 166.98 37.3303C166.98 37.3303 165.703 37.7502 165.219 39.5583C165.07 40.1068 165.093 40.6875 165.283 41.223L170.546 38.1602L165.412 41.5096C165.906 42.4185 166.935 42.9916 168.38 42.5717C170.685 41.9393 172.56 39.583 170.813 37.5427Z" fill="white"/>
<path d="M166.45 45.2109H159.164V55.9851H166.45V45.2109Z" fill="#263238"/>
<path d="M246.873 55.8965H150.769V233.356H246.873V55.8965Z" fill="white" stroke="#263238" stroke-miterlimit="10"/>
<path d="M233.319 58.1426H152.768V230.652H233.319V58.1426Z" fill="#263238" stroke="#263238" stroke-linecap="round" stroke-linejoin="round"/>
<path d="M233.319 84.8984H152.768V87.4425H233.319V84.8984Z" fill="white" stroke="#263238" stroke-miterlimit="10"/>
<path d="M233.319 114.311H152.768V116.855H233.319V114.311Z" fill="white" stroke="#263238" stroke-miterlimit="10"/>
<path d="M207.359 58.1738H205.648V84.8943H207.359V58.1738Z" fill="white" stroke="#263238" stroke-miterlimit="10"/>
<path d="M179.974 58.1738H178.263V84.8943H179.974V58.1738Z" fill="white" stroke="#263238" stroke-miterlimit="10"/>
<path d="M207.359 116.885H205.648V143.605H207.359V116.885Z" fill="white" stroke="#263238" stroke-miterlimit="10"/>
<path d="M179.974 116.885H178.263V143.605H179.974V116.885Z" fill="white" stroke="#263238" stroke-miterlimit="10"/>
<path d="M193.533 87.5859H191.822V114.306H193.533V87.5859Z" fill="white" stroke="#263238" stroke-miterlimit="10"/>
<path d="M233.319 143.609H152.768V146.153H233.319V143.609Z" fill="white" stroke="#263238" stroke-miterlimit="10"/>
<path d="M233.319 172.924H152.768V231.552H233.319V172.924Z" fill="white" stroke="#263238" stroke-miterlimit="10"/>
<path d="M193.533 146.199H191.822V172.92H193.533V146.199Z" fill="white" stroke="#263238" stroke-miterlimit="10"/>
<path d="M235.293 55.8809V233.316L246.878 233.355V55.8809H235.293Z" fill="#263238" stroke="#263238" stroke-linecap="round" stroke-linejoin="round"/>
<path d="M212.682 60.248H208.547V84.8344H212.682V60.248Z" fill="white" stroke="#263238" stroke-miterlimit="10"/>
<path d="M212.682 79.5527H208.547V81.5683H212.682V79.5527Z" fill="white" stroke="#263238" stroke-miterlimit="10"/>
<path d="M212.682 62.7422H208.547V64.7577H212.682V62.7422Z" fill="white" stroke="#263238" stroke-miterlimit="10"/>
<path d="M216.911 60.248H212.776V84.8344H216.911V60.248Z" fill="white" stroke="#263238" stroke-miterlimit="10"/>
<path d="M216.911 79.5527H212.776V81.5683H216.911V79.5527Z" fill="white" stroke="#263238" stroke-miterlimit="10"/>
<path d="M216.911 62.7422H212.776V64.7577H216.911V62.7422Z" fill="white" stroke="#263238" stroke-miterlimit="10"/>
<path d="M221.146 60.248H217.01V84.8344H221.146V60.248Z" fill="white" stroke="#263238" stroke-miterlimit="10"/>
<path d="M221.146 79.5527H217.01V81.5683H221.146V79.5527Z" fill="white" stroke="#263238" stroke-miterlimit="10"/>
<path d="M221.146 62.7422H217.01V64.7577H221.146V62.7422Z" fill="white" stroke="#263238" stroke-miterlimit="10"/>
<path d="M225.375 60.248H221.24V84.8344H225.375V60.248Z" fill="white" stroke="#263238" stroke-miterlimit="10"/>
<path d="M232.266 60.248H225.34V84.8344H232.266V60.248Z" fill="white" stroke="#263238" stroke-miterlimit="10"/>
<path d="M225.375 79.5527H221.24V81.5683H225.375V79.5527Z" fill="white" stroke="#263238" stroke-miterlimit="10"/>
<path d="M225.375 62.7422H221.24V64.7577H225.375V62.7422Z" fill="white" stroke="#263238" stroke-miterlimit="10"/>
<path d="M185.015 60.248H180.88V84.8344H185.015V60.248Z" fill="white" stroke="#263238" stroke-miterlimit="10"/>
<path d="M185.015 79.5527H180.88V81.5683H185.015V79.5527Z" fill="white" stroke="#263238" stroke-miterlimit="10"/>
<path d="M185.015 62.7422H180.88V64.7577H185.015V62.7422Z" fill="white" stroke="#263238" stroke-miterlimit="10"/>
<path d="M189.245 60.248H185.109V84.8344H189.245V60.248Z" fill="white" stroke="#263238" stroke-miterlimit="10"/>
<path d="M189.245 79.5527H185.109V81.5683H189.245V79.5527Z" fill="white" stroke="#263238" stroke-miterlimit="10"/>
<path d="M189.245 62.7422H185.109V64.7577H189.245V62.7422Z" fill="white" stroke="#263238" stroke-miterlimit="10"/>
<path d="M193.479 60.248H189.344V84.8344H193.479V60.248Z" fill="white" stroke="#263238" stroke-miterlimit="10"/>
<path d="M193.479 79.5527H189.344V81.5683H193.479V79.5527Z" fill="white" stroke="#263238" stroke-miterlimit="10"/>
<path d="M193.479 62.7422H189.344V64.7577H193.479V62.7422Z" fill="white" stroke="#263238" stroke-miterlimit="10"/>
<path d="M197.708 60.248H193.573V84.8344H197.708V60.248Z" fill="white" stroke="#263238" stroke-miterlimit="10"/>
<path d="M204.599 60.248H197.674V84.8344H204.599V60.248Z" fill="white" stroke="#263238" stroke-miterlimit="10"/>
<path d="M197.708 79.5527H193.573V81.5683H197.708V79.5527Z" fill="white" stroke="#263238" stroke-miterlimit="10"/>
<path d="M197.708 62.7422H193.573V64.7577H197.708V62.7422Z" fill="white" stroke="#263238" stroke-miterlimit="10"/>
<path d="M185.015 119.049H180.88V143.635H185.015V119.049Z" fill="white" stroke="#263238" stroke-miterlimit="10"/>
<path d="M185.015 138.354H180.88V140.369H185.015V138.354Z" fill="white" stroke="#263238" stroke-miterlimit="10"/>
<path d="M185.015 121.549H180.88V123.564H185.015V121.549Z" fill="white" stroke="#263238" stroke-miterlimit="10"/>
<path d="M189.245 119.049H185.109V143.635H189.245V119.049Z" fill="white" stroke="#263238" stroke-miterlimit="10"/>
<path d="M189.245 138.354H185.109V140.369H189.245V138.354Z" fill="white" stroke="#263238" stroke-miterlimit="10"/>
<path d="M189.245 121.549H185.109V123.564H189.245V121.549Z" fill="white" stroke="#263238" stroke-miterlimit="10"/>
<path d="M193.479 119.049H189.344V143.635H193.479V119.049Z" fill="white" stroke="#263238" stroke-miterlimit="10"/>
<path d="M193.479 138.354H189.344V140.369H193.479V138.354Z" fill="white" stroke="#263238" stroke-miterlimit="10"/>
<path d="M193.479 121.549H189.344V123.564H193.479V121.549Z" fill="white" stroke="#263238" stroke-miterlimit="10"/>
<path d="M197.708 119.049H193.573V143.635H197.708V119.049Z" fill="white" stroke="#263238" stroke-miterlimit="10"/>
<path d="M204.599 119.049H197.674V143.635H204.599V119.049Z" fill="white" stroke="#263238" stroke-miterlimit="10"/>
<path d="M197.708 138.354H193.573V140.369H197.708V138.354Z" fill="white" stroke="#263238" stroke-miterlimit="10"/>
<path d="M197.708 121.549H193.573V123.564H197.708V121.549Z" fill="white" stroke="#263238" stroke-miterlimit="10"/>
<path d="M212.326 119.049H208.19V143.635H212.326V119.049Z" fill="white" stroke="#263238" stroke-miterlimit="10"/>
<path d="M212.326 138.354H208.19V140.369H212.326V138.354Z" fill="white" stroke="#263238" stroke-miterlimit="10"/>
<path d="M212.326 121.549H208.19V123.564H212.326V121.549Z" fill="white" stroke="#263238" stroke-miterlimit="10"/>
<path d="M216.56 119.049H212.425V143.635H216.56V119.049Z" fill="white" stroke="#263238" stroke-miterlimit="10"/>
<path d="M216.56 138.354H212.425V140.369H216.56V138.354Z" fill="white" stroke="#263238" stroke-miterlimit="10"/>
<path d="M216.56 121.549H212.425V123.564H216.56V121.549Z" fill="white" stroke="#263238" stroke-miterlimit="10"/>
<path d="M220.789 119.049H216.654V143.635H220.789V119.049Z" fill="white" stroke="#263238" stroke-miterlimit="10"/>
<path d="M220.789 138.354H216.654V140.369H220.789V138.354Z" fill="white" stroke="#263238" stroke-miterlimit="10"/>
<path d="M220.789 121.549H216.654V123.564H220.789V121.549Z" fill="white" stroke="#263238" stroke-miterlimit="10"/>
<path d="M225.024 119.049H220.888V143.635H225.024V119.049Z" fill="white" stroke="#263238" stroke-miterlimit="10"/>
<path d="M231.91 119.049H224.984V143.635H231.91V119.049Z" fill="white" stroke="#263238" stroke-miterlimit="10"/>
<path d="M225.024 138.354H220.888V140.369H225.024V138.354Z" fill="white" stroke="#263238" stroke-miterlimit="10"/>
<path d="M225.024 121.549H220.888V123.564H225.024V121.549Z" fill="white" stroke="#263238" stroke-miterlimit="10"/>
<path d="M157.878 119.049H153.742V143.635H157.878V119.049Z" fill="white" stroke="#263238" stroke-miterlimit="10"/>
<path d="M157.878 138.354H153.742V140.369H157.878V138.354Z" fill="white" stroke="#263238" stroke-miterlimit="10"/>
<path d="M157.878 121.549H153.742V123.564H157.878V121.549Z" fill="white" stroke="#263238" stroke-miterlimit="10"/>
<path d="M162.112 119.049H157.977V143.635H162.112V119.049Z" fill="white" stroke="#263238" stroke-miterlimit="10"/>
<path d="M162.112 138.354H157.977V140.369H162.112V138.354Z" fill="white" stroke="#263238" stroke-miterlimit="10"/>
<path d="M162.112 121.549H157.977V123.564H162.112V121.549Z" fill="white" stroke="#263238" stroke-miterlimit="10"/>
<path d="M166.341 119.049H162.206V143.635H166.341V119.049Z" fill="white" stroke="#263238" stroke-miterlimit="10"/>
<path d="M166.341 138.354H162.206V140.369H166.341V138.354Z" fill="white" stroke="#263238" stroke-miterlimit="10"/>
<path d="M166.341 121.549H162.206V123.564H166.341V121.549Z" fill="white" stroke="#263238" stroke-miterlimit="10"/>
<path d="M170.576 119.049H166.44V143.635H170.576V119.049Z" fill="white" stroke="#263238" stroke-miterlimit="10"/>
<path d="M177.462 119.049H170.536V143.635H177.462V119.049Z" fill="white" stroke="#263238" stroke-miterlimit="10"/>
<path d="M170.576 138.354H166.44V140.369H170.576V138.354Z" fill="white" stroke="#263238" stroke-miterlimit="10"/>
<path d="M170.576 121.549H166.44V123.564H170.576V121.549Z" fill="white" stroke="#263238" stroke-miterlimit="10"/>
<path d="M157.348 60.248H153.213V84.8344H157.348V60.248Z" fill="white" stroke="#263238" stroke-miterlimit="10"/>
<path d="M157.348 79.5527H153.213V81.5683H157.348V79.5527Z" fill="white" stroke="#263238" stroke-miterlimit="10"/>
<path d="M157.348 62.7422H153.213V64.7577H157.348V62.7422Z" fill="white" stroke="#263238" stroke-miterlimit="10"/>
<path d="M161.578 60.248H157.443V84.8344H161.578V60.248Z" fill="white" stroke="#263238" stroke-miterlimit="10"/>
<path d="M161.578 79.5527H157.443V81.5683H161.578V79.5527Z" fill="white" stroke="#263238" stroke-miterlimit="10"/>
<path d="M161.578 62.7422H157.443V64.7577H161.578V62.7422Z" fill="white" stroke="#263238" stroke-miterlimit="10"/>
<path d="M165.812 60.248H161.677V84.8344H165.812V60.248Z" fill="white" stroke="#263238" stroke-miterlimit="10"/>
<path d="M165.812 79.5527H161.677V81.5683H165.812V79.5527Z" fill="white" stroke="#263238" stroke-miterlimit="10"/>
<path d="M165.812 62.7422H161.677V64.7577H165.812V62.7422Z" fill="white" stroke="#263238" stroke-miterlimit="10"/>
<path d="M170.042 60.248H165.906V84.8344H170.042V60.248Z" fill="white" stroke="#263238" stroke-miterlimit="10"/>
<path d="M176.932 60.248H170.007V84.8344H176.932V60.248Z" fill="white" stroke="#263238" stroke-miterlimit="10"/>
<path d="M170.042 79.5527H165.906V81.5683H170.042V79.5527Z" fill="white" stroke="#263238" stroke-miterlimit="10"/>
<path d="M170.042 62.7422H165.906V64.7577H170.042V62.7422Z" fill="white" stroke="#263238" stroke-miterlimit="10"/>
<path d="M169.587 89.5469H165.451V114.133H169.587V89.5469Z" fill="white" stroke="#263238" stroke-miterlimit="10"/>
<path d="M169.587 108.852H165.451V110.867H169.587V108.852Z" fill="white" stroke="#263238" stroke-miterlimit="10"/>
<path d="M169.587 92.0469H165.451V94.0624H169.587V92.0469Z" fill="white" stroke="#263238" stroke-miterlimit="10"/>
<path d="M165.506 89.5469H161.37V114.133H165.506V89.5469Z" fill="white" stroke="#263238" stroke-miterlimit="10"/>
<path d="M165.506 108.852H161.37V110.867H165.506V108.852Z" fill="white" stroke="#263238" stroke-miterlimit="10"/>
<path d="M165.506 92.0469H161.37V94.0624H165.506V92.0469Z" fill="white" stroke="#263238" stroke-miterlimit="10"/>
<path d="M161.424 89.5469H157.289V114.133H161.424V89.5469Z" fill="white" stroke="#263238" stroke-miterlimit="10"/>
<path d="M161.424 108.852H157.289V110.867H161.424V108.852Z" fill="white" stroke="#263238" stroke-miterlimit="10"/>
<path d="M161.424 92.0469H157.289V94.0624H161.424V92.0469Z" fill="white" stroke="#263238" stroke-miterlimit="10"/>
<path d="M157.348 89.5469H153.213V114.133H157.348V89.5469Z" fill="white" stroke="#263238" stroke-miterlimit="10"/>
<path d="M157.348 108.852H153.213V110.867H157.348V108.852Z" fill="white" stroke="#263238" stroke-miterlimit="10"/>
<path d="M157.348 92.0469H153.213V94.0624H157.348V92.0469Z" fill="white" stroke="#263238" stroke-miterlimit="10"/>
<path d="M173.816 89.5469H169.681V114.133H173.816V89.5469Z" fill="white" stroke="#263238" stroke-miterlimit="10"/>
<path d="M173.816 108.852H169.681V110.867H173.816V108.852Z" fill="white" stroke="#263238" stroke-miterlimit="10"/>
<path d="M173.816 92.0469H169.681V94.0624H173.816V92.0469Z" fill="white" stroke="#263238" stroke-miterlimit="10"/>
<path d="M178.045 89.5469H173.91V114.133H178.045V89.5469Z" fill="white" stroke="#263238" stroke-miterlimit="10"/>
<path d="M178.045 108.852H173.91V110.867H178.045V108.852Z" fill="white" stroke="#263238" stroke-miterlimit="10"/>
<path d="M178.045 92.0469H173.91V94.0624H178.045V92.0469Z" fill="white" stroke="#263238" stroke-miterlimit="10"/>
<path d="M182.28 89.5469H178.144V114.133H182.28V89.5469Z" fill="white" stroke="#263238" stroke-miterlimit="10"/>
<path d="M189.17 89.5469H182.245V114.133H189.17V89.5469Z" fill="white" stroke="#263238" stroke-miterlimit="10"/>
<path d="M182.28 108.852H178.144V110.867H182.28V108.852Z" fill="white" stroke="#263238" stroke-miterlimit="10"/>
<path d="M182.28 92.0469H178.144V94.0624H182.28V92.0469Z" fill="white" stroke="#263238" stroke-miterlimit="10"/>
<path d="M198.99 89.5469H194.854V114.133H198.99V89.5469Z" fill="white" stroke="#263238" stroke-miterlimit="10"/>
<path d="M198.99 108.852H194.854V110.867H198.99V108.852Z" fill="white" stroke="#263238" stroke-miterlimit="10"/>
<path d="M198.99 92.0469H194.854V94.0624H198.99V92.0469Z" fill="white" stroke="#263238" stroke-miterlimit="10"/>
<path d="M203.224 89.5469H199.088V114.133H203.224V89.5469Z" fill="white" stroke="#263238" stroke-miterlimit="10"/>
<path d="M203.224 108.852H199.088V110.867H203.224V108.852Z" fill="white" stroke="#263238" stroke-miterlimit="10"/>
<path d="M203.224 92.0469H199.088V94.0624H203.224V92.0469Z" fill="white" stroke="#263238" stroke-miterlimit="10"/>
<path d="M211.691 89.5404L207.835 91.166L217.531 114.098L221.386 112.473L211.691 89.5404Z" fill="white" stroke="#263238" stroke-miterlimit="10"/>
<path d="M219.304 107.546L215.449 109.172L216.244 111.051L220.099 109.426L219.304 107.546Z" fill="white" stroke="#263238" stroke-miterlimit="10"/>
<path d="M212.677 91.8705L208.822 93.4961L209.617 95.3757L213.472 93.7501L212.677 91.8705Z" fill="white" stroke="#263238" stroke-miterlimit="10"/>
<path d="M217.535 114.088H226.166L230.05 112.473L221.388 112.463L217.535 114.088Z" fill="white" stroke="#263238" stroke-miterlimit="10"/>
<path d="M211.693 89.5312H219.8L230.05 112.473L221.388 112.463L211.693 89.5312Z" fill="white" stroke="#263238" stroke-miterlimit="10"/>
<path d="M207.305 89.5469H203.169V114.133H207.305V89.5469Z" fill="white" stroke="#263238" stroke-miterlimit="10"/>
<path d="M207.305 108.852H203.169V110.867H207.305V108.852Z" fill="white" stroke="#263238" stroke-miterlimit="10"/>
<path d="M207.305 92.0469H203.169V94.0624H207.305V92.0469Z" fill="white" stroke="#263238" stroke-miterlimit="10"/>
<path d="M207.305 89.5469H211.693L207.834 91.1573L217.535 114.089H207.305V89.5469Z" fill="white" stroke="#263238" stroke-miterlimit="10"/>
<path d="M169.587 148.244H165.451V172.831H169.587V148.244Z" fill="white" stroke="#263238" stroke-miterlimit="10"/>
<path d="M169.587 167.549H165.451V169.564H169.587V167.549Z" fill="white" stroke="#263238" stroke-miterlimit="10"/>
<path d="M169.587 150.738H165.451V152.754H169.587V150.738Z" fill="white" stroke="#263238" stroke-miterlimit="10"/>
<path d="M165.506 148.244H161.37V172.831H165.506V148.244Z" fill="white" stroke="#263238" stroke-miterlimit="10"/>
<path d="M165.506 167.549H161.37V169.564H165.506V167.549Z" fill="white" stroke="#263238" stroke-miterlimit="10"/>
<path d="M165.506 150.738H161.37V152.754H165.506V150.738Z" fill="white" stroke="#263238" stroke-miterlimit="10"/>
<path d="M161.424 148.244H157.289V172.831H161.424V148.244Z" fill="white" stroke="#263238" stroke-miterlimit="10"/>
<path d="M161.424 167.549H157.289V169.564H161.424V167.549Z" fill="white" stroke="#263238" stroke-miterlimit="10"/>
<path d="M161.424 150.738H157.289V152.754H161.424V150.738Z" fill="white" stroke="#263238" stroke-miterlimit="10"/>
<path d="M157.348 148.244H153.213V172.831H157.348V148.244Z" fill="white" stroke="#263238" stroke-miterlimit="10"/>
<path d="M157.348 167.549H153.213V169.564H157.348V167.549Z" fill="white" stroke="#263238" stroke-miterlimit="10"/>
<path d="M157.348 150.738H153.213V152.754H157.348V150.738Z" fill="white" stroke="#263238" stroke-miterlimit="10"/>
<path d="M173.816 148.244H169.681V172.831H173.816V148.244Z" fill="white" stroke="#263238" stroke-miterlimit="10"/>
<path d="M173.816 167.549H169.681V169.564H173.816V167.549Z" fill="white" stroke="#263238" stroke-miterlimit="10"/>
<path d="M173.816 150.738H169.681V152.754H173.816V150.738Z" fill="white" stroke="#263238" stroke-miterlimit="10"/>
<path d="M178.045 148.244H173.91V172.831H178.045V148.244Z" fill="white" stroke="#263238" stroke-miterlimit="10"/>
<path d="M178.045 167.549H173.91V169.564H178.045V167.549Z" fill="white" stroke="#263238" stroke-miterlimit="10"/>
<path d="M178.045 150.738H173.91V152.754H178.045V150.738Z" fill="white" stroke="#263238" stroke-miterlimit="10"/>
<path d="M182.28 148.244H178.144V172.831H182.28V148.244Z" fill="white" stroke="#263238" stroke-miterlimit="10"/>
<path d="M189.17 148.244H182.245V172.831H189.17V148.244Z" fill="white" stroke="#263238" stroke-miterlimit="10"/>
<path d="M182.28 167.549H178.144V169.564H182.28V167.549Z" fill="white" stroke="#263238" stroke-miterlimit="10"/>
<path d="M182.28 150.738H178.144V152.754H182.28V150.738Z" fill="white" stroke="#263238" stroke-miterlimit="10"/>
<path d="M198.99 148.244H194.854V172.831H198.99V148.244Z" fill="white" stroke="#263238" stroke-miterlimit="10"/>
<path d="M198.99 167.549H194.854V169.564H198.99V167.549Z" fill="white" stroke="#263238" stroke-miterlimit="10"/>
<path d="M198.99 150.738H194.854V152.754H198.99V150.738Z" fill="white" stroke="#263238" stroke-miterlimit="10"/>
<path d="M203.224 148.244H199.088V172.831H203.224V148.244Z" fill="white" stroke="#263238" stroke-miterlimit="10"/>
<path d="M203.224 167.549H199.088V169.564H203.224V167.549Z" fill="white" stroke="#263238" stroke-miterlimit="10"/>
<path d="M203.224 150.738H199.088V152.754H203.224V150.738Z" fill="white" stroke="#263238" stroke-miterlimit="10"/>
<path d="M211.687 148.236L207.832 149.861L217.527 172.794L221.382 171.168L211.687 148.236Z" fill="white" stroke="#263238" stroke-miterlimit="10"/>
<path d="M219.203 165.804L215.353 167.434L216.15 169.311L220 167.681L219.203 165.804Z" fill="white" stroke="#263238" stroke-width="0.99925" stroke-miterlimit="10"/>
<path d="M212.674 150.566L208.819 152.191L209.613 154.071L213.469 152.445L212.674 150.566Z" fill="white" stroke="#263238" stroke-miterlimit="10"/>
<path d="M217.535 172.786H226.166L230.05 171.171L221.388 171.156L217.535 172.786Z" fill="white" stroke="#263238" stroke-miterlimit="10"/>
<path d="M211.693 148.225H219.8L230.05 171.171L221.388 171.156L211.693 148.225Z" fill="white" stroke="#263238" stroke-miterlimit="10"/>
<path d="M207.305 148.244H203.169V172.831H207.305V148.244Z" fill="white" stroke="#263238" stroke-miterlimit="10"/>
<path d="M207.305 167.549H203.169V169.564H207.305V167.549Z" fill="white" stroke="#263238" stroke-miterlimit="10"/>
<path d="M207.305 150.738H203.169V152.754H207.305V150.738Z" fill="white" stroke="#263238" stroke-miterlimit="10"/>
<path d="M207.305 148.244H211.693L207.834 149.85L217.535 172.786H207.305V148.244Z" fill="white" stroke="#263238" stroke-miterlimit="10"/>
<path d="M191.822 172.92V230.57" stroke="#263238" stroke-miterlimit="10"/>
<path d="M153.421 180.059H233.3" stroke="#263238" stroke-miterlimit="10"/>
<path d="M169.814 184.934V195.387" stroke="#263238" stroke-width="2" stroke-miterlimit="10"/>
<path d="M173.302 184.934V195.387" stroke="#263238" stroke-width="2" stroke-miterlimit="10"/>
<path d="M209.932 184.934V195.387" stroke="#263238" stroke-width="2" stroke-miterlimit="10"/>
<path d="M213.419 184.934V195.387" stroke="#263238" stroke-width="2" stroke-miterlimit="10"/>
<path d="M255.565 56.8146V39.0898H281.376" stroke="#263238" stroke-miterlimit="10"/>
<path d="M283.276 39.0898H294.149V83.0559H255.565V59.5019" stroke="#263238" stroke-miterlimit="10"/>
<path d="M280.11 77.1276H260.764V45.0176H288.945V77.1276H282.326" stroke="#263238" stroke-miterlimit="10"/>
<path d="M280.273 54.8984H269.435V67.2484H280.273V54.8984Z" stroke="#263238" stroke-miterlimit="10"/>
<path d="M297.577 77.3057V66.25H313.678" stroke="#263238" stroke-miterlimit="10"/>
<path d="M314.86 66.25H321.642V93.6719H297.577V78.9804" stroke="#263238" stroke-miterlimit="10"/>
<path d="M312.887 89.977H300.822V69.9453H318.397V89.977H314.267" stroke="#263238" stroke-miterlimit="10"/>
<path d="M312.99 76.1094H306.228V83.8108H312.99V76.1094Z" stroke="#263238" stroke-miterlimit="10"/>
<path d="M42.4424 233.355H321.434" stroke="#263238" stroke-linecap="round" stroke-linejoin="round"/>
<path d="M62.2291 164.195C62.2291 164.195 59.2611 124.675 60.7451 120.229C62.2291 115.783 71.3804 116.03 73.1118 116.03C74.8431 116.03 110.954 116.03 116.148 118.5C121.342 120.97 122.084 181.732 122.084 181.732H64.7024L62.2291 164.195Z" fill="#263238" stroke="#263238" stroke-miterlimit="10"/>
<path d="M124.058 160.984C124.058 160.984 118.122 160.984 116.934 166.912C115.747 172.84 120.422 197.293 120.768 204.209C121.114 211.125 122.331 220.758 122.331 220.758H143.354L148.054 160.984H124.058Z" fill="#263238" stroke="#263238" stroke-miterlimit="10"/>
<path d="M148.054 160.984C148.054 160.984 142.118 160.984 140.634 166.912C139.15 172.84 142.612 197.293 142.612 204.209C142.612 211.125 143.354 220.758 143.354 220.758H150.774C150.774 220.758 151.516 202.974 151.516 200.504C151.516 198.034 154.484 172.346 153 167.159C151.516 161.972 150.28 161.478 148.054 160.984Z" fill="#636363" stroke="#263238" stroke-miterlimit="10"/>
<path d="M85.3548 118.625C85.3548 118.625 65.6918 126.652 65.6918 127.517C65.6918 128.381 72.3698 151.599 74.8431 155.181C77.3164 158.762 79.0478 162.714 79.7898 164.196C80.5318 165.678 83.7471 169.383 86.3441 169.383C88.9411 169.383 92.0328 166.296 100.318 165.061C108.604 163.826 116.024 163.949 117.508 162.838C118.992 161.726 117.137 158.762 116.89 158.145C116.642 157.527 115.653 155.304 115.653 155.304C115.653 155.304 123.691 161.973 126.907 162.22C130.122 162.467 132.472 160.862 132.966 158.762C133.461 156.663 131.606 151.599 130.369 148.882C129.133 146.165 123.32 141.843 120.723 138.508C118.126 135.174 114.787 131.222 112.438 128.505C110.39 126.113 107.862 124.178 105.018 122.824C102.792 121.836 97.1031 119.366 93.5168 118.995C89.9304 118.625 85.3548 118.625 85.3548 118.625Z" fill="white" stroke="#263238" stroke-miterlimit="10"/>
<path d="M123.894 147.562C123.894 147.562 121.094 155.303 122.084 157.279C123.073 159.255 125.71 159.913 125.71 159.913" stroke="#263238" stroke-miterlimit="10"/>
<path d="M82.3867 121.217L98.7107 137.025L101.184 125.169" stroke="#263238" stroke-miterlimit="10"/>
<path d="M124.681 148.511C124.681 148.511 128.638 151.351 129.998 150.363C131.359 149.375 130.988 147.523 130.122 145.547C129.256 143.571 126.412 142.459 125.299 143.324C124.186 144.188 123.815 147.646 124.681 148.511Z" fill="white" stroke="#263238" stroke-miterlimit="10"/>
<path d="M84.118 113.438L84.7364 120.847L97.845 133.691L99.8237 124.552L100.689 120.724C100.689 120.724 92.1564 119.242 89.4357 117.389C86.715 115.537 84.118 113.438 84.118 113.438Z" fill="white" stroke="#263238" stroke-miterlimit="10"/>
<path d="M100.689 120.724C100.689 120.724 92.1564 119.242 89.4357 117.389C86.715 115.537 84.118 113.438 84.118 113.438L84.7364 120.847L88.0506 124.093C90.6279 124.819 93.1952 125.17 94.9413 124.498C96.8789 123.795 98.7308 122.875 100.462 121.756L100.689 120.724Z" fill="#263238" stroke="#263238" stroke-miterlimit="10"/>
<path d="M80.2004 107.717C80.2004 107.717 77.8903 97.1747 77.8903 95.3667C77.8903 93.5587 84.1577 84.3308 92.7303 85.8128C101.303 87.2948 106.086 92.2348 106.418 93.7168C106.749 95.1987 105.428 98.1627 105.428 98.1627C105.689 99.0214 105.855 99.906 105.923 100.801C105.923 101.789 104.439 106.067 104.439 106.067L103.944 101.621C103.944 101.621 99.8238 102.777 97.5137 102.777C95.2036 102.777 91.2463 101.295 91.2463 101.295C91.2463 101.295 92.0724 103.928 91.2463 105.247C90.4202 106.566 87.9518 107.717 87.9518 107.717C87.9518 107.717 87.6204 110.35 86.631 110.35C85.4106 110.288 84.1976 110.123 83.0051 109.856C82.3423 109.693 80.2004 107.717 80.2004 107.717Z" fill="#263238" stroke="#263238" stroke-miterlimit="10"/>
<path d="M83.9944 108.867C83.9944 108.867 83.663 104.915 80.3636 105.903C77.0642 106.891 79.211 110.512 81.0264 112.325C82.8419 114.138 83.3316 112.819 83.3316 112.819C83.3316 112.819 83.8263 116.608 86.2996 118.747C88.7729 120.886 92.567 124.838 96.5243 124.344C100.482 123.85 103.286 118.91 103.781 115.289C104.276 111.668 104.602 103.102 104.602 102.114C104.483 101 104.263 99.8988 103.944 98.8242C103.944 98.8242 100.482 101.294 97.3504 100.632C94.2192 99.9703 90.9198 98.6562 89.4358 98.6562C87.9518 98.6562 88.2783 100.8 88.7729 101.457C89.2676 102.114 90.5883 103.433 89.1043 104.258C87.6203 105.083 85.6417 105.903 85.6417 105.903V109.361L83.9944 108.867Z" fill="white" stroke="#263238" stroke-miterlimit="10"/>
<path d="M99.7693 107.07L98.9581 115.997L94.8969 114.821" stroke="#263238" stroke-miterlimit="10"/>
<path d="M96.3413 115.541C96.3413 115.541 94.3626 115.541 93.2743 115.635C92.6207 115.743 91.9564 115.773 91.2957 115.724C90.8455 115.635 90.3063 115.274 91.2066 116.173C92.1069 117.072 94.8177 118.149 96.2621 118.337C97.7066 118.525 98.7008 118.065 99.7792 117.349C100.858 116.633 101.758 115.907 101.224 115.729C100.479 115.596 99.724 115.535 98.968 115.546V116L96.3413 115.541Z" fill="#263238" stroke="#263238" stroke-miterlimit="10"/>
<path d="M93.497 110.132C93.8221 110.132 94.0856 109.588 94.0856 108.916C94.0856 108.245 93.8221 107.701 93.497 107.701C93.1719 107.701 92.9083 108.245 92.9083 108.916C92.9083 109.588 93.1719 110.132 93.497 110.132Z" fill="#263238"/>
<path d="M102.297 108.74C102.297 109.412 102.035 109.955 101.713 109.955C101.392 109.955 101.125 109.412 101.125 108.74C101.125 108.068 101.387 107.52 101.713 107.52C102.04 107.52 102.297 108.068 102.297 108.74Z" fill="#263238"/>
<path d="M91.2858 107.07C91.2858 107.07 93.7245 105.355 95.7081 106.082" stroke="#263238" stroke-miterlimit="10"/>
<path d="M100.224 106.171C100.224 106.171 102.752 104.995 103.835 106.077" stroke="#263238" stroke-miterlimit="10"/>
<path d="M95.0799 111.15C95.0799 111.15 94.5358 111.783 92.7302 112.321" stroke="#263238" stroke-miterlimit="10"/>
<path d="M100.041 110.766C100.576 111.134 101.152 111.437 101.758 111.67" stroke="#263238" stroke-miterlimit="10"/>
<path d="M107.738 134.185L108.604 131.962C108.604 131.962 109.717 133.074 112.685 133.074C115.653 133.074 120.476 135.173 120.476 135.173L120.847 135.791C120.847 135.791 121.713 133.197 123.32 132.703C124.928 132.209 127.525 130.48 127.896 129.986L128.267 129.492L129.998 130.974L122.331 141.101L107.986 135.544L107.738 134.185Z" fill="white" stroke="#263238" stroke-miterlimit="10"/>
<path d="M107.862 133.32L104.152 152.957L117.013 155.921L121.713 136.902L107.862 133.32Z" fill="white" stroke="#263238" stroke-miterlimit="10"/>
<path d="M121.713 136.903L129.998 130.975L125.052 149.994L117.013 155.922L121.713 136.903Z" fill="white" stroke="#263238" stroke-miterlimit="10"/>
<path d="M91.9091 149.375L97.5136 147.068C97.5136 147.068 102.46 141.802 102.955 141.308C103.45 140.814 108.396 140.32 108.396 140.32L113.838 143.941C113.838 143.941 114.827 144.766 113.838 145.092C112.848 145.418 110.706 144.435 110.706 144.435L108.56 143.116L107.244 143.778L110.044 146.08C110.044 146.08 110.87 148.224 110.87 149.375C110.854 150.115 110.686 150.843 110.375 151.514L108.728 153.821L103.781 151.351C103.781 151.351 100.813 153.49 100.15 153.821C99.4874 154.152 93.2249 153.658 93.2249 153.658L91.9091 149.375Z" fill="white" stroke="#263238" stroke-miterlimit="10"/>
<path d="M103.737 143.606L105.488 143.275L106.991 143.69" stroke="#263238" stroke-miterlimit="10"/>
<path d="M102.07 146.856C102.07 146.856 105.987 145.77 106.24 145.77C106.492 145.77 109.41 148.768 109.41 148.768L109.742 152.019" stroke="#263238" stroke-miterlimit="10"/>
<path d="M102.238 148.936L105.404 149.02L108.322 150.936C108.618 151.868 108.755 152.844 108.728 153.821" stroke="#263238" stroke-miterlimit="10"/>
<path d="M69.1545 125.17C69.1545 125.17 65.5236 125.664 65.029 128.791C64.5343 131.918 61.2398 158.268 62.2291 161.232C63.2185 164.196 81.5211 159.093 82.179 158.762C82.837 158.431 93.225 155.304 93.3931 154.647C93.5613 153.99 93.8878 148.551 92.4038 148.225C90.9198 147.899 76.7377 148.388 76.7377 148.388L74.759 131.261" fill="white"/>
<path d="M69.1545 125.17C69.1545 125.17 65.5236 125.664 65.029 128.791C64.5343 131.918 61.2398 158.268 62.2291 161.232C63.2185 164.196 81.5211 159.093 82.179 158.762C82.837 158.431 93.225 155.304 93.3931 154.647C93.5613 153.99 93.8878 148.551 92.4038 148.225C90.9198 147.899 76.7377 148.388 76.7377 148.388L74.759 131.261" stroke="#263238" stroke-miterlimit="10"/>
<path d="M76.7377 148.389L67.9969 149.871" stroke="#263238" stroke-miterlimit="10"/>
<path d="M66.3496 147.895L73.9328 148.883" stroke="#263238" stroke-miterlimit="10"/>
<path d="M127.772 139.125C127.772 139.125 124.433 142.583 124.557 143.448C124.681 144.312 126.412 142.954 126.783 142.583C127.154 142.213 128.885 141.225 128.885 140.237C128.885 139.249 128.514 138.137 127.772 139.125Z" fill="white" stroke="#263238" stroke-miterlimit="10"/>
<path d="M128.143 141.225C128.143 141.225 129.133 142.213 129.133 143.077C129.133 143.942 127.03 146.782 126.041 146.782C125.052 146.782 125.794 144.806 126.288 143.942C126.783 143.077 128.143 141.225 128.143 141.225Z" fill="white" stroke="#263238" stroke-miterlimit="10"/>
<path d="M129.133 143.078C129.133 143.078 130.369 143.449 130.369 144.56C130.369 145.672 128.02 147.524 127.401 147.648C126.783 147.771 126.907 146.66 127.401 145.795C127.896 144.931 129.133 143.078 129.133 143.078Z" fill="white" stroke="#263238" stroke-miterlimit="10"/>
<path d="M130.369 144.559C130.623 145.185 130.708 145.866 130.617 146.535C130.493 147.77 128.638 148.511 128.02 148.511C127.401 148.511 127.401 147.646 127.401 147.646C128.448 146.673 129.439 145.643 130.369 144.559Z" fill="white" stroke="#263238" stroke-miterlimit="10"/>
<path d="M91.4738 233.356H89.1241L87.9518 217.795H92.6511L91.4738 233.356Z" fill="white" stroke="#263238" stroke-miterlimit="10"/>
<path d="M69.9557 233.356H67.6061L66.4337 217.795H71.133L69.9557 233.356Z" fill="white" stroke="#263238" stroke-miterlimit="10"/>
<path d="M147.618 233.356H145.269L144.096 217.795H148.796L147.618 233.356Z" fill="white" stroke="#263238" stroke-miterlimit="10"/>
<path d="M126.1 233.356H123.751L122.578 217.795H127.278L126.1 233.356Z" fill="white" stroke="#263238" stroke-miterlimit="10"/>
<path d="M144.344 188.021H88.1991V220.625H144.344V188.021Z" fill="#263238" stroke="#263238" stroke-miterlimit="10"/>
<path d="M185.07 182.805C185.07 182.805 191.006 180.335 192.326 179.347C193.647 178.359 195.458 180.498 194.632 182.805C193.805 185.112 191.664 189.227 188.369 191.203C185.075 193.179 182.433 194.824 181.77 195.481C181.107 196.138 181.276 198.613 178.476 199.601C175.676 200.589 172.208 198.613 170.23 195.481C168.251 192.349 166.93 190.215 166.93 190.215C166.93 190.215 167.098 187.908 170.393 186.757C173.687 185.606 179.297 185.107 179.297 185.107L185.07 182.805Z" fill="white" stroke="#263238" stroke-miterlimit="10"/>
<path d="M117.508 162.837C117.508 162.837 121.421 161.889 122.41 162.383C123.4 162.877 126.699 166.008 126.699 166.008C126.699 166.008 146.649 166.335 148.133 166.996C149.617 167.658 164.952 179.347 168.251 180.992C171.55 182.637 174.35 184.119 174.35 184.119L171.877 194.987V195.975L172.045 197.624C172.045 197.624 163.468 194.987 161.326 194.493C159.184 193.999 150.28 189.39 149.454 189.39C148.628 189.39 141.87 187.414 141.87 187.414C141.87 187.414 140.881 186.756 130.162 185.768C119.442 184.78 107.407 183.625 103.118 183.462C98.8295 183.299 93.225 182.968 91.083 182.143C88.9411 181.318 85.147 175.558 84.4891 172.1C83.8312 168.642 90.7516 165.678 93.7196 164.359C96.6876 163.04 107.738 161.395 109.717 161.395C111.696 161.395 117.508 162.837 117.508 162.837Z" fill="white" stroke="#263238" stroke-miterlimit="10"/>
<path d="M121.258 167.654L117.958 172.431L122.41 169.467" fill="white"/>
<path d="M121.258 167.654L117.958 172.431L122.41 169.467" stroke="#263238" stroke-miterlimit="10"/>
<path d="M171.877 181.981C171.877 181.981 176.66 178.192 177.65 177.041C178.639 175.89 181.938 169.631 182.596 167.655C183.254 165.679 184.906 164.691 186.059 166.173C187.212 167.655 188.038 170.619 188.696 171.938C189.354 173.256 188.369 179.674 186.39 181.818C184.412 183.961 181.676 189.153 181.112 190.215C179.628 193.012 177.318 193.343 175.834 193.506C174.35 193.669 170.724 189.721 170.724 189.721L171.877 181.981Z" fill="white" stroke="#263238" stroke-miterlimit="10"/>
<path d="M98.503 170.949C98.503 170.949 103.45 169.961 107.902 170.455C112.354 170.949 121.421 173.745 125.215 174.733C129.009 175.721 135.766 176.215 138.902 177.371C142.039 178.527 150.28 180.004 156.542 180.004C162.805 180.004 172.372 180.829 172.372 180.829C172.372 180.829 171.056 190.378 171.382 192.191C171.708 193.65 172.149 195.08 172.703 196.469C172.703 196.469 160.005 197.457 156.379 197.951C152.753 198.445 138.076 196.143 135.603 195.481C133.13 194.819 129.504 193.836 127.194 193.836C124.884 193.836 120.432 194.824 114.001 195.481C107.57 196.138 98.503 193.342 97.3504 193.179C96.1978 193.016 92.0723 191.529 91.083 190.872C90.0936 190.215 84.3209 180.004 86.2995 175.721C88.2782 171.438 90.7515 170.781 90.7515 170.781" fill="white"/>
<path d="M98.503 170.949C98.503 170.949 103.45 169.961 107.902 170.455C112.354 170.949 121.421 173.745 125.215 174.733C129.009 175.721 135.766 176.215 138.902 177.371C142.039 178.527 150.28 180.004 156.542 180.004C162.805 180.004 172.372 180.829 172.372 180.829C172.372 180.829 171.056 190.378 171.382 192.191C171.708 193.65 172.149 195.08 172.703 196.469C172.703 196.469 160.005 197.457 156.379 197.951C152.753 198.445 138.076 196.143 135.603 195.481C133.13 194.819 129.504 193.836 127.194 193.836C124.884 193.836 120.432 194.824 114.001 195.481C107.57 196.138 98.503 193.342 97.3504 193.179C96.1978 193.016 92.0723 191.529 91.083 190.872C90.0936 190.215 84.3209 180.004 86.2995 175.721C88.2782 171.438 90.7515 170.781 90.7515 170.781" stroke="#263238" stroke-miterlimit="10"/>
<path d="M128.836 187.562C132.017 188.195 135.385 190.121 139.941 191.905C146.021 194.281 158.189 194.064 159.758 194.281C161.326 194.498 165.308 194.281 165.308 194.281" fill="white"/>
<path d="M128.836 187.562C132.017 188.195 135.385 190.121 139.941 191.905C146.021 194.281 158.189 194.064 159.758 194.281C161.326 194.498 165.308 194.281 165.308 194.281" stroke="#263238" stroke-miterlimit="10"/>
<path d="M104.31 189.794L106.126 190.056C111.409 190.846 121.461 187.947 125.675 187.418" fill="white"/>
<path d="M104.31 189.794L106.126 190.056C111.409 190.846 121.461 187.947 125.675 187.418" stroke="#263238" stroke-miterlimit="10"/>
<path d="M98.9927 189.266C98.9927 189.266 99.9424 189.266 102.421 189.557L98.9927 189.266Z" fill="white"/>
<path d="M98.9927 189.266C98.9927 189.266 99.9424 189.266 102.421 189.557" stroke="#263238" stroke-miterlimit="10"/>
<path d="M66.9235 160.984C66.9235 160.984 60.9875 160.984 59.8003 166.912C58.6131 172.84 63.2629 197.293 63.6339 204.209C64.0049 211.125 65.1971 220.758 65.1971 220.758H86.2204L90.9198 160.984H66.9235Z" fill="#263238" stroke="#263238" stroke-miterlimit="10"/>
<path d="M90.9197 160.984C90.9197 160.984 84.9837 160.984 83.4997 166.912C82.0157 172.84 85.4784 197.293 85.4784 204.209C85.4784 211.125 86.2204 220.758 86.2204 220.758H93.6404C93.6404 220.758 94.3824 202.974 94.3824 200.504C94.3824 198.034 97.3504 172.346 95.8664 167.159C94.3824 161.972 93.1457 161.478 90.9197 160.984Z" fill="#636363" stroke="#263238" stroke-miterlimit="10"/>
<path d="M139.209 233.356H136.86L135.687 217.795H140.386L139.209 233.356Z" fill="white" stroke="#263238" stroke-miterlimit="10"/>
<path d="M159.243 233.356H156.893L155.721 217.795H160.42L159.243 233.356Z" fill="white" stroke="#263238" stroke-miterlimit="10"/>
<path d="M168.642 233.356H166.292L165.12 217.795H169.819L168.642 233.356Z" fill="white" stroke="#263238" stroke-miterlimit="10"/>
<path d="M188.428 233.356H186.079L184.906 217.795H189.606L188.428 233.356Z" fill="white" stroke="#263238" stroke-miterlimit="10"/>
<path d="M136.305 197.541H187.973C188.924 197.541 189.837 197.918 190.509 198.59C191.182 199.262 191.56 200.173 191.56 201.123V226.44H132.694V201.123C132.694 200.65 132.788 200.182 132.97 199.746C133.151 199.31 133.418 198.914 133.753 198.581C134.089 198.248 134.487 197.985 134.925 197.807C135.363 197.628 135.832 197.538 136.305 197.541Z" fill="#263238" stroke="#263238" stroke-miterlimit="10"/>
<path d="M187.998 197.541H169.201C168.25 197.541 167.337 197.918 166.665 198.59C165.992 199.262 165.614 200.173 165.614 201.123V226.44H191.584V201.123C191.583 200.173 191.205 199.263 190.533 198.591C189.86 197.92 188.949 197.542 187.998 197.541Z" fill="#636363" stroke="#263238" stroke-miterlimit="10"/>
</svg>
