<svg width="120" height="120" viewBox="0 0 120 120" fill="none" xmlns="http://www.w3.org/2000/svg">
<g clip-path="url(#clip0_1_2718)">
<path d="M70.0934 75.0561C74.7439 73.8635 78.7836 71.2405 81.776 67.4707C85.4449 62.8485 87.0715 57.0767 86.356 51.2182C85.6405 45.361 82.6694 40.1462 77.9937 36.5436C73.4636 33.0511 67.8161 31.4984 62.0916 32.1718C56.3674 32.845 51.2339 35.6656 47.6369 40.1135C44.5533 43.9267 42.8715 48.5261 42.7732 53.4147C42.6137 61.3508 39.8789 69.0562 35.0725 75.1114L29.8133 81.737C27.4804 84.6759 27.9735 88.9647 30.9124 91.2976L35.8701 95.2328C38.809 97.5656 43.0979 97.0724 45.4307 94.1336L50.6895 87.5085C55.5493 81.3864 62.2445 77.0687 70.0934 75.0561ZM45.5771 53.4712C45.6628 49.2109 47.1291 45.2017 49.8175 41.8771C56.2762 33.8903 68.1478 32.4941 76.2812 38.7647C80.3592 41.9133 82.9484 46.4523 83.5719 51.5584C84.1958 56.6658 82.7777 61.6977 79.5793 65.7272C76.9706 69.0137 73.4495 71.3002 69.3966 72.3396C61.1265 74.4604 54.0166 78.9496 48.8016 85.3365L37.5936 76.4399C42.5779 69.972 45.409 61.8373 45.5771 53.4712ZM32.6007 82.7362L33.3066 81.847L43.5102 92.0425L43.2342 92.3901C43.0889 92.5732 42.9283 92.7364 42.7597 92.8869L32.6007 82.7362ZM35.0616 79.6361L35.8531 78.6389L47.0774 87.5485L45.2652 89.8315L35.0616 79.6361ZM32.6559 89.1011C31.4761 88.1645 30.9681 86.6919 31.2006 85.3017L39.796 93.8902C39.0252 93.8324 38.2635 93.5519 37.6138 93.0363L32.6561 89.101L32.6559 89.1011Z" fill="black"/>
<path d="M52.4713 46.9024C52.8418 46.2596 53.2697 45.6367 53.7431 45.0515C54.2301 44.4493 54.1367 43.5665 53.5346 43.0794C52.9363 42.5959 52.0496 42.6858 51.5625 43.2879C50.997 43.9872 50.4852 44.732 50.0414 45.5019C49.69 46.1115 49.8479 46.8749 50.383 47.2997C50.4369 47.3424 50.4947 47.3818 50.5561 47.4172C51.2271 47.8037 52.0845 47.5734 52.4713 46.9024Z" fill="black"/>
<path d="M45.6924 68.7164C45.806 68.8066 45.9359 68.8805 46.0795 68.9336C46.8061 69.2015 47.6124 68.8296 47.8802 68.1031C49.6012 63.4353 50.5246 58.5466 50.6244 53.5731C50.641 52.751 50.7285 51.9308 50.8848 51.1351C51.034 50.3751 50.5388 49.6383 49.7788 49.489C49.0189 49.3399 48.2819 49.835 48.1327 50.595C47.9454 51.5497 47.8403 52.5326 47.8205 53.5168C47.7269 58.1776 46.8617 62.7587 45.249 67.1329C45.034 67.7159 45.2308 68.35 45.6924 68.7164Z" fill="black"/>
<path d="M73.1985 66.7914C72.832 66.1092 71.9816 65.8534 71.2996 66.22C70.3102 66.7519 69.2481 67.1652 68.1429 67.4485C67.3927 67.6408 66.9406 68.405 67.1329 69.1552C67.2118 69.4632 67.3873 69.7209 67.6185 69.9044C67.9505 70.168 68.3974 70.2785 68.8396 70.165C70.1641 69.8254 71.4384 69.3291 72.6272 68.6904C73.3094 68.3238 73.5653 67.4736 73.1985 66.7914Z" fill="black"/>
<path d="M73.3606 42.8887C79.4162 47.6955 80.4321 56.5329 75.6253 62.5885C75.352 62.9328 75.0608 63.2672 74.7598 63.5823C74.225 64.1424 74.2453 65.0298 74.8053 65.5648C74.837 65.595 74.8695 65.6235 74.9032 65.6502C75.4645 66.0957 76.2832 66.0478 76.7879 65.5194C77.1476 65.1425 77.4956 64.7432 77.8219 64.3321C83.5901 57.0653 82.371 46.4604 75.1042 40.6921C74.4976 40.2107 73.6155 40.3121 73.1341 40.9186C72.6526 41.5252 72.754 42.4073 73.3606 42.8887Z" fill="black"/>
<path d="M79.7465 34.844C80.3531 35.3254 81.2351 35.224 81.7166 34.6175L86.5987 28.4669C87.0802 27.8604 86.9788 26.9783 86.3722 26.4968C85.7657 26.0153 84.8836 26.1168 84.4021 26.7233L79.52 32.8739C79.0385 33.4804 79.1399 34.3625 79.7465 34.844Z" fill="black"/>
<path d="M66.9128 28.1931C66.8366 28.7072 67.0493 29.197 67.4288 29.4983C67.6151 29.6462 67.8417 29.7487 68.0939 29.7861C68.8599 29.8998 69.5732 29.371 69.6869 28.605L70.8396 20.8405C70.9533 20.0742 70.4246 19.3612 69.6586 19.2475C68.8925 19.1338 68.1792 19.6626 68.0655 20.4286L66.9128 28.1931Z" fill="black"/>
<path d="M78.2132 84.9762L75.3285 77.6759C75.0439 76.9554 74.2292 76.6023 73.509 76.8872C72.7887 77.1717 72.4355 77.9863 72.7202 78.7066L75.605 86.007C75.6986 86.2441 75.8497 86.4414 76.0361 86.5894C76.4157 86.8907 76.9414 86.9866 77.4244 86.7957C78.1447 86.5112 78.4978 85.6965 78.2132 84.9762Z" fill="black"/>
<path d="M50.7691 23.1481L53.6538 30.4484C53.7474 30.6856 53.8985 30.8828 54.085 31.0308C54.4645 31.3321 54.9902 31.428 55.4733 31.2372C56.1935 30.9526 56.5467 30.138 56.262 29.4177L53.3773 22.1173C53.0929 21.3969 52.2782 21.0439 51.5578 21.3286C50.8376 21.6131 50.4845 22.4276 50.7691 23.1481Z" fill="black"/>
<path d="M91.8309 73.9727L85.6803 69.0906C85.0738 68.6091 84.1917 68.7105 83.7102 69.3171C83.2288 69.9236 83.3302 70.8057 83.9367 71.2872L90.0872 76.1693C90.6938 76.6508 91.5759 76.5493 92.0574 75.9428C92.5388 75.3362 92.4376 74.4542 91.8309 73.9727Z" fill="black"/>
<path d="M45.2722 38.8061C45.7537 38.1995 45.6523 37.3174 45.0457 36.836L38.8952 31.9538C38.2886 31.4724 37.4065 31.5738 36.9251 32.1803C36.4436 32.7869 36.545 33.669 37.1516 34.1505L43.3021 39.0326C43.9088 39.5142 44.7908 39.4126 45.2722 38.8061Z" fill="black"/>
<path d="M89.2828 58.9697C89.4691 59.1176 89.6956 59.2201 89.9479 59.2575L97.7124 60.4102C98.4784 60.5239 99.1917 59.9951 99.3054 59.2291C99.4191 58.4631 98.8902 57.7497 98.1243 57.6361L90.3598 56.4834C89.5938 56.3697 88.8804 56.8985 88.7668 57.6645C88.6905 58.1783 88.9034 58.6685 89.2828 58.9697Z" fill="black"/>
<path d="M39.0344 48.8666L31.2699 47.7139C30.5039 47.6002 29.7906 48.1289 29.6769 48.8949C29.6007 49.4087 29.8134 49.8989 30.193 50.2002C30.3792 50.348 30.6058 50.4505 30.858 50.488L38.6225 51.6407C39.3885 51.7544 40.1019 51.2256 40.2155 50.4596C40.3295 49.6936 39.8002 48.98 39.0344 48.8666Z" fill="black"/>
<path d="M87.316 45.0448C87.4097 45.282 87.5608 45.4793 87.7472 45.6272C88.1267 45.9285 88.6524 46.0245 89.1355 45.8336L96.4358 42.9489C97.156 42.6643 97.5091 41.8496 97.2246 41.1294C96.9402 40.4093 96.1254 40.0559 95.4051 40.3406L88.1047 43.2253C87.3845 43.5099 87.0314 44.3246 87.316 45.0448Z" fill="black"/>
</g>
<defs>
<clipPath id="clip0_1_2718">
<rect width="85.2353" height="85.2353" fill="white" transform="translate(52.9922) rotate(38.4415)"/>
</clipPath>
</defs>
</svg>
