<svg width="382" height="255" viewBox="0 0 382 255" fill="none" xmlns="http://www.w3.org/2000/svg">
<path d="M204.752 110.201C200.085 107.065 194.491 105.611 188.89 106.078C183.288 106.544 178.011 108.903 173.925 112.767C169.839 116.632 167.186 121.772 166.401 127.345C165.617 132.919 166.748 138.593 169.608 143.438" stroke="#263238" stroke-width="0.969642" stroke-linecap="round" stroke-linejoin="round"/>
<path d="M213.563 120.727C213.081 119.64 212.522 118.589 211.893 117.58" stroke="#263238" stroke-width="0.969642" stroke-linecap="round" stroke-linejoin="round"/>
<path d="M211.45 144.645C213.297 141.892 214.577 138.798 215.213 135.544C215.85 132.289 215.831 128.94 215.158 125.693" stroke="#263238" stroke-width="0.969642" stroke-linecap="round" stroke-linejoin="round"/>
<path d="M166.302 106.141C164.617 107.834 163.107 109.693 161.795 111.689" stroke="#263238" stroke-width="0.969642" stroke-linecap="round" stroke-linejoin="round"/>
<path d="M218.413 152.097C223.399 145.643 225.965 137.64 225.662 129.485C225.36 121.331 222.208 113.541 216.756 107.475C211.304 101.409 203.899 97.4524 195.832 96.2942C187.765 95.1359 179.547 96.8501 172.613 101.138" stroke="#263238" stroke-width="0.969642" stroke-linecap="round" stroke-linejoin="round"/>
<path d="M163.333 152.097C159.893 147.638 157.581 142.413 156.595 136.866C155.608 131.319 155.977 125.616 157.669 120.242" stroke="#263238" stroke-width="0.969642" stroke-linecap="round" stroke-linejoin="round"/>
<path d="M152.428 160.904C154.593 163.672 157.048 166.2 159.752 168.442" stroke="#263238" stroke-width="0.969642" stroke-linecap="round" stroke-linejoin="round"/>
<path d="M218.535 90.4386C209.815 84.4597 199.395 81.4727 188.836 81.9257C178.278 82.3788 168.151 86.2473 159.974 92.9512C151.797 99.6551 146.011 108.833 143.485 119.108C140.958 129.383 141.826 140.201 145.96 149.94" stroke="#263238" stroke-width="0.969642" stroke-linecap="round" stroke-linejoin="round"/>
<path d="M236.463 113.107C235.15 109.718 233.464 106.487 231.436 103.473" stroke="#263238" stroke-width="0.969642" stroke-linecap="round" stroke-linejoin="round"/>
<path d="M224.667 166.111C229.44 161.551 233.239 156.068 235.831 149.993C238.424 143.918 239.756 137.379 239.748 130.773" stroke="#263238" stroke-width="0.969642" stroke-linecap="round" stroke-linejoin="round"/>
<path d="M122.647 130.773C122.648 147.003 128.387 162.707 138.847 175.104C149.308 187.5 163.814 195.787 179.795 198.496" stroke="#263238" stroke-width="0.969642" stroke-linecap="round" stroke-linejoin="round"/>
<path d="M246.008 171.64C254.363 160.319 259.044 146.701 259.417 132.629C259.79 118.557 255.836 104.71 248.092 92.9615C240.347 81.213 229.186 72.1301 216.117 66.9419C203.048 61.7536 188.702 60.7105 175.022 63.9535" stroke="#263238" stroke-width="0.969642" stroke-linecap="round" stroke-linejoin="round"/>
<path d="M122.647 130.774C122.648 115.379 127.813 100.429 137.315 88.3253C146.816 76.221 160.103 67.6634 175.043 64.0254" stroke="#263238" stroke-width="0.969642" stroke-linecap="round" stroke-linejoin="round"/>
<path d="M231.436 186.15C233.178 184.869 234.854 183.509 236.463 182.07" stroke="#263238" stroke-width="0.969642" stroke-linecap="round" stroke-linejoin="round"/>
<path d="M202.312 198.497C210.112 197.189 217.625 194.531 224.514 190.643" stroke="#263238" stroke-width="0.969642" stroke-linecap="round" stroke-linejoin="round"/>
<path d="M190.903 192.345C183.957 192.337 177.298 189.571 172.386 184.652C167.474 179.734 164.711 173.066 164.703 166.111V157.278C164.703 156.899 164.853 156.536 165.121 156.268C165.388 156 165.751 155.85 166.129 155.85H169.695C170.073 155.85 170.436 156 170.703 156.268C170.97 156.536 171.121 156.899 171.121 157.278C171.121 157.656 170.97 158.02 170.703 158.287C170.436 158.555 170.073 158.706 169.695 158.706H167.571V166.111C167.571 172.311 170.031 178.258 174.409 182.642C178.788 187.026 184.726 189.489 190.919 189.489C197.111 189.489 203.049 187.026 207.428 182.642C211.806 178.258 214.266 172.311 214.266 166.111V158.706H212.127C211.749 158.706 211.386 158.555 211.119 158.287C210.851 158.02 210.701 157.656 210.701 157.278C210.701 156.899 210.851 156.536 211.119 156.268C211.386 156 211.749 155.85 212.127 155.85H215.692C216.071 155.85 216.433 156 216.701 156.268C216.968 156.536 217.119 156.899 217.119 157.278V166.111C217.111 173.069 214.345 179.739 209.43 184.658C204.515 189.576 197.852 192.341 190.903 192.345Z" fill="#263238"/>
<path d="M218.529 214.296V211.44C218.53 211.065 218.457 210.693 218.314 210.346C218.171 209.999 217.96 209.684 217.695 209.419C217.43 209.154 217.116 208.943 216.769 208.8C216.423 208.657 216.052 208.583 215.677 208.584H166.129C165.754 208.583 165.383 208.657 165.037 208.8C164.69 208.943 164.376 209.154 164.111 209.419C163.846 209.684 163.636 209.999 163.493 210.346C163.35 210.693 163.276 211.065 163.277 211.44V214.296H218.529Z" fill="#263238"/>
<path d="M193.684 212.063C193.731 211.859 193.755 211.65 193.755 211.44V190.918H188.051V211.44C188.051 211.65 188.075 211.859 188.122 212.063H193.684Z" fill="#263238"/>
<path d="M208.547 130.774C208.587 128.429 208.159 126.099 207.291 123.92C206.422 121.742 205.128 119.758 203.486 118.085C201.843 116.412 199.884 115.084 197.724 114.177C195.563 113.27 193.244 112.803 190.901 112.803C188.558 112.803 186.239 113.27 184.078 114.177C181.917 115.084 179.959 116.412 178.316 118.085C176.673 119.758 175.38 121.742 174.511 123.92C173.642 126.099 173.215 128.429 173.255 130.774V166.112C173.334 170.746 175.227 175.164 178.528 178.413C181.829 181.663 186.272 183.484 190.901 183.484C195.53 183.484 199.973 181.663 203.274 178.413C206.574 175.164 208.468 170.746 208.547 166.112V130.774Z" stroke="#263238" stroke-width="0.969642" stroke-linecap="round" stroke-linejoin="round"/>
<path d="M208.547 130.774C208.587 128.429 208.159 126.099 207.291 123.92C206.422 121.742 205.128 119.758 203.486 118.085C201.843 116.412 199.884 115.084 197.724 114.177C195.563 113.27 193.244 112.803 190.901 112.803C188.558 112.803 186.239 113.27 184.078 114.177C181.917 115.084 179.959 116.412 178.316 118.085C176.673 119.758 175.38 121.742 174.511 123.92C173.642 126.099 173.215 128.429 173.255 130.774V166.112C173.334 170.746 175.227 175.164 178.528 178.413C181.829 181.663 186.272 183.484 190.901 183.484C195.53 183.484 199.973 181.663 203.274 178.413C206.574 175.164 208.468 170.746 208.547 166.112V130.774Z" fill="#E8E8E8"/>
<path d="M183.594 132.635H173.255V136.919H183.594C184.162 136.919 184.706 136.693 185.107 136.291C185.508 135.89 185.733 135.345 185.733 134.777C185.733 134.209 185.508 133.664 185.107 133.262C184.706 132.86 184.162 132.635 183.594 132.635Z" fill="white"/>
<path d="M208.547 132.635H198.212C197.645 132.635 197.101 132.86 196.7 133.262C196.299 133.664 196.073 134.209 196.073 134.777C196.073 135.345 196.299 135.89 196.7 136.291C197.101 136.693 197.645 136.919 198.212 136.919H208.547V132.635Z" fill="white"/>
<path d="M190.903 132.635C190.48 132.635 190.066 132.76 189.715 132.996C189.363 133.231 189.089 133.566 188.927 133.957C188.765 134.348 188.722 134.779 188.805 135.195C188.888 135.61 189.091 135.992 189.39 136.291C189.69 136.591 190.071 136.795 190.486 136.878C190.901 136.96 191.331 136.918 191.722 136.756C192.113 136.594 192.447 136.319 192.682 135.967C192.917 135.615 193.042 135.2 193.042 134.777C193.042 134.209 192.817 133.664 192.416 133.262C192.015 132.86 191.47 132.635 190.903 132.635Z" fill="white"/>
<path d="M190.903 141.295C190.48 141.295 190.066 141.421 189.715 141.656C189.363 141.891 189.089 142.226 188.927 142.617C188.765 143.009 188.722 143.439 188.805 143.855C188.888 144.27 189.091 144.652 189.39 144.952C189.69 145.251 190.071 145.455 190.486 145.538C190.901 145.62 191.331 145.578 191.722 145.416C192.113 145.254 192.447 144.979 192.682 144.627C192.917 144.275 193.042 143.861 193.042 143.437C193.042 142.869 192.817 142.324 192.416 141.922C192.015 141.521 191.47 141.295 190.903 141.295Z" fill="white"/>
<path d="M190.903 149.939C190.48 149.939 190.066 150.065 189.715 150.3C189.363 150.536 189.089 150.87 188.927 151.262C188.765 151.653 188.722 152.084 188.805 152.499C188.888 152.915 189.091 153.297 189.39 153.596C189.69 153.896 190.071 154.1 190.486 154.182C190.901 154.265 191.331 154.223 191.722 154.06C192.113 153.898 192.447 153.624 192.682 153.271C192.917 152.919 193.042 152.505 193.042 152.081C193.042 151.513 192.817 150.969 192.416 150.567C192.015 150.165 191.47 149.939 190.903 149.939Z" fill="white"/>
<path d="M183.594 141.295H173.255V145.579H183.594C184.162 145.579 184.706 145.353 185.107 144.952C185.508 144.55 185.733 144.005 185.733 143.437C185.733 142.869 185.508 142.324 185.107 141.922C184.706 141.521 184.162 141.295 183.594 141.295Z" fill="white"/>
<path d="M208.547 141.295H198.212C197.645 141.295 197.101 141.521 196.7 141.922C196.299 142.324 196.073 142.869 196.073 143.437C196.073 144.005 196.299 144.55 196.7 144.952C197.101 145.353 197.645 145.579 198.212 145.579H208.547V141.295Z" fill="white"/>
<path d="M183.594 149.939H173.255V154.223H183.594C184.162 154.223 184.706 153.998 185.107 153.596C185.508 153.194 185.733 152.65 185.733 152.081C185.733 151.513 185.508 150.969 185.107 150.567C184.706 150.165 184.162 149.939 183.594 149.939Z" fill="white"/>
<path d="M208.547 149.939H198.212C197.645 149.939 197.101 150.165 196.7 150.567C196.299 150.969 196.073 151.513 196.073 152.081C196.073 152.65 196.299 153.194 196.7 153.596C197.101 153.998 197.645 154.223 198.212 154.223H208.547V149.939Z" fill="white"/>
<path d="M208.547 130.774C208.587 128.429 208.159 126.099 207.291 123.92C206.422 121.742 205.128 119.758 203.486 118.085C201.843 116.412 199.884 115.084 197.724 114.177C195.563 113.27 193.244 112.803 190.901 112.803C188.558 112.803 186.239 113.27 184.078 114.177C181.917 115.084 179.959 116.412 178.316 118.085C176.673 119.758 175.38 121.742 174.511 123.92C173.642 126.099 173.215 128.429 173.255 130.774V166.112C173.334 170.746 175.227 175.164 178.528 178.413C181.829 181.663 186.272 183.484 190.901 183.484C195.53 183.484 199.973 181.663 203.274 178.413C206.574 175.164 208.468 170.746 208.547 166.112V130.774Z" stroke="#263238" stroke-width="0.969642" stroke-miterlimit="10"/>
<path d="M173.255 166.111C173.333 170.745 175.227 175.163 178.528 178.412C181.828 181.662 186.272 183.483 190.901 183.483C195.529 183.483 199.973 181.662 203.273 178.412C206.574 175.163 208.468 170.745 208.546 166.111H173.255Z" fill="#263238" stroke="#263238" stroke-width="0.969642" stroke-miterlimit="10"/>
<path d="M340.58 157.212C362.615 135.148 362.615 99.3755 340.58 77.3117C318.546 55.248 282.82 55.248 260.785 77.3118C238.75 99.3755 238.75 135.148 260.785 157.212C282.82 179.275 318.546 179.275 340.58 157.212Z" fill="#E8E8E8"/>
<path d="M292.592 93.8848H253.175C251.189 93.8848 249.579 95.4968 249.579 97.4854V136.954C249.579 138.943 251.189 140.555 253.175 140.555H292.592C294.578 140.555 296.188 138.943 296.188 136.954V97.4854C296.188 95.4968 294.578 93.8848 292.592 93.8848Z" fill="white"/>
<g opacity="0.1">
<path opacity="0.1" d="M253.974 140.56H269.529L279.441 93.8848H263.254L253.358 140.509C253.562 140.541 253.768 140.558 253.974 140.56Z" fill="black"/>
<path opacity="0.1" d="M286.032 93.8848H282.14L272.234 140.56H276.125L286.032 93.8848Z" fill="black"/>
</g>
<path d="M291.792 141.723H253.974C252.503 141.721 251.092 141.135 250.051 140.094C249.01 139.054 248.422 137.643 248.417 136.17V98.2868C248.42 96.8119 249.006 95.3982 250.048 94.3553C251.089 93.3124 252.501 92.7254 253.974 92.7227H291.792C293.266 92.724 294.679 93.3105 295.721 94.3535C296.764 95.3966 297.351 96.811 297.354 98.2868V136.17C297.348 137.644 296.76 139.055 295.718 140.096C294.676 141.137 293.264 141.722 291.792 141.723ZM253.974 95.0534C253.117 95.0534 252.295 95.3939 251.689 96.0001C251.082 96.6063 250.741 97.4287 250.74 98.2868V136.17C250.74 137.029 251.08 137.853 251.687 138.461C252.293 139.069 253.116 139.412 253.974 139.413H291.792C292.217 139.413 292.638 139.329 293.031 139.166C293.423 139.003 293.78 138.764 294.081 138.463C294.381 138.162 294.619 137.804 294.781 137.41C294.944 137.017 295.027 136.595 295.026 136.17V98.2868C295.026 97.8617 294.942 97.4408 294.78 97.0482C294.617 96.6556 294.379 96.2989 294.079 95.9986C293.778 95.6983 293.422 95.4602 293.029 95.298C292.637 95.1358 292.216 95.0527 291.792 95.0534H253.974Z" fill="white" stroke="#263238" stroke-width="0.932567" stroke-miterlimit="10"/>
<path d="M347.411 93.8848H307.994C306.008 93.8848 304.398 95.4968 304.398 97.4854V136.954C304.398 138.943 306.008 140.555 307.994 140.555H347.411C349.397 140.555 351.007 138.943 351.007 136.954V97.4854C351.007 95.4968 349.397 93.8848 347.411 93.8848Z" fill="white"/>
<g opacity="0.1">
<path opacity="0.1" d="M312.863 140.56H328.418L338.325 93.8848H322.143L312.221 140.509C312.433 140.542 312.648 140.559 312.863 140.56Z" fill="black"/>
<path opacity="0.1" d="M344.92 93.8848H341.029L331.117 140.56H335.014L344.92 93.8848Z" fill="black"/>
</g>
<path d="M346.612 141.723H308.794C307.322 141.721 305.912 141.135 304.871 140.094C303.83 139.054 303.242 137.643 303.237 136.17V98.2868C303.24 96.8119 303.826 95.3982 304.867 94.3553C305.909 93.3124 307.321 92.7254 308.794 92.7227H346.612C348.085 92.724 349.499 93.3105 350.541 94.3535C351.584 95.3966 352.171 96.811 352.174 98.2868V136.17C352.168 137.644 351.58 139.055 350.538 140.096C349.495 141.137 348.084 141.722 346.612 141.723ZM308.794 95.0534C307.937 95.0534 307.115 95.3939 306.508 96.0001C305.902 96.6063 305.561 97.4287 305.559 98.2868V136.17C305.559 137.029 305.9 137.853 306.506 138.461C307.113 139.069 307.935 139.412 308.794 139.413H346.612C347.037 139.413 347.458 139.329 347.851 139.166C348.243 139.003 348.6 138.764 348.9 138.463C349.201 138.162 349.439 137.804 349.601 137.41C349.763 137.017 349.847 136.595 349.846 136.17V98.2868C349.846 97.8617 349.762 97.4408 349.6 97.0482C349.437 96.6556 349.199 96.2989 348.898 95.9986C348.598 95.6983 348.241 95.4602 347.849 95.298C347.457 95.1358 347.036 95.0527 346.612 95.0534H308.794Z" fill="white" stroke="#263238" stroke-width="0.932567" stroke-miterlimit="10"/>
<path d="M302.208 226.17C316.225 226.17 327.588 224.496 327.588 222.432C327.588 220.367 316.225 218.693 302.208 218.693C288.191 218.693 276.828 220.367 276.828 222.432C276.828 224.496 288.191 226.17 302.208 226.17Z" fill="#E8E8E8"/>
<path d="M313.423 200.654C313.423 200.654 313.357 211.125 312.252 212.848C310.933 214.888 309.996 217.739 313.49 218.514C316.984 219.29 319.062 223.15 323.223 223.405C327.384 223.66 327.807 221.875 325.994 220.442C324.181 219.009 319.576 215.036 318.97 213.103C318.364 211.17 319.541 200.654 319.541 200.654H313.423Z" fill="white"/>
<path opacity="0.1" d="M318.985 206.733C319.209 203.648 319.54 200.654 319.54 200.654H313.428C313.428 200.654 313.428 203.332 313.25 206.203C315.144 206.539 317.062 206.716 318.985 206.733Z" fill="black"/>
<path d="M313.423 200.654C313.423 200.654 313.357 211.125 312.252 212.848C310.933 214.888 309.996 217.739 313.49 218.514C316.984 219.29 319.062 223.15 323.223 223.405C327.384 223.66 327.807 221.875 325.994 220.442C324.181 219.009 319.576 215.036 318.97 213.103C318.364 211.17 319.541 200.654 319.541 200.654H313.423Z" stroke="#263238" stroke-width="0.932567" stroke-linecap="round" stroke-linejoin="round"/>
<path d="M325.974 220.443C324.275 219.095 322.662 217.642 321.145 216.092C319.694 217.194 315.441 216.153 314.188 215.164C312.66 213.96 312.981 213.343 312.257 212.803L312.232 212.849C310.913 214.889 309.975 217.74 313.47 218.515C316.964 219.29 319.042 223.151 323.203 223.406C327.364 223.661 327.797 221.85 325.974 220.443Z" fill="#BFBFBF" stroke="#263238" stroke-width="0.932567" stroke-miterlimit="10"/>
<path d="M289.928 196.859C289.928 196.859 285.344 206.437 283.612 207.605C281.519 209.002 279.441 211.252 282.308 213.256C285.176 215.26 285.43 219.575 289.133 221.355C292.836 223.135 293.992 221.63 292.948 219.667C291.904 217.703 289.383 212.328 289.663 210.328C289.943 208.329 295.582 198.899 295.582 198.899L289.928 196.859Z" fill="white"/>
<path opacity="0.1" d="M289.928 196.859C289.928 196.859 288.288 200.297 286.602 203.301C287.963 204.652 289.531 205.776 291.247 206.631C293.004 203.224 295.582 198.915 295.582 198.915L289.928 196.859Z" fill="black"/>
<path d="M289.928 196.859C289.928 196.859 285.344 206.437 283.612 207.605C281.519 209.002 279.441 211.252 282.308 213.256C285.176 215.26 285.43 219.575 289.133 221.355C292.836 223.135 293.992 221.63 292.948 219.667C291.904 217.703 289.383 212.328 289.663 210.328C289.943 208.329 295.582 198.899 295.582 198.899L289.928 196.859Z" stroke="#263238" stroke-width="0.932567" stroke-linecap="round" stroke-linejoin="round"/>
<path d="M292.948 219.641C291.972 217.772 291.121 215.84 290.402 213.858C288.593 214.332 284.835 211.909 284.422 210.43C283.622 207.579 284.096 208.314 283.663 207.549L283.622 207.579C281.529 208.977 279.451 211.226 282.318 213.23C285.186 215.235 285.441 219.549 289.143 221.329C292.846 223.109 293.992 221.604 292.948 219.641Z" fill="#BFBFBF" stroke="#263238" stroke-width="0.932567" stroke-miterlimit="10"/>
<path d="M314.162 129.086C314.162 129.086 321.176 162.746 321.644 173.726C322.113 184.707 320.289 204.291 320.289 204.291L312.502 203.781C312.502 203.781 312.451 197.992 311.671 189.934C311.208 185.145 309.751 179.556 309.914 173.905C309.914 173.905 302.514 151.929 302.784 142.285C303.054 132.641 302.784 129.866 302.784 129.866L314.162 129.086Z" fill="#263238" stroke="#263238" stroke-width="0.932567" stroke-linecap="round" stroke-linejoin="round"/>
<path d="M295.413 129.086C295.413 129.086 288.14 135.104 292.357 147.237C294.018 152.051 300.425 174.073 300.425 174.073C298.665 176.089 297.175 178.326 295.994 180.729C293.07 186.512 290.941 195.519 287.335 200.685L292.673 204.291C292.673 204.291 309.909 182.656 311.009 175.787C312.109 168.917 306.934 141.448 306.934 141.448L305.279 130.284L295.413 129.086Z" fill="#263238" stroke="#263238" stroke-width="0.932567" stroke-linecap="round" stroke-linejoin="round"/>
<path d="M327.67 106.274C327.574 105.134 327.19 104.037 326.554 103.087C327.088 102.383 327.55 101.628 327.934 100.833C328.322 99.8993 327.807 98.5784 326.732 100.159C325.658 101.74 324.476 102.893 324.904 104.867C325.129 106.141 324.898 107.454 324.252 108.574L326.732 110.518L331.678 106.591L327.67 106.274Z" fill="white" stroke="#263238" stroke-width="0.932567" stroke-linecap="round" stroke-linejoin="round"/>
<path d="M329.999 96.1852L325.841 97.3172C325.459 97.4214 325.233 97.8165 325.337 98.1998L327.706 106.925C327.81 107.309 328.205 107.535 328.587 107.431L332.746 106.299C333.128 106.194 333.354 105.799 333.25 105.416L330.881 96.6905C330.777 96.3072 330.382 96.081 329.999 96.1852Z" fill="#263238" stroke="#263238" stroke-width="0.932567" stroke-linecap="round" stroke-linejoin="round"/>
<path d="M330.91 96.7993L325.366 98.3086L327.678 106.823L333.222 105.313L330.91 96.7993Z" fill="#E8E8E8" stroke="#263238" stroke-width="0.932567" stroke-linecap="round" stroke-linejoin="round"/>
<path d="M329.799 99.7453C329.731 99.4828 329.562 99.2581 329.329 99.1203C329.096 98.9826 328.818 98.9432 328.556 99.0109C328.294 99.0785 328.069 99.2476 327.932 99.481C327.794 99.7143 327.755 99.9928 327.822 100.255C327.889 100.51 328.22 101.709 328.332 102.132L330.308 101.597C330.196 101.204 329.86 99.9595 329.799 99.7453Z" fill="#263238"/>
<path d="M329.615 102.978C329.86 102.912 330.072 102.756 330.208 102.542C330.345 102.328 330.397 102.071 330.354 101.82L328.393 102.33C328.478 102.572 328.651 102.774 328.877 102.894C329.104 103.014 329.367 103.044 329.615 102.978Z" fill="#263238"/>
<path d="M331.459 104.04L330.175 104.392L329.91 103.423C330.276 103.28 330.575 103.008 330.752 102.658C330.929 102.307 330.97 101.904 330.868 101.525L330.725 101.015C330.723 101.005 330.718 100.994 330.712 100.985C330.706 100.976 330.697 100.969 330.688 100.963C330.678 100.957 330.668 100.953 330.657 100.952C330.645 100.95 330.634 100.951 330.624 100.954L330.41 101.01C330.399 101.013 330.388 101.018 330.379 101.025C330.371 101.033 330.363 101.041 330.358 101.051C330.353 101.062 330.35 101.073 330.349 101.084C330.348 101.095 330.35 101.107 330.354 101.117C330.356 101.128 330.361 101.139 330.367 101.148C330.374 101.157 330.382 101.164 330.391 101.17C330.401 101.176 330.411 101.18 330.423 101.181C330.434 101.183 330.445 101.182 330.455 101.179L330.583 101.143L330.7 101.576C330.749 101.756 330.762 101.944 330.738 102.129C330.715 102.314 330.655 102.492 330.562 102.654C330.47 102.816 330.346 102.957 330.199 103.071C330.052 103.185 329.884 103.269 329.704 103.318C329.525 103.367 329.337 103.38 329.153 103.356C328.968 103.333 328.79 103.273 328.628 103.18C328.467 103.088 328.325 102.964 328.211 102.817C328.097 102.669 328.014 102.501 327.965 102.321L327.843 101.888L327.97 101.857C327.992 101.85 328.01 101.835 328.021 101.815C328.032 101.795 328.036 101.772 328.031 101.75C328.028 101.739 328.023 101.728 328.016 101.719C328.009 101.71 328 101.703 327.99 101.697C327.98 101.691 327.969 101.688 327.958 101.686C327.947 101.685 327.935 101.686 327.924 101.689L327.715 101.745C327.704 101.748 327.694 101.753 327.685 101.76C327.676 101.767 327.668 101.776 327.662 101.786C327.657 101.795 327.653 101.806 327.652 101.818C327.65 101.829 327.651 101.841 327.654 101.852L327.797 102.362C327.9 102.74 328.139 103.067 328.468 103.28C328.797 103.492 329.193 103.576 329.579 103.514L329.839 104.483L328.556 104.83C328.533 104.836 328.513 104.846 328.495 104.86C328.476 104.874 328.461 104.892 328.45 104.912C328.438 104.932 328.431 104.954 328.428 104.976C328.425 104.999 328.427 105.022 328.433 105.044L328.479 105.213L331.719 104.33L331.673 104.162C331.667 104.14 331.657 104.119 331.643 104.101C331.629 104.083 331.611 104.068 331.591 104.056C331.571 104.045 331.55 104.038 331.527 104.035C331.504 104.032 331.481 104.034 331.459 104.04Z" fill="#263238"/>
<path d="M331.984 98.7865C331.474 98.8426 331.051 99.6433 331.209 100.77C331.367 101.898 332.401 100.674 332.462 100.317C332.523 99.9595 332.956 98.6896 331.984 98.7865Z" fill="white" stroke="#263238" stroke-width="0.932567" stroke-linecap="round" stroke-linejoin="round"/>
<path d="M333.104 100.469C332.968 100.467 332.834 100.496 332.71 100.553C332.587 100.61 332.478 100.694 332.392 100.798C332.305 100.903 332.243 101.026 332.21 101.158C332.178 101.29 332.175 101.428 332.202 101.561C332.299 102.657 332.513 102.402 332.513 102.402C332.518 102.854 332.61 103.301 332.783 103.718C333.038 104.203 333.71 103.468 333.71 103.03C333.71 102.591 333.639 100.286 333.104 100.469Z" fill="white" stroke="#263238" stroke-width="0.932567" stroke-linecap="round" stroke-linejoin="round"/>
<path d="M332.518 102.383C332.518 102.383 333.399 102.123 333.608 101.48L332.518 102.383Z" fill="white"/>
<path d="M332.518 102.383C332.518 102.383 333.399 102.123 333.608 101.48" stroke="#263238" stroke-width="0.932567" stroke-linecap="round" stroke-linejoin="round"/>
<path d="M324.863 107.019C325.034 106.313 325.048 105.578 324.904 104.866C324.476 102.893 325.652 101.735 326.732 100.159C327.812 98.5832 328.321 99.899 327.934 100.832C327.55 101.628 327.088 102.383 326.554 103.087C327.242 104.01 327.632 105.122 327.669 106.274C327.669 106.646 327.669 107.758 327.669 107.758" fill="white"/>
<path d="M324.863 107.019C325.034 106.313 325.048 105.578 324.904 104.866C324.476 102.893 325.652 101.735 326.732 100.159C327.812 98.5832 328.321 99.899 327.934 100.832C327.55 101.628 327.088 102.383 326.554 103.087C327.242 104.01 327.632 105.122 327.669 106.274C327.669 106.646 327.669 107.758 327.669 107.758" stroke="#263238" stroke-width="0.932567" stroke-linecap="round" stroke-linejoin="round"/>
<path d="M311.203 94.691C312.975 94.3187 313.52 93.8648 313.52 93.8648C312.191 88.5047 316.958 70.4762 301.933 69.6449C286.908 68.8136 295.312 94.3595 295.312 94.3595L296.947 94.5686L296.106 89.4329L298.062 94.6961C303.848 95.3234 307.556 95.2061 309.889 94.9103C309.572 92.5939 309.54 90.2475 309.792 87.9233C310.086 90.2124 310.558 92.4752 311.203 94.691Z" fill="#263238"/>
<path d="M301.928 69.9662C301.344 69.386 300.582 69.02 299.765 68.9275C298.948 68.8349 298.124 69.0212 297.425 69.4563" stroke="#263238" stroke-width="0.932567" stroke-linecap="round" stroke-linejoin="round"/>
<path d="M313.372 97.9601V97.7969C313.342 97.8683 313.311 97.9193 313.372 97.9601Z" fill="white" stroke="#263238" stroke-width="0.932567" stroke-linecap="round" stroke-linejoin="round"/>
<path d="M324.252 108.574L317.121 115.204L317.254 105.269C317.278 103.769 316.922 102.287 316.22 100.961C315.519 99.635 314.493 98.5083 313.24 97.6855L313.51 123.833C320.514 124.277 326.753 110.517 326.753 110.517C326.499 110.033 326.144 109.61 325.713 109.274C325.281 108.939 324.783 108.7 324.252 108.574Z" fill="white"/>
<path opacity="0.1" d="M316.026 120.625C314.967 120.722 314.727 118.692 314.743 116.719C314.446 117.461 314.249 118.24 314.157 119.034C314.065 121.283 314.065 123.512 314.101 125.419C322.077 121.798 322.174 118.57 324.221 115.275C322.917 116.933 318.068 120.437 316.026 120.625Z" fill="black"/>
<path d="M324.252 108.574L317.121 115.204L317.254 105.269C317.278 103.769 316.922 102.287 316.22 100.961C315.519 99.635 314.493 98.5083 313.24 97.6855L313.51 123.833C320.514 124.277 326.753 110.517 326.753 110.517C326.499 110.033 326.144 109.61 325.713 109.274C325.281 108.939 324.783 108.7 324.252 108.574V108.574Z" stroke="#263238" stroke-width="0.932567" stroke-linecap="round" stroke-linejoin="round"/>
<path d="M322.739 109.429L324.303 107.945L327.731 110.302L326.732 111.964L322.739 109.429Z" fill="#E8E8E8" stroke="#263238" stroke-width="0.932567" stroke-linecap="round" stroke-linejoin="round"/>
<path d="M316.057 110.16C313.184 122.91 314.61 131.289 314.61 131.289C314.61 131.289 307.678 136.211 293.106 132.039C293.106 132.039 295.755 125.445 295.042 120.416C294.609 117.32 291.705 106.192 291.705 106.192C291.705 106.192 290.33 101.327 290.962 97.3998C292.179 96.6093 294.787 95.6556 299.396 95.319C299.473 95.0609 299.526 94.7963 299.554 94.5286C299.701 93.2317 299.733 91.9245 299.651 90.6219C299.585 89.0919 299.457 87.873 299.457 87.873H305.019C305.019 87.873 305.091 89.2806 305.269 90.933C305.366 91.9071 305.503 92.9731 305.676 93.8911C305.762 94.3506 305.873 94.8051 306.008 95.2527C311.559 96.0892 313.648 97.5375 314.05 98.7972C315.94 104.479 316.668 107.437 316.057 110.16Z" fill="white" stroke="#263238" stroke-width="0.932567" stroke-linecap="round" stroke-linejoin="round"/>
<path d="M305.284 91.8299C304.831 92.8499 304.265 93.6557 302.305 93.6455C300.848 93.6455 299.534 92.3552 299.386 91.8605C299.544 90.7436 299.386 90.3305 299.32 89.0657C301.193 89.0128 303.068 89.122 304.922 89.3921C305.002 90.2103 305.122 91.024 305.284 91.8299Z" fill="#263238"/>
<path d="M308.982 80.9117C308.982 80.1569 308.982 79.6928 308.982 79.6928C308.569 77.714 306.124 77.612 304.999 77.6171C303.812 77.6555 302.629 77.4489 301.525 77.0102C301.887 77.8761 302.485 78.6221 303.252 79.1624C299.065 78.2291 298.739 76.0157 298.897 74.8223C297.41 80.0294 295.479 80.2487 295.479 80.2487C295.479 80.2487 295.479 80.7128 295.566 81.4625C295.066 81.5774 294.624 81.8692 294.322 82.2843C294.02 82.6994 293.877 83.2099 293.921 83.7218C293.915 84.2731 294.125 84.8048 294.506 85.2031C294.887 85.6015 295.408 85.8349 295.958 85.8536C296.068 85.8487 296.177 85.8333 296.284 85.8077C297.17 89.2553 298.989 93.0038 302.712 92.8559C306.435 92.708 307.953 88.8218 308.554 85.313C308.664 85.3231 308.775 85.3231 308.885 85.313C309.437 85.2575 309.945 84.9855 310.297 84.5564C310.649 84.1273 310.817 83.576 310.764 83.0231C310.766 82.5164 310.588 82.0257 310.261 81.6388C309.935 81.2518 309.481 80.9941 308.982 80.9117Z" fill="white" stroke="#263238" stroke-width="0.932567" stroke-linecap="round" stroke-linejoin="round"/>
<path d="M301.525 86.75L302.167 87.2141C302.248 87.2745 302.346 87.3072 302.447 87.3072C302.548 87.3072 302.646 87.2745 302.727 87.2141L303.318 86.7602" stroke="#263238" stroke-width="0.932567" stroke-linecap="round" stroke-linejoin="round"/>
<path d="M303.97 83.8483C303.97 83.8483 304.765 82.7976 306.349 83.5372" stroke="#263238" stroke-width="0.932567" stroke-linecap="round" stroke-linejoin="round"/>
<path d="M300.507 83.8483C300.507 83.8483 299.717 82.7976 298.128 83.5372" stroke="#263238" stroke-width="0.932567" stroke-linecap="round" stroke-linejoin="round"/>
<path d="M304.001 88.6016C303.559 88.9517 303.018 89.1527 302.455 89.1756C301.892 89.1985 301.337 89.0422 300.868 88.7291" stroke="#263238" stroke-width="0.932567" stroke-linecap="round" stroke-linejoin="round"/>
<path d="M310.729 176.904C310.548 177.464 310.337 178.014 310.098 178.552" stroke="white" stroke-width="0.932567" stroke-linecap="round" stroke-linejoin="round"/>
<path d="M303.293 139.74L304.953 141.229C306.435 142.558 307.409 144.361 307.709 146.329C309.13 155.382 311.412 164.689 311.132 174.522" stroke="white" stroke-width="0.932567" stroke-linecap="round" stroke-linejoin="round"/>
<path d="M309.578 140.004L306.945 143.773L307.276 143.309" stroke="white" stroke-width="0.932567" stroke-linecap="round" stroke-linejoin="round"/>
<path d="M299.172 124.883L299.926 125.658" stroke="#263238" stroke-width="0.932567" stroke-linecap="round" stroke-linejoin="round"/>
<path d="M293.717 114.199C294.51 117.452 295.921 120.522 297.873 123.242" stroke="#263238" stroke-width="0.932567" stroke-linecap="round" stroke-linejoin="round"/>
<path d="M293.864 79.7117L293.299 79.7344L293.38 81.7473L293.944 81.7246L293.864 79.7117Z" fill="white" stroke="#263238" stroke-width="0.932567" stroke-linecap="round" stroke-linejoin="round"/>
<path d="M311.105 78.985L310.54 79.0078L310.621 81.0207L311.186 80.9979L311.105 78.985Z" fill="white" stroke="#263238" stroke-width="0.932567" stroke-linecap="round" stroke-linejoin="round"/>
<path d="M301.846 70.574C299.447 70.6716 297.179 71.6963 295.519 73.4329C293.859 75.1694 292.936 77.4827 292.943 79.8866C292.944 79.9317 292.953 79.9762 292.971 80.0175C292.99 80.0587 293.016 80.096 293.049 80.1269C293.081 80.1578 293.12 80.1818 293.162 80.1975C293.204 80.2131 293.249 80.2202 293.294 80.2181H293.89C293.978 80.2141 294.06 80.1762 294.12 80.1124C294.18 80.0486 294.213 79.964 294.211 79.8764C294.225 77.8141 295.032 75.8364 296.464 74.354C297.896 72.8717 299.843 71.9985 301.902 71.9158C303.96 71.8331 305.97 72.5473 307.516 73.91C309.063 75.2727 310.025 77.1792 310.204 79.2338C310.209 79.3209 310.249 79.4023 310.314 79.4606C310.378 79.5188 310.464 79.5491 310.551 79.5449H311.146C311.191 79.5437 311.235 79.5333 311.276 79.5145C311.317 79.4956 311.353 79.4687 311.383 79.4353C311.413 79.4019 311.436 79.3628 311.451 79.3202C311.465 79.2777 311.471 79.2327 311.467 79.1879C311.296 76.7817 310.196 74.5369 308.4 72.929C306.604 71.3211 304.253 70.4764 301.846 70.574Z" fill="#E8E8E8" stroke="#263238" stroke-width="0.932567" stroke-linecap="round" stroke-linejoin="round"/>
<path d="M294.904 80.9414H294.772C294.388 80.9571 294.011 81.0484 293.662 81.2101C293.313 81.3718 293 81.6006 292.739 81.8836C292.214 82.455 291.936 83.2123 291.968 83.9886C292 84.765 292.338 85.497 292.909 86.0235C293.479 86.55 294.236 86.828 295.011 86.7962H295.138L294.904 80.9414Z" fill="#E8E8E8" stroke="#263238" stroke-width="0.932567" stroke-linecap="round" stroke-linejoin="round"/>
<path d="M295.693 83.8342C295.78 86.0068 295.933 87.4042 295.184 87.4501C294.435 87.496 294.12 86.0782 294.033 83.8801C293.946 81.682 294.145 80.3101 294.894 80.2591C295.643 80.2081 295.607 81.6616 295.693 83.8342Z" fill="white" stroke="#263238" stroke-width="0.932567" stroke-linecap="round" stroke-linejoin="round"/>
<path d="M309.624 80.35H309.756C310.14 80.3346 310.523 80.3951 310.884 80.5279C311.244 80.6608 311.575 80.8635 311.858 81.1245C312.14 81.3854 312.368 81.6995 312.529 82.0488C312.69 82.398 312.781 82.7757 312.797 83.1601C312.812 83.5445 312.752 83.9282 312.619 84.2893C312.486 84.6504 312.284 84.9817 312.023 85.2645C311.763 85.5472 311.449 85.7757 311.1 85.9371C310.751 86.0984 310.374 86.1894 309.99 86.2048H309.858L309.624 80.35Z" fill="#E8E8E8" stroke="#263238" stroke-width="0.932567" stroke-linecap="round" stroke-linejoin="round"/>
<path d="M309.043 83.2982C309.13 85.4708 309.094 86.8682 309.843 86.8682C310.591 86.8682 310.79 85.4147 310.703 83.2421C310.617 81.0695 310.301 79.6721 309.557 79.6976C308.814 79.7231 308.956 81.1256 309.043 83.2982Z" fill="white" stroke="#263238" stroke-width="0.932567" stroke-linecap="round" stroke-linejoin="round"/>
<path d="M297.028 81.9217C297.028 81.9217 298.968 80.3152 300.807 81.7687" stroke="#263238" stroke-width="0.932567" stroke-linecap="round" stroke-linejoin="round"/>
<path d="M307.678 81.6004C307.678 81.6004 305.641 80.1571 303.899 81.7534" stroke="#263238" stroke-width="0.932567" stroke-linecap="round" stroke-linejoin="round"/>
<path d="M298.663 94.6094C298.663 94.6094 299.824 97.5266 304.133 98.1794C304.133 98.1794 302.412 101.749 300.059 100.347C297.242 98.6741 296.702 95.201 296.702 95.201L298.663 94.6094Z" fill="#E8E8E8" stroke="#263238" stroke-width="0.932567" stroke-linecap="round" stroke-linejoin="round"/>
<path d="M306.558 94.9727C306.574 95.7493 306.316 96.5067 305.83 97.112C305.343 97.7172 304.66 98.1317 303.899 98.2826C303.899 98.2826 305.992 101.72 307.709 99.8126C309.425 97.9052 308.091 95.3093 308.091 95.3093L306.558 94.9727Z" fill="#E8E8E8" stroke="#263238" stroke-width="0.932567" stroke-linecap="round" stroke-linejoin="round"/>
<path d="M305.6 105.096C305.6 105.197 305.57 105.295 305.514 105.379C305.458 105.463 305.379 105.529 305.286 105.567C305.193 105.606 305.09 105.616 304.992 105.596C304.893 105.576 304.802 105.528 304.731 105.457C304.659 105.385 304.611 105.294 304.591 105.195C304.572 105.097 304.582 104.994 304.62 104.901C304.659 104.808 304.724 104.728 304.808 104.672C304.892 104.616 304.99 104.586 305.091 104.586C305.226 104.586 305.355 104.64 305.451 104.735C305.547 104.831 305.6 104.961 305.6 105.096Z" fill="#E8E8E8" stroke="#263238" stroke-width="0.932567" stroke-linecap="round" stroke-linejoin="round"/>
<path d="M306.293 115.137C306.293 115.238 306.263 115.336 306.207 115.42C306.151 115.504 306.071 115.57 305.978 115.608C305.885 115.647 305.783 115.657 305.684 115.637C305.585 115.617 305.494 115.569 305.423 115.498C305.352 115.426 305.303 115.335 305.284 115.236C305.264 115.138 305.274 115.035 305.313 114.942C305.351 114.849 305.417 114.769 305.5 114.713C305.584 114.657 305.683 114.627 305.783 114.627C305.918 114.627 306.048 114.681 306.144 114.776C306.239 114.872 306.293 115.002 306.293 115.137Z" fill="#E8E8E8" stroke="#263238" stroke-width="0.932567" stroke-linecap="round" stroke-linejoin="round"/>
<path d="M306.944 125.418C306.944 125.519 306.915 125.618 306.859 125.702C306.803 125.785 306.723 125.851 306.63 125.889C306.537 125.928 306.435 125.938 306.336 125.918C306.237 125.899 306.146 125.85 306.075 125.779C306.004 125.708 305.955 125.617 305.936 125.518C305.916 125.419 305.926 125.316 305.965 125.223C306.003 125.13 306.068 125.05 306.152 124.994C306.236 124.938 306.334 124.908 306.435 124.908C306.57 124.908 306.7 124.962 306.795 125.058C306.891 125.153 306.944 125.283 306.944 125.418Z" fill="#E8E8E8" stroke="#263238" stroke-width="0.932567" stroke-linecap="round" stroke-linejoin="round"/>
<path d="M351.827 57.043H248.626C248.148 57.043 247.76 57.4311 247.76 57.91V59.7715C247.76 60.2503 248.148 60.6385 248.626 60.6385H351.827C352.305 60.6385 352.693 60.2503 352.693 59.7715V57.91C352.693 57.4311 352.305 57.043 351.827 57.043Z" fill="white"/>
<path d="M351.654 60.6387H248.799" stroke="#263238" stroke-width="0.932567" stroke-linecap="round" stroke-linejoin="round"/>
<path d="M248.799 57.043H351.654" stroke="#263238" stroke-width="0.932567" stroke-linecap="round" stroke-linejoin="round"/>
<path d="M280.816 81.2372C280.816 81.2372 276.563 80.6405 276.334 81.7829C276.105 82.9253 276.232 84.7562 276.965 85.3529C278.351 86.4851 278.096 88.6016 278.096 88.6016L281.661 88.2548L281.753 86.4698C281.936 85.8874 282.264 85.3611 282.706 84.9398C283.989 83.7311 283.48 82.3898 283.261 80.7731C283.042 79.1564 281.977 79.8755 281.891 80.7119C281.865 81.4577 281.927 82.204 282.074 82.9355L280.816 81.2372Z" fill="white" stroke="#263238" stroke-width="0.932567" stroke-linecap="round" stroke-linejoin="round"/>
<path d="M281.814 82.8086C281.814 82.8086 280.795 83.0177 279.991 84.461L281.814 82.8086Z" fill="white"/>
<path d="M281.814 82.8086C281.814 82.8086 280.795 83.0177 279.991 84.461" stroke="#263238" stroke-width="0.932567" stroke-linecap="round" stroke-linejoin="round"/>
<path d="M281.814 83.1859H276.66C276.302 83.1968 275.948 83.1219 275.625 82.9675C275.303 82.8132 275.022 82.5838 274.806 82.2985C274.621 82.0394 274.522 81.7292 274.522 81.4111C274.522 81.093 274.621 80.7829 274.806 80.5237L277.383 76.7344C277.606 76.4531 277.889 76.2257 278.212 76.0695C278.535 75.9132 278.889 75.832 279.247 75.832C279.606 75.832 279.96 75.9132 280.282 76.0695C280.605 76.2257 280.889 76.4531 281.111 76.7344L283.694 80.5237C283.878 80.7829 283.977 81.093 283.977 81.4111C283.977 81.7292 283.878 82.0394 283.694 82.2985C283.476 82.588 283.191 82.8201 282.863 82.9747C282.536 83.1293 282.176 83.2018 281.814 83.1859ZM275.702 80.9419C275.605 81.0772 275.553 81.2395 275.553 81.406C275.553 81.5726 275.605 81.7349 275.702 81.8701C275.815 82.0178 275.961 82.1364 276.128 82.2162C276.295 82.296 276.479 82.3348 276.665 82.3291H281.814C282 82.3352 282.184 82.2967 282.351 82.2168C282.519 82.1369 282.665 82.0181 282.777 81.8701C282.875 81.7352 282.927 81.5727 282.927 81.406C282.927 81.2393 282.875 81.0769 282.777 80.9419L280.2 77.1577C280.087 77.0065 279.94 76.8848 279.771 76.803C279.601 76.7213 279.415 76.682 279.227 76.6885C279.039 76.6815 278.853 76.7206 278.685 76.8024C278.516 76.8842 278.37 77.0062 278.259 77.1577L275.677 80.947L275.702 80.9419Z" fill="#263238"/>
<path d="M277.693 81.2887C277.958 82.6351 277.795 83.1145 277.184 83.0431C276.573 82.9717 275.957 81.3193 276.802 80.9419C277.648 80.5645 278.33 80.2738 278.33 80.2738C278.601 80.1273 278.902 80.0459 279.21 80.0361C279.517 80.0264 279.823 80.0886 280.103 80.2177C281.315 79.7944 281.529 80.6767 281.529 80.6767C281.529 80.6767 282.405 83.2267 281.676 83.3134C280.948 83.4001 280.347 81.1867 280.347 81.1867C280.347 81.1867 281.259 83.6143 280.423 83.6551C279.588 83.6959 279.104 81.2989 279.104 81.2989C279.104 81.2989 279.649 83.4052 278.86 83.4766C278.07 83.548 277.693 81.2887 277.693 81.2887Z" fill="white" stroke="#263238" stroke-width="0.932567" stroke-linecap="round" stroke-linejoin="round"/>
<path d="M279.619 59.6758H278.784V76.4191H279.619V59.6758Z" fill="white" stroke="#263238" stroke-width="0.932567" stroke-linecap="round" stroke-linejoin="round"/>
<path d="M280.082 76.1577L279.537 76.9584C279.502 77.004 279.456 77.0408 279.404 77.0662C279.352 77.0916 279.295 77.1047 279.237 77.1047C279.179 77.1047 279.122 77.0916 279.07 77.0662C279.018 77.0408 278.972 77.004 278.936 76.9584L278.396 76.1577C278.264 75.969 278.432 75.7344 278.692 75.7344H279.782C280.047 75.7344 280.21 75.9894 280.082 76.1577Z" fill="white" stroke="#263238" stroke-width="0.932567" stroke-linecap="round" stroke-linejoin="round"/>
<path d="M279.685 70.5371H278.794C278.549 70.5371 278.351 70.7358 278.351 70.9808V74.6936C278.351 74.9387 278.549 75.1373 278.794 75.1373H279.685C279.93 75.1373 280.128 74.9387 280.128 74.6936V70.9808C280.128 70.7358 279.93 70.5371 279.685 70.5371Z" fill="white" stroke="#263238" stroke-width="0.932567" stroke-linecap="round" stroke-linejoin="round"/>
<path d="M279.685 56.4668H278.794C278.549 56.4668 278.351 56.6654 278.351 56.9105V60.6233C278.351 60.8683 278.549 61.067 278.794 61.067H279.685C279.93 61.067 280.128 60.8683 280.128 60.6233V56.9105C280.128 56.6654 279.93 56.4668 279.685 56.4668Z" fill="white" stroke="#263238" stroke-width="0.932567" stroke-linecap="round" stroke-linejoin="round"/>
<path d="M269.697 83.186H264.543C264.185 83.1969 263.83 83.122 263.508 82.9677C263.185 82.8133 262.904 82.5839 262.689 82.2986C262.504 82.0395 262.405 81.7293 262.405 81.4112C262.405 81.0932 262.504 80.783 262.689 80.5238L265.266 76.7346C265.489 76.4531 265.773 76.2257 266.096 76.0695C266.419 75.9132 266.774 75.832 267.132 75.832C267.491 75.832 267.846 75.9132 268.169 76.0695C268.492 76.2257 268.776 76.4531 268.999 76.7346L271.576 80.5238C271.761 80.783 271.86 81.0932 271.86 81.4112C271.86 81.7293 271.761 82.0395 271.576 82.2986C271.359 82.5881 271.074 82.8202 270.746 82.9748C270.419 83.1294 270.059 83.2019 269.697 83.186ZM263.585 80.942C263.488 81.0773 263.436 81.2396 263.436 81.4061C263.436 81.5727 263.488 81.735 263.585 81.8702C263.697 82.0179 263.843 82.1365 264.011 82.2163C264.178 82.2962 264.362 82.3349 264.548 82.3292H269.702C269.888 82.3348 270.073 82.2962 270.241 82.2164C270.409 82.1366 270.556 82.018 270.67 81.8702C270.767 81.735 270.819 81.5727 270.819 81.4061C270.819 81.2396 270.767 81.0773 270.67 80.942L268.093 77.1578C267.98 77.0066 267.833 76.8849 267.664 76.8031C267.494 76.7214 267.308 76.6821 267.12 76.6886C266.932 76.6816 266.746 76.7207 266.578 76.8026C266.409 76.8844 266.263 77.0064 266.152 77.1578L263.57 80.9471L263.585 80.942Z" fill="#263238"/>
<path d="M267.502 59.6758H266.667V76.4191H267.502V59.6758Z" fill="white" stroke="#263238" stroke-width="0.932567" stroke-linecap="round" stroke-linejoin="round"/>
<path d="M267.965 76.1577L267.4 76.9584C267.364 77.004 267.319 77.0408 267.267 77.0662C267.215 77.0916 267.157 77.1047 267.1 77.1047C267.042 77.1047 266.985 77.0916 266.932 77.0662C266.88 77.0408 266.835 77.004 266.799 76.9584L266.259 76.1577C266.127 75.969 266.295 75.7344 266.555 75.7344H267.645C267.909 75.7344 268.093 75.9894 267.965 76.1577Z" fill="white" stroke="#263238" stroke-width="0.932567" stroke-linecap="round" stroke-linejoin="round"/>
<path d="M267.568 70.5371H266.677C266.432 70.5371 266.234 70.7358 266.234 70.9808V74.6936C266.234 74.9387 266.432 75.1373 266.677 75.1373H267.568C267.813 75.1373 268.011 74.9387 268.011 74.6936V70.9808C268.011 70.7358 267.813 70.5371 267.568 70.5371Z" fill="white" stroke="#263238" stroke-width="0.932567" stroke-linecap="round" stroke-linejoin="round"/>
<path d="M267.568 56.4668H266.677C266.432 56.4668 266.234 56.6654 266.234 56.9105V60.6233C266.234 60.8683 266.432 61.067 266.677 61.067H267.568C267.813 61.067 268.011 60.8683 268.011 60.6233V56.9105C268.011 56.6654 267.813 56.4668 267.568 56.4668Z" fill="white" stroke="#263238" stroke-width="0.932567" stroke-linecap="round" stroke-linejoin="round"/>
<path d="M322.209 83.1859H317.055C316.697 83.1977 316.342 83.1232 316.02 82.9687C315.697 82.8143 315.416 82.5844 315.201 82.2985C315.016 82.0394 314.917 81.7292 314.917 81.4111C314.917 81.0931 315.016 80.7829 315.201 80.5237L317.778 76.7344C318.001 76.4531 318.284 76.2257 318.607 76.0695C318.93 75.9132 319.284 75.832 319.642 75.832C320.001 75.832 320.355 75.9132 320.677 76.0695C321 76.2257 321.284 76.4531 321.506 76.7344L324.084 80.5237C324.268 80.7829 324.367 81.0931 324.367 81.4111C324.367 81.7292 324.268 82.0394 324.084 82.2985C323.866 82.5873 323.582 82.819 323.256 82.9735C322.929 83.1281 322.57 83.201 322.209 83.1859ZM316.097 80.9419C315.999 81.0769 315.947 81.2393 315.947 81.406C315.947 81.5728 315.999 81.7352 316.097 81.8701C316.209 82.0181 316.355 82.137 316.523 82.2168C316.69 82.2967 316.874 82.3352 317.06 82.3291H322.214C322.4 82.3352 322.584 82.2967 322.751 82.2168C322.919 82.137 323.065 82.0181 323.177 81.8701C323.275 81.7352 323.327 81.5728 323.327 81.406C323.327 81.2393 323.275 81.0769 323.177 80.9419L320.6 77.1577C320.483 77.0111 320.335 76.8928 320.167 76.8114C319.998 76.73 319.814 76.6877 319.627 76.6877C319.44 76.6877 319.255 76.73 319.087 76.8114C318.918 76.8928 318.77 77.0111 318.654 77.1577L316.077 80.947L316.097 80.9419Z" fill="#263238"/>
<path d="M320.009 59.6758H319.174V76.4191H320.009V59.6758Z" fill="white" stroke="#263238" stroke-width="0.932567" stroke-linecap="round" stroke-linejoin="round"/>
<path d="M320.473 76.1577L319.933 76.9584C319.897 77.004 319.851 77.0408 319.799 77.0662C319.747 77.0916 319.69 77.1047 319.632 77.1047C319.574 77.1047 319.517 77.0916 319.465 77.0662C319.413 77.0408 319.368 77.004 319.332 76.9584L318.792 76.1577C318.659 75.969 318.828 75.7344 319.087 75.7344H320.177C320.437 75.7344 320.605 75.9894 320.473 76.1577Z" fill="white" stroke="#263238" stroke-width="0.932567" stroke-linecap="round" stroke-linejoin="round"/>
<path d="M320.081 70.5371H319.189C318.944 70.5371 318.746 70.7358 318.746 70.9808V74.6936C318.746 74.9387 318.944 75.1373 319.189 75.1373H320.081C320.325 75.1373 320.524 74.9387 320.524 74.6936V70.9808C320.524 70.7358 320.325 70.5371 320.081 70.5371Z" fill="white" stroke="#263238" stroke-width="0.932567" stroke-linecap="round" stroke-linejoin="round"/>
<path d="M320.081 56.4668H319.189C318.944 56.4668 318.746 56.6654 318.746 56.9105V60.6233C318.746 60.8683 318.944 61.067 319.189 61.067H320.081C320.325 61.067 320.524 60.8683 320.524 60.6233V56.9105C320.524 56.6654 320.325 56.4668 320.081 56.4668Z" fill="white" stroke="#263238" stroke-width="0.932567" stroke-linecap="round" stroke-linejoin="round"/>
<path d="M333.756 83.186H328.601C328.244 83.1969 327.889 83.122 327.567 82.9677C327.244 82.8133 326.963 82.5839 326.748 82.2986C326.563 82.0395 326.464 81.7293 326.464 81.4112C326.464 81.0932 326.563 80.783 326.748 80.5238L329.325 76.7346C329.548 76.4531 329.832 76.2257 330.155 76.0695C330.478 75.9132 330.833 75.832 331.191 75.832C331.55 75.832 331.905 75.9132 332.228 76.0695C332.551 76.2257 332.835 76.4531 333.058 76.7346L335.635 80.5238C335.82 80.783 335.919 81.0932 335.919 81.4112C335.919 81.7293 335.82 82.0395 335.635 82.2986C335.418 82.5881 335.133 82.8202 334.805 82.9748C334.478 83.1294 334.118 83.2019 333.756 83.186ZM327.644 80.942C327.547 81.0773 327.495 81.2396 327.495 81.4061C327.495 81.5727 327.547 81.735 327.644 81.8702C327.756 82.0179 327.902 82.1365 328.07 82.2163C328.237 82.2962 328.421 82.3349 328.607 82.3292H333.761C333.947 82.3348 334.132 82.2962 334.3 82.2164C334.468 82.1366 334.615 82.018 334.729 81.8702C334.826 81.735 334.878 81.5727 334.878 81.4061C334.878 81.2396 334.826 81.0773 334.729 80.942L332.152 77.1578C332.039 77.0066 331.892 76.8849 331.723 76.8031C331.553 76.7214 331.367 76.6821 331.179 76.6886C330.991 76.6816 330.805 76.7207 330.636 76.8026C330.468 76.8844 330.322 77.0064 330.211 77.1578L327.629 80.9471L327.644 80.942Z" fill="#263238"/>
<path d="M331.561 59.6758H330.726V76.4191H331.561V59.6758Z" fill="white" stroke="#263238" stroke-width="0.932567" stroke-linecap="round" stroke-linejoin="round"/>
<path d="M332.024 76.1577L331.479 76.9584C331.443 77.004 331.398 77.0408 331.346 77.0662C331.294 77.0916 331.237 77.1047 331.179 77.1047C331.121 77.1047 331.064 77.0916 331.012 77.0662C330.96 77.0408 330.914 77.004 330.878 76.9584L330.338 76.1577C330.206 75.969 330.374 75.7344 330.634 75.7344H331.724C331.989 75.7344 332.152 75.9894 332.024 76.1577Z" fill="white" stroke="#263238" stroke-width="0.932567" stroke-linecap="round" stroke-linejoin="round"/>
<path d="M331.627 70.5371H330.736C330.491 70.5371 330.292 70.7358 330.292 70.9808V74.6936C330.292 74.9387 330.491 75.1373 330.736 75.1373H331.627C331.872 75.1373 332.07 74.9387 332.07 74.6936V70.9808C332.07 70.7358 331.872 70.5371 331.627 70.5371Z" fill="white" stroke="#263238" stroke-width="0.932567" stroke-linecap="round" stroke-linejoin="round"/>
<path d="M331.627 56.4668H330.736C330.491 56.4668 330.292 56.6654 330.292 56.9105V60.6233C330.292 60.8683 330.491 61.067 330.736 61.067H331.627C331.872 61.067 332.07 60.8683 332.07 60.6233V56.9105C332.07 56.6654 331.872 56.4668 331.627 56.4668Z" fill="white" stroke="#263238" stroke-width="0.932567" stroke-linecap="round" stroke-linejoin="round"/>
<path d="M282.212 87.4492L282.482 89.6269L276.94 89.887L277.403 87.7042L282.212 87.4492Z" fill="#E8E8E8" stroke="#263238" stroke-width="0.932567" stroke-linecap="round" stroke-linejoin="round"/>
<path d="M291.608 105.753C291.608 105.753 281.987 114.611 279.766 114.749C279.221 114.785 278.748 115.126 278.289 114.815C277.271 114.122 275.799 112.653 276.013 106.686C276.125 103.422 278.096 89.8202 278.096 89.8202L281.661 89.6621L282.527 104.962C285.583 101.79 290.895 97.3937 290.901 97.3937C292.561 102.708 291.608 105.753 291.608 105.753Z" fill="white" stroke="#263238" stroke-width="0.932567" stroke-linecap="round" stroke-linejoin="round"/>
<path d="M315.873 118.07C316.113 117.012 316.569 116.015 317.213 115.143L315.873 118.07Z" fill="white"/>
<path d="M315.873 118.07C316.113 117.012 316.569 116.015 317.213 115.143" stroke="#263238" stroke-width="0.932567" stroke-linecap="round" stroke-linejoin="round"/>
<path d="M281.438 108.563C281.809 108.394 282.696 106.737 282.512 103.906" stroke="#263238" stroke-width="0.932567" stroke-linecap="round" stroke-linejoin="round"/>
<path d="M284.855 72.2317V66.1372C284.856 65.8427 284.974 65.5607 285.182 65.3525C285.39 65.1443 285.671 65.0267 285.965 65.0254H295.52C295.814 65.0267 296.096 65.1443 296.304 65.3525C296.512 65.5607 296.629 65.8427 296.631 66.1372V72.2317C296.631 72.5266 296.514 72.8093 296.306 73.0178C296.097 73.2264 295.815 73.3435 295.52 73.3435H292.194L292.459 75.664H290.743V77.857L288.706 74.287H290.371L290.198 73.3486H285.96C285.814 73.3479 285.67 73.3185 285.536 73.262C285.401 73.2055 285.279 73.1231 285.177 73.0193C285.074 72.9156 284.993 72.7927 284.938 72.6575C284.882 72.5224 284.854 72.3777 284.855 72.2317Z" fill="white" stroke="#263238" stroke-width="0.932567" stroke-linecap="round" stroke-linejoin="round"/>
<path d="M293.137 67.1113H286.678" stroke="#263238" stroke-width="0.932567" stroke-linecap="round" stroke-linejoin="round"/>
<path d="M294.807 68.8398H286.678" stroke="#263238" stroke-width="0.932567" stroke-linecap="round" stroke-linejoin="round"/>
<path d="M293.554 70.5625H286.678" stroke="#263238" stroke-width="0.932567" stroke-linecap="round" stroke-linejoin="round"/>
<path d="M72.3457 223.074C85.4795 223.074 96.1265 221.505 96.1265 219.57C96.1265 217.635 85.4795 216.066 72.3457 216.066C59.212 216.066 48.5649 217.635 48.5649 219.57C48.5649 221.505 59.212 223.074 72.3457 223.074Z" fill="#E8E8E8"/>
<path d="M70.2625 163.735C93.1348 163.735 111.676 145.169 111.676 122.267C111.676 99.3647 93.1348 80.7988 70.2625 80.7988C47.3903 80.7988 28.8486 99.3647 28.8486 122.267C28.8486 145.169 47.3903 163.735 70.2625 163.735Z" fill="#E8E8E8"/>
<path d="M51.1622 149.385C51.1622 149.385 52.2165 155.505 48.6562 162.385H93.1771C93.1771 162.385 91.1398 159.177 89.0056 149.385H51.1622Z" fill="white" stroke="#263238" stroke-width="0.87381" stroke-linecap="round" stroke-linejoin="round"/>
<path d="M61.3131 150.797C58.8762 150.993 56.5405 151.858 54.5633 153.298C52.5861 154.737 51.0443 156.696 50.1078 158.957C49.629 160.12 49.1299 161.298 48.6562 162.4C45.9466 168.678 48.5085 177.812 55.4354 177.812H87.1975C93.4775 177.812 95.194 169.851 93.6915 163.853C92.7237 159.997 90.773 156.127 87.4419 153.413C82.9904 149.767 69.982 150.103 61.3131 150.797Z" fill="#263238" stroke="#263238" stroke-width="0.87381" stroke-linecap="round" stroke-linejoin="round"/>
<path d="M30.9878 144.06C30.9878 144.06 25.2934 147.507 25.105 149.384H32.0879L34.8638 147.39L33.9266 149.394H36.0506C36.0506 149.394 38.3069 147.64 38.4291 145.697L38.1999 144.06L34.1253 142.244L30.9878 144.06Z" fill="white" stroke="#263238" stroke-width="0.87381" stroke-linecap="round" stroke-linejoin="round"/>
<path d="M97.6901 131.397C97.6901 131.397 96.7784 125.394 94.7767 116.75C92.7751 108.105 88.8634 107.427 88.8634 107.427H88.8277C83.7344 105.234 70.4917 104.051 70.4917 104.051H69.8805C69.8805 104.051 56.6073 105.234 51.5445 107.427H51.5089C51.5089 107.427 47.5616 108.121 45.5599 116.75C43.5582 125.379 42.6414 131.397 42.6414 131.397C42.6414 131.397 39.0251 132.376 32.5158 140.577C31.4939 141.877 30.624 143.291 29.9233 144.79C29.9233 144.79 34.925 143.142 38.4292 145.667C38.4292 145.667 49.9096 140.791 50.4851 135.65C50.4851 135.467 50.531 135.263 50.5564 135.043C50.8824 142.846 51.1625 149.364 51.1625 149.364H89.169C89.169 149.364 89.4542 142.846 89.7802 135.043C89.7802 135.263 89.826 135.467 89.8464 135.65C90.427 140.791 103.135 146.554 103.135 146.554C106.619 141.189 111.676 144.152 111.676 144.152L97.6901 131.397Z" fill="white"/>
<path opacity="0.3" d="M50.4851 135.661C50.4851 135.508 50.5259 135.334 50.5462 135.151L49.716 117.092C49.716 117.092 47.424 117.561 48.0811 123.105C48.7381 128.648 50.1184 127.695 49.3493 129.832C48.5802 131.968 45.5955 129.52 44.6074 131.362C43.6193 133.203 50.1286 132.81 47.4393 137.553C44.75 142.296 38.4292 145.713 38.4292 145.713C38.4292 145.713 49.9147 140.812 50.4851 135.661Z" fill="black"/>
<g opacity="0.3">
<path opacity="0.3" d="M90.0249 135.661C90.0249 135.508 91.5223 135.773 90.0249 135.661L90.4782 120.203C90.4782 120.203 90.3662 127.68 91.1658 129.832C91.9655 131.984 94.9196 129.521 95.9026 131.362C96.8856 133.203 90.3814 132.81 93.0758 137.553C95.7702 142.296 102.081 145.713 102.081 145.713C102.081 145.713 90.6055 140.812 90.0249 135.661Z" fill="black"/>
</g>
<path opacity="0.3" d="M89.4442 139.18C89.1946 145.029 89.0061 149.38 89.0061 149.38H54.835C77.755 149.38 89.4696 139.18 89.4696 139.18H89.4442Z" fill="black"/>
<path d="M97.6901 131.397C97.6901 131.397 96.7784 125.394 94.7768 116.75C92.7751 108.105 88.8634 107.427 88.8634 107.427H88.8277C83.7344 105.234 70.4917 104.051 70.4917 104.051H69.8805C69.8805 104.051 56.6073 105.234 51.5445 107.427H51.5089C51.5089 107.427 47.5616 108.121 45.5599 116.75C43.5582 125.379 42.6414 131.397 42.6414 131.397C42.6414 131.397 39.0251 132.376 32.5158 140.577C31.4939 141.877 30.624 143.291 29.9233 144.79V144.79C29.9233 144.79 34.925 143.142 38.4292 145.667C38.4292 145.667 49.9096 140.791 50.4851 135.65C50.4851 135.467 50.531 135.263 50.5564 135.043C50.8824 142.846 51.1625 149.364 51.1625 149.364H89.169C89.169 149.364 89.4542 142.846 89.7802 135.043C89.7802 135.263 89.826 135.467 89.8464 135.65C90.427 140.791 103.135 146.554 103.135 146.554C106.619 141.189 111.676 144.152 111.676 144.152L97.6901 131.397Z" stroke="#263238" stroke-width="0.87381" stroke-linecap="round" stroke-linejoin="round"/>
<path d="M43.8584 131.36C45.6912 131.268 47.4875 131.896 48.8651 133.11" stroke="#263238" stroke-width="0.87381" stroke-linecap="round" stroke-linejoin="round"/>
<path d="M47.439 117.633C47.439 117.633 49.7921 118.143 50.332 129.597L49.624 114.562" stroke="#263238" stroke-width="0.87381" stroke-linecap="round" stroke-linejoin="round"/>
<path d="M50.3627 131.188L50.4699 133.508" stroke="#263238" stroke-width="0.87381" stroke-linecap="round" stroke-linejoin="round"/>
<path d="M96.4779 131.362C94.6487 131.263 92.8527 131.881 91.4712 133.086" stroke="#263238" stroke-width="0.87381" stroke-linecap="round" stroke-linejoin="round"/>
<path d="M90.5693 117.632C90.6136 116.612 90.6613 115.592 90.7124 114.572" stroke="#263238" stroke-width="0.87381" stroke-linecap="round" stroke-linejoin="round"/>
<path d="M77.3015 104.877C76.6852 107.968 73.7005 109.085 70.1046 109.085C66.5087 109.085 63.5342 107.973 62.9077 104.892H63.0503C63.4228 104.842 63.7712 104.679 64.0494 104.426C64.3277 104.173 64.5227 103.841 64.6089 103.475C64.6588 103.328 64.6846 103.175 64.6853 103.021V99.3945H75.6869V103.021C75.6856 103.247 75.727 103.472 75.8091 103.684C75.9277 103.999 76.129 104.276 76.3916 104.486C76.6542 104.696 76.9686 104.831 77.3015 104.877Z" fill="white"/>
<path d="M75.5949 102.107C73.7715 103.902 71.7392 105.019 69.7783 105.106C67.741 105.197 65.3777 103.525 64.415 101.882C64.4548 101.74 64.4737 101.592 64.4711 101.444V100.332L75.4727 100.449V101.444C75.4727 101.678 75.7528 101.954 75.5949 102.107Z" fill="#263238"/>
<path d="M77.3015 104.877C76.6852 107.968 73.7005 109.085 70.1046 109.085C66.5087 109.085 63.5342 107.973 62.9077 104.892H63.0503C63.4228 104.842 63.7712 104.679 64.0494 104.426C64.3277 104.173 64.5227 103.841 64.6089 103.475C64.6588 103.328 64.6846 103.175 64.6853 103.021V99.3945H75.6869V103.021C75.6856 103.247 75.727 103.472 75.8091 103.684C75.9277 103.999 76.129 104.276 76.3916 104.486C76.6542 104.696 76.9686 104.831 77.3015 104.877V104.877Z" stroke="#263238" stroke-width="0.87381" stroke-linecap="round" stroke-linejoin="round"/>
<path d="M62.0673 91.6065C62.0673 91.6065 58.2524 87.2868 58.7516 81.3351C59.2507 75.3834 64.1301 75.3834 64.1301 75.3834C64.1301 75.3834 70.0129 70.1865 76.5782 73.4403C83.1435 76.6941 82.6902 87.9753 77.8312 90.7803L62.0673 91.6065Z" fill="#263238"/>
<path d="M78.8853 88.6996C78.9363 87.7102 78.9312 87.0982 78.9312 87.0982C78.4932 84.4666 75.2793 84.2014 73.8022 84.1555C67.6138 83.9464 65.9839 80.1469 65.9839 80.1469C62.2301 79.0198 61.1656 87.0982 61.1656 87.0982C61.1656 87.0982 61.1656 87.7102 61.2166 88.6996C60.5535 88.8263 59.9581 89.1877 59.5391 89.7177C59.1202 90.2477 58.9057 90.9109 58.9347 91.5862C58.9347 93.1978 60.096 94.4983 61.5323 94.4983C61.6776 94.4976 61.8225 94.484 61.9653 94.4575L62.6376 98.2519C62.7649 99.1036 63.5646 101.118 64.2827 101.598C65.8107 102.618 68.2301 104.071 70.0484 104.071C71.6171 104.071 73.8175 102.776 75.4422 101.893C76.3489 101.383 77.3472 99.43 77.4337 98.4049L77.8565 94.5697C78.0952 94.5583 78.3333 94.5345 78.5695 94.4983C80.0008 94.4983 81.1672 93.1978 81.1672 91.5862C81.1962 90.9109 80.9817 90.2477 80.5628 89.7177C80.1438 89.1877 79.5484 88.8263 78.8853 88.6996Z" fill="white" stroke="#263238" stroke-width="0.87381" stroke-linecap="round" stroke-linejoin="round"/>
<path d="M59.9331 86.252H59.2607V88.649H59.9331V86.252Z" fill="white" stroke="#263238" stroke-width="0.87381" stroke-linecap="round" stroke-linejoin="round"/>
<path d="M80.4744 86.252H79.8021V88.649H80.4744V86.252Z" fill="white" stroke="#263238" stroke-width="0.87381" stroke-linecap="round" stroke-linejoin="round"/>
<path d="M69.8652 75.7813C67.0059 75.7807 64.2578 76.8907 62.1992 78.8778C60.1407 80.8648 58.9321 83.574 58.8279 86.4351C58.8259 86.4884 58.8346 86.5416 58.8537 86.5913C58.8728 86.6411 58.9018 86.6865 58.939 86.7246C58.9762 86.7628 59.0207 86.793 59.0699 86.8134C59.1191 86.8338 59.172 86.8439 59.2252 86.8431H59.9383C60.0419 86.8432 60.1414 86.8027 60.2157 86.7303C60.2899 86.6579 60.3329 86.5593 60.3356 86.4556C60.4489 84.0012 61.5025 81.6849 63.2772 79.9881C65.0519 78.2913 67.4114 77.3446 69.8652 77.3446C72.319 77.3446 74.6785 78.2913 76.4532 79.9881C78.2279 81.6849 79.2815 84.0012 79.3948 86.4556C79.3988 86.5597 79.4429 86.6583 79.5179 86.7306C79.593 86.8029 79.6931 86.8432 79.7972 86.8431H80.5052C80.5586 86.8439 80.6117 86.8337 80.6612 86.8134C80.7106 86.7931 80.7555 86.763 80.7931 86.7249C80.8306 86.6868 80.8602 86.6415 80.8798 86.5917C80.8995 86.5419 80.9089 86.4887 80.9075 86.4351C80.8021 83.5735 79.5924 80.8644 77.533 78.8774C75.4737 76.8905 72.725 75.7806 69.8652 75.7813Z" fill="white" stroke="#263238" stroke-width="0.87381" stroke-linecap="round" stroke-linejoin="round"/>
<path d="M61.0793 87.7871H60.9265C60.0249 87.8216 59.1717 88.2045 58.546 88.8554C57.9203 89.5063 57.5708 90.3746 57.5708 91.2781C57.5708 92.1815 57.9203 93.0498 58.546 93.7007C59.1717 94.3516 60.0249 94.7345 60.9265 94.769H61.0793V87.7871Z" fill="#263238" stroke="#263238" stroke-width="0.87381" stroke-miterlimit="10"/>
<path d="M61.9093 91.2894C61.9093 93.8751 62.0214 95.5581 61.13 95.5581C60.2387 95.5581 59.9331 93.8751 59.9331 91.2894C59.9331 88.7037 60.2387 87.0156 61.13 87.0156C62.0214 87.0156 61.9093 88.6782 61.9093 91.2894Z" fill="white" stroke="#263238" stroke-width="0.87381" stroke-linecap="round" stroke-linejoin="round"/>
<path d="M78.6561 87.7871H78.8089C79.7105 87.8216 80.5637 88.2045 81.1894 88.8554C81.8151 89.5063 82.1646 90.3746 82.1646 91.2781C82.1646 92.1815 81.8151 93.0498 81.1894 93.7007C80.5637 94.3516 79.7105 94.7345 78.8089 94.769H78.6561V87.7871Z" fill="#263238" stroke="#263238" stroke-width="0.87381" stroke-miterlimit="10"/>
<path d="M77.8209 91.2894C77.8209 93.8751 77.7139 95.5581 78.6053 95.5581C79.4966 95.5581 79.8022 93.8751 79.8022 91.2894C79.8022 88.7037 79.4966 87.0156 78.6053 87.0156C77.7139 87.0156 77.8209 88.6782 77.8209 91.2894Z" fill="white" stroke="#263238" stroke-width="0.87381" stroke-linecap="round" stroke-linejoin="round"/>
<path d="M63.9058 91.918C63.9058 91.918 65.3574 93.7081 68.0772 92.2954" stroke="#263238" stroke-width="0.87381" stroke-linecap="round" stroke-linejoin="round"/>
<path d="M68.0771 98.8789C68.6775 99.3155 69.4005 99.5507 70.1425 99.5507C70.8845 99.5507 71.6075 99.3155 72.2079 98.8789" stroke="#263238" stroke-width="0.75" stroke-linecap="round" stroke-linejoin="round"/>
<path d="M63.5035 89.5161C63.5035 89.5161 66.1368 87.5067 68.4797 89.5161" stroke="#263238" stroke-width="0.87381" stroke-linecap="round" stroke-linejoin="round"/>
<path d="M76.4357 89.5825C76.4357 89.5825 73.8024 87.5424 71.4595 89.5825" stroke="#263238" stroke-width="0.87381" stroke-linecap="round" stroke-linejoin="round"/>
<path d="M72.0552 96.0645C72.0552 96.0645 72.2895 97.37 69.9007 97.3394C69.315 97.3394 68.2505 96.9212 68.2148 96.0645" stroke="#263238" stroke-width="0.75" stroke-linecap="round" stroke-linejoin="round"/>
<path d="M64.4766 92.3926C64.6956 92.8261 65.1896 93.3259 66.2949 93.3514C67.4001 93.3769 67.5937 92.9383 67.6141 92.5099C67.1215 92.7492 66.5778 92.8637 66.0307 92.8432C65.4836 92.8228 64.9499 92.668 64.4766 92.3926Z" fill="#263238"/>
<path d="M76.0533 91.918C76.0533 91.918 74.6017 93.7081 71.8818 92.2954" stroke="#263238" stroke-width="0.87381" stroke-linecap="round" stroke-linejoin="round"/>
<path d="M75.4832 92.3926C75.2642 92.8261 74.7701 93.3259 73.6649 93.3514C72.5596 93.3769 72.3661 92.9383 72.3457 92.5099C72.8381 92.7496 73.3819 92.8644 73.9291 92.8439C74.4763 92.8234 75.01 92.6684 75.4832 92.3926Z" fill="#263238"/>
<path d="M65.383 72.9004C65.383 72.9004 64.0434 73.6501 64.1911 75.7819C64.1911 75.7819 63.7225 74.3437 62.001 74.971" stroke="#263238" stroke-width="0.87381" stroke-linecap="round" stroke-linejoin="round"/>
<path d="M70.1656 110.67C71.9212 110.67 73.6337 110.126 75.0688 109.114C76.5039 108.101 77.5914 106.669 78.1825 105.014C77.719 104.943 77.2606 104.882 76.8175 104.82C76.1195 105.958 75.1418 106.898 73.9777 107.55C72.8136 108.203 71.502 108.545 70.1682 108.545C68.8343 108.545 67.5227 108.203 66.3586 107.55C65.1945 106.898 64.2168 105.958 63.5188 104.82C63.0757 104.882 62.6173 104.943 62.1538 105.014C62.7446 106.668 63.8314 108.1 65.2655 109.112C66.6996 110.124 68.411 110.669 70.1656 110.67Z" fill="#263238" stroke="#263238" stroke-width="0.87381" stroke-linecap="round" stroke-linejoin="round"/>
<path d="M89.7798 135.064C90.0039 130.093 90.2297 125.121 90.4572 120.146" stroke="#263238" stroke-width="0.87381" stroke-linecap="round" stroke-linejoin="round"/>
<path d="M89.9479 84.2568V78.7641C89.9479 78.4936 89.8406 78.2342 89.6496 78.0429C89.4585 77.8516 89.1994 77.7441 88.9293 77.7441H80.3419C80.0717 77.7441 79.8126 77.8516 79.6216 78.0429C79.4306 78.2342 79.3232 78.4936 79.3232 78.7641V84.2568C79.3232 84.5274 79.4306 84.7868 79.6216 84.9781C79.8126 85.1694 80.0717 85.2768 80.3419 85.2768H83.3368L83.0974 87.3678H84.6254V89.3415L86.4539 86.1234H84.9514L85.1093 85.2768H88.9242C89.0584 85.2775 89.1914 85.2516 89.3156 85.2007C89.4397 85.1497 89.5526 85.0747 89.6478 84.9799C89.7429 84.8851 89.8184 84.7724 89.8699 84.6484C89.9214 84.5243 89.9479 84.3912 89.9479 84.2568Z" fill="white" stroke="#263238" stroke-width="0.87381" stroke-linecap="round" stroke-linejoin="round"/>
<path d="M80.9838 79.6465H86.8055" stroke="#263238" stroke-width="0.87381" stroke-linecap="round" stroke-linejoin="round"/>
<path d="M80.9838 81.2031H88.3029" stroke="#263238" stroke-width="0.87381" stroke-linecap="round" stroke-linejoin="round"/>
<path d="M80.9838 82.7578H87.1773" stroke="#263238" stroke-width="0.87381" stroke-linecap="round" stroke-linejoin="round"/>
<path d="M116.331 146.728C116.331 148.35 113.785 149.365 110.657 149.365C107.53 149.365 104.983 148.345 104.983 146.728C104.983 145.111 107.53 143.785 110.657 143.785C113.785 143.785 116.331 145.101 116.331 146.728Z" fill="white" stroke="#263238" stroke-width="0.87381" stroke-linecap="round" stroke-linejoin="round"/>
<path d="M106.985 148.778C107.138 148.743 107.26 147.886 105.88 147.248C104.922 146.81 104.897 146.346 105.447 145.774C105.997 145.203 106.934 144.724 107.657 144.933C108.834 145.269 109.613 147.723 110.138 147.192C110.927 146.988 109.975 144.739 108.564 144C111.111 144.632 111.233 147.57 112.404 147.335C113.301 147.162 111.752 144.244 110.413 143.382C111.271 143.783 112.022 144.383 112.603 145.132C113.454 146.371 113.55 146.789 114.131 146.611C114.885 146.371 113.087 143.648 112.863 143.352C113.994 143.801 114.207 144.749 114.554 145.132C114.9 145.514 115.063 146.152 115.542 145.902C116.021 145.652 115.578 144.765 115.257 144.244C113.729 141.771 111.182 141.358 108.758 141.664C106.843 141.909 104.642 142.714 103.476 144.244C103.179 144.626 103.005 145.088 102.976 145.57C102.946 146.053 103.064 146.533 103.313 146.947C103.72 147.809 105.177 149.186 106.985 148.778Z" fill="white" stroke="#263238" stroke-width="0.87381" stroke-linecap="round" stroke-linejoin="round"/>
<path d="M117.819 149.385H24.0862C23.8077 149.385 23.5819 149.611 23.5819 149.89V150.701C23.5819 150.979 23.8077 151.205 24.0862 151.205H117.819C118.097 151.205 118.323 150.979 118.323 150.701V149.89C118.323 149.611 118.097 149.385 117.819 149.385Z" fill="#BFBFBF" stroke="#263238" stroke-width="0.87381" stroke-miterlimit="10"/>
<path d="M26.8366 149.385L19.9402 128.398C19.9142 128.316 19.9075 128.23 19.9205 128.145C19.9335 128.06 19.966 127.979 20.0153 127.909C20.0646 127.839 20.1295 127.781 20.2049 127.741C20.2802 127.7 20.3639 127.677 20.4496 127.674H42.2337L49.9909 149.385H26.8366Z" fill="#263238"/>
<path d="M42.8298 127.674L49.9605 148.166H69.0605V148.885C69.0605 149.02 69.0068 149.15 68.9113 149.245C68.8158 149.341 68.6862 149.395 68.5511 149.395H48.7381L41.8773 128.52C41.8469 128.427 41.839 128.327 41.8542 128.23C41.8694 128.132 41.9073 128.04 41.9649 127.96C42.0224 127.88 42.098 127.815 42.1854 127.769C42.2729 127.724 42.3697 127.7 42.4682 127.699L42.8298 127.674Z" fill="white" stroke="#263238" stroke-width="0.87381" stroke-linecap="round" stroke-linejoin="round"/>
<path d="M32.7141 138.531C32.6468 138.175 32.481 137.844 32.2354 137.578C32.342 137.451 32.4757 137.351 32.6265 137.284C32.7773 137.217 32.9414 137.185 33.1063 137.19C33.4913 137.206 33.8604 137.348 34.1574 137.594C34.4544 137.84 34.663 138.176 34.7515 138.552C34.7986 138.714 34.8063 138.886 34.774 139.052C34.7417 139.218 34.6703 139.374 34.5658 139.508C34.4612 139.641 34.3265 139.747 34.1728 139.817C34.0191 139.888 33.8508 139.921 33.6819 139.913C33.2913 139.904 32.9163 139.758 32.6224 139.5C32.7693 139.199 32.8019 138.855 32.7141 138.531Z" fill="white"/>
<path d="M76.8482 149.383H83.8108C84.7384 148.703 85.49 147.811 86.003 146.781C86.516 145.751 86.7755 144.613 86.7599 143.462V140.183C86.7599 140.058 86.7354 139.935 86.6878 139.82C86.6402 139.705 86.5704 139.6 86.4824 139.512C86.3944 139.424 86.29 139.354 86.1751 139.307C86.0601 139.259 85.9369 139.234 85.8125 139.234H74.872C74.7479 139.234 74.6249 139.259 74.5103 139.307C74.3956 139.354 74.2915 139.424 74.2039 139.513C74.1164 139.601 74.0471 139.705 74 139.82C73.953 139.935 73.9291 140.059 73.9298 140.183V143.462C73.9102 144.611 74.1648 145.747 74.6724 146.777C75.1801 147.807 75.926 148.7 76.8482 149.383Z" fill="white" stroke="#263238" stroke-width="0.87381" stroke-linecap="round" stroke-linejoin="round"/>
<path d="M88.7358 140.633C88.4423 140.448 88.1061 140.342 87.7597 140.326C87.4134 140.31 87.0688 140.384 86.7595 140.541V141.724C87.0613 141.674 87.3711 141.736 87.6305 141.898C88.6135 142.469 88.4047 143.637 87.7171 144.825C87.4026 145.499 86.8618 146.04 86.1891 146.355C85.9881 146.846 85.7336 147.313 85.4302 147.748C86.7392 148.033 87.9361 146.921 88.8733 145.3C89.9734 143.392 90.3045 141.541 88.7358 140.633Z" fill="white" stroke="#263238" stroke-width="0.87381" stroke-linecap="round" stroke-linejoin="round"/>
<path d="M80.4744 134.07C80.7275 133.244 80.8529 132.384 80.8463 131.52C80.8463 126.726 76.3438 126.16 76.3438 120.713" stroke="#263238" stroke-width="0.87381" stroke-linecap="round" stroke-linejoin="round"/>
<path d="M77.2808 138.297C78.0963 137.789 78.8013 137.121 79.3537 136.334" stroke="#263238" stroke-width="0.87381" stroke-linecap="round" stroke-linejoin="round"/>
<path d="M80.0831 125.282C79.8308 124.814 79.7258 124.281 79.7818 123.752" stroke="#263238" stroke-width="0.87381" stroke-linecap="round" stroke-linejoin="round"/>
<path d="M83.5914 132.013C83.3622 130.514 82.5015 129.106 81.6509 127.826" stroke="#263238" stroke-width="0.87381" stroke-linecap="round" stroke-linejoin="round"/>
<path d="M80.9838 138.352C80.9838 138.352 82.471 137.725 83.2859 134.895" stroke="#263238" stroke-width="0.87381" stroke-linecap="round" stroke-linejoin="round"/>
<path d="M90.0807 177.797H51.9418C49.157 177.797 46.8994 180.057 46.8994 182.846V208.091C46.8994 210.879 49.157 213.14 51.9418 213.14H90.0807C92.8655 213.14 95.1231 210.879 95.1231 208.091V182.846C95.1231 180.057 92.8655 177.797 90.0807 177.797Z" fill="white" stroke="#263238" stroke-width="0.87381" stroke-miterlimit="10"/>
<path d="M58.9552 202.113L59.5307 212.196L59.597 212.283C60.0527 212.895 60.6466 213.391 61.3303 213.73C62.0139 214.069 62.7679 214.241 63.5307 214.233C64.2935 214.224 65.0434 214.035 65.7194 213.681C66.3954 213.327 66.9782 212.818 67.4203 212.196L67.6342 202.113H58.9552Z" fill="white" stroke="#263238" stroke-width="0.87381" stroke-linecap="round" stroke-linejoin="round"/>
<path d="M69.5391 222.05C65.6756 222.728 61.7236 222.728 57.8601 222.05C57.4994 221.693 57.1892 221.288 56.9382 220.846C56.5477 220.15 56.3271 219.371 56.2943 218.574C56.2616 217.776 56.4176 216.982 56.7497 216.256L59.0774 212.1L68.3014 212.202L70.3795 215.996C70.8782 216.896 71.093 217.927 70.9958 218.952C70.8985 219.977 70.4937 220.948 69.8345 221.739C69.7415 221.847 69.6429 221.951 69.5391 222.05Z" fill="#BFBFBF" stroke="#263238" stroke-width="0.87381" stroke-miterlimit="10"/>
<path d="M67.2725 216.816C67.843 217.068 68.3873 217.375 68.8972 217.734L67.2725 216.816Z" fill="#BFBFBF"/>
<path d="M67.2725 216.816C67.843 217.068 68.3873 217.375 68.8972 217.734" stroke="#263238" stroke-width="0.87381" stroke-miterlimit="10"/>
<path d="M58.5731 217.734C59.5855 217.04 60.7254 216.554 61.9267 216.305C63.128 216.055 64.3669 216.047 65.5714 216.281" fill="#BFBFBF"/>
<path d="M58.5731 217.734C59.5855 217.04 60.7254 216.554 61.9267 216.305C63.128 216.055 64.3669 216.047 65.5714 216.281" stroke="#263238" stroke-width="0.87381" stroke-miterlimit="10"/>
<path d="M53.9893 160.502L58.0639 207.259H68.602C68.602 207.259 69.6462 178.699 70.3083 160.155C70.3516 159.055 70.1722 157.958 69.7808 156.929C69.3894 155.9 68.7941 154.961 68.0309 154.169C67.2676 153.377 66.3521 152.747 65.3395 152.318C64.3269 151.889 63.2381 151.67 62.1386 151.674C61.0099 151.67 59.8927 151.901 58.8578 152.352C57.8229 152.804 56.893 153.465 56.1268 154.295C55.3607 155.125 54.775 156.105 54.4071 157.174C54.0391 158.242 53.8969 159.376 53.9893 160.502Z" fill="#263238"/>
<path d="M64.4764 152.006C63.7091 151.78 62.9128 151.668 62.1131 151.674V151.674C60.9866 151.674 59.8722 151.907 58.8403 152.36C57.8085 152.813 56.8816 153.475 56.1182 154.305C55.3548 155.134 54.7714 156.113 54.405 157.18C54.0386 158.247 53.897 159.378 53.9893 160.502L55.4358 177.796" stroke="white" stroke-width="0.87381" stroke-linecap="round" stroke-linejoin="round"/>
<path d="M68.8768 155.193C68.4594 154.599 67.9682 154.061 67.4151 153.591C67.4151 153.591 66.7784 153.081 66.4932 152.918" stroke="white" stroke-width="0.87381" stroke-linecap="round" stroke-linejoin="round"/>
<path d="M69.6104 177.796C69.8192 172.008 70.1452 165.235 70.3234 160.155C70.3721 158.894 70.128 157.639 69.6104 156.488" stroke="white" stroke-width="0.87381" stroke-linecap="round" stroke-linejoin="round"/>
<path d="M76.0991 202.113L76.6747 212.196L76.7409 212.283C77.1966 212.895 77.7906 213.391 78.4742 213.73C79.1578 214.069 79.9118 214.241 80.6746 214.233C81.4374 214.224 82.1873 214.035 82.8633 213.681C83.5393 213.327 84.1221 212.818 84.5642 212.196L84.7781 202.113H76.0991Z" fill="white" stroke="#263238" stroke-width="0.87381" stroke-linecap="round" stroke-linejoin="round"/>
<path d="M86.6832 222.05C82.8197 222.728 78.8677 222.728 75.0042 222.05C74.6443 221.693 74.3358 221.288 74.0874 220.846C73.6949 220.151 73.4727 219.372 73.4391 218.574C73.4054 217.777 73.5613 216.982 73.8939 216.256L76.2266 212.1L85.4455 212.202L87.5236 215.996C88.0223 216.896 88.2371 217.927 88.1399 218.952C88.0426 219.977 87.6378 220.948 86.9786 221.739C86.8856 221.847 86.787 221.951 86.6832 222.05Z" fill="#BFBFBF" stroke="#263238" stroke-width="0.87381" stroke-miterlimit="10"/>
<path d="M84.4165 216.816C84.9877 217.067 85.532 217.374 86.0413 217.734L84.4165 216.816Z" fill="#BFBFBF"/>
<path d="M84.4165 216.816C84.9877 217.067 85.532 217.374 86.0413 217.734" stroke="#263238" stroke-width="0.87381" stroke-miterlimit="10"/>
<path d="M75.7275 217.734C76.7401 217.04 77.88 216.554 79.0812 216.305C80.2825 216.055 81.5213 216.047 82.7258 216.28" fill="#BFBFBF"/>
<path d="M75.7275 217.734C76.7401 217.04 77.88 216.554 79.0812 216.305C80.2825 216.055 81.5213 216.047 82.7258 216.28" stroke="#263238" stroke-width="0.87381" stroke-miterlimit="10"/>
<path d="M71.1485 160.502L75.2231 207.259H85.7612C85.7612 207.259 86.8054 178.699 87.4726 160.155C87.5124 159.053 87.3292 157.953 86.9341 156.924C86.5389 155.894 85.9398 154.954 85.1729 154.162C84.406 153.37 83.4871 152.741 82.4713 152.314C81.4556 151.886 80.364 151.668 79.2621 151.674C78.1364 151.675 77.0231 151.91 75.9925 152.363C74.9619 152.817 74.0362 153.479 73.2739 154.308C72.5116 155.138 71.9292 156.116 71.5634 157.182C71.1976 158.248 71.0563 159.379 71.1485 160.502Z" fill="#263238"/>
<path d="M82.6237 152.378C81.5659 151.907 80.4199 151.667 79.2621 151.674C78.1364 151.675 77.0231 151.91 75.9925 152.363C74.9619 152.817 74.0362 153.479 73.2739 154.308C72.5116 155.138 71.9292 156.116 71.5634 157.182C71.1976 158.248 71.0563 159.379 71.1485 160.502L72.6765 177.796" stroke="white" stroke-width="0.87381" stroke-linecap="round" stroke-linejoin="round"/>
<path d="M86.0213 155.193C85.6066 154.597 85.1151 154.059 84.5596 153.592" stroke="white" stroke-width="0.87381" stroke-linecap="round" stroke-linejoin="round"/>
<path d="M87.1979 177.797C87.4067 172.008 87.2896 165.235 87.4729 160.156C87.5142 159.04 87.327 157.927 86.9229 156.887" stroke="white" stroke-width="0.87381" stroke-linecap="round" stroke-linejoin="round"/>
<path d="M212.01 80.9209V59.1592C212.01 58.1069 211.593 57.0977 210.85 56.3535C210.106 55.6094 209.099 55.1914 208.048 55.1914H173.953C172.902 55.1914 171.894 55.6094 171.151 56.3535C170.408 57.0977 169.99 58.1069 169.99 59.1592V80.9209C169.99 81.9732 170.408 82.9825 171.151 83.7266C171.894 84.4707 172.902 84.8887 173.953 84.8887H185.825L184.888 93.1711H191V100.979L198.253 88.2292H192.304L192.931 84.8836H208.048C209.098 84.8836 210.105 84.4663 210.848 83.7233C211.591 82.9803 212.009 81.9723 212.01 80.9209Z" fill="white" stroke="#263238" stroke-width="1.02547" stroke-linecap="round" stroke-linejoin="round"/>
<path d="M176.5 62.6367H199.552" stroke="#263238" stroke-width="1.02547" stroke-linecap="round" stroke-linejoin="round"/>
<path d="M176.5 68.8027H205.501" stroke="#263238" stroke-width="1.02547" stroke-linecap="round" stroke-linejoin="round"/>
<path d="M176.5 74.9688H201.039" stroke="#263238" stroke-width="1.02547" stroke-linecap="round" stroke-linejoin="round"/>
<path d="M238.052 174.104L258.65 180.978L253.541 186.099L263.076 195.646L242.478 188.771L247.587 183.651L238.052 174.104Z" fill="#E8E8E8" stroke="#263238" stroke-width="1.02547" stroke-linecap="round" stroke-linejoin="round"/>
<path d="M143.948 174.104L123.35 180.978L128.459 186.099L118.924 195.646L139.522 188.771L134.413 183.651L143.948 174.104Z" fill="#E8E8E8" stroke="#263238" stroke-width="1.02547" stroke-linecap="round" stroke-linejoin="round"/>
<path d="M190.425 16.3906L180.712 35.842H187.944V49.3468L197.652 29.8954H190.425V16.3906Z" fill="#E8E8E8" stroke="#263238" stroke-width="1.02547" stroke-linecap="round" stroke-linejoin="round"/>
</svg>
