<svg width="390" height="390" viewBox="0 0 390 390" fill="none" xmlns="http://www.w3.org/2000/svg">
<path d="M341.897 130.533H272.228V288.577H341.897V130.533Z" stroke="#263238" stroke-width="0.75" stroke-linecap="round" stroke-linejoin="round"/>
<path d="M335.782 136.648H278.343V282.462H335.782V136.648Z" stroke="#263238" stroke-width="0.75" stroke-linecap="round" stroke-linejoin="round"/>
<path d="M284.872 201.029L283.304 203.751" stroke="#263238" stroke-width="0.75" stroke-linecap="round" stroke-linejoin="round"/>
<path d="M301.361 172.482L286.681 197.91" stroke="#263238" stroke-width="0.75" stroke-linecap="round" stroke-linejoin="round"/>
<path d="M314.831 149.145L303.709 168.411" stroke="#263238" stroke-width="0.75" stroke-linecap="round" stroke-linejoin="round"/>
<path d="M317.187 145.072L316.002 147.116" stroke="#263238" stroke-width="0.75" stroke-linecap="round" stroke-linejoin="round"/>
<path d="M289.544 270.332L288.21 272.641" stroke="#263238" stroke-width="0.75" stroke-linecap="round" stroke-linejoin="round"/>
<path d="M292.633 264.982L291.221 267.439" stroke="#263238" stroke-width="0.75" stroke-linecap="round" stroke-linejoin="round"/>
<path d="M311.47 232.354L295.659 259.747" stroke="#263238" stroke-width="0.75" stroke-linecap="round" stroke-linejoin="round"/>
<path d="M325.47 208.104L313.092 229.554" stroke="#263238" stroke-width="0.75" stroke-linecap="round" stroke-linejoin="round"/>
<path d="M328.536 202.801L327.312 204.922" stroke="#263238" stroke-width="0.75" stroke-linecap="round" stroke-linejoin="round"/>
<path d="M307.063 252.885L295.659 272.642" stroke="#263238" stroke-width="0.75" stroke-linecap="round" stroke-linejoin="round"/>
<path d="M321.649 227.619L308.724 250.005" stroke="#263238" stroke-width="0.75" stroke-linecap="round" stroke-linejoin="round"/>
<path d="M324.683 222.371L323.154 225.015" stroke="#263238" stroke-width="0.75" stroke-linecap="round" stroke-linejoin="round"/>
<path d="M283.304 221.48L281.572 224.483" stroke="#263238" stroke-width="0.75" stroke-linecap="round" stroke-linejoin="round"/>
<path d="M298.459 195.234L284.692 219.079" stroke="#263238" stroke-width="0.75" stroke-linecap="round" stroke-linejoin="round"/>
<path d="M317.374 162.475L300.082 192.419" stroke="#263238" stroke-width="0.75" stroke-linecap="round" stroke-linejoin="round"/>
<path d="M328.739 142.787L318.708 160.166" stroke="#263238" stroke-width="0.75" stroke-linecap="round" stroke-linejoin="round"/>
<path d="M117.772 130.533H48.1026V288.577H117.772V130.533Z" stroke="#263238" stroke-width="0.75" stroke-linecap="round" stroke-linejoin="round"/>
<path d="M111.657 136.648H54.2178V282.462H111.657V136.648Z" stroke="#263238" stroke-width="0.75" stroke-linecap="round" stroke-linejoin="round"/>
<path d="M60.7466 201.029L59.1788 203.751" stroke="#263238" stroke-width="0.75" stroke-linecap="round" stroke-linejoin="round"/>
<path d="M77.228 172.482L62.5484 197.91" stroke="#263238" stroke-width="0.75" stroke-linecap="round" stroke-linejoin="round"/>
<path d="M90.7064 149.145L79.5836 168.411" stroke="#263238" stroke-width="0.75" stroke-linecap="round" stroke-linejoin="round"/>
<path d="M93.0538 145.072L91.876 147.116" stroke="#263238" stroke-width="0.75" stroke-linecap="round" stroke-linejoin="round"/>
<path d="M65.4188 270.332L64.085 272.641" stroke="#263238" stroke-width="0.75" stroke-linecap="round" stroke-linejoin="round"/>
<path d="M68.5076 264.982L67.088 267.439" stroke="#263238" stroke-width="0.75" stroke-linecap="round" stroke-linejoin="round"/>
<path d="M87.3444 232.354L71.526 259.747" stroke="#263238" stroke-width="0.75" stroke-linecap="round" stroke-linejoin="round"/>
<path d="M101.345 208.104L88.959 229.554" stroke="#263238" stroke-width="0.75" stroke-linecap="round" stroke-linejoin="round"/>
<path d="M104.411 202.801L103.178 204.922" stroke="#263238" stroke-width="0.75" stroke-linecap="round" stroke-linejoin="round"/>
<path d="M82.9374 252.885L71.526 272.642" stroke="#263238" stroke-width="0.75" stroke-linecap="round" stroke-linejoin="round"/>
<path d="M97.5233 227.619L84.5987 250.005" stroke="#263238" stroke-width="0.75" stroke-linecap="round" stroke-linejoin="round"/>
<path d="M100.55 222.371L99.0288 225.015" stroke="#263238" stroke-width="0.75" stroke-linecap="round" stroke-linejoin="round"/>
<path d="M59.1784 221.48L57.439 224.483" stroke="#263238" stroke-width="0.75" stroke-linecap="round" stroke-linejoin="round"/>
<path d="M74.3262 195.234L60.5592 219.079" stroke="#263238" stroke-width="0.75" stroke-linecap="round" stroke-linejoin="round"/>
<path d="M93.2414 162.475L75.9566 192.419" stroke="#263238" stroke-width="0.75" stroke-linecap="round" stroke-linejoin="round"/>
<path d="M104.606 142.787L94.5748 160.166" stroke="#263238" stroke-width="0.75" stroke-linecap="round" stroke-linejoin="round"/>
<path d="M23.01 354.455H366.99" stroke="#263238" stroke-linecap="round" stroke-linejoin="round"/>
<path d="M142.498 292.664H136.531V312.952H142.498V292.664Z" fill="white"/>
<path opacity="0.2" d="M142.498 292.664H136.531V312.952H142.498V292.664Z" fill="black"/>
<path d="M148.473 294.895H142.506V312.952H148.473V294.895Z" fill="white"/>
<path d="M155.922 294.895H151.71V312.952H155.922V294.895Z" fill="white"/>
<path opacity="0.9" d="M155.922 294.895H151.71V312.952H155.922V294.895Z" fill="white"/>
<path d="M151.718 292.99H147.896V312.958H151.718V292.99Z" fill="white"/>
<path opacity="0.1" d="M151.718 292.99H147.896V312.958H151.718V292.99Z" fill="black"/>
<path d="M161.897 292.664H155.93V312.952H161.897V292.664Z" fill="white"/>
<path d="M167.863 294.895H161.896V312.952H167.863V294.895Z" fill="white"/>
<path opacity="0.2" d="M167.863 294.895H161.896V312.952H167.863V294.895Z" fill="#263238"/>
<path d="M175.32 294.895H171.108V312.952H175.32V294.895Z" fill="white"/>
<path opacity="0.8" d="M175.32 294.895H171.108V312.952H175.32V294.895Z" fill="white"/>
<path d="M171.109 292.99H167.287V312.958H171.109V292.99Z" fill="white"/>
<path opacity="0.1" d="M171.109 292.99H167.287V312.958H171.109V292.99Z" fill="black"/>
<path d="M203.79 312.959H209.757V292.671H203.79V312.959Z" fill="white"/>
<path opacity="0.2" d="M203.79 312.959H209.757V292.671H203.79V312.959Z" fill="black"/>
<path d="M197.816 312.959H203.783V294.902H197.816V312.959Z" fill="white"/>
<path d="M190.367 312.959H194.579V294.902H190.367V312.959Z" fill="white"/>
<path opacity="0.9" d="M190.367 312.959H194.579V294.902H190.367V312.959Z" fill="white"/>
<path d="M194.571 312.951H198.393V292.983H194.571V312.951Z" fill="white"/>
<path opacity="0.1" d="M194.571 312.951H198.393V292.983H194.571V312.951Z" fill="black"/>
<path d="M184.392 312.959H190.359V292.671H184.392V312.959Z" fill="white"/>
<path d="M178.425 312.959H184.392V294.902H178.425V312.959Z" fill="white"/>
<path opacity="0.2" d="M178.425 312.959H184.392V294.902H178.425V312.959Z" fill="#263238"/>
<path d="M175.18 312.951H179.002V292.983H175.18V312.951Z" fill="white"/>
<path opacity="0.1" d="M175.18 312.951H179.002V292.983H175.18V312.951Z" fill="black"/>
<path d="M238.188 312.959H244.155V292.671H238.188V312.959Z" fill="white"/>
<path opacity="0.2" d="M238.188 312.959H244.155V292.671H238.188V312.959Z" fill="black"/>
<path d="M232.214 312.959H238.181V294.902H232.214V312.959Z" fill="white"/>
<path d="M224.765 312.959H228.977V294.902H224.765V312.959Z" fill="white"/>
<path opacity="0.9" d="M224.765 312.959H228.977V294.902H224.765V312.959Z" fill="white"/>
<path d="M228.969 312.951H232.791V292.983H228.969V312.951Z" fill="white"/>
<path opacity="0.1" d="M228.969 312.951H232.791V292.983H228.969V312.951Z" fill="black"/>
<path d="M218.79 312.959H224.757V292.671H218.79V312.959Z" fill="white"/>
<path d="M248.04 312.242L251.959 311.191L246.684 291.512L242.765 292.563L248.04 312.242Z" fill="white"/>
<path d="M212.823 312.959H218.79V294.902H212.823V312.959Z" fill="white"/>
<path opacity="0.2" d="M212.823 312.959H218.79V294.902H212.823V312.959Z" fill="#263238"/>
<path d="M209.578 312.951H213.4V292.983H209.578V312.951Z" fill="white"/>
<path opacity="0.1" d="M209.578 312.951H213.4V292.983H209.578V312.951Z" fill="black"/>
<path d="M250.038 339.312L254.046 338.238L248.795 318.642L244.787 319.716L250.038 339.312Z" fill="white"/>
<path opacity="0.2" d="M250.038 339.312L254.046 338.238L248.795 318.642L244.787 319.716L250.038 339.312Z" fill="black"/>
<path d="M239.741 339.113H245.708V321.056H239.741V339.113Z" fill="white"/>
<path d="M232.276 339.113H236.488V321.056H232.276V339.113Z" fill="white"/>
<path opacity="0.9" d="M232.276 339.113H236.488V321.056H232.276V339.113Z" fill="white"/>
<path d="M236.488 339.121H240.31V319.153H236.488V339.121Z" fill="white"/>
<path opacity="0.1" d="M236.488 339.121H240.31V319.153H236.488V339.121Z" fill="black"/>
<path d="M226.317 339.121H232.284V318.833H226.317V339.121Z" fill="white"/>
<path d="M220.342 339.113H226.309V321.056H220.342V339.113Z" fill="white"/>
<path opacity="0.2" d="M220.342 339.113H226.309V321.056H220.342V339.113Z" fill="#263238"/>
<path d="M212.893 339.113H217.105V321.056H212.893V339.113Z" fill="white"/>
<path opacity="0.8" d="M212.893 339.113H217.105V321.056H212.893V339.113Z" fill="white"/>
<path d="M217.097 339.121H220.919V319.153H217.097V339.121Z" fill="white"/>
<path opacity="0.1" d="M217.097 339.121H220.919V319.153H217.097V339.121Z" fill="black"/>
<path d="M184.423 318.832H178.456V339.12H184.423V318.832Z" fill="white"/>
<path opacity="0.2" d="M184.423 318.832H178.456V339.12H184.423V318.832Z" fill="black"/>
<path d="M190.39 321.062H184.423V339.12H190.39V321.062Z" fill="white"/>
<path d="M197.847 321.062H193.635V339.12H197.847V321.062Z" fill="white"/>
<path opacity="0.9" d="M197.847 321.062H193.635V339.12H197.847V321.062Z" fill="white"/>
<path d="M193.635 319.152H189.813V339.12H193.635V319.152Z" fill="white"/>
<path opacity="0.1" d="M193.635 319.152H189.813V339.12H193.635V319.152Z" fill="black"/>
<path d="M203.814 318.832H197.847V339.12H203.814V318.832Z" fill="white"/>
<path d="M209.781 321.062H203.814V339.12H209.781V321.062Z" fill="white"/>
<path opacity="0.2" d="M209.781 321.062H203.814V339.12H209.781V321.062Z" fill="#263238"/>
<path d="M213.026 319.152H209.204V339.12H213.026V319.152Z" fill="white"/>
<path opacity="0.1" d="M213.026 319.152H209.204V339.12H213.026V319.152Z" fill="black"/>
<path d="M150.025 318.832H144.058V339.12H150.025V318.832Z" fill="white"/>
<path opacity="0.2" d="M150.025 318.832H144.058V339.12H150.025V318.832Z" fill="black"/>
<path d="M155.992 321.062H150.025V339.12H155.992V321.062Z" fill="white"/>
<path d="M163.449 321.062H159.237V339.12H163.449V321.062Z" fill="white"/>
<path opacity="0.9" d="M163.449 321.062H159.237V339.12H163.449V321.062Z" fill="white"/>
<path d="M159.237 319.152H155.415V339.12H159.237V319.152Z" fill="white"/>
<path opacity="0.1" d="M159.237 319.152H155.415V339.12H159.237V319.152Z" fill="black"/>
<path d="M169.416 318.832H163.449V339.12H169.416V318.832Z" fill="white"/>
<path d="M144.046 319.7L140.143 318.654L134.892 338.251L138.795 339.297L144.046 319.7Z" fill="white"/>
<path d="M175.383 321.062H169.416V339.12H175.383V321.062Z" fill="white"/>
<path opacity="0.2" d="M175.383 321.062H169.416V339.12H175.383V321.062Z" fill="#263238"/>
<path d="M178.628 319.152H174.806V339.12H178.628V319.152Z" fill="white"/>
<path opacity="0.1" d="M178.628 319.152H174.806V339.12H178.628V319.152Z" fill="black"/>
<path d="M141.118 354.454H135.151L134.332 342.91H141.937L141.118 354.454Z" fill="#263238"/>
<path d="M254.849 354.454H248.882L248.063 342.91H255.668L254.849 354.454Z" fill="#263238"/>
<path d="M261.425 285.004H128.575C127.816 285.004 127.088 285.305 126.551 285.842C126.014 286.379 125.712 287.107 125.712 287.866V342.139C125.712 342.898 126.014 343.626 126.551 344.163C127.088 344.7 127.816 345.001 128.575 345.001H261.425C262.184 345.001 262.912 344.7 263.449 344.163C263.986 343.626 264.287 342.898 264.287 342.139V287.866C264.287 287.107 263.986 286.379 263.449 285.842C262.912 285.305 262.184 285.004 261.425 285.004ZM258.554 290.737V312.959H131.414V290.737H258.554ZM131.445 339.3V317.054H258.585V339.3H131.445Z" fill="white" stroke="#263238" stroke-width="0.75" stroke-linecap="round" stroke-linejoin="round"/>
<path d="M241.784 171.008H149.861C146.906 171.008 144.51 173.403 144.51 176.359V196.093C144.51 199.048 146.906 201.443 149.861 201.443H241.784C244.739 201.443 247.135 199.048 247.135 196.093V176.359C247.135 173.403 244.739 171.008 241.784 171.008Z" fill="#263238" stroke="#263238" stroke-linecap="round" stroke-linejoin="round"/>
<path d="M240.146 169.369H148.223C145.268 169.369 142.873 171.765 142.873 174.72V194.454C142.873 197.409 145.268 199.805 148.223 199.805H240.146C243.102 199.805 245.497 197.409 245.497 194.454V174.72C245.497 171.765 243.102 169.369 240.146 169.369Z" fill="white" stroke="#263238" stroke-linecap="round" stroke-linejoin="round"/>
<path d="M240.146 169.369H148.223C145.268 169.369 142.873 171.765 142.873 174.72V194.454C142.873 197.409 145.268 199.805 148.223 199.805H240.146C243.102 199.805 245.497 197.409 245.497 194.454V174.72C245.497 171.765 243.102 169.369 240.146 169.369Z" stroke="#263238" stroke-linecap="round" stroke-linejoin="round"/>
<path d="M165.594 193.574H152.077V176.477H161.086L165.594 180.985V193.574Z" fill="white"/>
<path opacity="0.5" d="M165.594 193.574H152.077V176.477H161.086L165.594 180.985V193.574Z" fill="white"/>
<path d="M165.594 193.574H152.077V176.477H161.086L165.594 180.985V193.574Z" stroke="#263238" stroke-linecap="round" stroke-linejoin="round"/>
<path d="M161.085 180.983H165.594L161.085 176.475V180.983Z" fill="white" stroke="#263238" stroke-linecap="round" stroke-linejoin="round"/>
<path d="M155.079 185.546C154.867 185.526 154.67 185.427 154.526 185.269C154.383 185.111 154.303 184.905 154.303 184.692C154.303 184.479 154.383 184.273 154.526 184.115C154.67 183.957 154.867 183.858 155.079 183.838H162.591C162.803 183.858 163.001 183.957 163.144 184.115C163.288 184.273 163.367 184.479 163.367 184.692C163.367 184.905 163.288 185.111 163.144 185.269C163.001 185.427 162.803 185.526 162.591 185.546H155.079Z" fill="#858585" stroke="#263238" stroke-width="0.75" stroke-linecap="round" stroke-linejoin="round"/>
<path d="M155.079 189.142C154.867 189.121 154.67 189.023 154.526 188.865C154.383 188.707 154.303 188.501 154.303 188.288C154.303 188.074 154.383 187.869 154.526 187.711C154.67 187.553 154.867 187.454 155.079 187.434H160.953C161.165 187.454 161.363 187.553 161.506 187.711C161.65 187.869 161.729 188.074 161.729 188.288C161.729 188.501 161.65 188.707 161.506 188.865C161.363 189.023 161.165 189.121 160.953 189.142H155.079Z" fill="#858585" stroke="#263238" stroke-width="0.75" stroke-linecap="round" stroke-linejoin="round"/>
<path d="M199.766 186.529H174.611C174.162 186.559 173.742 186.758 173.435 187.086C173.128 187.414 172.958 187.847 172.958 188.296C172.958 188.745 173.128 189.178 173.435 189.506C173.742 189.834 174.162 190.033 174.611 190.063H199.766V186.529Z" fill="white"/>
<path d="M174.611 190.063C174.162 190.033 173.742 189.834 173.435 189.506C173.128 189.178 172.958 188.745 172.958 188.296C172.958 187.847 173.128 187.414 173.435 187.086C173.742 186.758 174.162 186.559 174.611 186.529H234.515C234.757 186.513 234.999 186.547 235.227 186.628C235.456 186.71 235.665 186.837 235.842 187.003C236.019 187.169 236.16 187.369 236.256 187.591C236.353 187.814 236.403 188.054 236.403 188.296C236.403 188.538 236.353 188.778 236.256 189.001C236.16 189.223 236.019 189.423 235.842 189.589C235.665 189.754 235.456 189.882 235.227 189.964C234.999 190.045 234.757 190.079 234.515 190.063H174.611Z" stroke="#263238" stroke-linecap="round" stroke-linejoin="round"/>
<path d="M200.335 181.74H198.439V180.843L200.241 176.576H201.325V180.843H201.793V181.74H201.325V182.886H200.335V181.74ZM200.335 180.843V178.386L199.36 180.851L200.335 180.843Z" fill="#263238"/>
<path d="M202.254 181.397V180.905H203.19V181.467C203.19 181.919 203.385 182.083 203.705 182.083C204.024 182.083 204.219 181.919 204.219 181.467V180.055C204.219 179.603 204.017 179.431 203.705 179.431C203.393 179.431 203.19 179.603 203.19 180.055V180.11H202.254L202.433 176.584H205.046V177.489H203.315L203.237 178.994C203.324 178.846 203.45 178.725 203.601 178.644C203.752 178.563 203.923 178.525 204.095 178.534C204.82 178.534 205.194 179.049 205.194 179.977V181.397C205.194 182.411 204.687 182.957 203.712 182.957C202.737 182.957 202.254 182.411 202.254 181.397Z" fill="#263238"/>
<path d="M205.826 179.08V177.52C205.814 177.388 205.83 177.254 205.873 177.128C205.915 177.001 205.984 176.885 206.073 176.787C206.163 176.688 206.273 176.61 206.395 176.556C206.517 176.502 206.648 176.475 206.782 176.475C206.915 176.475 207.047 176.502 207.169 176.556C207.291 176.61 207.4 176.688 207.49 176.787C207.58 176.885 207.648 177.001 207.691 177.128C207.733 177.254 207.749 177.388 207.737 177.52V179.08C207.749 179.213 207.733 179.347 207.691 179.473C207.648 179.6 207.58 179.716 207.49 179.814C207.4 179.912 207.291 179.991 207.169 180.045C207.047 180.098 206.915 180.126 206.782 180.126C206.648 180.126 206.517 180.098 206.395 180.045C206.273 179.991 206.163 179.912 206.073 179.814C205.984 179.716 205.915 179.6 205.873 179.473C205.83 179.347 205.814 179.213 205.826 179.08ZM207.105 179.127V177.458C207.105 177.185 206.981 177.068 206.786 177.068C206.591 177.068 206.458 177.185 206.458 177.458V179.127C206.458 179.408 206.575 179.525 206.786 179.525C206.996 179.525 207.105 179.4 207.105 179.127ZM209.071 176.584H209.703L207.261 182.895H206.63L209.071 176.584ZM208.595 181.974V180.414C208.583 180.281 208.599 180.148 208.642 180.021C208.684 179.895 208.753 179.779 208.842 179.681C208.932 179.582 209.042 179.504 209.164 179.45C209.286 179.396 209.417 179.368 209.551 179.368C209.684 179.368 209.816 179.396 209.938 179.45C210.06 179.504 210.169 179.582 210.259 179.681C210.349 179.779 210.417 179.895 210.46 180.021C210.502 180.148 210.518 180.281 210.506 180.414V181.974C210.518 182.107 210.502 182.241 210.46 182.367C210.417 182.493 210.349 182.609 210.259 182.708C210.169 182.806 210.06 182.885 209.938 182.939C209.816 182.992 209.684 183.02 209.551 183.02C209.417 183.02 209.286 182.992 209.164 182.939C209.042 182.885 208.932 182.806 208.842 182.708C208.753 182.609 208.684 182.493 208.642 182.367C208.599 182.241 208.583 182.107 208.595 181.974ZM209.874 182.021V180.352C209.874 180.071 209.75 179.954 209.547 179.954C209.344 179.954 209.227 180.071 209.227 180.352V182.021C209.227 182.302 209.344 182.419 209.547 182.419C209.75 182.419 209.874 182.302 209.874 182.021Z" fill="#263238"/>
<path d="M241.784 206.326H149.861C146.906 206.326 144.51 208.722 144.51 211.677V231.411C144.51 234.366 146.906 236.762 149.861 236.762H241.784C244.739 236.762 247.135 234.366 247.135 231.411V211.677C247.135 208.722 244.739 206.326 241.784 206.326Z" fill="#263238" stroke="#263238" stroke-linecap="round" stroke-linejoin="round"/>
<path d="M240.146 204.688H148.223C145.268 204.688 142.873 207.083 142.873 210.038V229.772C142.873 232.727 145.268 235.123 148.223 235.123H240.146C243.102 235.123 245.497 232.727 245.497 229.772V210.038C245.497 207.083 243.102 204.688 240.146 204.688Z" fill="white" stroke="#263238" stroke-linecap="round" stroke-linejoin="round"/>
<path d="M219.609 221.629H174.611C174.162 221.659 173.742 221.858 173.435 222.186C173.128 222.514 172.958 222.946 172.958 223.396C172.958 223.845 173.128 224.277 173.435 224.605C173.742 224.933 174.162 225.132 174.611 225.162H219.609V221.629Z" fill="white"/>
<path d="M174.611 225.162C174.162 225.132 173.742 224.933 173.435 224.605C173.128 224.277 172.958 223.845 172.958 223.396C172.958 222.946 173.128 222.514 173.435 222.186C173.742 221.858 174.162 221.659 174.611 221.629H234.515C234.757 221.613 234.999 221.647 235.227 221.728C235.456 221.81 235.665 221.937 235.842 222.103C236.019 222.268 236.16 222.469 236.256 222.691C236.353 222.913 236.403 223.153 236.403 223.396C236.403 223.638 236.353 223.878 236.256 224.1C236.16 224.323 236.019 224.523 235.842 224.688C235.665 224.854 235.456 224.982 235.227 225.063C234.999 225.145 234.757 225.178 234.515 225.162H174.611Z" stroke="#263238" stroke-linecap="round" stroke-linejoin="round"/>
<path d="M198.557 216.529V215.968C198.526 215.713 198.571 215.455 198.686 215.227C198.801 214.998 198.981 214.808 199.204 214.681C198.992 214.557 198.821 214.373 198.713 214.152C198.604 213.932 198.564 213.684 198.596 213.441V213.183C198.596 212.782 198.755 212.397 199.039 212.113C199.323 211.829 199.707 211.67 200.109 211.67C200.51 211.67 200.895 211.829 201.179 212.113C201.463 212.397 201.622 212.782 201.622 213.183V213.441C201.65 213.685 201.607 213.932 201.498 214.152C201.388 214.372 201.217 214.556 201.006 214.681C201.23 214.807 201.412 214.996 201.528 215.225C201.645 215.454 201.691 215.712 201.661 215.968V216.529C201.661 216.943 201.497 217.34 201.204 217.632C200.912 217.925 200.515 218.089 200.101 218.089C199.687 218.089 199.29 217.925 198.998 217.632C198.705 217.34 198.541 216.943 198.541 216.529H198.557ZM200.67 216.475V215.866C200.67 215.391 200.475 215.157 200.109 215.157C199.742 215.157 199.547 215.391 199.547 215.866V216.475C199.547 216.951 199.742 217.185 200.109 217.185C200.475 217.185 200.67 216.951 200.67 216.475ZM200.67 213.628V213.129C200.67 212.715 200.491 212.497 200.148 212.497C199.805 212.497 199.625 212.715 199.625 213.129V213.628C199.625 214.041 199.805 214.26 200.148 214.26C200.491 214.26 200.631 214.041 200.631 213.628H200.67Z" fill="#263238"/>
<path d="M202.254 216.498V216.007H203.19V216.568C203.19 217.021 203.385 217.185 203.705 217.185C204.024 217.185 204.219 217.021 204.219 216.568V215.157C204.219 214.704 204.017 214.533 203.705 214.533C203.393 214.533 203.19 214.704 203.19 215.157V215.211H202.254L202.433 211.686H205.046V212.59H203.315L203.237 214.096C203.324 213.948 203.45 213.826 203.601 213.745C203.752 213.664 203.923 213.626 204.095 213.636C204.82 213.636 205.194 214.15 205.194 215.079V216.498C205.209 216.701 205.182 216.905 205.114 217.097C205.047 217.29 204.94 217.466 204.802 217.615C204.663 217.764 204.495 217.883 204.308 217.964C204.121 218.046 203.92 218.088 203.716 218.088C203.513 218.088 203.311 218.046 203.124 217.964C202.938 217.883 202.77 217.764 202.631 217.615C202.492 217.466 202.386 217.29 202.318 217.097C202.251 216.905 202.223 216.701 202.238 216.498H202.254Z" fill="#263238"/>
<path d="M205.826 214.18V212.62C205.814 212.487 205.83 212.354 205.873 212.227C205.915 212.101 205.984 211.985 206.073 211.886C206.163 211.788 206.273 211.71 206.395 211.656C206.517 211.602 206.648 211.574 206.782 211.574C206.915 211.574 207.047 211.602 207.169 211.656C207.291 211.71 207.4 211.788 207.49 211.886C207.58 211.985 207.648 212.101 207.691 212.227C207.733 212.354 207.749 212.487 207.737 212.62V214.18C207.749 214.313 207.733 214.447 207.691 214.573C207.648 214.699 207.58 214.815 207.49 214.914C207.4 215.012 207.291 215.091 207.169 215.144C207.047 215.198 206.915 215.226 206.782 215.226C206.648 215.226 206.517 215.198 206.395 215.144C206.273 215.091 206.163 215.012 206.073 214.914C205.984 214.815 205.915 214.699 205.873 214.573C205.83 214.447 205.814 214.313 205.826 214.18ZM207.105 214.227V212.558C207.105 212.285 206.981 212.16 206.786 212.16C206.591 212.16 206.458 212.285 206.458 212.558V214.227C206.458 214.508 206.575 214.625 206.786 214.625C206.996 214.625 207.105 214.5 207.105 214.227ZM209.071 211.684H209.703L207.261 217.994H206.63L209.071 211.684ZM208.595 217.074V215.514C208.583 215.381 208.599 215.247 208.642 215.121C208.684 214.995 208.753 214.879 208.842 214.78C208.932 214.682 209.042 214.603 209.164 214.55C209.286 214.496 209.417 214.468 209.551 214.468C209.684 214.468 209.816 214.496 209.938 214.55C210.06 214.603 210.169 214.682 210.259 214.78C210.349 214.879 210.417 214.995 210.46 215.121C210.502 215.247 210.518 215.381 210.506 215.514V217.074C210.518 217.207 210.502 217.34 210.46 217.467C210.417 217.593 210.349 217.709 210.259 217.807C210.169 217.906 210.06 217.984 209.938 218.038C209.816 218.092 209.684 218.12 209.551 218.12C209.417 218.12 209.286 218.092 209.164 218.038C209.042 217.984 208.932 217.906 208.842 217.807C208.753 217.709 208.684 217.593 208.642 217.467C208.599 217.34 208.583 217.207 208.595 217.074ZM209.874 217.121V215.451C209.874 215.171 209.75 215.054 209.547 215.054C209.344 215.054 209.227 215.171 209.227 215.451V217.121C209.227 217.401 209.344 217.518 209.547 217.518C209.75 217.518 209.874 217.401 209.874 217.121Z" fill="#263238"/>
<path d="M165.594 228.674H152.077V211.576H161.086L165.594 216.085V228.674Z" fill="white"/>
<path opacity="0.5" d="M165.594 228.674H152.077V211.576H161.086L165.594 216.085V228.674Z" fill="white" stroke="#263238" stroke-linecap="round" stroke-linejoin="round"/>
<path d="M165.594 228.674H152.077V211.576H161.086L165.594 216.085V228.674Z" stroke="#263238" stroke-linecap="round" stroke-linejoin="round"/>
<path d="M155.079 220.648C154.867 220.627 154.67 220.529 154.526 220.371C154.383 220.213 154.303 220.007 154.303 219.794C154.303 219.58 154.383 219.374 154.526 219.216C154.67 219.059 154.867 218.96 155.079 218.939H162.591C162.803 218.96 163.001 219.059 163.144 219.216C163.288 219.374 163.367 219.58 163.367 219.794C163.367 220.007 163.288 220.213 163.144 220.371C163.001 220.529 162.803 220.627 162.591 220.648H155.079Z" fill="#858585" stroke="#263238" stroke-width="0.75" stroke-linecap="round" stroke-linejoin="round"/>
<path d="M155.079 224.243C154.867 224.223 154.67 224.124 154.526 223.966C154.383 223.808 154.303 223.603 154.303 223.389C154.303 223.176 154.383 222.97 154.526 222.812C154.67 222.654 154.867 222.555 155.079 222.535H160.953C161.165 222.555 161.363 222.654 161.506 222.812C161.65 222.97 161.729 223.176 161.729 223.389C161.729 223.603 161.65 223.808 161.506 223.966C161.363 224.124 161.165 224.223 160.953 224.243H155.079Z" fill="#858585" stroke="#263238" stroke-width="0.75" stroke-linecap="round" stroke-linejoin="round"/>
<path d="M161.085 216.085H165.594L161.085 211.576V216.085Z" fill="white" stroke="#263238" stroke-linecap="round" stroke-linejoin="round"/>
<path d="M254.35 123.85H137.288C134.333 123.85 131.937 126.245 131.937 129.2V156.399C131.937 159.354 134.333 161.75 137.288 161.75H254.35C257.305 161.75 259.701 159.354 259.701 156.399V129.2C259.701 126.245 257.305 123.85 254.35 123.85Z" fill="#263238" stroke="#263238" stroke-linecap="round" stroke-linejoin="round"/>
<path d="M252.712 122.211H135.65C132.694 122.211 130.299 124.607 130.299 127.562V154.76C130.299 157.716 132.694 160.111 135.65 160.111H252.712C255.667 160.111 258.063 157.716 258.063 154.76V127.562C258.063 124.607 255.667 122.211 252.712 122.211Z" fill="white" stroke="#263238" stroke-linecap="round" stroke-linejoin="round"/>
<path d="M174.891 156.99H149.861V125.33H166.545L174.891 133.668V156.99Z" fill="white"/>
<path opacity="0.7" d="M174.891 156.99H149.861V125.33H166.545L174.891 133.668V156.99Z" fill="white"/>
<path d="M174.891 156.99H149.861V125.33H166.545L174.891 133.668V156.99Z" stroke="#263238" stroke-linecap="round" stroke-linejoin="round"/>
<path d="M166.545 133.668H174.891L166.545 125.33V133.668Z" fill="white" stroke="#263238" stroke-linecap="round" stroke-linejoin="round"/>
<path d="M157.248 137.568H152.334V142.482H157.248V137.568Z" stroke="white" stroke-width="0.75" stroke-linecap="round" stroke-linejoin="round"/>
<path d="M162.302 137.568H157.388V142.482H162.302V137.568Z" stroke="white" stroke-width="0.75" stroke-linecap="round" stroke-linejoin="round"/>
<path d="M167.364 137.568H162.45V142.482H167.364V137.568Z" stroke="white" stroke-width="0.75" stroke-linecap="round" stroke-linejoin="round"/>
<path d="M172.419 137.568H167.505V142.482H172.419V137.568Z" stroke="white" stroke-width="0.75" stroke-linecap="round" stroke-linejoin="round"/>
<path d="M157.248 142.482H152.334V147.396H157.248V142.482Z" stroke="white" stroke-width="0.75" stroke-linecap="round" stroke-linejoin="round"/>
<path d="M162.302 142.482H157.388V147.396H162.302V142.482Z" stroke="white" stroke-width="0.75" stroke-linecap="round" stroke-linejoin="round"/>
<path d="M167.364 142.482H162.45V147.396H167.364V142.482Z" stroke="white" stroke-width="0.75" stroke-linecap="round" stroke-linejoin="round"/>
<path d="M172.419 142.482H167.505V147.396H172.419V142.482Z" stroke="white" stroke-width="0.75" stroke-linecap="round" stroke-linejoin="round"/>
<path d="M157.248 147.396H152.334V152.31H157.248V147.396Z" stroke="white" stroke-width="0.75" stroke-linecap="round" stroke-linejoin="round"/>
<path d="M162.302 147.396H157.388V152.31H162.302V147.396Z" stroke="white" stroke-width="0.75" stroke-linecap="round" stroke-linejoin="round"/>
<path d="M167.364 147.396H162.45V152.31H167.364V147.396Z" stroke="white" stroke-width="0.75" stroke-linecap="round" stroke-linejoin="round"/>
<path d="M172.419 147.396H167.505V152.31H172.419V147.396Z" stroke="white" stroke-width="0.75" stroke-linecap="round" stroke-linejoin="round"/>
<path d="M152.427 151.835L157.388 147.279L159.845 147.396L162.528 142.553L164.907 144.939L167.575 142.139L169.962 137.568" stroke="white" stroke-width="2" stroke-linecap="round" stroke-linejoin="round"/>
<path d="M167.146 138.996L169.962 137.568L170.531 140.642" stroke="white" stroke-width="2" stroke-linecap="round" stroke-linejoin="round"/>
<path d="M184.735 140.151H183.3V139.199C184.439 139.199 184.86 138.95 185.156 138.115H186.061V146.695H184.712L184.735 140.151Z" fill="#263238"/>
<path d="M187.66 144.675V140.151C187.66 139.607 187.876 139.085 188.261 138.7C188.646 138.316 189.168 138.1 189.712 138.1C190.256 138.1 190.777 138.316 191.162 138.7C191.547 139.085 191.763 139.607 191.763 140.151V144.675C191.763 145.219 191.547 145.741 191.162 146.126C190.777 146.51 190.256 146.726 189.712 146.726C189.168 146.726 188.646 146.51 188.261 146.126C187.876 145.741 187.66 145.219 187.66 144.675ZM190.414 144.761V140.081C190.414 139.472 190.141 139.238 189.712 139.238C189.283 139.238 189.01 139.472 189.01 140.081V144.761C189.01 145.377 189.283 145.611 189.712 145.611C190.141 145.611 190.414 145.377 190.414 144.761Z" fill="#263238"/>
<path d="M192.574 144.675V140.151C192.574 139.607 192.79 139.085 193.175 138.7C193.56 138.316 194.082 138.1 194.626 138.1C195.17 138.1 195.691 138.316 196.076 138.7C196.461 139.085 196.677 139.607 196.677 140.151V144.675C196.677 145.219 196.461 145.741 196.076 146.126C195.691 146.51 195.17 146.726 194.626 146.726C194.082 146.726 193.56 146.51 193.175 146.126C192.79 145.741 192.574 145.219 192.574 144.675ZM195.328 144.761V140.081C195.328 139.472 195.055 139.238 194.626 139.238C194.197 139.238 193.924 139.472 193.924 140.081V144.761C193.924 145.377 194.197 145.611 194.626 145.611C195.055 145.611 195.328 145.377 195.328 144.761Z" fill="#263238"/>
<path d="M197.511 141.516V139.371C197.511 139.025 197.648 138.694 197.893 138.45C198.137 138.206 198.468 138.068 198.814 138.068C199.159 138.068 199.491 138.206 199.735 138.45C199.979 138.694 200.116 139.025 200.116 139.371V141.516C200.116 141.861 199.979 142.193 199.735 142.437C199.491 142.681 199.159 142.819 198.814 142.819C198.468 142.819 198.137 142.681 197.893 142.437C197.648 142.193 197.511 141.861 197.511 141.516ZM199.258 141.578V139.309C199.258 138.926 199.087 138.763 198.814 138.763C198.541 138.763 198.369 138.926 198.369 139.309V141.578C198.369 141.961 198.533 142.117 198.814 142.117C199.095 142.117 199.258 141.961 199.258 141.578ZM201.934 138.115H202.8L199.469 146.695H198.611L201.934 138.115ZM201.279 145.463V143.31C201.279 143.139 201.312 142.97 201.378 142.811C201.443 142.653 201.539 142.51 201.66 142.389C201.781 142.268 201.925 142.172 202.083 142.107C202.241 142.041 202.41 142.007 202.581 142.007C202.752 142.007 202.922 142.041 203.08 142.107C203.238 142.172 203.381 142.268 203.502 142.389C203.623 142.51 203.719 142.653 203.785 142.811C203.85 142.97 203.884 143.139 203.884 143.31V145.463C203.884 145.634 203.85 145.803 203.785 145.961C203.719 146.119 203.623 146.263 203.502 146.384C203.381 146.505 203.238 146.601 203.08 146.666C202.922 146.732 202.752 146.765 202.581 146.765C202.41 146.765 202.241 146.732 202.083 146.666C201.925 146.601 201.781 146.505 201.66 146.384C201.539 146.263 201.443 146.119 201.378 145.961C201.312 145.803 201.279 145.634 201.279 145.463ZM203.026 145.525V143.248C203.026 142.865 202.854 142.709 202.581 142.709C202.308 142.709 202.144 142.865 202.144 143.248V145.525C202.144 145.9 202.3 146.063 202.581 146.063C202.862 146.063 203.026 145.9 203.026 145.525Z" fill="#263238"/>
<path d="M206.068 144.027V140.634C206.068 140.248 206.222 139.877 206.495 139.603C206.769 139.329 207.14 139.176 207.526 139.176C207.913 139.176 208.284 139.329 208.558 139.603C208.831 139.877 208.985 140.248 208.985 140.634V141.305H208.049V140.572C208.049 140.159 207.846 139.987 207.55 139.987C207.253 139.987 207.058 140.159 207.058 140.572V144.098C207.058 144.511 207.253 144.675 207.55 144.675C207.846 144.675 208.049 144.511 208.049 144.098V143.13H208.985V144.027C208.985 144.414 208.831 144.785 208.558 145.059C208.284 145.332 207.913 145.486 207.526 145.486C207.14 145.486 206.769 145.332 206.495 145.059C206.222 144.785 206.068 144.414 206.068 144.027Z" fill="#263238"/>
<path d="M209.523 143.988V140.673C209.523 140.274 209.682 139.891 209.964 139.609C210.247 139.327 210.63 139.168 211.029 139.168C211.428 139.168 211.811 139.327 212.093 139.609C212.376 139.891 212.534 140.274 212.534 140.673V143.988C212.534 144.388 212.376 144.771 212.093 145.053C211.811 145.335 211.428 145.494 211.029 145.494C210.63 145.494 210.247 145.335 209.964 145.053C209.682 144.771 209.523 144.388 209.523 143.988ZM211.544 144.051V140.611C211.544 140.159 211.349 139.987 211.029 139.987C210.709 139.987 210.514 140.159 210.514 140.611V144.051C210.514 144.503 210.717 144.675 211.029 144.675C211.341 144.675 211.544 144.503 211.544 144.051Z" fill="#263238"/>
<path d="M213.197 139.176H214.617L215.249 143.692L215.88 139.176H217.292V145.486H216.356V140.712L215.631 145.486H214.804L214.086 140.712V145.486H213.221L213.197 139.176Z" fill="#263238"/>
<path d="M218.049 139.176H219.507C220.498 139.176 220.982 139.73 220.982 140.736V141.36C220.982 142.366 220.498 142.92 219.507 142.92H219.039V145.486H218.049V139.176ZM219.507 142.015C219.819 142.015 219.991 141.875 219.991 141.422V140.642C219.991 140.19 219.819 140.049 219.507 140.049H219.039V141.984L219.507 142.015Z" fill="#263238"/>
<path d="M221.52 139.176H222.511V144.581H224.141V145.486H221.52V139.176Z" fill="#263238"/>
<path d="M224.64 139.176H227.338V140.081H225.63V141.742H226.98V142.647H225.622V144.581H227.331V145.486H224.64V139.176Z" fill="#263238"/>
<path d="M228.665 140.081H227.635V139.176H230.693V140.081H229.655V145.486H228.665V140.081Z" fill="#263238"/>
<path d="M231.176 139.176H233.875V140.081H232.167V141.742H233.524V142.647H232.167V144.581H233.875V145.486H231.176V139.176Z" fill="#263238"/>
<path d="M234.444 139.176H235.958C236.948 139.176 237.432 139.73 237.432 140.736V143.926C237.432 144.932 236.948 145.486 235.958 145.486H234.444V139.176ZM235.934 144.581C236.254 144.581 236.441 144.417 236.441 143.973V140.689C236.441 140.244 236.254 140.081 235.934 140.081H235.435V144.581H235.934Z" fill="#263238"/>
<path d="M241.784 241.652H149.861C146.906 241.652 144.51 244.048 144.51 247.003V266.737C144.51 269.692 146.906 272.088 149.861 272.088H241.784C244.739 272.088 247.135 269.692 247.135 266.737V247.003C247.135 244.048 244.739 241.652 241.784 241.652Z" fill="#263238" stroke="#263238" stroke-linecap="round" stroke-linejoin="round"/>
<path d="M240.146 240.014H148.223C145.268 240.014 142.873 242.409 142.873 245.364V265.098C142.873 268.054 145.268 270.449 148.223 270.449H240.146C243.102 270.449 245.497 268.054 245.497 265.098V245.364C245.497 242.409 243.102 240.014 240.146 240.014Z" fill="white" stroke="#263238" stroke-linecap="round" stroke-linejoin="round"/>
<path d="M216.434 256.738H174.61C174.143 256.738 173.695 256.924 173.364 257.255C173.033 257.585 172.848 258.034 172.848 258.501C172.848 258.969 173.033 259.417 173.364 259.748C173.695 260.078 174.143 260.264 174.61 260.264H216.434V256.738Z" fill="white"/>
<path d="M174.61 260.264C174.143 260.264 173.695 260.078 173.364 259.748C173.033 259.417 172.848 258.969 172.848 258.501C172.848 258.034 173.033 257.585 173.364 257.255C173.695 256.924 174.143 256.738 174.61 256.738H234.514C234.746 256.738 234.975 256.784 235.189 256.872C235.403 256.961 235.597 257.091 235.761 257.255C235.925 257.418 236.054 257.613 236.143 257.826C236.232 258.04 236.277 258.27 236.277 258.501C236.277 258.733 236.232 258.962 236.143 259.176C236.054 259.39 235.925 259.584 235.761 259.748C235.597 259.911 235.403 260.041 235.189 260.13C234.975 260.218 234.746 260.264 234.514 260.264H174.61Z" stroke="#263238" stroke-linecap="round" stroke-linejoin="round"/>
<path d="M165.594 263.781H152.077V246.684H161.086L165.594 251.184V263.781Z" fill="white"/>
<path opacity="0.5" d="M165.594 263.781H152.077V246.684H161.086L165.594 251.184V263.781Z" fill="white"/>
<path d="M165.594 263.781H152.077V246.684H161.086L165.594 251.184V263.781Z" stroke="#263238" stroke-linecap="round" stroke-linejoin="round"/>
<path d="M155.079 255.755C154.867 255.735 154.67 255.636 154.526 255.478C154.383 255.32 154.303 255.114 154.303 254.901C154.303 254.688 154.383 254.482 154.526 254.324C154.67 254.166 154.867 254.067 155.079 254.047H162.591C162.803 254.067 163.001 254.166 163.144 254.324C163.288 254.482 163.367 254.688 163.367 254.901C163.367 255.114 163.288 255.32 163.144 255.478C163.001 255.636 162.803 255.735 162.591 255.755H155.079Z" fill="#858585" stroke="#263238" stroke-width="0.75" stroke-linecap="round" stroke-linejoin="round"/>
<path d="M155.079 259.343C154.854 259.343 154.637 259.253 154.478 259.094C154.319 258.935 154.229 258.718 154.229 258.493C154.229 258.267 154.319 258.051 154.478 257.892C154.637 257.732 154.854 257.643 155.079 257.643H160.953C161.178 257.643 161.394 257.732 161.554 257.892C161.713 258.051 161.803 258.267 161.803 258.493C161.803 258.718 161.713 258.935 161.554 259.094C161.394 259.253 161.178 259.343 160.953 259.343H155.079Z" fill="#858585" stroke="#263238" stroke-width="0.75" stroke-linecap="round" stroke-linejoin="round"/>
<path d="M161.085 251.184H165.594L161.085 246.684V251.184Z" fill="white" stroke="#263238" stroke-linecap="round" stroke-linejoin="round"/>
<path d="M200.616 247.69H198.611V246.793H201.583V247.659L200.023 253.119H199.009L200.616 247.69Z" fill="#263238"/>
<path d="M202.207 251.606V248.291C202.207 247.891 202.366 247.508 202.648 247.226C202.93 246.944 203.313 246.785 203.712 246.785C204.112 246.785 204.495 246.944 204.777 247.226C205.059 247.508 205.218 247.891 205.218 248.291V251.606C205.218 252.005 205.059 252.388 204.777 252.67C204.495 252.952 204.112 253.111 203.712 253.111C203.313 253.111 202.93 252.952 202.648 252.67C202.366 252.388 202.207 252.005 202.207 251.606ZM204.227 251.668V248.228C204.227 247.776 204.024 247.604 203.712 247.604C203.4 247.604 203.198 247.776 203.198 248.228V251.668C203.198 252.12 203.4 252.284 203.712 252.284C204.024 252.284 204.227 252.12 204.227 251.668Z" fill="#263238"/>
<path d="M205.826 249.289V247.729C205.814 247.597 205.83 247.463 205.873 247.337C205.915 247.21 205.984 247.094 206.073 246.996C206.163 246.897 206.273 246.819 206.395 246.765C206.517 246.711 206.648 246.684 206.782 246.684C206.915 246.684 207.047 246.711 207.169 246.765C207.291 246.819 207.4 246.897 207.49 246.996C207.58 247.094 207.648 247.21 207.691 247.337C207.733 247.463 207.749 247.597 207.737 247.729V249.289C207.749 249.422 207.733 249.556 207.691 249.682C207.648 249.809 207.58 249.925 207.49 250.023C207.4 250.121 207.291 250.2 207.169 250.254C207.047 250.307 206.915 250.335 206.782 250.335C206.648 250.335 206.517 250.307 206.395 250.254C206.273 250.2 206.163 250.121 206.073 250.023C205.984 249.925 205.915 249.809 205.873 249.682C205.83 249.556 205.814 249.422 205.826 249.289ZM207.105 249.336V247.667C207.105 247.386 206.981 247.269 206.786 247.269C206.591 247.269 206.458 247.386 206.458 247.667V249.336C206.458 249.609 206.575 249.726 206.786 249.726C206.996 249.726 207.105 249.601 207.105 249.336ZM209.04 246.793H209.672L207.23 253.096H206.598L209.04 246.793ZM208.564 252.183V250.623C208.552 250.49 208.568 250.357 208.61 250.23C208.653 250.104 208.721 249.988 208.811 249.89C208.901 249.791 209.011 249.713 209.132 249.659C209.254 249.605 209.386 249.577 209.52 249.577C209.653 249.577 209.785 249.605 209.907 249.659C210.029 249.713 210.138 249.791 210.228 249.89C210.318 249.988 210.386 250.104 210.429 250.23C210.471 250.357 210.487 250.49 210.475 250.623V252.183C210.487 252.316 210.471 252.45 210.429 252.576C210.386 252.702 210.318 252.818 210.228 252.917C210.138 253.015 210.029 253.094 209.907 253.148C209.785 253.201 209.653 253.229 209.52 253.229C209.386 253.229 209.254 253.201 209.132 253.148C209.011 253.094 208.901 253.015 208.811 252.917C208.721 252.818 208.653 252.702 208.61 252.576C208.568 252.45 208.552 252.316 208.564 252.183ZM209.843 252.222V250.561C209.843 250.28 209.718 250.163 209.516 250.163C209.313 250.163 209.196 250.28 209.196 250.561V252.222C209.196 252.503 209.313 252.62 209.516 252.62C209.718 252.62 209.874 252.503 209.874 252.222H209.843Z" fill="#263238"/>
<path d="M92.3832 85.9569L112.967 70.0449L133.552 85.9569H92.3832Z" fill="#263238" stroke="#263238" stroke-linecap="round" stroke-linejoin="round"/>
<path d="M118.349 68.7969H107.585V78.0009H118.349V68.7969Z" fill="#263238" stroke="#263238" stroke-linecap="round" stroke-linejoin="round"/>
<path d="M112.967 45.9277V78.0013" stroke="#263238" stroke-width="0.75" stroke-linecap="round" stroke-linejoin="round"/>
<path d="M256.44 85.9569L277.032 70.0449L297.617 85.9569H256.44Z" fill="#263238" stroke="#263238" stroke-linecap="round" stroke-linejoin="round"/>
<path d="M282.415 68.7969H271.651V78.0009H282.415V68.7969Z" fill="#263238" stroke="#263238" stroke-linecap="round" stroke-linejoin="round"/>
<path d="M277.033 44.3672V78.0008" stroke="#263238" stroke-width="0.75" stroke-linecap="round" stroke-linejoin="round"/>
<path d="M285.067 334.299L284.63 347.169L291.291 347.489L293.717 334.299H285.067Z" fill="white" stroke="#263238" stroke-linecap="round" stroke-linejoin="round"/>
<path d="M272.033 351.116C274.279 350.336 278.163 349.01 279.622 348.098C280.792 347.364 282.422 344.978 283.631 344.307C283.885 344.197 284.158 344.14 284.435 344.14C284.711 344.14 284.984 344.197 285.238 344.307C285.434 344.525 285.562 344.796 285.605 345.087C285.638 345.213 285.708 345.326 285.805 345.412C285.903 345.499 286.023 345.555 286.152 345.573C286.281 345.591 286.413 345.571 286.53 345.515C286.648 345.459 286.747 345.37 286.814 345.258C287 344.892 287.267 344.572 287.594 344.322C288.623 343.745 291.408 343.581 292.32 344.322C293.834 345.563 294.38 349.837 294.66 351.764C294.731 352.185 294.66 354.525 294.66 354.525H270.356V353.456C270.352 352.939 270.513 352.434 270.814 352.014C271.115 351.593 271.542 351.279 272.033 351.116Z" fill="white" stroke="#263238" stroke-linecap="round" stroke-linejoin="round"/>
<path d="M294.676 354.509H270.356V353.44C270.355 353.175 270.4 352.911 270.488 352.66H294.707C294.707 353.479 294.676 354.509 294.676 354.509Z" fill="#858585" stroke="#263238" stroke-linecap="round" stroke-linejoin="round"/>
<path d="M289.271 234.521L284.162 339.197L293.522 340.757C293.522 340.757 299.419 310.462 300.136 300.541C300.308 298.201 300.136 291.142 300.136 291.142L306.758 258.545C306.758 258.545 311.119 254.521 311.626 235.356L289.271 234.521Z" fill="#263238" stroke="#263238" stroke-linecap="round" stroke-linejoin="round"/>
<path opacity="0.7" d="M303.124 275.034C303.482 273.521 303.904 272.031 304.411 270.549C304.489 270.339 304.582 270.144 304.676 269.949C304.908 267.734 305.265 265.533 305.744 263.358C305.91 262.545 306.347 261.813 306.985 261.283C307.167 260.872 307.438 260.506 307.78 260.213C308.121 259.921 308.524 259.708 308.958 259.59C308.671 257.577 308.233 255.587 307.648 253.639C307.055 251.595 306.088 249.638 305.799 247.524C305.721 246.978 305.409 246.408 305.51 246.346C304.84 246.085 304.184 245.788 303.545 245.457L303.428 245.363C302.83 255.242 302.728 265.145 303.124 275.034Z" fill="black"/>
<path d="M288.826 294.395C290.483 294.011 292.004 293.183 293.225 292" stroke="#7F7F7F" stroke-width="0.75" stroke-linecap="round" stroke-linejoin="round"/>
<path d="M282.929 341.187L294.247 342.116L295.09 338.45L282.929 337.498V341.187Z" fill="white" stroke="#263238" stroke-linecap="round" stroke-linejoin="round"/>
<path d="M315.611 332.715L318.022 347.762L324.184 347.278L323.981 331.873L315.611 332.715Z" fill="white" stroke="#263238" stroke-linecap="round" stroke-linejoin="round"/>
<path d="M305.292 351.116C307.546 350.336 311.43 349.01 312.881 348.098C314.051 347.364 315.689 344.978 316.89 344.307C317.145 344.197 317.42 344.14 317.698 344.14C317.975 344.14 318.25 344.197 318.505 344.307C318.646 344.452 318.746 344.633 318.794 344.829C318.836 344.979 318.921 345.112 319.039 345.212C319.157 345.313 319.302 345.376 319.456 345.394C319.61 345.411 319.766 345.382 319.904 345.311C320.041 345.24 320.154 345.129 320.229 344.993C320.388 344.724 320.6 344.491 320.853 344.307C321.882 343.73 324.667 343.566 325.58 344.307C327.093 345.547 327.639 349.821 327.92 351.748C327.982 352.169 327.92 354.509 327.92 354.509H303.623V353.441C303.622 352.927 303.783 352.426 304.082 352.009C304.382 351.592 304.805 351.28 305.292 351.116Z" fill="white" stroke="#263238" stroke-linecap="round" stroke-linejoin="round"/>
<path d="M327.943 354.509H303.623V353.44C303.62 353.175 303.662 352.911 303.748 352.66H327.967C327.967 353.479 327.943 354.509 327.943 354.509Z" fill="#858585" stroke="#263238" stroke-linecap="round" stroke-linejoin="round"/>
<path d="M302.297 237.68C302.297 237.68 304.637 251.229 306.79 262.594C308.256 270.3 308.35 293.068 308.35 293.068L315.822 340.079L325.034 338.839C325.034 338.839 325.143 309.901 324.106 300.619C323.872 298.552 323.49 292.413 323.49 292.413C323.49 292.413 323.841 267.859 325.736 259.653C327.093 253.803 329.792 247.657 326.516 235.668L302.297 237.68Z" fill="#263238" stroke="#263238" stroke-linecap="round" stroke-linejoin="round"/>
<path d="M310.37 294.395C311.307 295.691 312.701 296.586 314.27 296.898" stroke="#7F7F7F" stroke-width="0.75" stroke-linecap="round" stroke-linejoin="round"/>
<path d="M314.277 337.966L314.808 341.414L326.227 340.189L326.149 336.477L314.277 337.966Z" fill="white" stroke="#263238" stroke-linecap="round" stroke-linejoin="round"/>
<path d="M258.827 175.008L256.308 170.773C256.308 170.773 255.7 163.854 254.296 162.505C252.892 161.155 249.772 157.185 249.327 157.965C248.625 159.213 251.222 161.436 251.222 161.436L251.698 164.01C251.698 164.01 247.494 160.984 246.308 160.984C246.308 160.984 242.954 157.014 241.769 157.006C240.583 156.998 242.252 159.751 242.252 159.751C242.252 159.751 241.121 158.886 240.903 159.424C240.685 159.962 242.362 161.803 242.362 161.803C242.362 161.803 241.714 162.505 242.689 164.01C242.554 164.497 242.556 165.011 242.693 165.496C242.831 165.982 243.099 166.42 243.469 166.764C244.764 167.793 251.722 171.732 251.722 171.732L254.062 177.239L258.827 175.008Z" fill="#858585" stroke="#263238" stroke-linecap="round" stroke-linejoin="round"/>
<path d="M243.282 161.912C243.282 161.912 244.202 162.287 243.82 163.636C244.187 164.158 244.394 164.776 244.413 165.414C244.506 166.6 250.512 166.015 252.135 168.534" stroke="#263238" stroke-width="0.75" stroke-linecap="round" stroke-linejoin="round"/>
<path d="M243.282 160.453L245.731 163.043" stroke="#263238" stroke-width="0.75" stroke-linecap="round" stroke-linejoin="round"/>
<path d="M284.833 173.939L268.757 186.466L257.743 171.459L252.135 174.267C252.135 174.267 260.949 198.619 267.618 198.619C274.708 198.619 288.186 187.231 288.186 187.231C288.186 187.231 289.037 185.054 284.833 173.939Z" fill="white" stroke="#263238" stroke-linecap="round" stroke-linejoin="round"/>
<path d="M269.365 187.66C269.741 188.459 270.021 189.299 270.2 190.164" stroke="#263238" stroke-width="0.75" stroke-linecap="round" stroke-linejoin="round"/>
<path d="M284.833 173.939L288.257 219.264V238.093C288.257 238.093 307.983 240.433 327.444 237.594L326.773 218.211L328.747 175.007C328.747 175.007 319.714 168.479 305.846 168.479C291.977 168.479 284.833 173.939 284.833 173.939Z" fill="white" stroke="#263238" stroke-linecap="round" stroke-linejoin="round"/>
<path opacity="0.2" d="M327.444 237.595L326.82 220.225C326.485 228.594 317.249 225.451 315.159 225.061C312.92 224.639 310.346 232.018 310.346 232.018C310.346 232.018 301.766 233.492 295.051 232.97C288.335 232.447 288.233 226.316 288.233 226.316V238.094C288.233 238.094 307.983 240.466 327.444 237.595Z" fill="black"/>
<path d="M297.5 218.828C305.772 217.939 313.71 215.08 320.65 210.49L297.5 218.828Z" fill="white"/>
<path d="M297.5 218.828C305.772 217.939 313.71 215.08 320.65 210.49" stroke="#263238" stroke-width="0.75" stroke-linecap="round" stroke-linejoin="round"/>
<path d="M294.06 219.062C294.06 219.062 294.723 219.062 295.893 218.977L294.06 219.062Z" fill="white"/>
<path d="M294.06 219.062C294.06 219.062 294.723 219.062 295.893 218.977" stroke="#263238" stroke-width="0.75" stroke-linecap="round" stroke-linejoin="round"/>
<path d="M300.737 176.122L297.321 174.882L294.06 178.033L296.447 168.283L299.325 166.021L300.792 166.95L307.344 166.7L312.437 167.113L314.863 166.365L317.452 168.954L311.688 179.976L309.27 175.803L303.935 176.466L300.737 176.122Z" fill="white"/>
<path opacity="0.5" d="M300.737 176.122L297.321 174.882L294.06 178.033L296.447 168.283L299.325 166.021L300.792 166.95L307.344 166.7L312.437 167.113L314.863 166.365L317.452 168.954L311.688 179.976L309.27 175.803L303.935 176.466L300.737 176.122Z" fill="white"/>
<path d="M300.737 176.122L297.321 174.882L294.06 178.033L296.447 168.283L299.325 166.021L300.792 166.95L307.344 166.7L312.437 167.113L314.863 166.365L317.452 168.954L311.688 179.976L309.27 175.803L303.935 176.466L300.737 176.122Z" stroke="#263238" stroke-linecap="round" stroke-linejoin="round"/>
<path d="M312.086 168.924L311.306 157.006L303.771 158.34L302.211 163.94L300.651 168.792L299.91 168.87L301.962 180.008L312.835 169.088L312.086 168.924Z" fill="#858585"/>
<path d="M293.561 157.832C293.561 160.858 294.029 167.629 298.186 168.417C302.492 169.236 307.429 164.337 309.2 162.379C309.643 161.893 309.99 161.327 310.221 160.71L311.165 158.206C311.782 158.254 312.399 158.124 312.944 157.832H293.561Z" fill="#263238" stroke="#263238" stroke-width="0.5" stroke-linecap="round" stroke-linejoin="round"/>
<path d="M312.086 168.924L311.306 157.006L303.771 158.34L302.211 163.94L300.651 168.792L299.91 168.87L301.962 180.008L312.835 169.088L312.086 168.924Z" stroke="#263238" stroke-linecap="round" stroke-linejoin="round"/>
<path d="M298.584 142.529C298.584 142.529 295.02 139.814 296.767 137.677C297.679 136.57 298.865 138.028 298.865 138.028C298.865 138.028 298.233 134.627 300.768 134.128C303.108 133.691 303.015 136.375 303.015 136.375C303.015 136.375 304.224 134.074 306.337 134.588C308.022 134.994 307.375 137.381 307.375 137.381C307.375 137.381 309.621 134.588 311.946 135.821C313.95 136.874 312.297 139.401 312.297 139.401C312.297 139.401 314.683 138.559 316.017 139.9C317.351 141.242 316.017 143.02 316.017 143.02C316.017 143.02 318.646 143.02 318.763 144.986C318.88 146.951 316.727 147.326 316.727 147.326C316.727 147.326 319.769 148.309 319.792 150.695C319.816 153.082 317.78 152.318 317.78 152.318C317.78 152.318 319.044 154.564 317.991 155.758C317.872 155.917 317.718 156.047 317.541 156.136C317.363 156.226 317.167 156.272 316.969 156.272C316.77 156.272 316.574 156.226 316.397 156.136C316.219 156.047 316.065 155.917 315.947 155.758C315.947 155.758 317.265 158.589 315.596 159.416C314.403 160.001 313.701 158.566 313.701 158.566C313.701 158.566 312.694 161.015 311.478 159.517C310.261 158.02 304.224 146.483 304.224 146.483L298.584 142.529Z" fill="#263238" stroke="#263238" stroke-width="0.75" stroke-linecap="round" stroke-linejoin="round"/>
<path d="M297.554 142.638L295.308 147.318C295.078 147.805 294.958 148.338 294.957 148.878V150.344L293.717 153.464C293.653 153.627 293.601 153.793 293.561 153.963C293.163 155.625 291.268 164.548 295.901 166.365C299.988 167.972 305.744 164.095 307.858 162.504C308.385 162.108 308.83 161.612 309.169 161.046L310.573 158.768C311.169 158.946 311.806 158.931 312.393 158.725C312.98 158.519 313.487 158.133 313.841 157.621C315.097 155.82 316.547 154.845 314.824 153.222C313.1 151.6 311.509 154.197 311.509 154.197L311.743 149.619L309.746 146.109L309.644 143.901C309.644 143.901 303.108 143.176 298.724 140.781L297.554 142.638Z" fill="white" stroke="#263238" stroke-width="0.75" stroke-linecap="round" stroke-linejoin="round"/>
<path d="M297.554 142.638L295.308 147.318C295.078 147.805 294.958 148.338 294.957 148.878V150.344L293.717 153.464C293.653 153.627 293.601 153.793 293.561 153.963C293.163 155.625 291.268 164.548 295.901 166.365C299.988 167.972 305.744 164.095 307.858 162.504C308.385 162.108 308.83 161.612 309.169 161.046L310.573 158.768C311.169 158.946 311.806 158.931 312.393 158.725C312.98 158.519 313.487 158.133 313.841 157.621C315.097 155.82 316.547 154.845 314.824 153.222C313.1 151.6 311.509 154.197 311.509 154.197L311.743 149.619L309.746 146.109L309.644 143.901C309.644 143.901 303.108 143.176 298.724 140.781L297.554 142.638Z" fill="#858585" stroke="#263238" stroke-linecap="round" stroke-linejoin="round"/>
<path d="M301.532 158.621C300.269 161.062 298.553 160.657 297.476 160.048" stroke="#263238" stroke-width="0.75" stroke-linecap="round" stroke-linejoin="round"/>
<path d="M301.556 153.074C301.384 153.628 301.033 154.01 300.776 153.932C300.518 153.854 300.432 153.332 300.604 152.778C300.776 152.224 301.127 151.834 301.384 151.92C301.641 152.006 301.727 152.521 301.556 153.074Z" fill="#263238"/>
<path d="M296.345 151.459C296.174 152.021 295.823 152.403 295.565 152.317C295.308 152.232 295.222 151.717 295.394 151.163C295.565 150.609 295.924 150.227 296.174 150.313C296.423 150.399 296.517 150.906 296.345 151.459Z" fill="#263238"/>
<path d="M295.971 147.857C296.177 147.799 296.394 147.784 296.606 147.814C296.819 147.843 297.023 147.916 297.206 148.028C297.389 148.14 297.547 148.289 297.67 148.465C297.793 148.64 297.878 148.84 297.921 149.05" stroke="#263238" stroke-width="0.75" stroke-linecap="round" stroke-linejoin="round"/>
<path d="M300.456 149.986C300.456 149.986 302.274 148.075 303.498 150.103" stroke="#263238" stroke-width="0.75" stroke-linecap="round" stroke-linejoin="round"/>
<path d="M297.96 151.951C297.797 152.696 297.446 153.388 296.941 153.96C296.436 154.531 295.793 154.965 295.074 155.219L296.493 157.474" stroke="#263238" stroke-width="0.75" stroke-linecap="round" stroke-linejoin="round"/>
<path d="M307.016 241.379L306.618 243.789C306.561 244.187 306.66 244.592 306.894 244.919C307.127 245.246 307.479 245.47 307.874 245.544L332.888 249.647C333.286 249.704 333.691 249.605 334.018 249.371C334.345 249.137 334.569 248.786 334.643 248.391L335.033 245.981L307.016 241.379Z" fill="white" stroke="#263238" stroke-width="0.75" stroke-linecap="round" stroke-linejoin="round"/>
<path d="M336.154 230.792L310.854 226.64C310.101 226.516 309.391 227.026 309.268 227.778L306.76 243.057C306.637 243.809 307.147 244.519 307.899 244.643L333.199 248.795C333.952 248.919 334.662 248.409 334.785 247.656L337.293 232.378C337.416 231.625 336.906 230.915 336.154 230.792Z" fill="white"/>
<path opacity="0.5" d="M336.154 230.792L310.854 226.64C310.101 226.516 309.391 227.026 309.268 227.778L306.76 243.057C306.637 243.809 307.147 244.519 307.899 244.643L333.199 248.795C333.952 248.919 334.662 248.409 334.785 247.656L337.293 232.378C337.416 231.625 336.906 230.915 336.154 230.792Z" fill="white"/>
<path d="M336.154 230.792L310.854 226.64C310.101 226.516 309.391 227.026 309.268 227.778L306.76 243.057C306.637 243.809 307.147 244.519 307.899 244.643L333.199 248.795C333.952 248.919 334.662 248.409 334.785 247.656L337.293 232.378C337.416 231.625 336.906 230.915 336.154 230.792Z" stroke="#263238" stroke-linecap="round" stroke-linejoin="round"/>
<path d="M326.391 233.641L325.01 238.321L320.33 241.667C319.668 243.715 318.887 245.723 317.99 247.681C317.931 247.79 317.9 247.912 317.901 248.036C317.901 248.161 317.933 248.283 317.994 248.391C318.055 248.5 318.143 248.591 318.248 248.656C318.354 248.722 318.475 248.759 318.599 248.765C319.246 248.765 320.003 248.461 320.416 247.205C320.416 247.205 320.596 249.67 322.117 248.164C322.117 248.164 323.045 250.551 324.496 248.671C324.496 248.671 327.857 249.17 328.396 246.745C328.934 244.319 329.729 240.044 329.729 240.044L331.867 235.029L326.391 233.641Z" fill="#858585" stroke="#263238" stroke-linecap="round" stroke-linejoin="round"/>
<path d="M320.385 246.246L320.915 242.635" stroke="#263238" stroke-width="0.75" stroke-linecap="round" stroke-linejoin="round"/>
<path d="M321.22 246.479C321.22 246.479 321.586 247.672 322.413 247.477C323.24 247.282 324.418 248.202 326.992 247.118" stroke="#263238" stroke-width="0.75" stroke-linecap="round" stroke-linejoin="round"/>
<path d="M328.746 175.008C328.746 175.008 340.446 207.518 340.228 212.268C340.01 217.019 331.687 237.681 331.687 237.681L325.26 235.637L329.55 211.403L325.704 194.562C325.704 194.562 324.831 182.215 328.746 175.008Z" fill="white" stroke="#263238" stroke-linecap="round" stroke-linejoin="round"/>
<path d="M330.993 210.865C331.424 210.535 331.924 210.305 332.456 210.193C332.988 210.081 333.538 210.09 334.066 210.218" stroke="#263238" stroke-width="0.75" stroke-linecap="round" stroke-linejoin="round"/>
<path d="M323.388 236.153C323.155 235.844 322.981 235.495 322.873 235.123C322.424 235.115 321.987 235.277 321.652 235.577C321.317 235.877 321.108 236.293 321.068 236.741C321.027 237.189 321.158 237.636 321.434 237.991C321.709 238.347 322.11 238.585 322.554 238.657C323.02 238.733 323.498 238.622 323.882 238.347C324.267 238.072 324.527 237.656 324.605 237.19C324.103 236.977 323.678 236.615 323.388 236.153Z" fill="white"/>
<path d="M95.1132 167.536L96.5328 174.532L80.7612 175.195L83.499 155.805L94.1226 157.037L95.1132 167.536Z" fill="white"/>
<path d="M102.18 156.92L88.9902 160.82C89.1548 162.332 89.4684 163.824 89.9262 165.274C90.7062 167.52 95.4564 171.514 98.5062 171.467C101.556 171.42 101.899 161.701 101.899 161.701L103.74 160.68C103.845 160.62 103.937 160.538 104.008 160.44C104.08 160.342 104.13 160.23 104.155 160.111C104.18 159.993 104.18 159.87 104.154 159.751C104.128 159.633 104.077 159.521 104.005 159.424L102.18 156.92Z" fill="#263238" stroke="#263238" stroke-width="0.75" stroke-linecap="round" stroke-linejoin="round"/>
<path d="M95.1132 167.536L96.5328 174.532L80.7612 175.195L83.499 155.805L94.1226 157.037L95.1132 167.536Z" stroke="#263238" stroke-linecap="round" stroke-linejoin="round"/>
<path d="M95.8387 142.888C95.8387 142.888 99.6685 143.668 99.2785 139.51C98.8885 135.353 91.7515 137.896 88.0309 138.364C84.3103 138.832 72.2983 143.317 76.5493 150.399C76.5493 150.399 74.0455 154.393 83.0623 161.093C83.0623 161.093 87.3445 159.08 89.6923 162.021L91.5253 158.449L96.2053 150.227L95.8387 142.888Z" fill="#263238" stroke="#263238" stroke-linecap="round" stroke-linejoin="round"/>
<path d="M95.5577 142.263C95.5577 142.263 99.2237 144.306 101.33 141.748C101.33 141.748 101.564 147.208 95.5577 142.263Z" fill="#263238" stroke="#263238" stroke-linecap="round" stroke-linejoin="round"/>
<path d="M95.9397 141.693C95.9397 141.693 101.4 147.442 101.213 151.381V154.977L104.099 158.222C104.179 158.305 104.24 158.405 104.278 158.514C104.315 158.624 104.327 158.741 104.314 158.856C104.3 158.971 104.261 159.081 104.2 159.179C104.138 159.277 104.056 159.361 103.958 159.423L102.281 160.585C102.281 160.585 102.773 169.789 99.8865 170.117C97.0005 170.444 92.1957 166.997 91.2363 164.969C90.5137 163.108 89.9908 161.176 89.6763 159.204C88.8363 158.977 88.0836 158.503 87.5151 157.844C86.9465 157.185 86.5882 156.371 86.4861 155.507C86.1507 152.481 89.2005 152.567 89.9883 154.548L90.6279 156.162L92.6091 156.092C92.6091 156.092 91.4781 153.237 92.1489 152.395C92.8197 151.553 95.4561 149.501 94.2471 147.543C93.0381 145.586 93.4437 142.255 95.9397 141.693Z" fill="white" stroke="#263238" stroke-linecap="round" stroke-linejoin="round"/>
<path d="M99.0601 162.387C99.2872 162.79 99.6353 163.112 100.055 163.306C100.475 163.501 100.946 163.558 101.4 163.471" stroke="#263238" stroke-width="0.75" stroke-linecap="round" stroke-linejoin="round"/>
<path d="M97.6245 151.406C97.6245 151.406 98.8647 149.682 100.043 151.258" stroke="#263238" stroke-linecap="round" stroke-linejoin="round"/>
<path d="M99.5826 155.001C99.5826 155.539 99.372 155.983 99.0834 155.991C98.7948 155.999 98.5452 155.57 98.5296 155.032C98.514 154.494 98.7402 154.049 99.0288 154.041C99.3174 154.033 99.567 154.439 99.5826 155.001Z" fill="#263238"/>
<path d="M74.5676 327.787L72.29 347.389L79.0682 348.434L82.8044 329.059L74.5676 327.787Z" fill="white" stroke="#263238" stroke-linecap="round" stroke-linejoin="round"/>
<path d="M71.3774 241.176C71.3774 241.176 71.6504 252.533 75.6596 260.52L76.5722 290.659L71.9468 339.222L82.235 340.205L91.595 289.411L94.715 243.391L71.3774 241.176Z" fill="white" stroke="#263238" stroke-linecap="round" stroke-linejoin="round"/>
<path opacity="0.2" d="M93.2643 265.52L92.4063 260.114L88.5063 243.102L87.7887 242.736L71.4087 241.176C71.4087 241.176 71.4087 243.04 71.7753 245.793L79.8639 250.38C80.0547 253.26 80.7051 256.09 81.7905 258.765C81.8877 258.998 81.9232 259.253 81.8936 259.504C81.8639 259.755 81.7702 259.995 81.6214 260.199C81.4725 260.403 81.2736 260.566 81.0436 260.672C80.8137 260.777 80.5606 260.821 80.3085 260.801C79.4739 260.738 78.7485 260.801 78.7485 261.347C78.7485 262.61 84.8481 266.69 84.8481 266.69C84.8481 266.69 91.0023 286.58 90.7839 293.927L91.6185 289.403L93.2643 265.52Z" fill="black"/>
<path d="M95.2535 329.074L95.9945 348.793H102.851L103.584 329.074H95.2535Z" fill="white" stroke="#263238" stroke-linecap="round" stroke-linejoin="round"/>
<path d="M113.771 351.569C111.507 350.879 109.305 350.003 107.187 348.948C106.173 348.316 104.754 346.249 103.709 345.664C103.489 345.57 103.253 345.521 103.014 345.521C102.776 345.521 102.54 345.57 102.32 345.664C101.821 346.07 101.798 348.184 101.798 348.184C101.798 348.184 100.916 346.031 100.277 345.664C99.3875 345.165 96.9695 345.017 96.1817 345.664C94.8713 346.733 94.3955 350.446 94.1381 352.115C94.0757 352.481 94.1381 354.509 94.1381 354.509H115.198V353.581C115.2 353.139 115.063 352.707 114.807 352.346C114.551 351.985 114.189 351.714 113.771 351.569Z" fill="#263238" stroke="#263238" stroke-linecap="round" stroke-linejoin="round"/>
<path d="M109.598 242.111L107.913 287.671L105.097 339.689H94.38C94.38 339.689 92.1336 299.761 92.6952 288.209L87.0714 261.494C87.0714 261.494 81.1668 253.616 82.5708 244.061L109.598 242.111Z" fill="white" stroke="#263238" stroke-linecap="round" stroke-linejoin="round"/>
<path d="M93.4282 335.82L93.7792 342.076H105.518L106.431 335.82H93.4282Z" fill="white" stroke="#263238" stroke-linecap="round" stroke-linejoin="round"/>
<path d="M71.0891 335.283L70.8473 341.539L82.5317 342.654L84.0371 336.516L71.0891 335.283Z" fill="white" stroke="#263238" stroke-linecap="round" stroke-linejoin="round"/>
<path d="M127.366 212.12L111.15 201.809L128.24 184.719L144.464 195.03L127.366 212.12Z" fill="white" stroke="#263238" stroke-linecap="round" stroke-linejoin="round"/>
<path d="M128.294 208.596L115.252 200.304L128.996 186.561L142.038 194.852L128.294 208.596Z" fill="white" stroke="#263238" stroke-width="0.75" stroke-linecap="round" stroke-linejoin="round"/>
<path d="M129.246 194.361L131.523 192.083L128.598 190.227L126.321 192.496L129.246 194.361Z" stroke="#263238" stroke-width="0.75" stroke-linecap="round" stroke-linejoin="round"/>
<path d="M125.713 197.902L127.99 195.624L125.057 193.76L122.788 196.037L125.713 197.902Z" stroke="#263238" stroke-width="0.75" stroke-linecap="round" stroke-linejoin="round"/>
<path d="M122.054 201.56L124.324 199.282L121.399 197.418L119.122 199.696L122.054 201.56Z" stroke="#263238" stroke-width="0.75" stroke-linecap="round" stroke-linejoin="round"/>
<path d="M134.823 187.379L132.67 189.54C132.568 189.641 132.491 189.764 132.443 189.9C132.395 190.036 132.378 190.181 132.394 190.324C132.41 190.467 132.457 190.605 132.534 190.727C132.61 190.849 132.712 190.952 132.834 191.029L135.954 193.034C136.298 193.253 136.706 193.349 137.112 193.305C137.517 193.261 137.896 193.08 138.185 192.792L140.174 190.795L134.823 187.379Z" fill="#858585" stroke="#263238" stroke-linecap="round" stroke-linejoin="round"/>
<path d="M77.1187 174.064L79.9345 167.878C79.9345 167.878 96.2442 166.053 100.597 179.687L77.1187 174.064Z" fill="#858585" stroke="#263238" stroke-linecap="round" stroke-linejoin="round"/>
<path d="M67.8599 179.338C67.8599 179.338 63.8351 210.171 64.9037 221.099C65.7461 229.741 71.4401 237.058 71.4401 237.058L79.8797 233.751L75.5897 221.099C75.5897 221.099 76.9235 198.323 78.1871 193.019L67.8599 179.338Z" fill="#858585" stroke="#263238" stroke-linecap="round" stroke-linejoin="round"/>
<path d="M68.9985 235.543L71.3775 238.39L81.1275 234.592L79.8639 230.793L68.9985 235.543Z" fill="#858585" stroke="#263238" stroke-linecap="round" stroke-linejoin="round"/>
<path d="M67.8596 179.337C67.8596 179.337 66.5882 197.051 70.1996 209.5C73.811 221.948 70.1996 242.392 70.1996 242.392C70.1996 242.392 86.8214 253.148 112.32 244.919C112.32 244.919 109.161 184.391 104.941 181.022C100.721 177.652 76.9076 164.79 67.8596 179.337Z" fill="#858585" stroke="#263238" stroke-linecap="round" stroke-linejoin="round"/>
<path opacity="0.2" d="M112.32 244.92C112.32 244.92 111.236 224.172 109.496 206.295C105.807 197.34 99.7777 185.414 99.4579 202.161C98.9899 226.38 113.896 224.952 102.086 229.172C99.4459 230.172 96.6173 230.578 93.8021 230.359C90.987 230.141 88.2547 229.304 85.8001 227.908C85.6038 227.808 85.379 227.778 85.163 227.822C84.9471 227.867 84.7529 227.984 84.6127 228.155C84.4725 228.325 84.3947 228.538 84.3922 228.758C84.3897 228.979 84.4626 229.194 84.5989 229.367C87.5629 233.134 92.0635 235.482 95.5189 236.832C95.8309 236.951 96.0947 237.17 96.2691 237.455C96.4436 237.74 96.5189 238.074 96.4833 238.407C96.4476 238.739 96.3031 239.05 96.0722 239.291C95.8414 239.532 95.5371 239.691 95.2069 239.741C84.0841 241.387 75.3637 235.474 71.3623 232.035C70.8943 237.994 70.1221 242.393 70.1221 242.393C70.1221 242.393 86.8219 253.149 112.32 244.92Z" fill="black"/>
<path d="M104.957 181.029C106.477 181.727 107.797 182.798 108.792 184.143C109.788 185.488 110.427 187.062 110.651 188.72C111.493 194.523 116.891 212.346 116.891 212.346L118.685 211.184C120.182 211.857 121.416 213.005 122.195 214.451C122.973 215.896 123.253 217.558 122.99 219.179C122.99 219.179 118.607 227.759 113.817 226.144C108.896 224.475 106.142 220.451 103.677 213.867C102.375 210.357 98.6152 199.781 98.6152 199.781" fill="#858585"/>
<path d="M104.957 181.029C106.477 181.727 107.797 182.798 108.792 184.143C109.788 185.488 110.427 187.062 110.651 188.72C111.493 194.523 116.891 212.346 116.891 212.346L118.685 211.184C120.182 211.857 121.416 213.005 122.195 214.451C122.973 215.896 123.253 217.558 122.99 219.179C122.99 219.179 118.607 227.759 113.817 226.144C108.896 224.475 106.142 220.45 103.677 213.867C102.375 210.357 98.6152 199.781 98.6152 199.781" stroke="#263238" stroke-linecap="round" stroke-linejoin="round"/>
<path d="M119.043 217.51C119.072 217.968 119.051 218.429 118.981 218.883" stroke="#263238" stroke-width="0.75" stroke-linecap="round" stroke-linejoin="round"/>
<path d="M115.822 221.098C115.822 221.098 117.296 218.758 117.086 213.711C117.795 214.248 118.336 214.976 118.646 215.809" stroke="#263238" stroke-width="0.75" stroke-linecap="round" stroke-linejoin="round"/>
<path d="M119.862 210.693L125.486 206.684C125.767 205.438 126.379 204.29 127.258 203.362C128.136 202.434 129.249 201.76 130.478 201.411C130.478 201.411 133.076 197.121 134.55 197.62C136.024 198.12 132.795 199.867 132.514 202.113L133.707 203.712C133.707 203.712 137.607 203.026 138.559 201.762C138.559 201.762 138.348 204.438 136.804 204.882C136.804 204.882 136.804 206.918 135.751 206.848L128.013 209.032L123.513 217.433L119.862 210.693Z" fill="white" stroke="#263238" stroke-linecap="round" stroke-linejoin="round"/>
<path d="M96.8369 230.193C97.7261 230.111 98.6076 229.959 99.4733 229.74" stroke="#263238" stroke-width="0.75" stroke-linecap="round" stroke-linejoin="round"/>
<path d="M74.7314 217.408C74.7314 217.408 83.0228 230.091 95.0114 230.263" stroke="#263238" stroke-width="0.75" stroke-linecap="round" stroke-linejoin="round"/>
<path d="M117.437 210.834C117.437 210.834 123.302 215.264 122.741 220.607L124.854 216.559C124.854 216.559 124.784 213.15 119.933 209.539L117.437 210.834Z" fill="#858585" stroke="#263238" stroke-linecap="round" stroke-linejoin="round"/>
<path d="M94.1381 354.509H115.198V353.581C115.198 353.353 115.161 353.126 115.089 352.91H94.1069C94.1069 353.62 94.1381 354.509 94.1381 354.509Z" fill="white" stroke="#263238" stroke-width="0.75" stroke-linecap="round" stroke-linejoin="round"/>
<path d="M89.6998 351.569C87.4366 350.879 85.2346 350.003 83.1166 348.948C82.1026 348.316 80.683 346.249 79.6456 345.664C79.4251 345.57 79.1876 345.521 78.9475 345.521C78.7075 345.521 78.47 345.57 78.2494 345.664C77.7502 346.07 77.7269 348.184 77.7269 348.184C77.7269 348.184 76.8532 346.031 76.2058 345.664C75.3166 345.165 72.8986 345.017 72.1108 345.664C70.8004 346.733 70.3247 350.446 70.0673 352.115C70.0049 352.481 70.0673 354.509 70.0673 354.509H91.1272V353.581C91.1288 353.139 90.9921 352.707 90.7361 352.346C90.4802 351.985 90.1179 351.714 89.6998 351.569Z" fill="#263238" stroke="#263238" stroke-linecap="round" stroke-linejoin="round"/>
<path d="M70.0516 354.509H91.1116V353.581C91.1115 353.353 91.0747 353.126 91.0024 352.91H70.0204C70.0204 353.62 70.0516 354.509 70.0516 354.509Z" fill="white" stroke="#263238" stroke-width="0.75" stroke-linecap="round" stroke-linejoin="round"/>
<path d="M101.119 288.514C101.119 288.514 98.8805 292.375 95.2535 290.9" stroke="#263238" stroke-width="0.75" stroke-linecap="round" stroke-linejoin="round"/>
<path d="M85.5112 289.871C85.5112 289.871 81.4942 293.303 78.1714 290.901" stroke="#263238" stroke-width="0.75" stroke-linecap="round" stroke-linejoin="round"/>
<path d="M127.428 189.953L127.99 192.745H132.966L128.918 191.802L129.113 189.898L127.428 189.953Z" fill="white"/>
</svg>
