<svg width="293" height="293" viewBox="0 0 293 293" fill="none" xmlns="http://www.w3.org/2000/svg">
<path d="M250.187 189.694L249.73 193.796L257.705 184.473C258.659 184.572 259.618 184.623 260.577 184.625" stroke="#263238" stroke-linecap="round" stroke-linejoin="round"/>
<path d="M240.196 161.4C239.148 162.982 238.491 164.789 238.279 166.674C237.523 173.49 242.868 179.936 250.943 182.918L250.533 186.581" stroke="#263238" stroke-linecap="round" stroke-linejoin="round"/>
<path d="M243.295 158.008C242.776 158.428 242.283 158.88 241.819 159.361" stroke="#263238" stroke-linecap="round" stroke-linejoin="round"/>
<path d="M273.205 158.008C269.564 155.513 265.355 153.974 260.963 153.531C256.322 152.962 251.614 153.655 247.333 155.535" stroke="#263238" stroke-linecap="round" stroke-linejoin="round"/>
<path d="M266.126 184.073C273.744 182.497 279.516 177.627 280.19 171.31C280.682 166.891 278.614 162.631 274.916 159.361" stroke="#263238" stroke-linecap="round" stroke-linejoin="round"/>
<path d="M247.339 162.537C247.984 162.657 248.646 162.649 249.288 162.512C249.929 162.375 250.538 162.113 251.078 161.74L253.926 163.949C253.726 164.014 253.744 163.592 253.955 163.58C254.166 163.569 254.324 163.762 254.47 163.914C255.139 164.623 256.264 164.647 257.219 164.442C258.174 164.237 259.106 163.856 260.079 163.891C260.657 163.951 261.226 164.083 261.772 164.283C265.687 165.496 269.759 166.106 273.814 166.704" stroke="#263238" stroke-linecap="round" stroke-linejoin="round"/>
<path d="M243.975 166.705C244.561 166.67 247.825 166.705 248.294 166.312L249.091 167.701L249.97 166.852C250.122 167.438 250.275 168.024 250.421 168.574C251.083 168.733 251.007 167.455 251.593 167.074C251.773 166.986 251.98 166.969 252.173 167.026C252.365 167.084 252.528 167.212 252.63 167.385C252.823 167.745 252.916 168.149 252.9 168.557L256.908 168.885L257.688 168.95C257.966 168.525 258.379 168.205 258.86 168.041C258.713 168.967 259.879 169.494 260.805 169.682C265.364 170.612 269.947 171.415 274.553 172.09" stroke="#263238" stroke-linecap="round" stroke-linejoin="round"/>
<path d="M245.757 173.069C246.126 173.327 246.577 172.847 247.028 172.788C247.48 172.729 247.849 173.069 248.247 173.274C248.646 173.479 249.302 173.392 249.325 172.946C249.419 173.532 250.146 173.743 250.738 173.825L266.126 175.988" stroke="#263238" stroke-linecap="round" stroke-linejoin="round"/>
<path d="M39.848 153.05L46.0127 161.348L44.7763 150.489C46.2502 149.774 47.6599 148.933 48.9896 147.975C55.3067 143.405 57.8499 136.05 55.5352 130.126C53.912 125.989 50.1089 123.176 45.3037 122.01" stroke="#263238" stroke-linecap="round" stroke-linejoin="round"/>
<path d="M15.4997 139.959C15.3076 141.838 15.5647 143.736 16.2498 145.497C18.7461 151.884 26.4696 155.107 35.0018 153.994" stroke="#263238" stroke-linecap="round" stroke-linejoin="round"/>
<path d="M16.6658 135.512C16.4041 136.127 16.1791 136.757 15.9919 137.399" stroke="#263238" stroke-linecap="round" stroke-linejoin="round"/>
<path d="M43.153 121.612C38.7686 121.088 34.3229 121.676 30.2259 123.323C25.853 124.976 22.0068 127.778 19.0919 131.433" stroke="#263238" stroke-linecap="round" stroke-linejoin="round"/>
<path d="M22.35 137.64C23.6106 137.246 24.6642 136.37 25.28 135.202L28.796 135.835C28.6437 135.981 28.4679 135.6 28.6495 135.489C28.8312 135.378 29.0597 135.489 29.2355 135.548C30.1614 135.864 31.1635 135.366 31.9136 134.739C32.6636 134.112 33.3082 133.332 34.1931 132.922C34.7336 132.706 35.2984 132.557 35.8749 132.477C39.9066 131.739 43.7918 130.379 47.6652 129.025" stroke="#263238" stroke-linecap="round" stroke-linejoin="round"/>
<path d="M21.3069 142.896C21.8285 142.585 24.7175 141.102 24.9519 140.552L26.3055 141.413C26.4344 141.026 26.5634 140.634 26.6864 140.241L27.8877 141.559C28.5499 141.395 27.8877 140.3 28.2042 139.702C28.322 139.54 28.4971 139.428 28.694 139.39C28.8909 139.352 29.095 139.39 29.2648 139.497C29.5995 139.721 29.8685 140.031 30.0442 140.393L33.7419 138.823L34.4685 138.518C34.5101 138.015 34.716 137.539 35.0545 137.164C35.3592 138.061 36.6367 137.979 37.5391 137.715C42.0123 136.426 46.4444 135.008 50.8355 133.461" stroke="#263238" stroke-linecap="round" stroke-linejoin="round"/>
<path d="M25.8426 147.7C26.2938 147.759 26.4696 147.114 26.8388 146.856C27.208 146.598 27.7002 146.733 28.1456 146.721C28.5909 146.71 29.1359 146.34 28.9484 145.936C29.3059 146.411 30.0501 146.258 30.6068 146.059L45.2568 140.814" stroke="#263238" stroke-linecap="round" stroke-linejoin="round"/>
<path d="M218.537 52.5176H72.4238C69.579 52.5176 67.2728 54.8237 67.2728 57.6685V189.296C67.2728 192.141 69.579 194.447 72.4238 194.447H218.537C221.382 194.447 223.688 192.141 223.688 189.296V57.6685C223.688 54.8237 221.382 52.5176 218.537 52.5176Z" fill="white"/>
<path opacity="0.2" d="M223.688 130.262V189.448C223.688 190.772 223.162 192.043 222.226 192.98C221.29 193.917 220.02 194.445 218.695 194.446H72.2714C70.9457 194.446 69.6743 193.92 68.7369 192.982C67.7995 192.045 67.2728 190.773 67.2728 189.448V177.728H67.5834V185.627C67.5834 186.378 67.7314 187.121 68.0189 187.815C68.3064 188.508 68.7278 189.139 69.2589 189.669C69.7901 190.2 70.4206 190.621 71.1145 190.907C71.8084 191.194 72.552 191.341 73.3028 191.341H214.757C215.508 191.341 216.252 191.194 216.946 190.907C217.639 190.621 218.27 190.2 218.801 189.669C219.332 189.139 219.754 188.508 220.041 187.815C220.329 187.121 220.477 186.378 220.477 185.627V139.04C220.477 137.985 220.057 136.973 219.311 136.226C218.565 135.48 217.553 135.061 216.498 135.061H67.2728V130.262H223.688Z" fill="black"/>
<path d="M218.537 52.5176H72.4238C69.579 52.5176 67.2728 54.8237 67.2728 57.6685V189.296C67.2728 192.141 69.579 194.447 72.4238 194.447H218.537C221.382 194.447 223.688 192.141 223.688 189.296V57.6685C223.688 54.8237 221.382 52.5176 218.537 52.5176Z" stroke="#263238" stroke-linecap="round" stroke-linejoin="round"/>
<path d="M210.069 147.114V140.334C210.07 140.005 210.006 139.678 209.88 139.374C209.754 139.069 209.57 138.792 209.336 138.559C209.103 138.326 208.827 138.141 208.522 138.016C208.217 137.89 207.891 137.825 207.561 137.826H83.3996C82.7344 137.826 82.0965 138.09 81.6261 138.561C81.1558 139.031 80.8915 139.669 80.8915 140.334V147.114C80.8915 147.779 80.6273 148.417 80.1569 148.888C79.6866 149.358 79.0486 149.622 78.3834 149.622C77.7167 149.622 77.0773 149.887 76.6058 150.359C76.1344 150.83 75.8695 151.47 75.8695 152.136V165.515C75.8695 168.6 77.095 171.558 79.2765 173.74C81.4579 175.921 84.4166 177.147 87.5016 177.147C87.9974 177.147 88.4729 177.344 88.8234 177.694C89.174 178.045 89.3709 178.52 89.3709 179.016V183.024C89.3709 184.504 89.9587 185.923 91.0049 186.969C92.0511 188.015 93.4701 188.603 94.9497 188.603H196.011C197.491 188.603 198.91 188.015 199.956 186.969C201.002 185.923 201.59 184.504 201.59 183.024V179.016C201.59 178.52 201.787 178.045 202.137 177.694C202.488 177.344 202.964 177.147 203.459 177.147C204.987 177.147 206.499 176.846 207.911 176.261C209.322 175.677 210.604 174.82 211.684 173.74C212.765 172.66 213.621 171.377 214.206 169.966C214.79 168.555 215.091 167.042 215.091 165.515V152.136C215.091 151.471 214.827 150.832 214.357 150.361C213.887 149.889 213.249 149.624 212.583 149.622C211.918 149.622 211.279 149.358 210.808 148.888C210.336 148.418 210.071 147.78 210.069 147.114Z" fill="#263238"/>
<path d="M90.4023 141.666H86.06C85.5285 141.666 85.0187 141.877 84.6429 142.253C84.2671 142.629 84.0559 143.139 84.0559 143.67V144.784C84.0559 147.092 85.9253 150.022 88.2341 150.022C90.5429 150.022 92.4123 147.092 92.4123 144.784V143.67C92.4107 143.138 92.1983 142.628 91.8215 142.253C91.4447 141.877 90.9344 141.666 90.4023 141.666Z" fill="white" stroke="#263238" stroke-linecap="round" stroke-linejoin="round"/>
<path d="M100.792 141.666H96.4498C95.9177 141.666 95.4074 141.877 95.0306 142.253C94.6538 142.628 94.4414 143.138 94.4398 143.67V144.784C94.4398 147.092 96.3092 150.022 98.618 150.022C100.927 150.022 102.796 147.092 102.796 144.784V143.67C102.796 143.139 102.585 142.629 102.209 142.253C101.833 141.877 101.324 141.666 100.792 141.666Z" fill="white" stroke="#263238" stroke-linecap="round" stroke-linejoin="round"/>
<path d="M111.223 141.666H106.881C106.349 141.666 105.839 141.877 105.463 142.253C105.088 142.629 104.876 143.139 104.876 143.67V144.784C104.876 147.092 106.746 150.022 109.049 150.022C111.352 150.022 113.227 147.092 113.227 144.784V143.67C113.227 143.139 113.016 142.629 112.64 142.253C112.264 141.877 111.754 141.666 111.223 141.666Z" fill="white" stroke="#263238" stroke-linecap="round" stroke-linejoin="round"/>
<path d="M121.63 141.666H117.288C116.756 141.666 116.247 141.877 115.871 142.253C115.495 142.629 115.284 143.139 115.284 143.67V144.784C115.284 147.092 117.153 150.022 119.462 150.022C121.771 150.022 123.634 147.092 123.634 144.784V143.67C123.634 143.407 123.582 143.146 123.482 142.903C123.381 142.66 123.233 142.439 123.047 142.253C122.861 142.067 122.64 141.919 122.397 141.819C122.154 141.718 121.893 141.666 121.63 141.666Z" fill="white" stroke="#263238" stroke-linecap="round" stroke-linejoin="round"/>
<path d="M132.038 141.666H127.695C127.164 141.666 126.654 141.877 126.278 142.253C125.902 142.629 125.691 143.139 125.691 143.67V144.784C125.691 147.092 127.56 150.022 129.869 150.022C132.178 150.022 134.048 147.092 134.048 144.784V143.67C134.046 143.138 133.834 142.628 133.457 142.253C133.08 141.877 132.57 141.666 132.038 141.666Z" fill="white" stroke="#263238" stroke-linecap="round" stroke-linejoin="round"/>
<path d="M142.451 141.666H138.108C137.576 141.666 137.066 141.877 136.689 142.253C136.313 142.628 136.1 143.138 136.099 143.67V144.784C136.099 147.092 137.968 150.022 140.277 150.022C142.586 150.022 144.455 147.092 144.455 144.784V143.67C144.455 143.139 144.244 142.629 143.868 142.253C143.492 141.877 142.982 141.666 142.451 141.666Z" fill="white" stroke="#263238" stroke-linecap="round" stroke-linejoin="round"/>
<path d="M152.858 141.666H148.516C147.984 141.666 147.475 141.877 147.099 142.253C146.723 142.629 146.512 143.139 146.512 143.67V144.784C146.512 147.092 148.381 150.022 150.684 150.022C152.987 150.022 154.862 147.092 154.862 144.784V143.67C154.862 143.139 154.651 142.629 154.275 142.253C153.899 141.877 153.39 141.666 152.858 141.666Z" fill="white" stroke="#263238" stroke-linecap="round" stroke-linejoin="round"/>
<path d="M163.266 141.666H158.923C158.392 141.666 157.882 141.877 157.506 142.253C157.13 142.629 156.919 143.139 156.919 143.67V144.784C156.919 147.092 158.789 150.022 161.097 150.022C163.406 150.022 165.27 147.092 165.27 144.784V143.67C165.27 143.139 165.059 142.629 164.683 142.253C164.307 141.877 163.797 141.666 163.266 141.666Z" fill="white" stroke="#263238" stroke-linecap="round" stroke-linejoin="round"/>
<path d="M173.673 141.666H169.354C169.091 141.666 168.83 141.718 168.587 141.819C168.344 141.919 168.123 142.067 167.937 142.253C167.751 142.439 167.603 142.66 167.503 142.903C167.402 143.146 167.35 143.407 167.35 143.67V144.784C167.35 147.093 169.219 150.023 171.528 150.023C173.837 150.023 175.706 147.093 175.706 144.784V143.67C175.706 143.405 175.652 143.142 175.549 142.897C175.447 142.653 175.296 142.431 175.107 142.244C174.918 142.058 174.694 141.911 174.448 141.812C174.202 141.713 173.938 141.663 173.673 141.666Z" fill="white" stroke="#263238" stroke-linecap="round" stroke-linejoin="round"/>
<path d="M184.086 141.666H179.744C179.212 141.666 178.701 141.877 178.325 142.253C177.948 142.628 177.735 143.138 177.734 143.67V144.784C177.734 147.092 179.603 150.022 181.912 150.022C184.221 150.022 186.09 147.092 186.09 144.784V143.67C186.09 143.139 185.879 142.629 185.503 142.253C185.127 141.877 184.618 141.666 184.086 141.666Z" fill="white" stroke="#263238" stroke-linecap="round" stroke-linejoin="round"/>
<path d="M194.493 141.666H190.151C189.62 141.666 189.11 141.877 188.734 142.253C188.358 142.629 188.147 143.139 188.147 143.67V144.784C188.147 147.092 190.016 150.022 192.319 150.022C194.622 150.022 196.498 147.092 196.498 144.784V143.67C196.498 143.139 196.286 142.629 195.911 142.253C195.535 141.877 195.025 141.666 194.493 141.666Z" fill="white" stroke="#263238" stroke-linecap="round" stroke-linejoin="round"/>
<path d="M204.901 141.666H200.559C200.027 141.666 199.517 141.877 199.141 142.253C198.766 142.629 198.554 143.139 198.554 143.67V144.784C198.554 147.087 200.412 150.017 202.756 150.017C205.1 150.017 206.928 147.087 206.928 144.778V143.664C206.928 143.4 206.874 143.138 206.772 142.894C206.669 142.65 206.52 142.429 206.331 142.243C206.143 142.057 205.919 141.91 205.674 141.811C205.428 141.712 205.165 141.663 204.901 141.666Z" fill="white" stroke="#263238" stroke-linecap="round" stroke-linejoin="round"/>
<path d="M90.4023 163.723H86.06C85.5285 163.723 85.0187 163.934 84.6429 164.31C84.2671 164.685 84.0559 165.195 84.0559 165.727V166.84C84.0559 169.149 85.9253 172.079 88.2341 172.079C90.5429 172.079 92.4123 169.149 92.4123 166.84V165.727C92.4107 165.195 92.1983 164.685 91.8215 164.309C91.4447 163.934 90.9344 163.723 90.4023 163.723Z" fill="white" stroke="#263238" stroke-linecap="round" stroke-linejoin="round"/>
<path d="M100.792 163.723H96.4498C95.9177 163.723 95.4074 163.934 95.0306 164.309C94.6538 164.685 94.4414 165.195 94.4398 165.727V166.84C94.4398 169.149 96.3092 172.079 98.618 172.079C100.927 172.079 102.796 169.149 102.796 166.84V165.727C102.796 165.195 102.585 164.685 102.209 164.31C101.833 163.934 101.324 163.723 100.792 163.723Z" fill="white" stroke="#263238" stroke-linecap="round" stroke-linejoin="round"/>
<path d="M111.223 163.723H106.881C106.349 163.723 105.839 163.934 105.463 164.31C105.088 164.685 104.876 165.195 104.876 165.727V166.84C104.876 169.149 106.746 172.079 109.049 172.079C111.352 172.079 113.227 169.149 113.227 166.84V165.727C113.227 165.195 113.016 164.685 112.64 164.31C112.264 163.934 111.754 163.723 111.223 163.723Z" fill="white" stroke="#263238" stroke-linecap="round" stroke-linejoin="round"/>
<path d="M121.63 163.723H117.288C116.756 163.723 116.247 163.934 115.871 164.31C115.495 164.685 115.284 165.195 115.284 165.727V166.84C115.284 169.149 117.153 172.079 119.462 172.079C121.771 172.079 123.634 169.149 123.634 166.84V165.727C123.634 165.464 123.582 165.203 123.482 164.96C123.381 164.717 123.233 164.496 123.047 164.31C122.861 164.124 122.64 163.976 122.397 163.875C122.154 163.774 121.893 163.723 121.63 163.723Z" fill="white" stroke="#263238" stroke-linecap="round" stroke-linejoin="round"/>
<path d="M132.038 163.723H127.695C127.164 163.723 126.654 163.934 126.278 164.31C125.902 164.685 125.691 165.195 125.691 165.727V166.84C125.691 169.149 127.56 172.079 129.869 172.079C132.178 172.079 134.048 169.149 134.048 166.84V165.727C134.046 165.195 133.834 164.685 133.457 164.309C133.08 163.934 132.57 163.723 132.038 163.723Z" fill="white" stroke="#263238" stroke-linecap="round" stroke-linejoin="round"/>
<path d="M142.451 163.723H138.108C137.576 163.723 137.066 163.934 136.689 164.309C136.313 164.685 136.1 165.195 136.099 165.727V166.84C136.099 169.149 137.968 172.079 140.277 172.079C142.586 172.079 144.455 169.149 144.455 166.84V165.727C144.455 165.195 144.244 164.685 143.868 164.31C143.492 163.934 142.982 163.723 142.451 163.723Z" fill="white" stroke="#263238" stroke-linecap="round" stroke-linejoin="round"/>
<path d="M152.858 163.723H148.516C147.984 163.723 147.475 163.934 147.099 164.31C146.723 164.685 146.512 165.195 146.512 165.727V166.84C146.512 169.149 148.381 172.079 150.684 172.079C152.987 172.079 154.862 169.149 154.862 166.84V165.727C154.862 165.195 154.651 164.685 154.275 164.31C153.899 163.934 153.39 163.723 152.858 163.723Z" fill="white" stroke="#263238" stroke-linecap="round" stroke-linejoin="round"/>
<path d="M163.266 163.723H158.923C158.392 163.723 157.882 163.934 157.506 164.31C157.13 164.685 156.919 165.195 156.919 165.727V166.84C156.919 169.149 158.789 172.079 161.097 172.079C163.406 172.079 165.27 169.149 165.27 166.84V165.727C165.27 165.195 165.059 164.685 164.683 164.31C164.307 163.934 163.797 163.723 163.266 163.723Z" fill="white" stroke="#263238" stroke-linecap="round" stroke-linejoin="round"/>
<path d="M173.673 163.723H169.354C169.091 163.723 168.83 163.775 168.587 163.875C168.344 163.976 168.123 164.124 167.937 164.31C167.751 164.496 167.603 164.717 167.503 164.96C167.402 165.203 167.35 165.464 167.35 165.727V166.84C167.35 169.149 169.219 172.079 171.528 172.079C173.837 172.079 175.706 169.149 175.706 166.84V165.727C175.706 165.461 175.652 165.199 175.549 164.954C175.447 164.709 175.296 164.487 175.107 164.301C174.918 164.115 174.694 163.968 174.448 163.868C174.202 163.769 173.938 163.72 173.673 163.723Z" fill="white" stroke="#263238" stroke-linecap="round" stroke-linejoin="round"/>
<path d="M184.086 163.723H179.744C179.212 163.723 178.701 163.934 178.325 164.309C177.948 164.685 177.735 165.195 177.734 165.727V166.84C177.734 169.149 179.603 172.079 181.912 172.079C184.221 172.079 186.09 169.149 186.09 166.84V165.727C186.09 165.195 185.879 164.685 185.503 164.31C185.127 163.934 184.618 163.723 184.086 163.723Z" fill="white" stroke="#263238" stroke-linecap="round" stroke-linejoin="round"/>
<path d="M194.493 163.723H190.151C189.62 163.723 189.11 163.934 188.734 164.31C188.358 164.685 188.147 165.195 188.147 165.727V166.84C188.147 169.149 190.016 172.079 192.319 172.079C194.622 172.079 196.498 169.149 196.498 166.84V165.727C196.498 165.195 196.286 164.685 195.911 164.31C195.535 163.934 195.025 163.723 194.493 163.723Z" fill="white" stroke="#263238" stroke-linecap="round" stroke-linejoin="round"/>
<path d="M204.901 163.723H200.559C200.027 163.723 199.517 163.934 199.141 164.31C198.766 164.685 198.554 165.195 198.554 165.727V166.84C198.554 169.149 200.424 172.079 202.733 172.079C205.041 172.079 206.905 169.149 206.905 166.84V165.727C206.905 165.195 206.694 164.685 206.318 164.31C205.942 163.934 205.432 163.723 204.901 163.723Z" fill="white" stroke="#263238" stroke-linecap="round" stroke-linejoin="round"/>
<path d="M85.1985 153.051H80.868C80.3365 153.051 79.8267 153.262 79.4509 153.638C79.075 154.014 78.8639 154.523 78.8639 155.055V156.168C78.8639 158.471 80.7332 161.407 83.0421 161.407C85.3509 161.407 87.2144 158.477 87.2144 156.168V155.055C87.2144 154.791 87.1622 154.529 87.0607 154.285C86.9593 154.041 86.8106 153.82 86.6233 153.634C86.4359 153.447 86.2136 153.3 85.9691 153.2C85.7246 153.1 85.4627 153.049 85.1985 153.051Z" fill="white" stroke="#263238" stroke-linecap="round" stroke-linejoin="round"/>
<path d="M95.6059 153.051H91.2636C90.7321 153.051 90.2224 153.262 89.8465 153.638C89.4707 154.014 89.2595 154.523 89.2595 155.055V156.168C89.2595 158.471 91.1289 161.407 93.4377 161.407C95.7465 161.407 97.6159 158.477 97.6159 156.168V155.055C97.6143 154.523 97.4019 154.013 97.0251 153.637C96.6483 153.262 96.138 153.051 95.6059 153.051Z" fill="white" stroke="#263238" stroke-linecap="round" stroke-linejoin="round"/>
<path d="M106.019 153.051H101.677C101.145 153.051 100.635 153.262 100.258 153.637C99.881 154.013 99.6685 154.523 99.667 155.055V156.168C99.667 158.471 101.542 161.407 103.845 161.407C106.148 161.407 108.023 158.477 108.023 156.168V155.055C108.023 154.523 107.812 154.014 107.436 153.638C107.061 153.262 106.551 153.051 106.019 153.051Z" fill="white" stroke="#263238" stroke-linecap="round" stroke-linejoin="round"/>
<path d="M116.427 153.051H112.084C111.553 153.051 111.043 153.262 110.667 153.638C110.291 154.014 110.08 154.523 110.08 155.055V156.168C110.08 158.471 111.95 161.407 114.253 161.407C116.555 161.407 118.431 158.477 118.431 156.168V155.055C118.431 154.792 118.379 154.531 118.278 154.288C118.177 154.045 118.03 153.824 117.844 153.638C117.658 153.452 117.437 153.304 117.194 153.203C116.95 153.103 116.69 153.051 116.427 153.051Z" fill="white" stroke="#263238" stroke-linecap="round" stroke-linejoin="round"/>
<path d="M126.834 153.051H122.474C121.943 153.051 121.433 153.262 121.057 153.638C120.681 154.014 120.47 154.523 120.47 155.055V156.168C120.47 158.471 122.339 161.407 124.648 161.407C126.957 161.407 128.82 158.477 128.82 156.168V155.055C128.82 154.526 128.612 154.019 128.24 153.644C127.868 153.269 127.362 153.055 126.834 153.051Z" fill="white" stroke="#263238" stroke-linecap="round" stroke-linejoin="round"/>
<path d="M137.241 153.051H132.899C132.367 153.051 131.858 153.262 131.482 153.638C131.106 154.014 130.895 154.523 130.895 155.055V156.168C130.895 158.471 132.764 161.407 135.073 161.407C137.382 161.407 139.251 158.477 139.251 156.168V155.055C139.25 154.523 139.037 154.013 138.66 153.637C138.284 153.262 137.773 153.051 137.241 153.051Z" fill="white" stroke="#263238" stroke-linecap="round" stroke-linejoin="round"/>
<path d="M147.672 153.051H143.33C142.798 153.051 142.287 153.262 141.911 153.637C141.534 154.013 141.321 154.523 141.32 155.055V156.168C141.32 158.471 143.195 161.407 145.498 161.407C147.801 161.407 149.676 158.477 149.676 156.168V155.055C149.676 154.523 149.465 154.014 149.089 153.638C148.713 153.262 148.204 153.051 147.672 153.051Z" fill="white" stroke="#263238" stroke-linecap="round" stroke-linejoin="round"/>
<path d="M158.062 153.051H153.72C153.188 153.051 152.678 153.262 152.302 153.638C151.927 154.014 151.715 154.523 151.715 155.055V156.168C151.715 158.471 153.585 161.407 155.888 161.407C158.191 161.407 160.066 158.477 160.066 156.168V155.055C160.066 154.523 159.855 154.014 159.479 153.638C159.103 153.262 158.593 153.051 158.062 153.051Z" fill="white" stroke="#263238" stroke-linecap="round" stroke-linejoin="round"/>
<path d="M168.469 153.051H164.127C163.595 153.051 163.086 153.262 162.71 153.638C162.334 154.014 162.123 154.523 162.123 155.055V156.168C162.123 158.471 163.992 161.407 166.301 161.407C168.61 161.407 170.473 158.477 170.473 156.168V155.055C170.473 154.523 170.262 154.014 169.886 153.638C169.51 153.262 169.001 153.051 168.469 153.051Z" fill="white" stroke="#263238" stroke-linecap="round" stroke-linejoin="round"/>
<path d="M178.877 153.051H174.534C174.003 153.051 173.493 153.262 173.117 153.638C172.741 154.014 172.53 154.523 172.53 155.055V156.168C172.53 158.471 174.399 161.407 176.708 161.407C179.017 161.407 180.887 158.477 180.887 156.168V155.055C180.885 154.523 180.673 154.013 180.296 153.637C179.919 153.262 179.409 153.051 178.877 153.051Z" fill="white" stroke="#263238" stroke-linecap="round" stroke-linejoin="round"/>
<path d="M189.278 153.051H184.936C184.404 153.051 183.893 153.262 183.517 153.637C183.14 154.013 182.927 154.523 182.926 155.055V156.168C182.926 158.471 184.801 161.407 187.104 161.407C189.407 161.407 191.282 158.477 191.282 156.168V155.055C191.282 154.523 191.071 154.014 190.695 153.638C190.319 153.262 189.81 153.051 189.278 153.051Z" fill="white" stroke="#263238" stroke-linecap="round" stroke-linejoin="round"/>
<path d="M199.697 153.051H195.355C194.829 153.059 194.326 153.273 193.957 153.648C193.587 154.023 193.38 154.529 193.38 155.055V156.169C193.38 158.471 195.249 161.407 197.552 161.407C199.855 161.407 201.731 158.477 201.731 156.169V155.055C201.731 154.789 201.678 154.526 201.575 154.281C201.473 154.036 201.323 153.814 201.133 153.628C200.944 153.441 200.72 153.294 200.473 153.195C200.227 153.096 199.963 153.047 199.697 153.051Z" fill="white" stroke="#263238" stroke-linecap="round" stroke-linejoin="round"/>
<path d="M210.104 153.051H205.762C205.231 153.051 204.721 153.262 204.345 153.638C203.969 154.014 203.758 154.523 203.758 155.055V156.168C203.758 158.471 205.627 161.407 207.936 161.407C210.245 161.407 212.109 158.477 212.109 156.168V155.055C212.109 154.523 211.897 154.014 211.522 153.638C211.146 153.262 210.636 153.051 210.104 153.051Z" fill="white" stroke="#263238" stroke-linecap="round" stroke-linejoin="round"/>
<path d="M185.235 174.834H105.726C104.687 174.834 103.845 175.676 103.845 176.715V182.423C103.845 183.462 104.687 184.304 105.726 184.304H185.235C186.274 184.304 187.116 183.462 187.116 182.423V176.715C187.116 175.676 186.274 174.834 185.235 174.834Z" fill="white" stroke="#263238" stroke-linecap="round" stroke-linejoin="round"/>
<path d="M195.882 175.391H191.54C191.008 175.391 190.499 175.602 190.123 175.978C189.747 176.353 189.536 176.863 189.536 177.395V178.508C189.536 180.817 191.405 183.747 193.714 183.747C196.023 183.747 197.886 180.817 197.886 178.508V177.395C197.886 176.863 197.675 176.353 197.299 175.978C196.924 175.602 196.414 175.391 195.882 175.391Z" fill="white" stroke="#263238" stroke-linecap="round" stroke-linejoin="round"/>
<path d="M99.4208 175.391H95.0786C94.5471 175.391 94.0373 175.602 93.6615 175.978C93.2856 176.353 93.0745 176.863 93.0745 177.395V178.508C93.0745 180.817 94.9438 183.747 97.2526 183.747C99.5615 183.747 101.431 180.817 101.431 178.508V177.395C101.429 176.863 101.217 176.353 100.84 175.977C100.463 175.602 99.9529 175.391 99.4208 175.391Z" fill="white" stroke="#263238" stroke-linecap="round" stroke-linejoin="round"/>
<path opacity="0.2" d="M90.6426 144.848C90.8529 144.849 91.0627 144.868 91.2696 144.906C91.2696 144.865 91.2696 144.824 91.2696 144.783V143.67C91.268 143.439 91.1754 143.219 91.0118 143.056C90.8482 142.894 90.627 142.803 90.3964 142.803H86.0542C85.8246 142.804 85.6049 142.896 85.4426 143.058C85.2803 143.221 85.1884 143.44 85.1869 143.67V144.783C85.1869 146.383 86.3589 148.399 87.7419 148.803C87.3141 147.028 88.2751 144.848 90.6426 144.848Z" fill="black"/>
<path opacity="0.2" d="M101.284 144.549C101.417 144.54 101.55 144.54 101.683 144.549V143.647C101.681 143.417 101.589 143.197 101.427 143.035C101.265 142.873 101.045 142.781 100.815 142.779H96.4732C96.2427 142.779 96.0215 142.87 95.8579 143.033C95.6943 143.195 95.6016 143.416 95.6001 143.647V144.76C95.6001 146.518 96.9889 148.715 98.5301 148.862C97.821 147.045 98.7528 144.549 101.284 144.549Z" fill="black"/>
<path opacity="0.2" d="M112.002 144.397H112.09V143.664C112.09 143.434 111.999 143.214 111.836 143.051C111.673 142.888 111.453 142.797 111.223 142.797H106.881C106.65 142.797 106.429 142.888 106.265 143.051C106.102 143.213 106.009 143.434 106.007 143.664V144.778C106.007 146.565 107.484 148.88 109.049 148.88C109.125 148.885 109.201 148.885 109.277 148.88C108.492 147.028 109.4 144.397 112.002 144.397Z" fill="black"/>
<path opacity="0.2" d="M121.747 144.098C121.991 144.091 122.235 144.11 122.474 144.156V143.647C122.474 143.417 122.383 143.196 122.22 143.033C122.057 142.871 121.837 142.779 121.607 142.779H117.264C117.034 142.779 116.814 142.871 116.651 143.033C116.489 143.196 116.397 143.417 116.397 143.647V144.76C116.397 146.436 117.686 148.569 119.14 148.862C118.143 147.022 119.005 144.098 121.747 144.098Z" fill="black"/>
<path opacity="0.2" d="M132.688 144.098H132.911V143.658C132.909 143.428 132.816 143.207 132.653 143.045C132.489 142.882 132.268 142.791 132.038 142.791H127.695C127.466 142.793 127.246 142.884 127.084 143.047C126.921 143.209 126.83 143.429 126.828 143.658V144.772C126.828 146.559 128.305 148.874 129.869 148.874C129.949 148.879 130.03 148.879 130.11 148.874C129.084 147.028 129.946 144.098 132.688 144.098Z" fill="black"/>
<path opacity="0.2" d="M143.183 144.156H143.318V143.647C143.316 143.417 143.225 143.197 143.062 143.035C142.9 142.873 142.68 142.781 142.451 142.779H138.108C137.878 142.779 137.657 142.87 137.493 143.033C137.33 143.195 137.237 143.416 137.235 143.647V144.76C137.235 146.547 138.712 148.862 140.277 148.862C140.372 148.871 140.468 148.871 140.564 148.862C139.603 147.016 140.476 144.156 143.183 144.156Z" fill="black"/>
<path opacity="0.2" d="M153.227 144.098C153.394 144.1 153.56 144.112 153.725 144.133V143.67C153.725 143.44 153.634 143.219 153.471 143.057C153.309 142.894 153.088 142.803 152.858 142.803H148.516C148.286 142.803 148.065 142.894 147.903 143.057C147.74 143.219 147.649 143.44 147.649 143.67V144.783C147.649 146.541 149.102 148.85 150.655 148.885C149.618 147.045 150.473 144.098 153.227 144.098Z" fill="black"/>
<path opacity="0.2" d="M164.133 144.25V143.664C164.133 143.434 164.041 143.214 163.879 143.051C163.716 142.888 163.495 142.797 163.265 142.797H158.923C158.693 142.797 158.473 142.888 158.31 143.051C158.147 143.214 158.056 143.434 158.056 143.664V144.778C158.056 146.565 159.527 148.88 161.097 148.88C161.254 148.877 161.41 148.851 161.56 148.803C160.716 146.998 161.578 144.332 164.133 144.25Z" fill="black"/>
<path opacity="0.2" d="M173.691 144.022C173.979 144.021 174.267 144.058 174.546 144.133V143.67C174.545 143.439 174.452 143.219 174.288 143.056C174.125 142.894 173.903 142.803 173.673 142.803H169.354C169.125 142.804 168.905 142.896 168.743 143.058C168.58 143.221 168.488 143.44 168.487 143.67V144.783C168.487 146.436 169.741 148.522 171.165 148.839C170.069 147.004 170.919 144.022 173.691 144.022Z" fill="black"/>
<path opacity="0.2" d="M184.332 144.022C184.541 144.022 184.749 144.042 184.953 144.08V143.67C184.952 143.44 184.86 143.221 184.698 143.058C184.535 142.896 184.316 142.804 184.086 142.803H179.744C179.513 142.803 179.292 142.894 179.129 143.056C178.965 143.219 178.872 143.439 178.871 143.67V144.783C178.871 146.541 180.277 148.774 181.801 148.885C180.699 147.045 181.543 144.022 184.332 144.022Z" fill="black"/>
<path opacity="0.2" d="M194.904 144.32C195.057 144.323 195.209 144.335 195.361 144.356V143.67C195.361 143.44 195.269 143.219 195.107 143.057C194.944 142.894 194.723 142.803 194.493 142.803H190.151C190.037 142.803 189.925 142.825 189.819 142.869C189.714 142.912 189.618 142.976 189.538 143.057C189.457 143.137 189.394 143.233 189.35 143.338C189.306 143.443 189.284 143.556 189.284 143.67V144.783C189.284 146.541 190.69 148.768 192.214 148.885C191.364 147.034 192.261 144.32 194.904 144.32Z" fill="black"/>
<path opacity="0.2" d="M205.768 144.186V143.67C205.768 143.44 205.677 143.219 205.514 143.057C205.351 142.894 205.131 142.803 204.901 142.803H200.559C200.329 142.803 200.108 142.894 199.945 143.057C199.783 143.219 199.691 143.44 199.691 143.67V144.783C199.691 146.571 201.162 148.885 202.733 148.885C202.959 148.882 203.182 148.834 203.389 148.745C202.557 146.975 203.342 144.385 205.768 144.186Z" fill="black"/>
<path opacity="0.2" d="M90.9414 165.838C91.0527 165.832 91.1642 165.832 91.2754 165.838V165.715C91.2739 165.484 91.1812 165.264 91.0176 165.101C90.854 164.939 90.6328 164.848 90.4023 164.848H86.06C85.8305 164.849 85.6108 164.941 85.4485 165.103C85.2861 165.266 85.1943 165.485 85.1927 165.715V166.828C85.1927 168.616 86.6695 170.93 88.2341 170.93C88.3423 170.928 88.4501 170.916 88.5564 170.895C87.2437 169.114 88.0407 165.838 90.9414 165.838Z" fill="black"/>
<path opacity="0.2" d="M101.138 165.838C101.32 165.839 101.503 165.854 101.683 165.885V165.733C101.681 165.503 101.589 165.283 101.427 165.121C101.265 164.959 101.045 164.867 100.815 164.865H96.4732C96.2427 164.865 96.0215 164.956 95.8579 165.119C95.6943 165.281 95.6016 165.502 95.6001 165.733V166.846C95.6001 168.633 97.0768 170.948 98.6414 170.948H98.7704C97.4284 169.143 98.2195 165.838 101.138 165.838Z" fill="black"/>
<path opacity="0.2" d="M111.481 165.985C111.677 165.985 111.873 166.003 112.067 166.037V165.727C112.067 165.613 112.044 165.5 112.001 165.395C111.957 165.29 111.893 165.194 111.813 165.113C111.732 165.033 111.637 164.969 111.531 164.925C111.426 164.882 111.313 164.859 111.199 164.859H106.857C106.627 164.859 106.405 164.951 106.242 165.113C106.078 165.276 105.986 165.496 105.984 165.727V166.84C105.984 168.598 107.437 170.901 108.99 170.942C107.824 169.12 108.639 165.985 111.481 165.985Z" fill="black"/>
<path opacity="0.2" d="M122.046 166.061C122.197 166.061 122.348 166.071 122.497 166.09V165.727C122.497 165.613 122.475 165.5 122.431 165.395C122.388 165.29 122.324 165.194 122.243 165.113C122.163 165.033 122.067 164.969 121.962 164.925C121.857 164.882 121.744 164.859 121.63 164.859H117.288C117.174 164.859 117.061 164.882 116.956 164.925C116.851 164.969 116.755 165.033 116.675 165.113C116.594 165.194 116.53 165.29 116.487 165.395C116.443 165.5 116.421 165.613 116.421 165.727V166.84C116.421 168.627 117.892 170.942 119.462 170.942H119.532C118.407 169.108 119.245 166.061 122.046 166.061Z" fill="black"/>
<path opacity="0.2" d="M132.243 165.838C132.467 165.838 132.691 165.86 132.911 165.902V165.733C132.909 165.502 132.816 165.281 132.653 165.119C132.489 164.956 132.268 164.865 132.038 164.865H127.695C127.466 164.867 127.246 164.959 127.084 165.121C126.921 165.283 126.83 165.503 126.828 165.733V166.846C126.828 168.633 128.305 170.948 129.869 170.948C128.533 169.155 129.318 165.838 132.243 165.838Z" fill="black"/>
<path opacity="0.2" d="M142.808 165.908C142.979 165.91 143.149 165.923 143.318 165.949V165.727C143.316 165.497 143.225 165.277 143.062 165.115C142.9 164.953 142.68 164.861 142.451 164.859H138.108C137.878 164.859 137.657 164.951 137.493 165.113C137.33 165.276 137.237 165.496 137.235 165.727V166.84C137.235 168.627 138.712 170.942 140.277 170.942H140.388C139.122 169.125 139.931 165.908 142.808 165.908Z" fill="black"/>
<path opacity="0.2" d="M153.602 166.131H153.725V165.721C153.725 165.491 153.634 165.27 153.471 165.108C153.309 164.945 153.088 164.854 152.858 164.854H148.516C148.286 164.854 148.065 164.945 147.903 165.108C147.74 165.27 147.649 165.491 147.649 165.721V166.834C147.649 168.621 149.119 170.936 150.684 170.936C150.798 170.934 150.912 170.921 151.024 170.895C150.016 169.067 150.854 166.131 153.602 166.131Z" fill="black"/>
<path opacity="0.2" d="M164.08 165.908H164.115V165.727C164.115 165.613 164.093 165.5 164.049 165.395C164.006 165.29 163.942 165.194 163.861 165.113C163.781 165.033 163.685 164.969 163.58 164.925C163.475 164.882 163.362 164.859 163.248 164.859H158.923C158.809 164.859 158.697 164.882 158.591 164.925C158.486 164.969 158.39 165.033 158.31 165.113C158.229 165.194 158.166 165.29 158.122 165.395C158.078 165.5 158.056 165.613 158.056 165.727V166.84C158.056 168.627 159.527 170.942 161.097 170.942C161.277 170.939 161.455 170.908 161.625 170.848C160.435 169.032 161.261 165.908 164.08 165.908Z" fill="black"/>
<path opacity="0.2" d="M174.212 165.686H174.54C174.531 165.461 174.436 165.249 174.274 165.093C174.113 164.937 173.898 164.849 173.673 164.848H169.354C169.125 164.849 168.905 164.941 168.743 165.103C168.58 165.266 168.488 165.485 168.487 165.715V166.828C168.487 168.616 169.964 170.93 171.528 170.93C171.671 170.926 171.813 170.904 171.95 170.866C170.479 169.12 171.241 165.686 174.212 165.686Z" fill="black"/>
<path opacity="0.2" d="M184.936 165.838V165.733C184.934 165.503 184.842 165.283 184.68 165.121C184.518 164.959 184.298 164.867 184.069 164.865H179.726C179.496 164.865 179.275 164.956 179.111 165.119C178.947 165.281 178.855 165.502 178.853 165.733V166.846C178.853 168.633 180.33 170.948 181.895 170.948C182.094 170.945 182.292 170.909 182.481 170.842C181.256 169.026 182.064 165.838 184.936 165.838Z" fill="black"/>
<path opacity="0.2" d="M195.138 165.838H195.372V165.721C195.372 165.607 195.35 165.494 195.306 165.389C195.263 165.284 195.199 165.188 195.118 165.108C195.038 165.027 194.942 164.963 194.837 164.92C194.732 164.876 194.619 164.854 194.505 164.854H190.163C189.933 164.854 189.712 164.945 189.55 165.108C189.387 165.27 189.296 165.491 189.296 165.721V166.834C189.296 168.621 190.767 170.936 192.331 170.936C192.47 170.934 192.608 170.915 192.741 170.878C191.435 169.084 192.237 165.838 195.138 165.838Z" fill="black"/>
<path opacity="0.2" d="M205.393 166.283C205.522 166.283 205.651 166.283 205.768 166.283V165.697C205.768 165.467 205.677 165.247 205.514 165.084C205.351 164.921 205.131 164.83 204.901 164.83H200.559C200.329 164.83 200.108 164.921 199.945 165.084C199.783 165.247 199.691 165.467 199.691 165.697V166.811C199.691 168.598 201.162 170.913 202.733 170.913C201.824 169.096 202.703 166.283 205.393 166.283Z" fill="black"/>
<path opacity="0.2" d="M85.9955 155.342H86.0717V155.055C86.0701 154.824 85.9775 154.604 85.8139 154.441C85.6503 154.279 85.4291 154.187 85.1986 154.188H80.868C80.638 154.188 80.4174 154.279 80.2547 154.442C80.0921 154.604 80.0007 154.825 80.0007 155.055V156.168C80.0007 157.955 81.4716 160.27 83.0421 160.27C83.193 160.266 83.3427 160.243 83.4874 160.2C82.3623 158.372 83.212 155.342 85.9955 155.342Z" fill="black"/>
<path opacity="0.2" d="M96.186 155.342H96.479V155.043C96.4775 154.812 96.3848 154.592 96.2212 154.429C96.0577 154.267 95.8365 154.176 95.6059 154.176H91.2636C91.0341 154.177 90.8144 154.269 90.6521 154.431C90.4898 154.594 90.3979 154.814 90.3964 155.043V156.156C90.3964 157.944 91.8731 160.258 93.4377 160.258C93.5236 160.264 93.6097 160.264 93.6955 160.258C92.5411 158.424 93.3732 155.342 96.186 155.342Z" fill="black"/>
<path opacity="0.2" d="M106.834 155.342H106.886V155.055C106.885 154.825 106.793 154.606 106.631 154.443C106.468 154.281 106.249 154.189 106.019 154.188H101.677C101.562 154.186 101.447 154.207 101.34 154.25C101.234 154.293 101.136 154.356 101.054 154.437C100.972 154.518 100.906 154.614 100.861 154.72C100.816 154.826 100.793 154.94 100.792 155.055V156.168C100.792 157.956 102.269 160.27 103.833 160.27C103.991 160.268 104.147 160.243 104.296 160.194C103.2 158.372 104.038 155.342 106.834 155.342Z" fill="black"/>
<path opacity="0.2" d="M117.024 155.289H117.294V155.066C117.294 154.836 117.202 154.616 117.04 154.453C116.877 154.291 116.657 154.199 116.427 154.199H112.084C111.854 154.199 111.634 154.291 111.471 154.453C111.308 154.616 111.217 154.836 111.217 155.066V156.18C111.217 157.967 112.688 160.282 114.253 160.282C114.359 160.279 114.465 160.268 114.569 160.247C113.356 158.424 114.176 155.289 117.024 155.289Z" fill="black"/>
<path opacity="0.2" d="M127.162 155.342C127.349 155.342 127.535 155.358 127.719 155.389V155.055C127.719 154.825 127.627 154.604 127.465 154.442C127.302 154.279 127.082 154.187 126.852 154.188H122.474C122.244 154.188 122.023 154.279 121.861 154.442C121.698 154.604 121.607 154.825 121.607 155.055V156.168C121.607 157.955 123.078 160.27 124.648 160.27C123.488 158.448 124.314 155.342 127.162 155.342Z" fill="black"/>
<path opacity="0.2" d="M137.64 154.967C137.796 154.968 137.953 154.977 138.109 154.996C138.092 154.777 137.994 154.572 137.833 154.422C137.672 154.272 137.461 154.188 137.241 154.188H132.899C132.669 154.189 132.45 154.281 132.287 154.443C132.125 154.606 132.033 154.825 132.032 155.055V156.168C132.032 157.955 133.508 160.27 135.073 160.27C135.186 160.268 135.297 160.254 135.407 160.229C133.884 158.489 134.628 154.967 137.64 154.967Z" fill="black"/>
<path opacity="0.2" d="M148.129 155.412C148.264 155.412 148.399 155.412 148.522 155.412V155.031C148.52 154.802 148.428 154.582 148.266 154.42C148.104 154.257 147.884 154.166 147.654 154.164H143.312C143.082 154.164 142.86 154.255 142.697 154.418C142.533 154.58 142.441 154.801 142.439 155.031V156.145C142.439 157.932 143.916 160.247 145.48 160.247H145.598C144.502 158.43 145.328 155.412 148.129 155.412Z" fill="black"/>
<path opacity="0.2" d="M158.929 155.055C158.929 154.825 158.838 154.604 158.675 154.442C158.512 154.279 158.292 154.187 158.062 154.188H153.72C153.606 154.188 153.493 154.21 153.388 154.254C153.282 154.297 153.187 154.361 153.106 154.442C153.026 154.522 152.962 154.618 152.918 154.723C152.875 154.828 152.852 154.941 152.852 155.055V156.168C152.852 157.955 154.323 160.27 155.888 160.27C156.2 160.263 156.506 160.178 156.778 160.024C155.595 158.278 156.31 155.289 158.929 155.055Z" fill="black"/>
<path opacity="0.2" d="M169.354 155.289V155.066C169.354 154.836 169.263 154.616 169.1 154.453C168.937 154.291 168.717 154.199 168.487 154.199H164.144C163.914 154.199 163.694 154.291 163.531 154.453C163.369 154.616 163.277 154.836 163.277 155.066V156.18C163.277 157.967 164.748 160.282 166.319 160.282C166.57 160.278 166.818 160.22 167.045 160.112C165.973 158.325 166.74 155.436 169.354 155.289Z" fill="black"/>
<path opacity="0.2" d="M179.386 155.113C179.509 155.113 179.632 155.113 179.75 155.113V155.037C179.748 154.807 179.655 154.586 179.492 154.424C179.328 154.261 179.107 154.17 178.877 154.17H174.534C174.305 154.171 174.085 154.263 173.923 154.426C173.76 154.588 173.669 154.808 173.667 155.037V156.151C173.667 157.938 175.144 160.253 176.708 160.253C176.819 160.251 176.929 160.237 177.036 160.212C175.677 158.448 176.456 155.113 179.386 155.113Z" fill="black"/>
<path opacity="0.2" d="M190.157 155.494V155.055C190.156 154.825 190.064 154.606 189.901 154.443C189.739 154.281 189.519 154.189 189.29 154.188H184.948C184.717 154.187 184.496 154.279 184.332 154.441C184.169 154.604 184.076 154.824 184.074 155.055V156.168C184.074 157.955 185.551 160.27 187.116 160.27C187.293 160.267 187.469 160.238 187.637 160.182C186.682 158.366 187.52 155.565 190.157 155.494Z" fill="black"/>
<path opacity="0.2" d="M200.072 155.19C200.237 155.192 200.401 155.204 200.564 155.225V155.055C200.564 154.825 200.473 154.604 200.31 154.442C200.148 154.279 199.927 154.187 199.697 154.188H195.355C195.241 154.188 195.128 154.21 195.023 154.254C194.918 154.297 194.822 154.361 194.742 154.442C194.661 154.522 194.597 154.618 194.554 154.723C194.51 154.828 194.488 154.941 194.488 155.055V156.168C194.488 157.955 195.959 160.27 197.523 160.27C197.578 160.273 197.633 160.273 197.687 160.27C196.375 158.459 197.172 155.19 200.072 155.19Z" fill="black"/>
<path opacity="0.2" d="M210.567 155.641C210.702 155.632 210.837 155.632 210.972 155.641V155.055C210.972 154.825 210.88 154.604 210.718 154.442C210.555 154.279 210.335 154.187 210.105 154.188H205.762C205.532 154.188 205.312 154.279 205.149 154.442C204.986 154.604 204.895 154.825 204.895 155.055V156.168C204.895 157.926 206.354 160.27 207.919 160.27C207.005 158.424 207.889 155.641 210.567 155.641Z" fill="black"/>
<path opacity="0.2" d="M185.979 182.458V176.68C185.979 176.288 185.661 175.971 185.27 175.971H105.691C105.299 175.971 104.982 176.288 104.982 176.68V182.458C104.982 182.849 105.299 183.167 105.691 183.167H185.27C185.661 183.167 185.979 182.849 185.979 182.458Z" fill="black"/>
<path opacity="0.2" d="M196.75 177.975V177.389C196.75 177.275 196.727 177.162 196.684 177.057C196.64 176.952 196.576 176.856 196.496 176.775C196.415 176.695 196.319 176.631 196.214 176.587C196.109 176.544 195.996 176.521 195.882 176.521H191.54C191.426 176.521 191.313 176.544 191.208 176.587C191.103 176.631 191.007 176.695 190.927 176.775C190.846 176.856 190.782 176.952 190.739 177.057C190.695 177.162 190.673 177.275 190.673 177.389V178.502C190.673 180.289 192.144 182.604 193.714 182.604C193.845 182.601 193.974 182.583 194.101 182.551C193.234 180.723 194.118 177.992 196.75 177.975Z" fill="black"/>
<path opacity="0.2" d="M99.7842 177.6C99.9549 177.601 100.125 177.615 100.294 177.641V177.395C100.292 177.164 100.2 176.943 100.036 176.781C99.8726 176.619 99.6514 176.527 99.4208 176.527H95.0786C94.849 176.529 94.6293 176.621 94.467 176.783C94.3047 176.945 94.2128 177.165 94.2113 177.395V178.508C94.2113 180.295 95.688 182.61 97.2526 182.61H97.3523C96.1041 180.793 96.9245 177.6 99.7842 177.6Z" fill="black"/>
<path opacity="0.2" d="M73.6603 55.377H217.301C218.288 55.377 219.234 55.769 219.932 56.4668C220.63 57.1647 221.022 58.1112 221.022 59.0981V91.9141H69.9392V59.0981C69.9392 58.1112 70.3313 57.1647 71.0291 56.4668C71.7269 55.769 72.6734 55.377 73.6603 55.377Z" fill="black"/>
<path d="M205.557 61.5651H85.4271C84.4253 53.2459 82.6599 45.0366 80.1531 37.041H210.855C208.308 45.0274 206.534 53.2398 205.557 61.5651Z" fill="white"/>
<path opacity="0.2" d="M206.741 53.6602C205.868 58.4302 205.569 61.5653 205.569 61.5653H85.4389C85.4389 61.5653 85.1341 58.4888 84.2375 53.6602H206.741Z" fill="black"/>
<path d="M205.557 61.5651H85.4271C84.4253 53.2459 82.6599 45.0366 80.1531 37.041H210.855C208.308 45.0274 206.534 53.2398 205.557 61.5651V61.5651Z" stroke="#263238" stroke-linecap="round" stroke-linejoin="round"/>
<path d="M203.922 82.2148H86.0718V130.7H203.922V82.2148Z" fill="#263238"/>
<g opacity="0.4">
<path opacity="0.4" d="M142.058 126.412L142.679 126.441C143.461 114.35 144.242 102.24 145.023 90.1094C144.027 102.243 143.039 114.344 142.058 126.412Z" fill="white"/>
<path opacity="0.4" d="M140.054 126.26L140.675 126.312C142.031 114.299 143.385 102.234 144.736 90.1152C143.177 102.242 141.617 114.29 140.054 126.26Z" fill="white"/>
<path opacity="0.4" d="M138.103 126.037C138.308 126.037 138.519 126.084 138.724 126.107C140.646 114.223 142.58 102.224 144.525 90.1094C142.377 102.236 140.236 114.212 138.103 126.037Z" fill="white"/>
<path opacity="0.4" d="M136.128 125.738L136.755 125.838C139.247 114.118 141.759 102.202 144.291 90.0918C141.556 102.214 138.835 114.096 136.128 125.738Z" fill="white"/>
<path opacity="0.4" d="M134.159 125.369L134.792 125.498C137.839 114.001 140.927 102.202 144.056 90.1035C140.728 102.206 137.429 113.962 134.159 125.369Z" fill="white"/>
<path opacity="0.4" d="M132.202 124.924L132.835 125.082C136.427 113.842 140.119 102.187 143.822 90.0977C139.902 102.187 135.993 113.79 132.202 124.924Z" fill="white"/>
<path opacity="0.4" d="M130.25 124.396L130.889 124.584C134.991 113.661 139.286 102.163 143.588 90.0859C139.07 102.163 134.569 113.596 130.25 124.396Z" fill="white"/>
<path opacity="0.4" d="M128.334 123.799L128.973 124.004C133.608 113.456 138.472 102.14 143.371 90.0801C138.232 102.14 133.145 113.374 128.334 123.799Z" fill="white"/>
<path opacity="0.4" d="M126.388 123.113L127.033 123.347C132.166 113.198 137.622 102.111 143.119 90.0684C137.394 102.111 131.709 113.098 126.388 123.113Z" fill="white"/>
<path opacity="0.4" d="M124.49 122.339L125.134 122.609C130.737 112.916 136.784 102.099 142.884 90.0566C136.538 102.075 130.274 112.834 124.49 122.339Z" fill="white"/>
<path opacity="0.4" d="M122.609 121.472L123.253 121.783C129.301 112.612 135.94 102.034 142.65 90.0449C135.7 102.034 128.832 112.512 122.609 121.472Z" fill="white"/>
<path opacity="0.4" d="M120.757 120.511L121.402 120.863C127.848 112.266 135.097 101.988 142.416 90.0273C135.74 100.564 128.511 110.74 120.757 120.511Z" fill="white"/>
<path opacity="0.4" d="M118.958 119.456C119.169 119.591 119.392 119.714 119.608 119.843C127.741 110.37 135.287 100.409 142.205 90.0156C135.126 100.34 127.359 110.176 118.958 119.456Z" fill="white"/>
<path opacity="0.4" d="M117.159 118.29L117.798 118.73C126.573 109.793 134.647 100.193 141.947 90.0156C134.496 100.122 126.203 109.581 117.159 118.29Z" fill="white"/>
<path opacity="0.4" d="M141.712 89.9805C132.284 101.788 123.06 110.795 115.442 117.019L116.069 117.505C125.474 109.168 134.061 99.9511 141.712 89.9805Z" fill="white"/>
<path opacity="0.4" d="M141.478 89.9629C131.434 101.683 121.619 110.25 113.772 115.641L114.393 116.175C122.134 110.444 131.698 101.712 141.478 89.9629Z" fill="white"/>
<path opacity="0.4" d="M141.226 89.9453C130.578 101.577 120.206 109.641 112.184 114.141C112.377 114.34 112.571 114.54 112.77 114.727C120.716 109.863 130.86 101.607 141.226 89.9453Z" fill="white"/>
<path opacity="0.4" d="M141.009 89.9219C129.781 101.437 118.87 108.967 110.719 112.541L111.305 113.18C119.374 109.213 130.039 101.472 141.009 89.9219Z" fill="white"/>
<path opacity="0.4" d="M109.371 110.83C109.541 111.065 109.717 111.299 109.893 111.528C118.067 108.51 129.231 101.308 140.781 89.9043C128.996 101.255 117.593 108.223 109.371 110.83Z" fill="white"/>
<path opacity="0.4" d="M108.176 109.049C108.328 109.295 108.486 109.541 108.644 109.787C116.848 107.725 128.498 101.097 140.546 89.8633C128.264 101.032 116.409 107.414 108.176 109.049Z" fill="white"/>
<path opacity="0.4" d="M107.156 107.238C107.285 107.496 107.42 107.748 107.554 108.006C115.758 106.892 127.807 100.851 140.312 89.8691C127.602 100.745 115.36 106.535 107.156 107.238Z" fill="white"/>
<path opacity="0.4" d="M106.324 105.386C106.429 105.644 106.541 105.908 106.652 106.166C114.809 105.967 127.162 100.523 140.054 89.8281C127.016 100.411 114.469 105.592 106.324 105.386Z" fill="white"/>
<path opacity="0.4" d="M144.045 126.494H144.66C144.847 114.383 145.043 102.257 145.246 90.1152C144.836 102.249 144.435 114.376 144.045 126.494Z" fill="white"/>
<path opacity="0.4" d="M146.025 126.506H146.646C146.256 114.395 145.865 102.269 145.474 90.127L146.025 126.506Z" fill="white"/>
<path opacity="0.4" d="M148.006 126.453H148.627C147.65 114.381 146.674 102.271 145.697 90.1211C146.467 102.255 147.236 114.366 148.006 126.453Z" fill="white"/>
<path opacity="0.4" d="M150.016 126.33L150.637 126.283C149.075 114.301 147.512 102.245 145.949 90.1152C147.293 102.245 148.649 114.317 150.016 126.33Z" fill="white"/>
<path opacity="0.4" d="M151.967 126.143L152.589 126.066C150.463 114.225 148.315 102.24 146.143 90.1094C148.1 102.24 150.041 114.251 151.967 126.143Z" fill="white"/>
<path opacity="0.4" d="M153.942 125.879L154.569 125.785C151.874 114.124 149.149 102.232 146.395 90.1094C148.926 102.236 151.442 114.159 153.942 125.879Z" fill="white"/>
<path opacity="0.4" d="M155.911 125.545L156.538 125.428C153.284 113.997 149.981 102.222 146.629 90.1035C149.746 102.222 152.841 114.036 155.911 125.545Z" fill="white"/>
<path opacity="0.4" d="M157.868 125.135L158.507 124.988C154.71 113.854 150.795 102.21 146.863 90.0977C150.579 102.212 154.247 113.891 157.868 125.135Z" fill="white"/>
<path opacity="0.4" d="M159.826 124.654L160.459 124.472C156.134 113.649 151.628 102.204 147.098 90.0859C151.405 102.193 155.694 113.684 159.826 124.654Z" fill="white"/>
<path opacity="0.4" d="M161.765 124.086L162.41 123.875C157.564 113.432 152.448 102.193 147.332 90.0801C152.243 102.169 157.118 113.497 161.765 124.086Z" fill="white"/>
<path opacity="0.4" d="M163.693 123.435L164.338 123.195C159.005 113.18 153.309 102.146 147.567 90.0684C153.081 102.146 158.548 113.256 163.693 123.435Z" fill="white"/>
<path opacity="0.4" d="M165.604 122.703C165.82 122.609 166.043 122.527 166.254 122.433C160.453 112.905 154.159 102.117 147.801 90.0566C153.925 102.117 159.978 112.987 165.604 122.703Z" fill="white"/>
<path opacity="0.4" d="M167.496 121.888L168.147 121.578C161.906 112.594 155.009 102.087 148.035 90.0508C154.769 102.076 161.425 112.688 167.496 121.888Z" fill="white"/>
<path opacity="0.4" d="M169.354 120.968C169.571 120.857 169.788 120.734 169.999 120.617C162.217 110.811 154.959 100.601 148.258 90.0273C155.618 102.04 162.908 112.348 169.354 120.968Z" fill="white"/>
<path opacity="0.4" d="M171.194 119.954L171.85 119.568C163.413 110.253 155.613 100.38 148.504 90.0156C155.448 100.45 163.025 110.449 171.194 119.954Z" fill="white"/>
<path opacity="0.4" d="M148.739 89.998C156.067 100.223 164.176 109.867 172.993 118.841L173.644 118.401C164.554 109.655 156.222 100.153 148.739 89.998Z" fill="white"/>
<path opacity="0.4" d="M148.973 89.9805C156.66 99.999 165.295 109.254 174.757 117.616C174.974 117.458 175.179 117.294 175.39 117.13C167.748 110.907 158.454 101.859 148.973 89.9805Z" fill="white"/>
<path opacity="0.4" d="M149.207 89.9629C159.052 101.783 168.674 110.549 176.439 116.28C176.65 116.104 176.867 115.929 177.072 115.747C169.196 110.367 159.316 101.777 149.207 89.9629Z" fill="white"/>
<path opacity="0.4" d="M149.43 89.9453C159.89 101.665 170.087 109.981 178.056 114.839C178.261 114.645 178.455 114.44 178.642 114.253C170.614 109.758 160.166 101.665 149.43 89.9453Z" fill="white"/>
<path opacity="0.4" d="M149.676 89.9219C160.734 101.56 171.481 109.336 179.562 113.274L180.148 112.629C171.997 109.096 160.998 101.536 149.676 89.9219Z" fill="white"/>
<path opacity="0.4" d="M181.01 111.61C181.191 111.375 181.361 111.141 181.537 110.901C173.304 108.352 161.795 101.361 149.893 89.9043C161.543 101.407 172.817 108.633 181.01 111.61Z" fill="white"/>
<path opacity="0.4" d="M182.281 109.846L182.762 109.096C174.517 107.543 162.551 101.144 150.139 89.8809C162.322 101.208 174.042 107.853 182.281 109.846Z" fill="white"/>
<path opacity="0.4" d="M183.418 108.023C183.559 107.766 183.693 107.508 183.828 107.244C175.624 106.658 163.254 100.863 150.426 89.8574C163.014 100.956 175.214 107.01 183.418 108.023Z" fill="white"/>
<path opacity="0.4" d="M150.602 89.8281C163.635 100.646 176.152 106.09 184.297 106.172C184.414 105.908 184.526 105.644 184.637 105.381C176.503 105.715 163.822 100.528 150.602 89.8281Z" fill="white"/>
</g>
<path opacity="0.2" d="M128.334 90.9883C126.113 96.6842 128.516 113.256 144.543 113.256C160.57 113.256 166.389 101.612 165.738 94.4164L187.133 90.9707C187.133 90.9707 193.691 109.09 179.767 121.765C165.844 134.44 117.581 133.62 107.379 123.986C97.1764 114.352 102.837 95.3188 102.837 95.3188L128.334 90.9883Z" fill="black"/>
<path d="M222.235 66.4115V62.415C222.234 62.2671 222.281 62.123 222.369 62.0038C222.456 61.8846 222.58 61.7966 222.721 61.7528L225.651 60.8386V56.8421C225.651 56.3634 225.841 55.9043 226.18 55.5659C226.518 55.2274 226.977 55.0372 227.456 55.0372H230.972C231.145 55.034 231.313 55.0981 231.44 55.2162C231.567 55.3343 231.643 55.4971 231.652 55.6701V56.9593C231.652 57.1355 231.582 57.3045 231.458 57.4296C231.334 57.5547 231.166 57.6258 230.99 57.6273H226.518V61.536C226.516 61.6538 226.485 61.7692 226.426 61.8716C226.368 61.974 226.285 62.0601 226.184 62.122L223.688 63.6338V66.4173L222.235 66.4115Z" fill="#999999" stroke="#263238" stroke-linecap="round" stroke-linejoin="round"/>
<path d="M226.091 66.4121H222.235V77.9446H226.091V66.4121Z" fill="#263238"/>
<path d="M230.913 65.4336H226.091V78.9233H230.913V65.4336Z" fill="#757575"/>
<path opacity="0.2" d="M230.902 73.6484H226.091V78.9224H230.902V73.6484Z" fill="black"/>
<path d="M230.913 65.4336H226.091V78.9233H230.913V65.4336Z" stroke="#263238" stroke-linecap="round" stroke-linejoin="round"/>
<path d="M64.8702 77.9375H68.7261V66.405H64.8702V77.9375Z" fill="#263238"/>
<path d="M60.0475 78.916H64.8702V65.4263H60.0475V78.916Z" fill="#757575"/>
<path opacity="0.2" d="M64.8761 73.6484H60.0533V78.7935H64.8761V73.6484Z" fill="black"/>
<path d="M60.0475 78.916H64.8702V65.4263H60.0475V78.916Z" stroke="#263238" stroke-linecap="round" stroke-linejoin="round"/>
<path d="M68.146 72.8639C68.4942 71.9504 68.5481 70.9508 68.3001 70.0052C68.0521 69.0595 67.5147 68.215 66.763 67.5899L63.9268 65.2459C63.7463 65.0938 63.5365 64.9806 63.3103 64.9132C63.0841 64.8459 62.8465 64.8259 62.6122 64.8544C62.378 64.883 62.1521 64.9596 61.9488 65.0794C61.7455 65.1992 61.569 65.3596 61.4304 65.5506L50.1851 81.0621C49.9711 81.3523 49.8561 81.7035 49.8569 82.0641V98.7241C49.8569 98.9477 49.9013 99.1691 49.9876 99.3754C50.0739 99.5817 50.2003 99.7688 50.3595 99.9258C50.5187 100.083 50.7075 100.207 50.915 100.29C51.1225 100.374 51.3445 100.415 51.5681 100.412C52.0157 100.412 52.4449 100.234 52.7614 99.9175C53.0779 99.601 53.2557 99.1717 53.2557 98.7241V85.1934C53.2568 84.8594 53.3612 84.5339 53.5546 84.2616L61.9637 72.5416C62.0373 72.4387 62.1315 72.3522 62.2403 72.2876C62.3491 72.223 62.4701 72.1816 62.5957 72.1662C62.7213 72.1508 62.8487 72.1616 62.9699 72.198C63.0911 72.2344 63.2034 72.2955 63.2998 72.3775L64.8468 73.6902C65.2298 74.0152 65.7157 74.1938 66.2181 74.1941C66.6358 74.1916 67.0432 74.0634 67.387 73.8261C67.7309 73.5889 67.9954 73.2536 68.146 72.8639Z" fill="white" stroke="#263238" stroke-linecap="round" stroke-linejoin="round"/>
<path d="M65.8254 71.3459C66.2688 71.3459 66.6282 70.9864 66.6282 70.5431C66.6282 70.0997 66.2688 69.7402 65.8254 69.7402C65.382 69.7402 65.0226 70.0997 65.0226 70.5431C65.0226 70.9864 65.382 71.3459 65.8254 71.3459Z" fill="#999999" stroke="#263238" stroke-linecap="round" stroke-linejoin="round"/>
<path d="M218.66 60.8379H72.3066V83.5044H218.66V60.8379Z" fill="#263238"/>
<path opacity="0.2" d="M216.545 62.543H74.3635C73.9169 62.543 73.5548 62.905 73.5548 63.3516V67.02C73.5548 67.4666 73.9169 67.8287 74.3635 67.8287H216.545C216.991 67.8287 217.353 67.4666 217.353 67.02V63.3516C217.353 62.905 216.991 62.543 216.545 62.543Z" fill="white"/>
<path d="M205.557 88.0632H85.4271C82.0417 80.325 80.2481 71.9848 80.1531 63.5391H210.855C210.855 74.8957 205.557 88.0632 205.557 88.0632Z" fill="white"/>
<g opacity="0.7">
<path opacity="0.7" d="M95.1431 86.2256C95.1431 86.2256 97.7742 86.085 99.2451 85.2001C100.716 84.3152 100.61 85.9971 101.454 86.1084C102.298 86.2197 104.291 85.5224 105.345 85.5224C106.4 85.5224 105.597 86.167 106.787 86.1084C107.976 86.0498 107.338 86.167 107.959 86.0498L113.051 85.2001C113.051 85.2001 115.635 84.702 116.157 84.954C116.679 85.206 117.364 86.4483 118.126 86.126C118.888 85.8037 118.483 85.54 119.632 85.54C120.342 85.5433 121.048 85.6459 121.73 85.8447C121.73 85.8447 121.835 85.5458 122.363 85.54H123.306C123.306 85.54 125.304 86.0674 125.621 86.0674C125.937 86.0674 128.299 85.5458 128.381 85.54C128.463 85.5341 130.725 84.954 130.725 84.954C131.205 85.4556 131.813 85.8163 132.483 85.9971C133.339 86.1084 134.241 85.8799 134.886 86.167C135.53 86.4541 137.652 86.0498 137.652 86.0498C138.158 86.0531 138.663 86.0923 139.163 86.167C139.82 86.3168 140.504 86.2967 141.15 86.1084C142.338 85.7942 143.585 85.7741 144.783 86.0498C146.688 86.3955 148.44 85.5283 149.248 85.5224C150.057 85.5165 153.292 85.8799 154.405 85.8799C155.519 85.8799 158.466 86.2783 160.517 86.0498C162.568 85.8213 163.91 86.3369 165.287 86.3369C166.664 86.3369 168.135 86.2783 168.452 86.2783C168.768 86.2783 170.292 85.2821 172.472 85.5224C174.652 85.7627 172.712 85.2235 174.054 85.5224C175.396 85.8213 176.456 86.1084 177.025 86.167C177.481 86.1936 177.938 86.174 178.39 86.1084L180.734 85.9385H192.419" stroke="#263238" stroke-linecap="round" stroke-linejoin="round"/>
<path opacity="0.7" d="M92.7112 81.7007C92.7112 81.7007 99.9483 81.7007 101.255 81.5835C102.562 81.4663 103.259 80.7983 103.957 80.7983C104.654 80.7983 108.176 81.4663 108.176 81.4663C108.278 81.2478 108.446 81.0663 108.656 80.9468C108.866 80.8272 109.107 80.7753 109.348 80.7983C110.303 80.7983 109.817 80.8862 110.696 81.2378C111.575 81.5894 111.117 81.2378 111.58 81.5835C112.27 81.8934 113 82.1064 113.749 82.2164C113.749 82.2164 117.013 82.3687 117.136 81.5835C117.259 80.7983 118.894 82.2164 118.894 82.2164C118.894 82.2164 123.324 81.5835 125.035 81.5835C126.746 81.5835 131.036 81.2378 131.036 81.2378C131.036 81.2378 134.552 81.7007 134.716 81.7007C134.88 81.7007 135.46 82.6207 136.087 82.2164C136.714 81.8121 137.317 81.3491 138.062 81.4663C138.753 81.6377 139.422 81.8895 140.054 82.2164L141.689 81.3491L143.564 81.4663C143.564 81.4663 145.475 82.7379 146.84 82.2164C147.879 81.8009 148.895 81.3275 149.881 80.7983L151.563 82.2164H152.665L155.929 81.5835C156.18 81.8923 156.519 82.1179 156.9 82.2308C157.282 82.3438 157.689 82.3387 158.068 82.2164C159.451 81.8179 172.665 82.2164 176.029 82.2164C179.392 82.2164 180.131 81.3491 180.131 81.3491L182.721 82.2164H195.613" stroke="#263238" stroke-linecap="round" stroke-linejoin="round"/>
</g>
<path opacity="0.2" d="M206.782 84.6758C206.073 86.7854 205.557 88.0629 205.557 88.0629H85.4271C85.4271 88.0629 84.8412 86.8323 84.0383 84.6758H206.782Z" fill="black"/>
<path opacity="0.2" d="M209.284 75.8047C208.88 77.5627 208.434 79.2797 207.995 80.7974H82.7316C82.2979 79.309 81.8526 77.6271 81.4658 75.8047H209.284Z" fill="black"/>
<path d="M205.557 88.0632H85.4271C82.0417 80.325 80.2481 71.9848 80.1531 63.5391H210.855C210.855 74.8957 205.557 88.0632 205.557 88.0632Z" stroke="#263238" stroke-linecap="round" stroke-linejoin="round"/>
<path d="M72.2772 59.6719H68.6968V84.6824H72.2772V59.6719Z" fill="#757575"/>
<path opacity="0.2" d="M72.2069 77.2637H68.7202V84.6824H72.2069V77.2637Z" fill="black"/>
<path d="M72.2772 59.6719H68.6968V84.6824H72.2772V59.6719Z" stroke="#263238" stroke-linecap="round" stroke-linejoin="round"/>
<path d="M222.264 59.6719H218.684V84.6824H222.264V59.6719Z" fill="#757575"/>
<path opacity="0.2" d="M222.264 77.2637H218.654V84.6824H222.264V77.2637Z" fill="black"/>
<path d="M222.264 59.6719H218.684V84.6824H222.264V59.6719Z" stroke="#263238" stroke-linecap="round" stroke-linejoin="round"/>
<path d="M218.713 58.623V76.8652H72.248V58.623H70.8416V78.09H220.119V58.623H218.713Z" fill="#999999" stroke="#263238" stroke-linecap="round" stroke-linejoin="round"/>
<path d="M227.368 89.3538V130.262C227.368 130.952 227.094 131.614 226.606 132.102C226.118 132.59 225.456 132.864 224.766 132.864H66.177C65.487 132.864 64.8252 132.59 64.3373 132.102C63.8493 131.614 63.5752 130.952 63.5752 130.262V89.3538C63.5752 88.6637 63.8493 88.002 64.3373 87.514C64.8252 87.0261 65.487 86.752 66.177 86.752H139.251V89.3538C139.251 89.3538 126.775 100.177 105.263 104.168C108.346 118.121 125.187 128.78 145.51 128.78C165.832 128.78 182.674 118.109 185.762 104.168C164.221 100.177 151.745 89.3538 151.745 89.3538V86.7285H224.784C225.126 86.7308 225.464 86.8006 225.78 86.9338C226.095 87.0671 226.381 87.2612 226.621 87.5051C226.861 87.7489 227.05 88.0377 227.178 88.355C227.307 88.6722 227.371 89.0116 227.368 89.3538Z" fill="white" stroke="#263238" stroke-linecap="round" stroke-linejoin="round"/>
<path d="M227.368 89.3538V130.262C227.368 130.605 227.301 130.943 227.169 131.259C227.038 131.576 226.846 131.863 226.604 132.104C226.362 132.346 226.074 132.537 225.758 132.668C225.441 132.798 225.103 132.865 224.76 132.864H66.177C65.8349 132.865 65.4959 132.798 65.1796 132.668C64.8632 132.537 64.5757 132.346 64.3335 132.104C64.0912 131.863 63.8991 131.576 63.7679 131.259C63.6368 130.943 63.5693 130.605 63.5693 130.262V89.3538C63.5709 88.6627 63.8461 88.0003 64.3348 87.5116C64.8235 87.0229 65.4859 86.7476 66.177 86.7461H139.251V89.3538C139.251 89.3538 126.769 100.171 105.263 104.168C108.346 118.121 125.187 128.78 145.516 128.78C165.844 128.78 182.674 118.109 185.762 104.168C164.221 100.171 151.745 89.3538 151.745 89.3538V86.7285H224.784C225.474 86.7347 226.134 87.0146 226.619 87.5068C227.103 87.9989 227.373 88.6632 227.368 89.3538Z" fill="white"/>
<path opacity="0.2" d="M223.852 89.9807V127.748C223.852 127.999 223.802 128.248 223.706 128.48C223.61 128.712 223.468 128.922 223.29 129.099C223.112 129.276 222.901 129.416 222.668 129.511C222.436 129.606 222.187 129.654 221.936 129.653H67.7358C67.4855 129.654 67.2375 129.605 67.0061 129.509C66.7747 129.414 66.5644 129.274 66.3874 129.097C66.2104 128.92 66.0701 128.71 65.9747 128.478C65.8793 128.247 65.8305 127.999 65.8313 127.748V89.9807C65.8305 89.7298 65.8792 89.4812 65.9745 89.2492C66.0698 89.0171 66.2098 88.8061 66.3867 88.6281C66.5635 88.4502 66.7737 88.3088 67.0052 88.2121C67.2367 88.1154 67.4849 88.0652 67.7358 88.0645H139.228V89.3537C139.228 89.3537 126.746 100.171 105.24 104.168C108.322 118.12 125.164 128.78 145.492 128.78C165.82 128.78 182.65 118.109 185.739 104.168C164.197 100.171 151.721 89.3537 151.721 89.3537V88.0645H221.953C222.459 88.0691 222.941 88.273 223.297 88.6319C223.653 88.9907 223.852 89.4755 223.852 89.9807Z" fill="white"/>
<path d="M227.368 89.3538V130.262C227.368 130.605 227.301 130.943 227.169 131.259C227.038 131.576 226.846 131.863 226.604 132.104C226.362 132.346 226.074 132.537 225.758 132.668C225.441 132.798 225.103 132.865 224.76 132.864H66.177C65.8349 132.865 65.4959 132.798 65.1796 132.668C64.8632 132.537 64.5757 132.346 64.3335 132.104C64.0912 131.863 63.8991 131.576 63.7679 131.259C63.6368 130.943 63.5693 130.605 63.5693 130.262V89.3538C63.5709 88.6627 63.8461 88.0003 64.3348 87.5116C64.8235 87.0229 65.4859 86.7476 66.177 86.7461H139.251V89.3538C139.251 89.3538 126.769 100.171 105.263 104.168C108.346 118.121 125.187 128.78 145.516 128.78C165.844 128.78 182.674 118.109 185.762 104.168C164.221 100.171 151.745 89.3538 151.745 89.3538V86.7285H224.784C225.474 86.7347 226.134 87.0146 226.619 87.5068C227.103 87.9989 227.373 88.6632 227.368 89.3538V89.3538Z" stroke="#263238" stroke-linecap="round" stroke-linejoin="round"/>
<path opacity="0.2" d="M174.98 144.989L182.768 166.712C182.768 166.712 186.137 142.803 188.147 142.803C190.157 142.803 194.488 155.876 194.488 155.876C194.488 155.876 197.16 149.055 199.691 148.809C202.223 148.563 204.514 165.557 204.514 165.557L204.907 203.278L201.713 260.325C201.713 260.325 181.338 237.881 175.396 232.097C169.454 226.314 163.775 213.586 162.134 211.001C160.494 208.417 160.078 194.886 160.078 194.886C162.155 192.228 163.241 188.929 163.148 185.557C163.148 185.557 167.93 177.553 167.637 171.646C167.344 165.739 166.606 142.785 174.98 144.989Z" fill="black" fill-opacity="0.7"/>
<path d="M236.281 250.222L205.434 266.448C205.434 266.284 201.379 259.715 196.48 252.285C194.265 248.921 191.874 245.388 189.606 242.188C185.891 236.955 181.168 232.437 180.763 231.453C179.591 228.523 170.555 217.553 168.534 213.287C166.512 209.02 166.049 195.748 165.158 192.624C164.267 189.501 166.822 186.518 168.873 185.065C170.924 183.612 173.075 179.791 173.075 179.791C173.075 179.791 170.807 170.954 170.784 166.459C170.76 161.965 169.231 146.277 171.059 144.812C172.888 143.347 174.522 143.963 174.98 144.971C176.48 148.293 177.827 156.65 178.982 160.5C180.136 164.35 182.305 175.519 183.371 176.322C184.438 177.124 186.336 174.112 186.336 174.112C186.336 174.112 186.518 164.736 186.922 160.851L186.336 148.545C186.336 148.545 185.24 141.15 187.789 140.447C191.305 139.48 192.589 141.689 192.987 142.621C193.386 143.553 195.027 148.92 195.027 148.92L195.12 149.289C195.12 149.325 195.12 149.36 195.12 149.401V149.465C195.148 149.567 195.177 149.678 195.208 149.799C195.273 150.045 195.349 150.338 195.431 150.672C196.21 153.725 197.71 159.837 197.646 161.343C197.558 163.377 196.849 174.64 197.851 176.978L199.41 161.42C199.41 161.42 196.896 149.43 197.628 147.701C198.361 145.973 201.812 147.883 202.223 148.563C202.633 149.243 205.985 153.356 206.583 154.927L207.169 156.497C207.169 156.497 207.995 152.782 209.934 153.749C211.874 154.716 212.114 159.439 212.249 161.502C212.384 163.564 213.79 176.831 214.007 176.855C214.224 176.878 216.462 183.77 216.158 188.323C215.519 198.068 217.207 205.317 217.265 209.056C217.324 212.794 214.505 221.455 214.505 221.455C214.605 221.625 216.445 224.755 216.949 227.503C217.318 229.519 223.887 236.803 229.255 242.598C232.988 246.595 236.117 249.865 236.281 250.222Z" fill="white"/>
<path opacity="0.4" d="M196.486 252.297C194.271 248.933 191.88 245.399 189.612 242.2C185.897 236.967 181.174 232.449 180.769 231.464C179.597 228.534 170.561 217.564 168.539 213.298C166.518 209.032 166.055 195.759 165.164 192.636C164.273 189.513 166.828 186.53 168.879 185.076C170.93 183.623 173.081 179.802 173.081 179.802C173.081 179.802 170.813 170.966 170.79 166.471C170.766 161.976 169.237 146.289 171.065 144.824C172.893 143.359 174.528 143.974 174.985 144.982C176.486 148.305 177.833 156.661 178.988 160.511C180.142 164.361 182.311 175.531 183.377 176.333C184.444 177.136 186.342 174.124 186.342 174.124C186.342 174.124 186.524 164.748 186.928 160.863L186.342 148.557C186.342 148.557 185.246 141.162 187.795 140.458C191.311 139.492 192.595 141.701 192.993 142.633C193.392 143.564 195.033 148.932 195.033 148.932L195.126 149.301C195.126 149.336 195.126 149.372 195.126 149.413V149.477C195.15 149.579 195.179 149.69 195.214 149.811C195.279 150.057 195.355 150.35 195.437 150.684C194.529 149.248 193.28 148.024 191.61 147.701C186.922 146.787 187.936 152.003 188.381 155.132C188.634 157.208 188.585 159.31 188.235 161.373L189.407 160.699C188.563 162.205 187.356 174.722 187.356 177.505C187.356 180.289 185.153 181.215 183.178 180.4C181.203 179.586 180.5 166.811 179 164.52C177.499 162.228 173.327 166.606 173.14 170.608C172.952 174.611 176.685 186.547 175.8 189.36C174.915 192.173 174.927 202.838 174.927 202.838L173.849 200.09C173.919 200.465 173.849 201.725 171.593 205.434C170.745 206.777 170.197 208.286 169.986 209.86C169.774 211.433 169.905 213.034 170.368 214.552C171.745 217.594 178.73 225.61 179.902 226.436C179.902 226.436 180.752 222.956 183.418 223.881C182.51 225.325 181.849 226.909 181.461 228.569C180.91 231.124 186.471 232.759 188.212 235.191C189.278 236.674 189.993 241.192 196.486 252.297Z" fill="white"/>
<path opacity="0.4" d="M229.29 242.604C223.805 237.078 214.154 231.815 214.74 230.438C215.525 228.587 214.529 224.643 212.841 221.443C211.153 218.244 213.427 213.052 213.427 213.052L214.47 216.07C215.305 212.589 215.403 208.972 214.757 205.451C213.691 199.468 212.859 201.572 212.859 201.572C212.859 201.572 213.075 196.181 214.031 193.239C214.986 190.297 215.789 183.154 214.47 178.929C213.152 174.704 210.368 175.501 209.624 176.954C208.88 178.407 209.677 184.074 210.292 185.932C210.907 187.789 208.288 190.913 208.235 188.592C208.182 186.271 207.192 179.802 207.192 179.802L209.179 166.81L207.192 156.491C207.192 156.491 208.018 152.776 209.958 153.743C211.898 154.71 212.138 159.433 212.273 161.495C212.407 163.558 213.814 176.825 214.031 176.849C214.247 176.872 216.486 183.763 216.181 188.317C215.543 198.062 217.23 205.311 217.289 209.049C217.347 212.788 214.529 221.449 214.529 221.449C214.628 221.619 216.468 224.748 216.972 227.497C217.342 229.512 223.911 236.796 229.278 242.592L229.29 242.604Z" fill="white"/>
<path opacity="0.4" d="M206.583 154.926C206.694 155.219 206.788 155.46 206.858 155.653C204.995 151.322 201.818 152.664 201.256 153.895C200.693 155.126 202.586 162.761 203.014 163.945C203.442 165.129 201.314 174.581 201.004 177.71C200.693 180.839 199.867 181.478 199.867 181.478C197.763 181.636 197.523 175.829 197.523 175.032C197.564 175.699 197.694 176.357 197.91 176.989L199.469 161.431C199.469 161.431 196.896 149.43 197.629 147.701C198.361 145.972 201.813 147.883 202.223 148.562C202.633 149.242 205.985 153.356 206.583 154.926Z" fill="white"/>
<path d="M236.281 250.222C235.883 249.32 217.582 230.884 216.943 227.497C216.427 224.673 214.494 221.444 214.494 221.444C214.494 221.444 217.312 212.8 217.254 209.044C217.195 205.288 215.496 198.057 216.146 188.311C216.451 183.758 214.218 176.867 213.996 176.843C213.773 176.82 212.366 163.553 212.238 161.49C212.109 159.428 211.868 154.704 209.923 153.737C207.977 152.771 207.157 156.486 207.157 156.486L206.571 154.915C205.985 153.345 202.621 149.231 202.211 148.551C201.801 147.872 198.355 145.955 197.617 147.69C196.878 149.425 199.451 161.396 199.451 161.396L197.904 176.972C196.902 174.628 197.611 163.371 197.699 161.338C197.787 159.304 195.033 148.915 195.033 148.915C195.033 148.915 193.38 143.57 192.993 142.609C192.607 141.648 191.311 139.468 187.795 140.435C185.246 141.138 186.342 148.534 186.342 148.534L186.928 160.84C186.536 164.743 186.342 174.101 186.342 174.101C186.342 174.101 184.444 177.107 183.377 176.31C182.31 175.513 180.142 164.35 178.988 160.488C177.833 156.626 176.486 148.282 174.985 144.959C174.528 143.951 172.893 143.336 171.065 144.801C169.237 146.266 170.76 161.947 170.79 166.448C170.819 170.948 173.081 179.779 173.081 179.779C173.081 179.779 170.93 183.577 168.879 185.053C166.828 186.53 164.273 189.483 165.164 192.613C166.055 195.742 166.518 209.021 168.539 213.275C170.561 217.529 179.574 228.511 180.769 231.441C181.174 232.426 185.897 236.944 189.612 242.177C196.908 252.449 205.434 266.203 205.434 266.437" stroke="#263238" stroke-linecap="round" stroke-linejoin="round"/>
<path d="M173.075 179.809C173.075 179.809 174.528 187.011 174.476 188.218C174.476 188.218 173.204 193.779 173.192 197.383C172.302 198.741 171.504 200.156 170.801 201.62C170.309 202.92 169.43 206.12 169.793 207.901" stroke="#263238" stroke-linecap="round" stroke-linejoin="round"/>
<path d="M170.421 190.451C170.421 190.451 173.983 190.48 173.755 191.981" stroke="#263238" stroke-linecap="round" stroke-linejoin="round"/>
<path d="M173.192 197.382C173.192 197.382 170.907 196.391 170.104 197.722" stroke="#263238" stroke-linecap="round" stroke-linejoin="round"/>
<path d="M186.348 174.125C186.348 174.125 186.184 179.645 184.731 179.206" stroke="#263238" stroke-linecap="round" stroke-linejoin="round"/>
<path d="M197.904 176.973C197.904 176.973 197.482 179.991 198.619 180.922" stroke="#263238" stroke-linecap="round" stroke-linejoin="round"/>
<path d="M207.174 156.498C207.174 156.498 208.757 164.116 209.12 165.921C209.483 167.726 207.321 176.938 207.362 179.334C207.403 181.731 208.428 185.159 208.288 186.771" stroke="#263238" stroke-linecap="round" stroke-linejoin="round"/>
<path d="M213.491 214.354C213.491 214.354 212.982 219.329 214.511 221.456" stroke="#263238" stroke-linecap="round" stroke-linejoin="round"/>
<path d="M182.768 224.197C182.768 224.197 179.357 227.303 180.605 231.124" stroke="#263238" stroke-linecap="round" stroke-linejoin="round"/>
<path d="M205.182 185.475C205.235 187.666 203.951 190.221 203.817 193.251" stroke="#263238" stroke-linecap="round" stroke-linejoin="round"/>
<path d="M194.318 183.518C195.044 185.311 193.462 189.213 193.222 190.678C193.126 191.825 193.251 192.979 193.591 194.077" stroke="#263238" stroke-linecap="round" stroke-linejoin="round"/>
<path d="M214.74 189.695C214.447 191.6 213.099 192.959 212.841 198.819" stroke="#263238" stroke-linecap="round" stroke-linejoin="round"/>
<path d="M181.467 182.961C182.451 184.033 181.789 189.155 182.053 189.993" stroke="#263238" stroke-linecap="round" stroke-linejoin="round"/>
<path d="M199.826 153.456C199.826 153.456 203.178 151.001 206.061 153.896" stroke="#263238" stroke-linecap="round" stroke-linejoin="round"/>
<path d="M188.282 147.813C188.282 147.813 188.868 146.835 191.698 147.075C194.528 147.315 195.032 148.909 195.032 148.909" stroke="#263238" stroke-linecap="round" stroke-linejoin="round"/>
<path d="M180.013 164.543C180.013 164.543 179.064 163.143 176.562 163.606C174.06 164.068 172.946 167.608 172.946 167.608" fill="white"/>
<path d="M180.013 164.543C180.013 164.543 179.064 163.143 176.562 163.606C174.06 164.068 172.946 167.608 172.946 167.608" stroke="#263238" stroke-linecap="round" stroke-linejoin="round"/>
<path d="M214.013 176.856C214.013 176.856 211.927 173.832 209.419 175.127" stroke="#263238" stroke-linecap="round" stroke-linejoin="round"/>
<path opacity="0.2" d="M125.14 154.703C128.656 157.428 125.691 174.153 125.691 174.153L126.002 179.597L132.032 176.971L134.78 188.603C134.78 188.603 134.71 192.864 136.942 194.463C136.942 194.463 137.493 204.021 136.942 211.006C136.392 217.991 125.222 226.201 121.372 233.532C117.522 240.863 92.4122 262.41 92.4122 262.41L71.1521 252.296L86.5229 190.215L100.294 172.512L108.457 152.148C108.457 152.148 109.857 165.451 109.043 174.416L125.14 154.703Z" fill="black" fill-opacity="0.7"/>
<path d="M131.059 191.855C130.526 194.422 131.809 208.491 131.586 210.39C131.364 212.289 120.171 225.04 119.608 226.007C119.046 226.974 111.563 231.281 109.822 233.338C101.689 242.825 97.2467 251.562 93.678 260.323C92.9924 262.011 92.336 263.704 91.6914 265.404L59.4146 246.652C62.1277 243.288 64.6886 240.3 67.0326 237.581C71.7206 232.066 75.4534 227.654 77.2817 223.487C77.8428 222.423 78.4854 221.405 79.2038 220.44C79.9304 219.409 80.5809 218.559 80.5809 218.559C80.5809 218.559 78.2369 211.955 78.7819 209.88C79.3268 207.806 78.108 190.753 78.108 190.753C78.108 190.753 76.5199 179.145 74.9553 176.215C74.571 175.45 74.3971 174.596 74.4513 173.742C74.5275 171.064 76.0804 167.688 76.8422 163.78C77.8618 158.506 77.3696 155.898 80.5692 157.72C83.7687 159.543 82.2744 170.612 82.2744 170.612L87.1089 181.325C88.3805 178.734 87.1089 171.175 87.0445 169.388C87.0445 169.095 87.0445 168.608 86.9976 167.975C86.898 164.893 86.6929 158.476 86.9566 155.945C86.9566 155.804 86.9566 155.675 87.0034 155.558C87.3961 152.945 88.7966 144.629 89.6873 143.703C91.0117 142.332 93.1154 141.178 95.0961 144.289C96.2036 146.047 95.729 159.988 95.729 159.988C95.729 159.988 100.323 154.445 101.718 153.091C103.113 151.737 107.344 149.264 108.474 152.13C109.605 154.996 105.433 163.85 105.433 163.85C106.306 165.901 106.412 171.579 106.412 171.579C106.412 171.579 108.387 178.676 109.6 178.611H109.652C110.004 178.535 110.391 177.246 110.795 175.435C111.791 170.999 112.875 163.411 113.725 162.748L114.311 162.28C114.338 162.246 114.369 162.216 114.405 162.192L114.622 161.998C116.696 160.152 121.068 156.05 121.068 156.05C121.068 156.05 121.378 154.087 125.205 154.691C129.031 155.294 123.505 166.587 123.505 166.587C122.738 170.179 121.56 179.42 121.56 179.42C121.202 183.264 121.413 193.595 121.413 193.595C121.413 193.595 123.224 187.583 123.107 185.391C122.99 183.2 126.705 177.832 127.795 176.449C128.885 175.066 133.749 175.552 132.395 178.207C131.041 180.862 131.592 189.277 131.059 191.855Z" fill="white"/>
<path opacity="0.4" d="M77.2642 223.512C77.8252 222.448 78.4679 221.429 79.1862 220.465C79.1862 220.465 77.2817 225.739 77.0942 228.546C76.9712 230.398 72.0956 233.603 67.015 237.605C71.7323 232.091 75.4358 227.679 77.2642 223.512Z" fill="white"/>
<path opacity="0.4" d="M79.1862 220.464C79.9129 219.432 80.5633 218.583 80.5633 218.583C80.5633 218.583 78.2193 211.978 78.7643 209.904C79.3093 207.83 78.0904 190.777 78.0904 190.777C78.0904 190.777 76.5024 179.168 74.9377 176.238L78.5827 182.608C78.5827 182.608 78.2252 187.642 79.2624 190.402C80.2996 193.162 81.6064 201.583 81.6064 201.583C81.6064 201.583 80.0711 208.662 80.5926 211.211C81.1142 213.76 83.464 212.834 83.464 212.834C83.464 212.834 84.6185 217.499 79.1862 220.464Z" fill="white"/>
<path opacity="0.4" d="M87.689 172.512C90.203 187.232 85.8724 183.16 84.3078 179.983C82.7432 176.807 79.069 170.795 76.3031 172.078C75.5263 172.443 74.8756 173.03 74.4337 173.766C74.5099 171.088 76.0628 167.713 76.8246 163.804C77.8442 158.53 77.352 155.922 80.5516 157.745C83.7511 159.567 82.2568 170.637 82.2568 170.637L87.0913 181.349C88.3629 178.759 87.0913 171.199 87.0269 169.412C87.0269 169.119 87.0269 168.633 86.98 168C87.1734 169.353 87.4078 170.859 87.689 172.512Z" fill="white"/>
<path opacity="0.4" d="M93.842 157.967C93.842 157.967 91.1289 154.415 88.7731 154.597C88.3686 154.619 87.9794 154.759 87.6534 154.999C87.3275 155.24 87.0791 155.571 86.939 155.951C86.939 155.81 86.939 155.681 86.9858 155.564C87.3785 152.95 88.779 144.635 89.6697 143.709C90.9941 142.338 93.0978 141.184 95.0785 144.295C96.186 146.053 95.7114 159.994 95.7114 159.994C95.7114 159.994 100.306 154.451 101.7 153.097C103.095 151.743 107.326 149.27 108.457 152.136C109.588 155.001 105.416 163.856 105.416 163.856C106.289 165.907 106.394 171.585 106.394 171.585C106.394 171.585 108.369 178.682 109.582 178.617C106.91 183.645 105.128 172.529 105.128 172.529C105.527 170.232 104.109 165.251 104.249 163.938C104.39 162.625 101.788 157.984 97.4049 159.25C93.0216 160.516 96.186 177.838 96.186 177.838C95.3199 179.218 94.816 180.794 94.721 182.42C93.3674 180.75 94.721 175.974 94.721 175.974C93.5197 171.404 93.842 157.967 93.842 157.967Z" fill="white"/>
<path opacity="0.4" d="M114.27 162.264C112.401 164.227 112.659 169.19 110.754 175.419C111.75 170.983 112.834 163.395 113.684 162.732L114.27 162.264Z" fill="white"/>
<path opacity="0.4" d="M131.059 191.856C130.526 194.422 131.809 208.492 131.586 210.391C131.364 212.289 120.171 225.041 119.608 226.008C119.046 226.975 111.563 231.282 109.822 233.339C101.689 242.826 97.2467 251.563 93.678 260.324C95.0223 255.783 96.6446 251.328 98.5359 246.986C102.386 238.331 103.956 236.79 106.265 234.317C108.574 231.844 108.322 226.588 108.322 226.588C110.026 226.177 111.773 225.971 113.526 225.973C116.456 225.973 125.129 213.608 128.111 211.44C131.094 209.272 131.627 209.271 128.111 204.49C124.595 199.708 125.592 205.257 124.537 205.076C123.482 204.894 122.908 207.203 122.908 207.203C122.538 202.327 119.392 196.655 118.729 195.237C118.067 193.819 120.335 185.503 119.866 183.189C119.398 180.874 121.882 166.781 121.882 166.781C121.882 166.781 121.572 161.372 116.673 161.354C115.921 161.313 115.178 161.537 114.575 161.987C116.649 160.141 121.021 156.039 121.021 156.039C121.021 156.039 121.331 154.076 125.158 154.68C128.984 155.283 123.458 166.576 123.458 166.576C122.691 170.168 121.513 179.409 121.513 179.409C121.156 183.253 121.366 193.584 121.366 193.584C121.366 193.584 123.177 187.572 123.06 185.38C122.943 183.189 126.658 177.821 127.748 176.438C128.838 175.055 133.702 175.541 132.348 178.196C130.994 180.851 131.592 189.277 131.059 191.856Z" fill="white"/>
<path d="M91.6856 265.457C95.6645 254.951 100.112 244.696 109.822 233.368C111.58 231.341 119.04 227.033 119.608 226.037C120.177 225.041 131.369 212.313 131.586 210.42C131.803 208.528 130.526 194.452 131.059 191.885C131.592 189.319 130.971 180.857 132.319 178.22C133.667 175.583 128.803 175.102 127.719 176.462C126.635 177.821 122.931 183.236 123.031 185.404C123.13 187.572 121.337 193.608 121.337 193.608C121.337 193.608 121.126 183.277 121.484 179.433C121.484 179.433 122.656 170.191 123.429 166.599C123.429 166.599 128.949 155.301 125.129 154.703C121.308 154.106 120.991 156.063 120.991 156.063C120.991 156.063 114.891 161.794 113.684 162.732C112.477 163.669 110.83 178.319 109.617 178.595C108.404 178.87 106.377 171.563 106.377 171.563C106.377 171.563 106.271 165.884 105.398 163.833C105.398 163.833 109.564 155.002 108.439 152.113C107.314 149.224 103.083 151.727 101.683 153.074C100.282 154.422 95.6938 159.972 95.6938 159.972C95.6938 159.972 96.1685 146.019 95.0609 144.273C93.0802 141.149 90.9589 142.304 89.6521 143.687C88.7614 144.613 87.3609 152.928 86.9683 155.541C86.5756 158.155 86.9683 167.578 87.0093 169.371C87.0503 171.164 88.3454 178.718 87.0737 181.308L82.2392 170.596C82.2392 170.596 83.7394 159.515 80.534 157.704C77.3286 155.893 77.8267 158.507 76.807 163.763C75.7874 169.019 73.3613 173.291 74.9201 176.227C76.4789 179.163 78.0728 190.766 78.0728 190.766C78.0728 190.766 79.2799 207.819 78.7467 209.893C78.2134 211.967 80.5633 218.577 80.5633 218.577C80.5633 218.577 77.856 222.146 77.2641 223.506C74.5334 229.711 67.6244 236.497 59.4087 246.705" stroke="#263238" stroke-linecap="round" stroke-linejoin="round"/>
<path d="M95.7113 160.006C95.0308 161.012 94.6862 162.208 94.7269 163.422C94.7269 165.649 96.186 177.838 96.186 177.838C96.186 177.838 95.1253 179.092 95.0726 180.182" stroke="#263238" stroke-linecap="round" stroke-linejoin="round"/>
<path d="M121.349 193.578C121.509 195.637 122.039 197.65 122.913 199.52C124.285 202.227 123.839 203.722 123.371 205.322C123.056 206.724 122.89 208.156 122.872 209.594" stroke="#263238" stroke-linecap="round" stroke-linejoin="round"/>
<path d="M87.607 178.922C87.607 178.922 88.6267 182.157 86.7339 183.692" stroke="#263238" stroke-linecap="round" stroke-linejoin="round"/>
<path d="M109.635 178.594C109.635 178.594 109.834 179.865 108.035 179.983" stroke="#263238" stroke-linecap="round" stroke-linejoin="round"/>
<path d="M121.718 163.944C121.718 163.944 117.206 159.022 113.702 162.731" stroke="#263238" stroke-linecap="round" stroke-linejoin="round"/>
<path d="M103.435 161.179C103.435 161.179 101.355 158.548 99.5497 158.706C97.7448 158.864 95.307 159.966 95.0316 161.413" stroke="#263238" stroke-linecap="round" stroke-linejoin="round"/>
<path d="M123.757 203.74C124.485 204.781 125.015 205.947 125.322 207.18" stroke="#263238" stroke-linecap="round" stroke-linejoin="round"/>
<path d="M112.037 183.734C110.637 186.342 111.305 190.766 110.789 191.979" stroke="#263238" stroke-linecap="round" stroke-linejoin="round"/>
<path d="M97.1998 179.404C97.5279 180.904 96.4907 183.348 96.3325 185.147C96.1743 186.946 97.6451 189.724 97.3756 192.249" stroke="#263238" stroke-linecap="round" stroke-linejoin="round"/>
<path d="M87.689 185.545C87.689 185.545 86.4643 188.369 86.517 190.233C86.5698 192.096 87.232 196.181 87.232 196.181" stroke="#263238" stroke-linecap="round" stroke-linejoin="round"/>
<path d="M78.6822 185.41C78.6822 185.41 78.2368 188.34 79.2682 190.403C80.2996 192.466 81.3016 196.849 81.3016 196.849" stroke="#263238" stroke-linecap="round" stroke-linejoin="round"/>
<path d="M80.5632 218.578C81.1034 218.429 81.5861 218.12 81.9487 217.693C82.3113 217.265 82.5371 216.739 82.5966 216.182" stroke="#263238" stroke-linecap="round" stroke-linejoin="round"/>
<path d="M110.021 227.508C110.021 227.508 111.141 231.651 108.996 234.317" stroke="#263238" stroke-linecap="round" stroke-linejoin="round"/>
<path d="M74.463 173.274C74.463 173.274 77.6157 170.197 80.0007 172.793" stroke="#263238" stroke-linecap="round" stroke-linejoin="round"/>
<path d="M86.9858 155.564C86.9858 155.564 89.3298 153.109 92.0723 155.734" stroke="#263238" stroke-linecap="round" stroke-linejoin="round"/>
</svg>
