<svg width="340" height="340" viewBox="0 0 340 340" fill="none" xmlns="http://www.w3.org/2000/svg">
<path d="M324.816 156.971C321.253 139.542 314.997 122.529 307.557 106.889C294.733 79.9063 273.721 57.5003 246.84 44.1995C180.88 11.5595 133.28 25.1595 107.44 51.6795C81.6002 78.1995 89.0802 123.76 61.2002 143.48C33.3202 163.2 13.6002 172.04 12.2402 208.08C10.8802 244.12 28.5602 271.32 57.1202 280.16C85.6802 289 128.52 317.56 214.2 301.24C299.88 284.919 320.96 239.36 326.4 206.72C329.12 190.298 328.182 173.447 324.816 156.971Z" fill="#CBCBCB"/>
<path opacity="0.7" d="M324.816 156.971C321.253 139.542 314.997 122.529 307.557 106.889C294.733 79.9063 273.721 57.5003 246.84 44.1995C180.88 11.5595 133.28 25.1595 107.44 51.6795C81.6002 78.1995 89.0802 123.76 61.2002 143.48C33.3202 163.2 13.6002 172.04 12.2402 208.08C10.8802 244.12 28.5602 271.32 57.1202 280.16C85.6802 289 128.52 317.56 214.2 301.24C299.88 284.919 320.96 239.36 326.4 206.72C329.12 190.298 328.182 173.447 324.816 156.971Z" fill="white"/>
<path d="M123.978 57.4746H117.817V84.7766H123.978V57.4746Z" fill="#C9C9C9" stroke="#263238" stroke-linecap="round" stroke-linejoin="round"/>
<path d="M123.978 61.582H117.817V64.2476H123.978V61.582Z" fill="white" stroke="#263238" stroke-linecap="round" stroke-linejoin="round"/>
<path d="M123.978 78.5195H117.817V81.1851H123.978V78.5195Z" fill="white" stroke="#263238" stroke-linecap="round" stroke-linejoin="round"/>
<path d="M131.165 57.4746H122.543V84.7766H131.165V57.4746Z" fill="#878787" stroke="#263238" stroke-linecap="round" stroke-linejoin="round"/>
<path d="M130.553 57.4746H124.393V84.7766H130.553V57.4746Z" fill="#C9C9C9" stroke="#263238" stroke-linecap="round" stroke-linejoin="round"/>
<path d="M130.553 61.582H124.393V64.2476H130.553V61.582Z" fill="white" stroke="#263238" stroke-linecap="round" stroke-linejoin="round"/>
<path d="M130.553 78.5195H124.393V81.1851H130.553V78.5195Z" fill="white" stroke="#263238" stroke-linecap="round" stroke-linejoin="round"/>
<path d="M137.734 57.4746H129.112V84.7766H137.734V57.4746Z" fill="#878787" stroke="#263238" stroke-linecap="round" stroke-linejoin="round"/>
<path d="M137.122 57.4746H130.961V84.7766H137.122V57.4746Z" fill="#C9C9C9" stroke="#263238" stroke-linecap="round" stroke-linejoin="round"/>
<path d="M137.122 61.582H130.961V64.2476H137.122V61.582Z" fill="white" stroke="#263238" stroke-linecap="round" stroke-linejoin="round"/>
<path d="M137.122 78.5195H130.961V81.1851H137.122V78.5195Z" fill="white" stroke="#263238" stroke-linecap="round" stroke-linejoin="round"/>
<path d="M144.303 57.4746H135.681V84.7766H144.303V57.4746Z" fill="#C9C9C9" stroke="#263238" stroke-linecap="round" stroke-linejoin="round"/>
<path d="M149.92 85.0558H164.39L168.239 81.5742H149.92V85.0558Z" fill="white" stroke="#263238" stroke-linecap="round" stroke-linejoin="round"/>
<path d="M166.6 85.2319L166.138 84.4363L149.621 84.4023L150.097 85.2319H166.6Z" fill="white" stroke="#263238" stroke-linecap="round" stroke-linejoin="round"/>
<path d="M141.542 58.0428L136.209 61.127L149.876 84.7616L155.21 81.6775L141.542 58.0428Z" fill="#C9C9C9" stroke="#263238" stroke-linecap="round" stroke-linejoin="round"/>
<path d="M143.6 61.5897L138.267 64.6738L139.601 66.9814L144.934 63.8973L143.6 61.5897Z" fill="white" stroke="#263238" stroke-linecap="round" stroke-linejoin="round"/>
<path d="M152.085 76.2499L146.751 79.334L148.086 81.6415L153.419 78.5574L152.085 76.2499Z" fill="white" stroke="#263238" stroke-linecap="round" stroke-linejoin="round"/>
<path d="M168.144 81.8114L155.067 81.7774L141.399 58.1406L154.476 58.1746L168.144 81.8114Z" fill="#C9C9C9" stroke="#263238" stroke-linecap="round" stroke-linejoin="round"/>
<path d="M175.27 71.2307C175.27 71.2307 172.89 70.3807 172.21 66.6407C171.53 62.9007 170.34 57.6307 171.7 56.4407C173.06 55.2507 175.61 54.5707 175.95 56.9507C176.29 59.3307 175.78 63.9207 176.29 64.9407C176.8 65.9607 178.5 65.2807 178.5 63.2407C178.5 59.8815 177.14 56.4407 177.623 53.0407C178.303 48.3419 183.063 47.8251 183.573 53.0407C183.858 55.9239 183.94 58.8683 183.94 61.7651C183.94 62.9551 185.98 63.6351 185.81 60.7451C185.688 58.7051 187.17 56.3251 189.21 57.0051C191.25 57.6851 189.55 66.6951 188.87 68.2251C188.19 69.7551 183.94 70.0407 183.94 70.0407V73.9507L178.84 74.1207L178.67 70.2107C177.632 70.811 176.467 71.1603 175.27 71.2307Z" fill="#CBCBCB" stroke="#263238" stroke-linecap="round" stroke-linejoin="round"/>
<path d="M179.86 63.7773C179.922 64.6273 179.962 65.1373 179.962 65.1373" stroke="#263238" stroke-linecap="round" stroke-linejoin="round"/>
<path d="M180.2 50.5938C180.2 50.5938 179.085 51.3689 179.166 53.6945C179.221 55.1089 179.493 59.0258 179.704 61.8886" stroke="#263238" stroke-linecap="round" stroke-linejoin="round"/>
<path d="M182.118 58.6094L182.294 64.301" stroke="#263238" stroke-linecap="round" stroke-linejoin="round"/>
<path d="M184.607 68C184.213 68.0613 183.815 68.0954 183.417 68.102" stroke="#263238" stroke-linecap="round" stroke-linejoin="round"/>
<path d="M188.156 58.4395C187.763 59.1838 187.556 60.0118 187.551 60.8535C187.551 62.2135 187.639 66.0283 186.776 67.0619C186.565 67.2939 186.308 67.4792 186.021 67.6059" stroke="#263238" stroke-linecap="round" stroke-linejoin="round"/>
<path d="M173.4 66.0898C173.605 67.1122 174.095 68.0555 174.815 68.8098C175.24 69.1505 175.766 69.3428 176.311 69.3575C176.856 69.3722 177.391 69.2086 177.834 68.8914" stroke="#263238" stroke-linecap="round" stroke-linejoin="round"/>
<path d="M173.237 56.8906C173.237 56.8906 171.517 56.8906 172.115 59.903C172.374 61.1746 172.612 62.7386 172.918 64.2142" stroke="#263238" stroke-linecap="round" stroke-linejoin="round"/>
<path d="M179.704 68.3535L180.05 72.0595" stroke="#263238" stroke-linecap="round" stroke-linejoin="round"/>
<path d="M188.53 72.4199L187.911 77.4927L187.49 80.9471L187 84.9659H174.767L174.277 80.9471L173.856 77.4927L173.237 72.4199H188.53Z" fill="white" stroke="#263238" stroke-linecap="round" stroke-linejoin="round"/>
<path d="M187.912 77.4941L187.49 80.9485H174.278L173.856 77.4941H187.912Z" fill="#CBCBCB" stroke="#263238" stroke-linecap="round" stroke-linejoin="round"/>
<path d="M195.249 84.9668H116.729V90.1688H195.249V84.9668Z" fill="white" stroke="#263238" stroke-linecap="round" stroke-linejoin="round"/>
<path d="M195.249 84.9668H177.147V90.1688H195.249V84.9668Z" fill="white" stroke="#263238" stroke-linecap="round" stroke-linejoin="round"/>
<path d="M175.386 90.1895C183.797 93.2903 182.281 99.1518 182.281 99.1518H190.244V90.1895H175.386Z" fill="#919191" stroke="#263238" stroke-linecap="round" stroke-linejoin="round"/>
<path d="M178.072 90.1895C186.477 93.2903 184.96 99.1518 184.96 99.1518H192.93V90.1895H178.072Z" fill="white" stroke="#263238" stroke-linecap="round" stroke-linejoin="round"/>
<path d="M121.496 90.1895C129.907 93.2903 128.391 99.1518 128.391 99.1518H136.354V90.1895H121.496Z" fill="#919191" stroke="#263238" stroke-linecap="round" stroke-linejoin="round"/>
<path d="M124.182 90.1895C132.586 93.2903 131.07 99.1518 131.07 99.1518H139.04V90.1895H124.182Z" fill="white" stroke="#263238" stroke-linecap="round" stroke-linejoin="round"/>
<path d="M304.667 58.4453H234.247V156.202H304.667V58.4453Z" fill="#919191" stroke="#263238" stroke-linecap="round" stroke-linejoin="round"/>
<path d="M301.614 62.6895H237.307V151.96H301.614V62.6895Z" fill="#CBCBCB"/>
<path opacity="0.5" d="M301.614 62.6895H237.307V151.96H301.614V62.6895Z" fill="white"/>
<path d="M251.444 145.178C249.719 147.808 247.541 150.111 245.011 151.978H301.614V62.6875H291.183L289.823 63.1159C279.623 66.3323 269.083 75.6415 263.106 92.5599" stroke="#263238" stroke-linecap="round" stroke-linejoin="round"/>
<path d="M262.113 95.5254C259.738 103.594 258.426 111.938 258.21 120.345C257.836 130.437 255.687 137.692 252.817 142.908" stroke="#263238" stroke-linecap="round" stroke-linejoin="round"/>
<path d="M295.324 85.3457C285.974 90.7857 275.087 99.9249 271.021 113.94C268.838 121.42 270.885 128.165 274.931 133.939" stroke="#263238" stroke-linecap="round" stroke-linejoin="round"/>
<path d="M277.121 136.755C282.731 143.324 290.721 148.492 297.187 151.966H301.614V82.0488C300.349 82.6404 299.003 83.3068 297.602 84.0888" stroke="#263238" stroke-linecap="round" stroke-linejoin="round"/>
<path d="M247.996 85.9639C252.919 75.9271 253.436 67.9643 252.872 62.6875H237.32V103.528C239.619 100.258 242.434 95.8851 245.834 90.0235C246.045 89.6631 246.242 89.3435 246.439 88.9627" stroke="#263238" stroke-linecap="round" stroke-linejoin="round"/>
<path d="M254.089 124.623C253.334 129.566 251.063 133.157 248.384 133.157C245.086 133.157 242.407 127.716 242.407 120.984C242.407 114.252 245.086 108.812 248.384 108.812C251.682 108.812 254.361 114.252 254.361 120.984" stroke="#263238" stroke-linecap="round" stroke-linejoin="round"/>
<path d="M256.925 96.0015C256.925 98.5923 255.782 100.7 254.361 100.7C252.94 100.7 251.804 98.5923 251.804 96.0015C251.804 93.4107 252.947 91.3027 254.361 91.3027C255.775 91.3027 256.925 93.4039 256.925 96.0015Z" stroke="#263238" stroke-linecap="round" stroke-linejoin="round"/>
<path d="M289.551 115.85C292.019 117.026 293.631 119.08 293.631 121.412C293.631 125.064 289.619 128.029 284.662 128.029C279.704 128.029 275.699 125.064 275.699 121.412C275.699 117.761 279.711 114.789 284.662 114.789C285.452 114.789 286.24 114.866 287.014 115.02" stroke="#263238" stroke-linecap="round" stroke-linejoin="round"/>
<path d="M288.443 121.414C288.443 122.944 286.763 124.188 284.682 124.188C282.601 124.188 280.922 122.944 280.922 121.414C280.922 119.884 282.608 118.633 284.682 118.633C286.756 118.633 288.443 119.877 288.443 121.414Z" stroke="#263238" stroke-linecap="round" stroke-linejoin="round"/>
<path d="M294.508 104.543C294.508 106.665 292.407 108.385 289.809 108.385C287.212 108.385 285.11 106.665 285.11 104.543C285.11 102.422 287.212 100.701 289.809 100.701C292.407 100.701 294.508 102.422 294.508 104.543Z" stroke="#263238" stroke-linecap="round" stroke-linejoin="round"/>
<path d="M260.556 83.1899C262.325 83.1899 263.759 79.6522 263.759 75.2883C263.759 70.9244 262.325 67.3867 260.556 67.3867C258.787 67.3867 257.353 70.9244 257.353 75.2883C257.353 79.6522 258.787 83.1899 260.556 83.1899Z" stroke="#263238" stroke-linecap="round" stroke-linejoin="round"/>
<path d="M269.314 143.193C269.314 144.081 269.051 144.948 268.558 145.686C268.065 146.425 267.364 147 266.544 147.339C265.724 147.679 264.821 147.768 263.951 147.595C263.08 147.422 262.281 146.994 261.653 146.367C261.025 145.739 260.598 144.939 260.425 144.069C260.251 143.198 260.34 142.296 260.68 141.476C261.02 140.656 261.595 139.955 262.333 139.461C263.071 138.968 263.939 138.705 264.826 138.705C266.017 138.705 267.158 139.178 268 140.02C268.842 140.861 269.314 142.003 269.314 143.193Z" stroke="#263238" stroke-linecap="round" stroke-linejoin="round"/>
<path d="M290.238 76.5674C290.239 77.118 290.077 77.6567 289.772 78.1151C289.467 78.5735 289.033 78.931 288.524 79.1424C288.016 79.3537 287.456 79.4094 286.916 79.3023C286.376 79.1952 285.879 78.9301 285.49 78.5408C285.101 78.1514 284.836 77.6552 284.729 77.1151C284.621 76.575 284.677 76.0152 284.888 75.5067C285.1 74.9982 285.457 74.5639 285.916 74.2589C286.374 73.9538 286.913 73.7916 287.463 73.793C288.199 73.7948 288.903 74.0877 289.423 74.6076C289.943 75.1275 290.236 75.8321 290.238 76.5674Z" stroke="#263238" stroke-linecap="round" stroke-linejoin="round"/>
<path d="M272.728 96.2119C272.729 96.508 272.643 96.7979 272.479 97.0449C272.315 97.2918 272.082 97.4846 271.809 97.5988C271.536 97.7131 271.235 97.7437 270.944 97.6868C270.654 97.6298 270.386 97.4879 270.176 97.2789C269.967 97.07 269.823 96.8034 269.765 96.513C269.707 96.2227 269.736 95.9215 269.849 95.6478C269.962 95.374 270.154 95.14 270.4 94.9753C270.646 94.8106 270.936 94.7227 271.232 94.7227C271.428 94.7218 271.622 94.7596 271.804 94.8341C271.985 94.9085 272.15 95.0181 272.289 95.1564C272.428 95.2948 272.539 95.4593 272.614 95.6404C272.689 95.8215 272.728 96.0157 272.728 96.2119V96.2119Z" stroke="#263238" stroke-linecap="round" stroke-linejoin="round"/>
<path d="M301.614 62.6895H237.307V151.96H301.614V62.6895Z" stroke="#263238" stroke-linecap="round" stroke-linejoin="round"/>
<path d="M196.513 189.986H179.044V196.562H196.513V189.986Z" fill="#263238" stroke="#263238" stroke-linecap="round" stroke-linejoin="round"/>
<path d="M219.953 190.979H150.423L153.714 137.082H223.251L219.953 190.979Z" fill="#919191" stroke="#263238" stroke-linecap="round" stroke-linejoin="round"/>
<path d="M217.961 190.979H148.431L151.722 137.082H221.252L217.961 190.979Z" fill="#263238" stroke="#263238" stroke-linecap="round" stroke-linejoin="round"/>
<path d="M214.282 187.98H152.477L155.401 140.074H217.206L214.282 187.98Z" fill="white" stroke="#263238" stroke-linecap="round" stroke-linejoin="round"/>
<path d="M196.303 180.839H154.319L156.57 143.922H198.56L196.303 180.839Z" fill="#919191" stroke="#263238" stroke-linecap="round" stroke-linejoin="round"/>
<path d="M170.884 164.983C170.884 164.983 162.139 168.444 162.085 169.376C162.031 170.307 160.317 180.841 160.317 180.841H186.32L184.131 168.709L174.509 164.711L170.884 164.983Z" fill="white" stroke="#263238" stroke-linecap="round" stroke-linejoin="round"/>
<path d="M171.143 162.847C170.484 163.021 169.873 163.339 169.354 163.779C168.674 164.459 167.845 166.71 167.845 166.71L167.811 169.375L171.258 167.512L174.76 167.281L178.038 170.348L178.459 165.683C178.459 165.683 177.956 163.017 176.895 162.881C175.835 162.745 171.143 162.847 171.143 162.847Z" fill="white" stroke="#263238" stroke-linecap="round" stroke-linejoin="round"/>
<path d="M171.034 160.318L170.884 164.983L172.945 168.315L176.351 164.847L176.882 160.584L171.034 160.318Z" fill="white" stroke="#263238" stroke-linecap="round" stroke-linejoin="round"/>
<path d="M179.439 154.864C179.194 158.774 176.596 163.514 173.747 163.514C170.898 163.514 168.878 158.754 169.116 154.864C169.354 150.974 171.836 147.785 174.706 147.785C177.575 147.785 179.677 150.961 179.439 154.864Z" fill="white" stroke="#263238" stroke-linecap="round" stroke-linejoin="round"/>
<path d="M169.069 155.381C169.069 155.381 168.151 152.987 167.77 154.851C167.389 156.714 169.266 158.713 169.266 158.713L169.069 155.381Z" fill="white" stroke="#263238" stroke-linecap="round" stroke-linejoin="round"/>
<path d="M179.439 154.864C179.439 154.864 181.69 153.919 181.03 155.918C180.863 156.484 180.57 157.004 180.175 157.442C179.779 157.88 179.291 158.224 178.745 158.447L179.439 154.864Z" fill="white" stroke="#263238" stroke-linecap="round" stroke-linejoin="round"/>
<path d="M173.468 155.381C173.486 155.141 173.454 154.9 173.373 154.673C173.293 154.446 173.166 154.238 173.001 154.063C172.836 153.888 172.636 153.749 172.415 153.655C172.193 153.561 171.954 153.514 171.714 153.518C171.212 153.531 170.734 153.728 170.369 154.072C170.004 154.415 169.778 154.882 169.735 155.381C169.717 155.621 169.749 155.863 169.829 156.09C169.91 156.317 170.036 156.526 170.201 156.701C170.366 156.877 170.566 157.017 170.788 157.111C171.009 157.206 171.248 157.254 171.489 157.251C171.991 157.238 172.471 157.039 172.836 156.694C173.201 156.349 173.426 155.882 173.468 155.381Z" fill="white" stroke="#263238" stroke-linecap="round" stroke-linejoin="round"/>
<path d="M177.997 155.38L180.03 154.85" stroke="#263238" stroke-linecap="round" stroke-linejoin="round"/>
<path d="M177.997 155.381C178.015 155.141 177.983 154.901 177.903 154.674C177.823 154.448 177.697 154.24 177.532 154.065C177.368 153.89 177.169 153.751 176.948 153.657C176.727 153.562 176.489 153.515 176.249 153.518C175.747 153.529 175.266 153.726 174.9 154.07C174.534 154.413 174.307 154.88 174.264 155.381C174.246 155.621 174.278 155.863 174.358 156.09C174.438 156.317 174.565 156.525 174.73 156.701C174.895 156.877 175.095 157.017 175.316 157.111C175.538 157.206 175.777 157.253 176.018 157.251C176.52 157.238 177 157.039 177.365 156.694C177.73 156.349 177.955 155.882 177.997 155.381Z" fill="white" stroke="#263238" stroke-linecap="round" stroke-linejoin="round"/>
<path d="M174.243 146.983C174.243 146.983 172.203 145.923 170.673 146.589C169.143 147.255 168.015 150.853 168.089 151.784C168.329 153.005 168.657 154.207 169.069 155.381L170.687 150.717L174.93 148.853L174.243 146.983Z" fill="#263238" stroke="#263238" stroke-linecap="round" stroke-linejoin="round"/>
<path d="M172.19 147.921C172.19 147.921 175.549 145.256 178.269 146.561C179.101 146.923 179.79 147.552 180.224 148.349C180.659 149.146 180.816 150.065 180.669 150.961C180.629 151.641 180.574 154.687 180.574 154.687L178.956 154.959L178.16 152.45C177.241 152.086 176.346 151.664 175.481 151.185C175.481 151.185 171.884 150.716 172.19 147.921Z" fill="#263238" stroke="#263238" stroke-linecap="round" stroke-linejoin="round"/>
<path d="M173.468 155.381L173.23 159.25H174.162" fill="white"/>
<path d="M173.468 155.381L173.23 159.25H174.162" stroke="#263238" stroke-linecap="round" stroke-linejoin="round"/>
<path d="M172.741 160.711H174.74" stroke="#263238" stroke-linecap="round" stroke-linejoin="round"/>
<path d="M172.945 168.314L172.204 180.439" stroke="#263238" stroke-linecap="round" stroke-linejoin="round"/>
<path d="M184.117 168.709C184.117 168.709 181.336 174.979 181.254 176.311C181.173 177.644 180.86 180.575 180.86 180.575" stroke="#263238" stroke-linecap="round" stroke-linejoin="round"/>
<path d="M162.085 169.375C162.085 169.375 164.853 174.176 165.213 174.815C165.573 175.454 165.131 180.547 165.131 180.547" stroke="#263238" stroke-linecap="round" stroke-linejoin="round"/>
<path d="M185.973 173.245L186.891 169.11L188.455 167.512L189.931 165.112H190.597L189.781 167.648L191.848 166.445L193.181 164.316L193.956 164.711L192.052 169.648L189.033 171.11L188.51 173.109L185.973 173.245Z" fill="white" stroke="#263238" stroke-linecap="round" stroke-linejoin="round"/>
<path d="M188.558 180.84L188.809 172.578L185.776 172.041L183.383 180.84H188.558Z" fill="white" stroke="#263238" stroke-linecap="round" stroke-linejoin="round"/>
<path d="M196.119 183.907H154.129L154.319 180.84H196.303L196.119 183.907Z" fill="white" stroke="#263238" stroke-linecap="round" stroke-linejoin="round"/>
<path d="M155.843 182.043H194.365" stroke="#263238" stroke-linecap="round" stroke-linejoin="round"/>
<path d="M214.35 153.776H200.219L200.818 144.045H214.948L214.35 153.776Z" fill="#CBCBCB" stroke="#263238" stroke-linecap="round" stroke-linejoin="round"/>
<path d="M214.35 153.776H200.219L200.321 152.178H214.452L214.35 153.776Z" fill="white" stroke="#263238" stroke-linecap="round" stroke-linejoin="round"/>
<path d="M209.787 148.343L206.115 146.146L205.85 150.539L209.787 148.343Z" fill="white" stroke="#263238" stroke-linecap="round" stroke-linejoin="round"/>
<path d="M213.432 168.837H199.301L199.893 159.113H214.023L213.432 168.837Z" fill="#CBCBCB" stroke="#263238" stroke-linecap="round" stroke-linejoin="round"/>
<path d="M213.432 168.838H199.301L199.403 167.24H213.527L213.432 168.838Z" fill="white" stroke="#263238" stroke-linecap="round" stroke-linejoin="round"/>
<path d="M208.869 163.411L205.197 161.215L204.932 165.608L208.869 163.411Z" fill="white" stroke="#263238" stroke-linecap="round" stroke-linejoin="round"/>
<path d="M212.507 183.907H198.383L198.975 174.176H213.105L212.507 183.907Z" fill="#CBCBCB" stroke="#263238" stroke-linecap="round" stroke-linejoin="round"/>
<path d="M212.507 183.907H198.383L198.479 182.309H212.609L212.507 183.907Z" fill="white" stroke="#263238" stroke-linecap="round" stroke-linejoin="round"/>
<path d="M207.944 178.474L204.279 176.277L204.007 180.67L207.944 178.474Z" fill="white" stroke="#263238" stroke-linecap="round" stroke-linejoin="round"/>
<path d="M200.26 155.381H213.983" stroke="#263238" stroke-linecap="round" stroke-linejoin="round"/>
<path d="M200.158 156.986H213.887" stroke="#263238" stroke-linecap="round" stroke-linejoin="round"/>
<path d="M199.329 170.578H213.058" stroke="#263238" stroke-linecap="round" stroke-linejoin="round"/>
<path d="M199.233 172.178H212.963" stroke="#263238" stroke-linecap="round" stroke-linejoin="round"/>
<path d="M193.243 196.562H182.92C182.92 195.533 183.329 194.545 184.058 193.817C184.786 193.089 185.773 192.68 186.803 192.68H189.346C190.376 192.68 191.364 193.089 192.092 193.817C192.82 194.545 193.229 195.533 193.229 196.562H193.243Z" fill="white" stroke="#263238" stroke-linecap="round" stroke-linejoin="round"/>
<path d="M178.004 194.447H127.534V196.562H178.004V194.447Z" fill="#919191" stroke="#263238" stroke-linecap="round" stroke-linejoin="round"/>
<path d="M177.99 194.447H165.308V196.562H177.99V194.447Z" fill="white" stroke="#263238" stroke-linecap="round" stroke-linejoin="round"/>
<path d="M106.849 92.9078V52.7266" stroke="#263238" stroke-linecap="round" stroke-linejoin="round"/>
<path d="M106.849 294.004V96.9062" stroke="#263238" stroke-linecap="round" stroke-linejoin="round"/>
<path d="M198.607 210.666L204.727 293.17C204.759 293.472 204.905 293.749 205.134 293.947C205.363 294.145 205.659 294.247 205.962 294.234C206.264 294.221 206.551 294.094 206.762 293.877C206.974 293.66 207.095 293.371 207.101 293.068L206.183 210.666H198.607Z" fill="#919191" stroke="#263238" stroke-linecap="round" stroke-linejoin="round"/>
<path d="M203.225 210.666L206.455 294.122C206.645 294.021 206.804 293.869 206.915 293.683C207.025 293.497 207.082 293.284 207.08 293.068L206.183 210.666H203.225Z" fill="white" stroke="#263238" stroke-linecap="round" stroke-linejoin="round"/>
<path d="M237.075 210.664L243.195 293.168C243.227 293.47 243.372 293.747 243.602 293.945C243.831 294.143 244.127 294.245 244.43 294.232C244.732 294.219 245.018 294.092 245.23 293.875C245.442 293.658 245.563 293.369 245.568 293.066L244.65 210.664H237.075Z" fill="#919191" stroke="#263238" stroke-linecap="round" stroke-linejoin="round"/>
<path d="M241.332 210.664L245.099 293.998C245.24 293.888 245.354 293.746 245.432 293.585C245.51 293.423 245.55 293.246 245.548 293.066L244.65 210.664H241.332Z" fill="white" stroke="#263238" stroke-linecap="round" stroke-linejoin="round"/>
<path d="M135.673 211.563L129.553 293.163C129.533 293.463 129.399 293.743 129.179 293.948C128.959 294.152 128.67 294.266 128.37 294.265C128.213 294.268 128.056 294.239 127.91 294.181C127.764 294.123 127.63 294.036 127.518 293.926C127.405 293.816 127.316 293.685 127.254 293.54C127.193 293.395 127.161 293.239 127.16 293.082L128.064 211.346L135.673 211.563Z" fill="#263238" stroke="#263238" stroke-linecap="round" stroke-linejoin="round"/>
<path d="M97.2399 211.562L91.1199 293.162C91.0992 293.462 90.9655 293.742 90.7458 293.947C90.5261 294.151 90.2369 294.265 89.9367 294.264C89.7798 294.263 89.6247 294.231 89.4802 294.17C89.3357 294.109 89.2048 294.02 89.0948 293.908C88.9848 293.796 88.8981 293.664 88.8395 293.518C88.7809 293.373 88.7517 293.217 88.7535 293.06L89.6579 211.324L97.2399 211.562Z" fill="#263238" stroke="#263238" stroke-linecap="round" stroke-linejoin="round"/>
<path d="M246.901 198.48H87.3525V211.332H246.901V198.48Z" fill="#919191" stroke="#263238" stroke-linecap="round" stroke-linejoin="round"/>
<path d="M246.901 198.48H201.178V211.332H246.901V198.48Z" fill="white" stroke="#263238" stroke-linecap="round" stroke-linejoin="round"/>
<path d="M246.901 200.52H87.3525V204.062H246.901V200.52Z" fill="#263238" stroke="#263238" stroke-linecap="round" stroke-linejoin="round"/>
<path d="M249.199 196.637H85.0542V200.934H249.199V196.637Z" fill="#919191" stroke="#263238" stroke-linecap="round" stroke-linejoin="round"/>
<path d="M249.192 196.637H204.115V200.934H249.192V196.637Z" fill="white" stroke="#263238" stroke-linecap="round" stroke-linejoin="round"/>
<path d="M200.797 116.961H178.643C177.489 116.961 176.382 117.419 175.566 118.236C174.75 119.052 174.291 120.159 174.291 121.313V129.473C174.29 130.045 174.402 130.611 174.62 131.139C174.839 131.668 175.159 132.148 175.564 132.552C175.968 132.957 176.448 133.277 176.977 133.495C177.505 133.714 178.071 133.826 178.643 133.825H190.244L185.899 145.963L194.222 133.825H200.797C201.369 133.826 201.936 133.714 202.464 133.495C202.992 133.277 203.472 132.957 203.877 132.552C204.281 132.148 204.602 131.668 204.82 131.139C205.038 130.611 205.15 130.045 205.149 129.473V121.313C205.149 120.159 204.691 119.052 203.875 118.236C203.059 117.419 201.952 116.961 200.797 116.961Z" fill="white" stroke="#263238" stroke-linecap="round" stroke-linejoin="round"/>
<path d="M183.784 127.249C184.659 127.249 185.368 126.54 185.368 125.664C185.368 124.789 184.659 124.08 183.784 124.08C182.909 124.08 182.199 124.789 182.199 125.664C182.199 126.54 182.909 127.249 183.784 127.249Z" fill="#263238"/>
<path d="M189.72 127.249C190.595 127.249 191.305 126.54 191.305 125.664C191.305 124.789 190.595 124.08 189.72 124.08C188.845 124.08 188.136 124.789 188.136 125.664C188.136 126.54 188.845 127.249 189.72 127.249Z" fill="#263238"/>
<path d="M197.234 125.664C197.234 125.351 197.141 125.044 196.967 124.784C196.792 124.523 196.544 124.32 196.255 124.2C195.965 124.08 195.646 124.049 195.338 124.111C195.031 124.173 194.748 124.324 194.527 124.547C194.306 124.769 194.155 125.052 194.095 125.36C194.035 125.667 194.067 125.986 194.188 126.276C194.309 126.565 194.513 126.812 194.775 126.985C195.036 127.158 195.343 127.25 195.657 127.249C195.864 127.249 196.07 127.208 196.262 127.128C196.454 127.048 196.628 126.932 196.775 126.784C196.921 126.637 197.037 126.462 197.116 126.27C197.195 126.078 197.235 125.872 197.234 125.664Z" fill="#263238"/>
<path d="M306 294.439H324.36" stroke="#263238" stroke-linecap="round" stroke-linejoin="round"/>
<path d="M16.3198 294.439H296.48" stroke="#263238" stroke-linecap="round" stroke-linejoin="round"/>
<path d="M124.195 174.269C122.203 170.869 116.341 157.779 116.341 157.779C116.518 156.38 116.805 154.998 117.198 153.644C117.681 152.284 118.898 148.163 118.653 147.307C118.409 146.45 114.879 144.872 114.519 144.75C114.159 144.627 115.002 142.56 113.662 142.071C112.323 141.581 111.84 142.315 111.84 142.315L111.33 145.715L109.766 148.163C109.115 147.668 108.433 147.214 107.726 146.803C106.631 146.191 104.074 145.947 103.952 146.926C103.829 147.905 105.992 148.748 106.747 149.36C107.501 149.972 108.453 152.889 109.31 153.746C110.089 154.596 110.82 155.488 111.5 156.419L111.989 158.003C111.989 158.003 113.655 174.044 113.853 178.036C114.05 182.027 114.648 192.588 115.845 194.179C117.042 195.77 117.246 196.777 120.605 195.58C123.964 194.383 124.59 192.785 125.365 189.195C126.14 185.604 126.188 177.655 124.195 174.269Z" fill="white" stroke="#263238" stroke-linecap="round" stroke-linejoin="round"/>
<path d="M125.392 189.216C126.188 185.632 126.188 177.656 124.195 174.256C123.978 173.882 123.712 173.399 123.413 172.828C118.905 171.516 114.621 173.658 114.621 173.658L113.533 174.133C113.676 175.799 113.784 177.193 113.825 178.043C114.029 182.028 114.621 192.595 115.818 194.187C117.014 195.778 117.218 196.784 120.578 195.587C123.937 194.391 124.59 192.806 125.392 189.216Z" fill="#CBCBCB" stroke="#263238" stroke-linecap="round" stroke-linejoin="round"/>
<path d="M109.657 120.359C110.148 122.163 110.422 124.019 110.473 125.888C110.473 128.547 109.657 130.185 110.888 131.001C112.119 131.817 113.139 131.824 112.928 133.463C112.847 134.368 112.488 135.225 111.901 135.918C111.901 135.918 111.493 144.309 111.085 145.132C110.677 145.955 105.353 144.928 104.122 144.717C102.891 144.506 99.4162 146.152 97.1586 141.65C94.901 137.149 96.7506 130.389 100.844 126.908C103.66 124.566 106.602 122.379 109.657 120.359Z" fill="white" stroke="#263238" stroke-linecap="round" stroke-linejoin="round"/>
<path d="M110.473 125.853C110.473 125.853 109.365 125.023 108.78 126.478" stroke="#263238" stroke-linecap="round" stroke-linejoin="round"/>
<path d="M109.48 129.24C109.321 130.065 109.372 130.916 109.63 131.715" stroke="#263238" stroke-linecap="round" stroke-linejoin="round"/>
<path d="M111.52 138.856C111.338 138.914 111.146 138.934 110.957 138.913C110.767 138.892 110.584 138.832 110.419 138.736C110.254 138.639 110.111 138.51 110 138.355C109.888 138.2 109.811 138.023 109.772 137.836" stroke="#263238" stroke-linecap="round" stroke-linejoin="round"/>
<path d="M113.839 177.344C113.839 177.344 113.159 180.458 112.554 182.104C111.949 183.749 101.096 186.768 96.3698 187.394C93.2566 187.783 90.1232 187.989 86.9858 188.013L87.285 196.622C87.285 196.622 96.4378 196.805 97.0838 196.622C97.7298 196.438 113.139 189.55 113.139 189.55L119.789 188.679C119.789 188.679 122.584 187.999 122.693 185.83C122.801 183.661 120.333 177.493 119.211 176.534C118.089 175.576 115.723 173.032 114.301 174.596C112.88 176.16 113.839 177.344 113.839 177.344Z" fill="white" stroke="#263238" stroke-linecap="round" stroke-linejoin="round"/>
<path d="M93.4321 192.8C93.4321 189.081 94.3841 188.985 95.4721 187.51C92.6607 187.824 89.8349 187.992 87.0061 188.013L86.7817 195.915C86.7817 195.915 91.7933 196.377 94.8465 196.595C94.5949 196.982 93.4321 195.194 93.4321 192.8Z" fill="#CBCBCB" stroke="#263238" stroke-linecap="round" stroke-linejoin="round"/>
<path d="M122.985 209.527C119.364 205.459 114.761 202.385 109.616 200.599L97.675 205.692C96.7477 203.416 95.5171 201.275 94.0166 199.327L91.7862 196.607L93.221 188.808C93.221 188.808 101.816 182.919 102.925 180.369L102.965 180.287C104.693 182.96 112.186 194.527 113.594 195.649C115.185 196.927 119.959 197.083 122.026 195.173C124.093 193.262 125.052 191.99 124.576 189.127C124.576 189.127 121.393 182.28 119.639 179.254C117.885 176.228 114.07 165.409 112.159 162.063C110.799 159.67 110.235 157.983 109.269 156.855C108.599 155.7 107.808 154.619 106.909 153.631C104.999 151.591 99.7422 151.081 98.627 150.605C97.5118 150.129 97.3554 149.966 90.9906 148.062C84.6258 146.158 77.4586 145.036 72.3654 149.014C72.3654 149.014 65.5246 157.133 62.8454 170.502C60.1662 183.871 59.9758 197.403 59.663 199.79C59.3502 202.177 56.637 213.798 55.8414 220.482C55.0458 227.167 62.0226 233.878 66.3202 235.959C70.6178 238.04 89.0798 238.346 99.9054 235.959C110.731 233.572 127.921 222.747 127.921 222.747C127.921 222.747 128.554 216.055 122.985 209.527Z" fill="#CBCBCB" stroke="#263238" stroke-linecap="round" stroke-linejoin="round"/>
<path d="M94.8395 180.118L92.6567 180.043" stroke="#263238" stroke-linecap="round" stroke-linejoin="round"/>
<path d="M94.0166 176.643C97.0743 177.673 100.052 178.927 102.925 180.396L97.3214 180.206" stroke="#263238" stroke-linecap="round" stroke-linejoin="round"/>
<path d="M123.59 180.662C124.218 181.649 124.605 182.769 124.719 183.933C124.719 185.436 124.971 187.449 124.345 186.823C123.719 186.197 123.461 184.055 123.461 184.055L123.59 180.662Z" fill="white" stroke="#263238" stroke-linecap="round" stroke-linejoin="round"/>
<path d="M119.823 178.907C119.823 178.907 122.176 177.629 123.223 179.165C124.27 180.702 123.991 183.769 123.223 185.285C122.454 186.802 121.577 185.353 121.686 184.007C121.795 182.661 119.823 178.907 119.823 178.907Z" fill="white" stroke="#263238" stroke-linecap="round" stroke-linejoin="round"/>
<path d="M118.939 177.276C118.939 177.276 121.299 175.998 122.339 177.534C123.379 179.071 123.101 182.131 122.339 183.654C121.577 185.178 120.693 183.722 120.802 182.376C120.911 181.03 118.939 177.276 118.939 177.276Z" fill="white" stroke="#263238" stroke-linecap="round" stroke-linejoin="round"/>
<path d="M117.857 175.514C117.857 175.514 120.217 174.236 121.257 175.773C122.298 177.31 122.026 180.376 121.257 181.893C120.489 183.409 119.612 181.961 119.721 180.614C119.829 179.268 117.857 175.514 117.857 175.514Z" fill="white" stroke="#263238" stroke-linecap="round" stroke-linejoin="round"/>
<path d="M111.887 113.974C111.926 116.418 111.296 118.826 110.065 120.937C106.583 126.262 103.312 125.643 101.905 129.947C100.497 134.252 98.396 138.719 100.64 141.208C102.884 143.697 104.72 142.228 104.72 142.228C104.72 142.228 106.155 145.914 102.469 149.599C98.7836 153.285 92.4392 151.85 90.8004 151.238C89.7684 150.84 88.8031 150.288 87.9376 149.599C87.9376 149.599 86.9108 152.469 81.8176 152.469C76.7244 152.469 70.9376 148.987 70.9376 142.636C70.9376 136.285 74.4124 131.994 75.2352 129.532C76.058 127.071 73.8004 119.502 77.2752 114.797C80.75 110.091 86.1152 106.637 90.1952 106.637C94.2752 106.637 102.238 108.874 102.272 108.888C102.809 109.18 106.25 107.779 107.182 107.84C110.602 108.031 111.846 110.839 111.887 113.974Z" fill="#263238" stroke="#263238" stroke-linecap="round" stroke-linejoin="round"/>
<path d="M98.6 143.098C99.3424 143.197 100.095 143.197 100.837 143.098" stroke="#919191" stroke-linecap="round" stroke-linejoin="round"/>
<path d="M108.936 117.543C108.613 119.366 107.941 121.109 106.957 122.677C103.775 127.675 100.157 129.477 95.8258 134.237C93.0446 137.317 93.5682 140.391 95.8258 142.003" stroke="#919191" stroke-linecap="round" stroke-linejoin="round"/>
<path d="M108.997 112.232C109.13 112.982 109.196 113.742 109.194 114.504" stroke="#919191" stroke-linecap="round" stroke-linejoin="round"/>
<path d="M104.72 117C104.72 117 104.04 124.038 101.089 128.125C98.1376 132.212 92.2488 134.245 92.4596 138.57" stroke="#919191" stroke-linecap="round" stroke-linejoin="round"/>
<path d="M132.124 234.809C132.124 234.809 136.367 256.61 139.998 267.204C143.629 277.799 147.261 287.489 148.158 288.4C149.056 289.311 151.49 292.636 151.49 292.636C150.365 293.535 148.99 294.064 147.553 294.153C145.431 294.153 142.711 291.433 140.284 289.91C137.856 288.386 137.564 287.489 132.715 285.673C127.867 283.858 131.811 279.016 133.021 276.588C133.721 275.278 134.134 273.834 134.232 272.352C132.307 265.533 128.896 259.226 124.243 253.883C116.688 245.41 115.171 225.758 115.171 225.758L129.703 220.318L132.124 234.809Z" fill="white" stroke="#263238" stroke-linecap="round" stroke-linejoin="round"/>
<path d="M147.56 287.312L146.683 287.489C146.683 287.489 141.535 280.526 137.605 278.105C136.265 277.18 134.689 276.657 133.063 276.596C131.845 279.017 127.915 283.858 132.757 285.674C137.598 287.489 137.904 288.394 140.325 289.91C142.746 291.426 145.473 294.153 147.594 294.153C149.031 294.065 150.406 293.535 151.531 292.637C151.531 292.637 149.104 289.305 148.199 288.4C147.942 288.066 147.727 287.7 147.56 287.312Z" fill="#CBCBCB" stroke="#263238" stroke-linecap="round" stroke-linejoin="round"/>
<path d="M145.119 293.29C142.725 291.638 140.563 287.966 136.666 285.674C133.124 283.594 131.301 283.512 130.546 283.668C130.731 284.154 131.029 284.589 131.414 284.938C131.799 285.286 132.262 285.539 132.763 285.674C137.612 287.49 137.911 288.394 140.332 289.911C141.862 290.89 143.548 292.4 145.119 293.29Z" fill="#CBCBCB" stroke="#263238" stroke-linecap="round" stroke-linejoin="round"/>
<path d="M147.56 294.153C147.405 294.147 147.251 294.131 147.098 294.105C147.25 294.134 147.405 294.15 147.56 294.153Z" fill="#CBCBCB" stroke="#263238" stroke-linecap="round" stroke-linejoin="round"/>
<path d="M105.141 201.96C105.141 201.96 119.693 196.805 121.053 200.205C122.413 203.605 128.642 216.287 126.371 221.496C124.1 226.705 108.133 206.536 105.862 206.101C103.591 205.666 104.876 203.483 105.141 201.96Z" fill="white" stroke="#263238" stroke-linecap="round" stroke-linejoin="round"/>
<path d="M119.401 208.602C119.401 208.602 135.946 207.242 139.121 210.193C142.297 213.144 131.417 248.498 125.521 259.602C116.28 276.969 119.075 281.518 119.075 281.518C119.075 281.518 119.755 284.238 124.29 288.55C128.826 292.861 130.186 293.534 128.595 294.214C127.004 294.894 120.21 294.214 119.53 293.758C118.85 293.303 113.866 289.23 109.33 287.87C104.795 286.51 105.475 285.598 107.515 281.518C109.555 277.438 109.33 280.838 111.595 273.814C114.309 265.158 116.453 256.333 118.014 247.396C119.218 240.113 121.054 232.116 120.537 224.711L119.401 208.602Z" fill="white" stroke="#263238" stroke-linecap="round" stroke-linejoin="round"/>
<path d="M131.519 219.674C129.787 215.494 126.806 211.951 122.985 209.528C115.75 204.911 109.616 200.6 109.616 200.6L97.6754 205.693C97.6754 205.693 100.586 210.63 85.6258 213.125C74.1066 215.043 63.5326 212.262 57.8274 208.909C57.0318 212.86 56.2022 217.253 55.7874 220.469C54.9918 227.154 61.9958 233.838 66.2934 235.912C70.591 237.986 105.217 242.277 114.539 236.286C131.519 225.426 131.519 219.674 131.519 219.674Z" fill="#263238" stroke="#263238" stroke-linecap="round" stroke-linejoin="round"/>
<path d="M96.3221 209.44C94.7241 210.752 91.6097 212.16 85.6257 213.132C74.1065 215.05 63.5325 212.268 57.8273 208.916C57.6233 209.929 57.4193 210.956 57.2153 212.01C61.1253 214.363 69.3397 218.348 78.6013 217.212C89.6513 215.859 94.5609 212.84 96.3221 209.44Z" fill="#CBCBCB" stroke="#263238" stroke-linecap="round" stroke-linejoin="round"/>
<path d="M87.4957 224.004C86.9653 224.684 86.4145 225.364 85.8569 226.044" stroke="white" stroke-linecap="round" stroke-linejoin="round"/>
<path d="M95.8254 211.098C93.7327 214.946 91.3978 218.657 88.835 222.209" stroke="white" stroke-linecap="round" stroke-linejoin="round"/>
<path d="M90.8414 215.402C90.8414 215.402 86.7614 220.842 82.457 224.018" stroke="white" stroke-linecap="round" stroke-linejoin="round"/>
<path d="M124.29 288.536C119.755 284.238 119.075 281.518 119.075 281.518C118.923 281.377 118.802 281.206 118.721 281.015C118.415 281.335 117.49 281.94 115.226 281.07C113.261 280.315 111.398 279.03 109.432 278.166C108.963 279.002 108.508 279.526 107.515 281.518C105.475 285.598 104.795 286.51 109.33 287.87C113.866 289.23 118.85 293.31 119.53 293.758C120.21 294.207 127.01 294.894 128.595 294.214C130.179 293.534 128.826 292.84 124.29 288.536Z" fill="#CBCBCB" stroke="#263238" stroke-linecap="round" stroke-linejoin="round"/>
<path d="M128.466 221.979L136.177 217.219" stroke="#263238" stroke-linecap="round" stroke-linejoin="round"/>
<path d="M36.3462 178.879C36.3462 178.879 60.9078 175.806 76.6022 180.239L78.989 239.95H42.1602C42.1602 239.95 44.5334 207.874 36.3462 178.879Z" fill="#919191" stroke="#263238" stroke-linecap="round" stroke-linejoin="round"/>
<path d="M76.6022 180.239C60.9078 175.806 36.3462 178.879 36.3462 178.879C38.9746 188.543 40.7203 198.425 41.5618 208.405C55.2766 215.253 67.8379 224.201 78.7918 234.925L76.6022 180.239Z" fill="#757575" stroke="#263238" stroke-linecap="round" stroke-linejoin="round"/>
<path d="M122.917 295.8C122.639 295.801 122.367 295.717 122.139 295.559C121.91 295.401 121.736 295.177 121.638 294.916C116.198 280.255 114.838 242.196 114.757 240.584C114.744 240.224 114.875 239.873 115.121 239.609C115.367 239.345 115.708 239.189 116.069 239.177C116.43 239.164 116.781 239.295 117.045 239.541C117.309 239.787 117.464 240.128 117.477 240.489C117.477 240.883 118.891 279.718 124.188 293.964C124.314 294.302 124.299 294.676 124.149 295.004C123.998 295.332 123.724 295.586 123.386 295.712C123.237 295.771 123.077 295.801 122.917 295.8Z" fill="white" stroke="#263238" stroke-linecap="round" stroke-linejoin="round"/>
<path d="M93.3029 295.8C93.0262 295.8 92.7562 295.715 92.529 295.557C92.3018 295.399 92.1282 295.175 92.0313 294.916C86.5913 280.255 85.2313 242.196 85.1429 240.584C85.1303 240.224 85.2615 239.873 85.5076 239.609C85.7537 239.345 86.0946 239.189 86.4553 239.177C86.816 239.164 87.167 239.295 87.4309 239.541C87.6949 239.787 87.8503 240.128 87.8629 240.489C87.8629 240.883 89.2773 279.718 94.5813 293.964C94.7066 294.302 94.6925 294.676 94.542 295.004C94.3915 295.332 94.117 295.586 93.7789 295.712C93.6273 295.771 93.4658 295.801 93.3029 295.8Z" fill="white" stroke="#263238" stroke-linecap="round" stroke-linejoin="round"/>
<path d="M122.55 239.923H41.5142V237.203H119.843C120.565 237.203 121.257 237.49 121.767 238C122.277 238.51 122.563 239.202 122.563 239.923H122.55Z" fill="#919191" stroke="#263238" stroke-linecap="round" stroke-linejoin="round"/>
<path d="M122.543 239.264H41.5142V241.963H122.543V239.264Z" fill="white" stroke="#263238" stroke-linecap="round" stroke-linejoin="round"/>
<path d="M75.9969 295.798C75.7922 295.803 75.5892 295.761 75.4029 295.676C75.2167 295.591 75.0521 295.465 74.9214 295.307C74.7906 295.15 74.6971 294.965 74.6479 294.766C74.5986 294.567 74.5948 294.36 74.6369 294.16C82.3276 257.725 75.3169 181.11 75.2217 180.341C75.2051 180.163 75.224 179.983 75.277 179.811C75.3301 179.64 75.4164 179.481 75.531 179.343C75.6456 179.205 75.7863 179.091 75.945 179.007C76.1037 178.923 76.2773 178.872 76.4559 178.855C76.8165 178.822 77.1757 178.933 77.4544 179.165C77.733 179.396 77.9083 179.729 77.9417 180.09C78.0165 180.865 85.0816 257.882 77.3093 294.717C77.2459 295.02 77.0814 295.292 76.8429 295.488C76.6043 295.685 76.3059 295.794 75.9969 295.798Z" fill="white" stroke="#263238" stroke-linecap="round" stroke-linejoin="round"/>
<path d="M33.8368 294.806C33.7101 294.807 33.5839 294.789 33.4628 294.752C33.1171 294.653 32.8243 294.422 32.6485 294.109C32.4727 293.795 32.428 293.425 32.5244 293.079C50.2044 230.315 35.1968 179.777 35.0472 179.274C34.9615 178.936 35.0092 178.577 35.1805 178.273C35.3518 177.969 35.6335 177.742 35.9673 177.64C36.3011 177.537 36.6615 177.568 36.9737 177.724C37.286 177.88 37.5263 178.15 37.6448 178.478C37.8012 178.988 53.0672 230.247 35.1424 293.813C35.0625 294.098 34.8917 294.349 34.6561 294.528C34.4205 294.708 34.1328 294.805 33.8368 294.806Z" fill="white" stroke="#263238" stroke-linecap="round" stroke-linejoin="round"/>
<path d="M282.458 182.683C282.458 182.683 274.101 178.038 273.482 188.565C272.863 199.091 271.32 267.506 271.32 267.506" stroke="#263238" stroke-width="2" stroke-linecap="round" stroke-linejoin="round"/>
<path d="M269.144 189.488C269.144 189.488 275.944 204.659 272.864 266.58" stroke="#263238" stroke-width="2" stroke-linecap="round" stroke-linejoin="round"/>
<path d="M275.842 184.804C275.842 184.804 272.639 186.844 270.823 184.505C269.008 182.166 272.054 177.868 269.368 176.032C266.682 174.196 262.038 176.998 262.038 176.998C262.038 176.998 265.608 178.045 265.492 179.996C265.377 181.948 263.656 182.682 263.452 181.832C263.248 180.982 261.514 176.685 258.617 178.473C257.78 178.966 257.052 179.625 256.477 180.408C255.902 181.191 255.492 182.083 255.272 183.029C255.272 183.029 262.024 182.308 262.432 184.845C262.84 187.381 259.665 184.403 256.877 184.24C254.089 184.076 251.545 184.484 251.729 186.171C251.791 187.663 251.702 189.157 251.464 190.632C252.99 189.364 254.92 188.684 256.904 188.714C259.971 188.898 259.855 190.849 257.067 190.686C254.279 190.523 251.885 193.175 251.885 193.175C251.885 193.175 254.429 197.52 257.659 199.669C260.889 201.818 262.051 201.029 262.419 199.39C262.786 197.751 261.929 193.488 263.881 193.603C265.832 193.719 260.651 200.961 263.139 201.389C265.628 201.818 267.634 201.097 268.287 199.458L268.967 197.819C268.967 197.819 268.097 193.569 268.477 191.917C268.858 190.264 269.314 191.964 269.756 193.957C270.198 195.949 270.477 200.709 271.327 200.478C272.177 200.247 274.903 196.779 275.543 195.412C276.182 194.045 271.952 189.89 272 189.054C272.047 188.218 275.311 189.809 275.821 190.679C276.192 191.34 276.526 192.021 276.821 192.719C276.821 192.719 278.861 191.441 278.807 187.524C278.752 183.607 275.842 184.804 275.842 184.804Z" fill="#CBCBCB"/>
<path opacity="0.3" d="M275.842 184.804C275.842 184.804 272.639 186.844 270.823 184.505C269.008 182.166 272.054 177.868 269.368 176.032C266.682 174.196 262.038 176.998 262.038 176.998C262.038 176.998 265.608 178.045 265.492 179.996C265.377 181.948 263.656 182.682 263.452 181.832C263.248 180.982 261.514 176.685 258.617 178.473C257.78 178.966 257.052 179.625 256.477 180.408C255.902 181.191 255.492 182.083 255.272 183.029C255.272 183.029 262.024 182.308 262.432 184.845C262.84 187.381 259.665 184.403 256.877 184.24C254.089 184.076 251.545 184.484 251.729 186.171C251.791 187.663 251.702 189.157 251.464 190.632C252.99 189.364 254.92 188.684 256.904 188.714C259.971 188.898 259.855 190.849 257.067 190.686C254.279 190.523 251.885 193.175 251.885 193.175C251.885 193.175 254.429 197.52 257.659 199.669C260.889 201.818 262.051 201.029 262.419 199.39C262.786 197.751 261.929 193.488 263.881 193.603C265.832 193.719 260.651 200.961 263.139 201.389C265.628 201.818 267.634 201.097 268.287 199.458L268.967 197.819C268.967 197.819 268.097 193.569 268.477 191.917C268.858 190.264 269.314 191.964 269.756 193.957C270.198 195.949 270.477 200.709 271.327 200.478C272.177 200.247 274.903 196.779 275.543 195.412C276.182 194.045 271.952 189.89 272 189.054C272.047 188.218 275.311 189.809 275.821 190.679C276.192 191.34 276.526 192.021 276.821 192.719C276.821 192.719 278.861 191.441 278.807 187.524C278.752 183.607 275.842 184.804 275.842 184.804Z" fill="#263238"/>
<path d="M259.631 193.991C261.718 191.414 264.785 187.926 267.362 186.26" stroke="#263238" stroke-linecap="round" stroke-linejoin="round"/>
<path d="M257.217 197.126C257.217 197.126 257.747 196.385 258.618 195.27" stroke="#263238" stroke-linecap="round" stroke-linejoin="round"/>
<path d="M268.722 186.898C268.722 186.898 271.823 191.278 272.394 195.786" stroke="#263238" stroke-linecap="round" stroke-linejoin="round"/>
<path d="M265.2 189.489C265.2 189.489 266.071 188.979 265.744 194.555" stroke="#263238" stroke-linecap="round" stroke-linejoin="round"/>
<path d="M267.478 184.28C267.478 184.28 269.253 182.709 268.314 179.574" stroke="#263238" stroke-linecap="round" stroke-linejoin="round"/>
<path d="M265.085 186.966L263.82 184.654" stroke="#263238" stroke-linecap="round" stroke-linejoin="round"/>
<path d="M262.426 189.327C262.426 189.327 258.414 186.294 255.904 186.145" stroke="#263238" stroke-linecap="round" stroke-linejoin="round"/>
<path d="M287.239 176.542C287.239 176.542 287.109 181.139 283.519 181.363C279.929 181.588 277.712 175.604 274.04 177.045C270.368 178.487 270.014 185.042 270.014 185.042C270.014 185.042 273.496 182.179 275.373 183.621C277.249 185.063 276.814 187.293 275.801 186.939C274.788 186.586 269.334 185.369 269.144 189.489C269.068 190.664 269.23 191.842 269.622 192.952C270.013 194.063 270.626 195.082 271.422 195.949C271.422 195.949 275.305 188.694 278.133 190.013C280.962 191.332 275.801 192.488 273.734 195.167C271.667 197.847 270.334 200.669 272.163 201.641C273.699 202.592 275.135 203.697 276.447 204.939C276.447 204.939 275.957 201.145 278.229 198.2C280.5 195.256 282.37 196.697 280.309 199.377C278.249 202.056 279.269 206.265 279.269 206.265C279.269 206.265 285.348 206.68 289.7 204.905C294.052 203.13 294.079 201.444 292.679 199.941C291.278 198.438 286.436 196.412 287.878 194.501C289.319 192.59 293.046 202.749 295.174 200.546C297.303 198.343 297.942 195.847 296.745 194.073L295.548 192.305C295.548 192.305 290.707 190.265 289.306 188.769C287.905 187.273 289.925 187.966 292.216 188.877C294.508 189.789 299.465 192.76 299.819 191.747C300.172 190.734 298.547 185.627 297.622 184.077C296.697 182.526 289.639 183.907 288.837 183.288C288.034 182.669 291.849 180.486 293.066 180.568C293.979 180.644 294.887 180.768 295.786 180.942C295.786 180.942 295.895 178.031 291.937 175.413C287.98 172.795 287.239 176.542 287.239 176.542Z" fill="#CBCBCB"/>
<path opacity="0.2" d="M287.239 176.542C287.239 176.542 287.109 181.139 283.519 181.363C279.929 181.588 277.712 175.604 274.04 177.045C270.368 178.487 270.014 185.042 270.014 185.042C270.014 185.042 273.496 182.179 275.373 183.621C277.249 185.063 276.814 187.293 275.801 186.939C274.788 186.586 269.334 185.369 269.144 189.489C269.068 190.664 269.23 191.842 269.622 192.952C270.013 194.063 270.626 195.082 271.422 195.949C271.422 195.949 275.305 188.694 278.133 190.013C280.962 191.332 275.801 192.488 273.734 195.167C271.667 197.847 270.334 200.669 272.163 201.641C273.699 202.592 275.135 203.697 276.447 204.939C276.447 204.939 275.957 201.145 278.229 198.2C280.5 195.256 282.37 196.697 280.309 199.377C278.249 202.056 279.269 206.265 279.269 206.265C279.269 206.265 285.348 206.68 289.7 204.905C294.052 203.13 294.079 201.444 292.679 199.941C291.278 198.438 286.436 196.412 287.878 194.501C289.319 192.59 293.046 202.749 295.174 200.546C297.303 198.343 297.942 195.847 296.745 194.073L295.548 192.305C295.548 192.305 290.707 190.265 289.306 188.769C287.905 187.273 289.925 187.966 292.216 188.877C294.508 189.789 299.465 192.76 299.819 191.747C300.172 190.734 298.547 185.627 297.622 184.077C296.697 182.526 289.639 183.907 288.837 183.288C288.034 182.669 291.849 180.486 293.066 180.568C293.979 180.644 294.887 180.768 295.786 180.942C295.786 180.942 295.895 178.031 291.937 175.413C287.98 172.795 287.239 176.542 287.239 176.542Z" fill="#263238"/>
<path d="M285.389 199.03C284.24 195.161 282.825 189.721 282.921 186.021" stroke="#263238" stroke-linecap="round" stroke-linejoin="round"/>
<path d="M286.879 203.592C286.879 203.592 286.498 202.545 285.974 200.92" stroke="#263238" stroke-linecap="round" stroke-linejoin="round"/>
<path d="M284.485 185.097C284.485 185.097 290.979 184.974 295.882 187.477" stroke="#263238" stroke-linecap="round" stroke-linejoin="round"/>
<path d="M284.689 190.4C284.689 190.4 284.771 189.183 290.129 193.31" stroke="#263238" stroke-linecap="round" stroke-linejoin="round"/>
<path d="M281.044 184.572C281.044 184.572 280.677 181.73 276.903 180.533" stroke="#263238" stroke-linecap="round" stroke-linejoin="round"/>
<path d="M282.071 188.782L278.895 188.469" stroke="#263238" stroke-linecap="round" stroke-linejoin="round"/>
<path d="M282.622 193.053C282.622 193.053 276.849 195.004 274.992 197.418" stroke="#263238" stroke-linecap="round" stroke-linejoin="round"/>
<path d="M248.717 207.143C248.717 207.143 266.982 219.213 266.676 265.963" stroke="#263238" stroke-width="2" stroke-linecap="round" stroke-linejoin="round"/>
<path d="M271.239 203.952C271.239 203.952 270.654 209.243 266.479 209.161C262.303 209.079 260.359 201.967 255.952 203.286C251.546 204.605 250.546 212.126 250.546 212.126C250.546 212.126 254.844 209.147 256.87 210.997C258.897 212.847 258.183 215.369 257.047 214.866C255.911 214.363 249.73 212.439 249.125 217.178C248.928 218.527 249.008 219.902 249.358 221.219C249.709 222.537 250.324 223.769 251.165 224.842C251.165 224.842 256.333 216.838 259.468 218.633C262.603 220.429 256.544 221.265 253.905 224.162C251.267 227.059 249.478 230.187 251.478 231.479C253.163 232.722 254.717 234.135 256.115 235.695C256.115 235.695 255.905 231.275 258.801 228.085C261.698 224.896 263.731 226.725 261.093 229.643C258.455 232.56 259.243 237.49 259.243 237.49C259.243 237.49 266.227 238.544 271.415 236.912C276.604 235.28 276.787 233.335 275.312 231.472C273.836 229.609 268.444 226.807 270.287 224.781C272.129 222.754 275.468 234.79 278.134 232.444C280.799 230.098 281.765 227.29 280.555 225.127L279.344 222.965C279.344 222.965 273.952 220.17 272.476 218.3C271.001 216.43 273.265 217.437 275.822 218.701C278.379 219.966 283.825 223.863 284.322 222.734C284.818 221.605 283.431 215.567 282.513 213.669C281.595 211.772 273.319 212.717 272.449 211.929C271.579 211.14 276.196 208.984 277.59 209.209C278.628 209.381 279.656 209.608 280.67 209.889C280.67 209.889 281.065 206.543 276.747 203.143C272.429 199.743 271.239 203.952 271.239 203.952Z" fill="#CBCBCB"/>
<path opacity="0.3" d="M271.239 203.952C271.239 203.952 270.654 209.243 266.479 209.161C262.303 209.079 260.359 201.967 255.952 203.286C251.546 204.605 250.546 212.126 250.546 212.126C250.546 212.126 254.844 209.147 256.87 210.997C258.897 212.847 258.183 215.369 257.047 214.866C255.911 214.363 249.73 212.439 249.125 217.178C248.928 218.527 249.008 219.902 249.358 221.219C249.709 222.537 250.324 223.769 251.165 224.842C251.165 224.842 256.333 216.838 259.468 218.633C262.603 220.429 256.544 221.265 253.905 224.162C251.267 227.059 249.478 230.187 251.478 231.479C253.163 232.722 254.717 234.135 256.115 235.695C256.115 235.695 255.905 231.275 258.801 228.085C261.698 224.896 263.731 226.725 261.093 229.643C258.455 232.56 259.243 237.49 259.243 237.49C259.243 237.49 266.227 238.544 271.415 236.912C276.604 235.28 276.787 233.335 275.312 231.472C273.836 229.609 268.444 226.807 270.287 224.781C272.129 222.754 275.468 234.79 278.134 232.444C280.799 230.098 281.765 227.29 280.555 225.127L279.344 222.965C279.344 222.965 273.952 220.17 272.476 218.3C271.001 216.43 273.265 217.437 275.822 218.701C278.379 219.966 283.825 223.863 284.322 222.734C284.818 221.605 283.431 215.567 282.513 213.669C281.595 211.772 273.319 212.717 272.449 211.929C271.579 211.14 276.196 208.984 277.59 209.209C278.628 209.381 279.656 209.608 280.67 209.889C280.67 209.889 281.065 206.543 276.747 203.143C272.429 199.743 271.239 203.952 271.239 203.952Z" fill="#263238"/>
<path d="M266.982 229.726C266.003 225.184 264.908 218.758 265.357 214.48" stroke="#263238" stroke-linecap="round" stroke-linejoin="round"/>
<path d="M268.274 235.132C268.274 235.132 267.934 233.887 267.478 231.963" stroke="#263238" stroke-linecap="round" stroke-linejoin="round"/>
<path d="M267.24 213.561C267.24 213.561 274.72 214.037 280.16 217.382" stroke="#263238" stroke-linecap="round" stroke-linejoin="round"/>
<path d="M266.988 219.64C266.988 219.64 267.199 218.246 272.993 223.516" stroke="#263238" stroke-linecap="round" stroke-linejoin="round"/>
<path d="M263.33 212.637C263.33 212.637 263.173 209.319 258.937 207.578" stroke="#263238" stroke-linecap="round" stroke-linejoin="round"/>
<path d="M264.119 217.587L260.488 216.928" stroke="#263238" stroke-linecap="round" stroke-linejoin="round"/>
<path d="M264.357 222.564C264.357 222.564 257.509 224.278 255.136 226.882" stroke="#263238" stroke-linecap="round" stroke-linejoin="round"/>
<path d="M255.836 243.977C255.836 243.977 267.6 252.953 268.838 266.267L266.363 221.68" stroke="#263238" stroke-width="2" stroke-linecap="round" stroke-linejoin="round"/>
<path d="M284.315 237.477C268.838 234.689 268.838 266.268 268.838 266.268" stroke="#263238" stroke-width="2" stroke-linecap="round" stroke-linejoin="round"/>
<path d="M270.694 265.961C270.694 265.961 261.718 200.641 287.694 200.641" stroke="#263238" stroke-width="2" stroke-linecap="round" stroke-linejoin="round"/>
<path d="M278.419 235.601C276.305 233.221 271.81 233.221 269.171 239.3C266.533 245.379 268.906 244.325 268.906 244.325C268.906 244.325 273.925 242.734 277.1 241.68C280.276 240.626 284.499 237.981 284.764 239.565C285.029 241.15 282.649 242.734 279.739 243.265C276.828 243.795 269.171 245.91 269.96 247.521C270.749 249.133 272.605 253.866 272.605 253.866C274.863 251.948 277.246 250.183 279.739 248.582C283.179 246.467 285.294 247.256 283.445 249.636C281.595 252.016 276.305 254.655 277.365 257.83C278.426 261.006 284.764 264.963 284.764 264.963C284.764 264.963 285.559 258.361 287.409 256.246C289.259 254.131 289.259 256.511 288.728 260.21C288.463 261.786 288.286 263.375 288.198 264.97L295.596 267.615C296.806 265.773 298.13 264.009 299.561 262.332L300.921 260.972C300.921 260.972 295.107 255.953 294.841 252.812C294.576 249.67 298.806 252.812 300.125 253.342C301.444 253.873 303.559 257.572 303.559 257.572C303.559 257.572 304.885 251.493 305.15 249.378L305.415 247.263C305.415 247.263 299.86 245.148 297.745 245.148C295.63 245.148 294.576 246.733 294.576 244.625C294.576 242.517 296.691 241.184 299.071 241.449C301.224 241.809 303.346 242.339 305.415 243.033C305.415 243.033 307 241.714 306.469 237.75C305.939 233.786 304.62 233.786 301.451 234.84C298.282 235.894 296.161 238.28 293.781 238.28C291.401 238.28 292.727 235.37 294.311 234.581C295.895 233.792 299.86 232.201 300.655 231.936C301.451 231.671 296.426 227.972 293.781 227.441C291.135 226.911 287.715 228.801 287.967 231.405C288.463 236.92 280.534 238.001 278.419 235.601Z" fill="#CBCBCB"/>
<path d="M295.433 262.814C295.514 263.608 295.569 264.403 295.596 265.201" stroke="#263238" stroke-linecap="round" stroke-linejoin="round"/>
<path d="M290.122 243.842C292.452 249.075 294.13 254.574 295.12 260.216" stroke="#263238" stroke-linecap="round" stroke-linejoin="round"/>
<path d="M289.17 241.72C287.864 238.905 286.878 237.184 286.878 237.184C288.321 236.505 289.52 235.399 290.312 234.015C290.931 232.763 291.837 231.674 292.958 230.84" stroke="#263238" stroke-linecap="round" stroke-linejoin="round"/>
<path d="M277.63 246.16C277.63 246.16 287.15 242.196 287.15 242.985" stroke="#263238" stroke-linecap="round" stroke-linejoin="round"/>
<path d="M292.4 241.15C292.4 241.15 296.63 239.035 300.329 239.035" stroke="#263238" stroke-linecap="round" stroke-linejoin="round"/>
<path d="M290.843 247.52C289.008 249.027 287.325 250.71 285.817 252.545C284.275 254.364 283.027 256.413 282.118 258.617" stroke="#263238" stroke-linecap="round" stroke-linejoin="round"/>
<path d="M293.76 248.555C293.76 248.555 299.316 246.963 302.219 249.609" stroke="#263238" stroke-linecap="round" stroke-linejoin="round"/>
<path d="M303.804 212.841C300.927 211.141 297.745 211.101 296.181 209.305C294.617 207.51 297.684 206.585 299.322 207.265C300.961 207.945 304.762 209.897 305.476 210.319C306.19 210.74 305.701 204.532 304.368 202.159C303.035 199.785 299.384 198.453 297.568 200.37C293.726 204.403 287.728 199.112 288.136 195.957C288.544 192.802 285.6 189.409 279.296 191.394C272.993 193.38 275.332 194.488 275.332 194.488C275.332 194.488 279.82 197.242 282.703 198.942C285.586 200.642 290.346 202.104 289.32 203.342C288.293 204.579 285.539 203.825 283.234 201.982C280.928 200.139 274.312 195.733 273.632 197.371C272.952 199.01 270.572 203.525 270.572 203.525C273.501 203.974 276.398 204.617 279.242 205.45C283.091 206.66 283.88 208.775 280.874 208.938C277.868 209.101 272.401 206.844 270.674 209.72C268.947 212.597 270.137 219.981 270.137 219.981C270.137 219.981 275.645 216.255 278.453 216.262C281.262 216.269 279.466 217.833 276.325 219.859C274.962 220.691 273.648 221.599 272.388 222.579L275.244 229.903C277.428 229.607 279.629 229.448 281.833 229.427L283.696 229.563C283.696 229.563 283.696 221.879 285.899 219.601C288.102 217.323 288.497 222.593 288.966 223.939C289.435 225.285 288.028 229.304 288.028 229.304C288.028 229.304 293.468 226.319 295.249 225.129L297.024 223.946C297.024 223.946 294.984 218.363 293.59 216.772C292.196 215.181 290.319 215.412 291.91 214.052C293.502 212.692 295.895 213.372 297.255 215.371C298.395 217.231 299.384 219.18 300.213 221.199C300.213 221.199 302.253 221.532 304.898 218.533C307.544 215.534 306.68 214.541 303.804 212.841ZM278.8 221.301C276.685 220.24 281.704 218.125 281.704 218.125C283.56 217.867 280.908 222.361 278.8 221.301ZM282.356 211.434C281.459 210.985 284.158 210.074 284.158 210.074C288.062 210.801 283.254 211.883 282.35 211.434H282.356Z" fill="#CBCBCB"/>
<path d="M278.732 226.686C278.188 227.264 277.617 227.828 277.039 228.372" stroke="#263238" stroke-linecap="round" stroke-linejoin="round"/>
<path d="M289.578 210.236C287.149 215.422 284.091 220.289 280.473 224.727" stroke="#263238" stroke-linecap="round" stroke-linejoin="round"/>
<path d="M290.557 208.127C291.829 205.292 292.475 203.422 292.475 203.422C293.936 204.063 295.559 204.243 297.126 203.939C298.475 203.582 299.89 203.552 301.254 203.85" stroke="#263238" stroke-linecap="round" stroke-linejoin="round"/>
<path d="M288.259 207.435C288.857 206.911 279.629 202.328 279.629 202.328" stroke="#263238" stroke-linecap="round" stroke-linejoin="round"/>
<path d="M293.121 210.209C293.121 210.209 297.493 212.018 299.921 214.813" stroke="#263238" stroke-linecap="round" stroke-linejoin="round"/>
<path d="M287.293 213.174C284.953 212.777 282.58 212.609 280.208 212.671C277.821 212.701 275.453 213.102 273.19 213.861" stroke="#263238" stroke-linecap="round" stroke-linejoin="round"/>
<path d="M288.401 216.064C288.401 216.064 293.236 219.213 293.161 223.143" stroke="#263238" stroke-linecap="round" stroke-linejoin="round"/>
<path d="M262.731 249.458C260.419 248.098 257.856 248.064 256.611 246.616C255.367 245.167 257.815 244.44 259.134 244.984C260.453 245.528 263.513 247.105 264.091 247.445C264.669 247.785 264.268 242.78 263.194 240.897C262.119 239.013 259.182 237.918 257.72 239.455C254.626 242.706 249.798 238.442 250.131 235.906C250.464 233.369 248.091 230.636 242.998 232.234C237.905 233.832 239.809 234.722 239.809 234.722C239.809 234.722 243.419 236.939 245.738 238.306C248.057 239.673 251.892 240.856 251.063 241.849C250.233 242.842 248.023 242.243 246.167 240.754C244.31 239.265 238.986 235.722 238.442 237.041C237.898 238.36 235.98 241.992 235.98 241.992C238.337 242.355 240.668 242.873 242.957 243.542C246.051 244.514 246.683 246.214 244.263 246.344C241.842 246.473 237.463 244.657 236.103 246.976C234.743 249.295 235.667 255.238 235.667 255.238C235.667 255.238 240.101 252.232 242.359 252.239C244.616 252.246 243.175 253.504 240.652 255.136C239.555 255.806 238.497 256.537 237.483 257.326L239.775 263.214C241.533 262.978 243.305 262.853 245.079 262.84L246.581 262.942C246.581 262.942 246.581 256.761 248.356 254.925C250.131 253.089 250.444 257.332 250.818 258.42C251.192 259.508 250.063 262.738 250.063 262.738C250.063 262.738 254.456 260.331 255.877 259.379L257.305 258.42C257.305 258.42 255.659 253.932 254.544 252.647C253.429 251.362 251.906 251.559 253.184 250.444C254.463 249.329 256.387 249.914 257.482 251.498C258.4 252.997 259.198 254.565 259.869 256.19C259.869 256.19 261.507 256.455 263.636 254.048C265.764 251.641 265.05 250.832 262.731 249.458ZM242.603 256.258C240.903 255.408 244.943 253.708 244.943 253.708C246.432 253.504 244.303 257.122 242.603 256.265V256.258ZM245.48 248.329C244.752 247.962 246.928 247.241 246.928 247.241C250.063 247.846 246.194 248.69 245.48 248.329Z" fill="#CBCBCB"/>
<path d="M242.563 260.604C242.121 261.066 241.665 261.522 241.203 261.964" stroke="#263238" stroke-linecap="round" stroke-linejoin="round"/>
<path d="M251.287 247.363C249.334 251.537 246.874 255.454 243.963 259.025" stroke="#263238" stroke-linecap="round" stroke-linejoin="round"/>
<path d="M252.076 245.664C253.096 243.386 253.62 241.883 253.62 241.883C254.795 242.397 256.1 242.542 257.36 242.298C258.445 242.01 259.582 241.987 260.678 242.23" stroke="#263238" stroke-linecap="round" stroke-linejoin="round"/>
<path d="M243.277 241C243.277 241 250.709 244.692 250.226 245.08" stroke="#263238" stroke-linecap="round" stroke-linejoin="round"/>
<path d="M254.136 247.344C254.136 247.344 257.652 248.799 259.576 251.05" stroke="#263238" stroke-linecap="round" stroke-linejoin="round"/>
<path d="M249.444 249.73C247.562 249.412 245.654 249.277 243.746 249.329C241.826 249.348 239.921 249.671 238.102 250.288" stroke="#263238" stroke-linecap="round" stroke-linejoin="round"/>
<path d="M250.342 252.057C250.342 252.057 254.231 254.593 254.157 257.748" stroke="#263238" stroke-linecap="round" stroke-linejoin="round"/>
<path d="M253.293 205.816C253.293 205.816 250.383 207.931 248.533 205.816C246.684 203.701 249.329 199.471 246.684 197.887C244.038 196.303 239.816 199.206 239.816 199.206C239.816 199.206 243.25 200.002 243.25 201.851C243.25 203.701 241.665 204.497 241.4 203.701C241.135 202.905 239.285 198.941 236.64 200.797C235.878 201.311 235.228 201.973 234.729 202.744C234.23 203.516 233.892 204.38 233.736 205.285C233.736 205.285 240.074 204.231 240.604 206.611C241.135 208.991 237.966 206.346 235.321 206.346C232.676 206.346 230.296 206.877 230.561 208.461C230.705 209.867 230.705 211.284 230.561 212.691C231.93 211.409 233.712 210.659 235.586 210.576C238.49 210.576 238.49 212.425 235.851 212.425C233.213 212.425 231.091 215.071 231.091 215.071C231.091 215.071 233.736 219.035 236.905 220.885C240.074 222.734 241.135 221.939 241.4 220.354C241.665 218.77 240.604 214.805 242.454 214.805C244.304 214.805 239.816 221.939 242.189 222.204C244.562 222.469 246.418 221.673 246.949 220.089L247.479 218.505C247.479 218.505 246.418 214.54 246.684 212.956C246.949 211.371 247.479 212.956 248.003 214.805C248.526 216.655 249.064 221.143 249.859 220.885C250.655 220.626 253.028 217.179 253.558 215.859C254.089 214.54 249.859 210.841 249.859 210.045C249.859 209.25 253.028 210.576 253.558 211.365C254.089 212.153 254.612 213.214 254.612 213.214C254.612 213.214 256.462 211.895 256.197 208.196C255.932 204.497 253.293 205.816 253.293 205.816Z" fill="#CBCBCB"/>
<path d="M238.483 215.404C240.312 212.854 243.025 209.386 245.364 207.666" stroke="#263238" stroke-linecap="round" stroke-linejoin="round"/>
<path d="M236.375 218.504C236.375 218.504 236.844 217.77 237.599 216.668" stroke="#263238" stroke-linecap="round" stroke-linejoin="round"/>
<path d="M246.684 208.195C246.684 208.195 249.859 212.16 250.648 216.389" stroke="#263238" stroke-linecap="round" stroke-linejoin="round"/>
<path d="M243.515 210.841C243.515 210.841 244.303 210.311 244.303 215.601" stroke="#263238" stroke-linecap="round" stroke-linejoin="round"/>
<path d="M245.364 205.815C245.364 205.815 246.949 204.231 245.895 201.32" stroke="#263238" stroke-linecap="round" stroke-linejoin="round"/>
<path d="M243.249 208.462L241.93 206.348" stroke="#263238" stroke-linecap="round" stroke-linejoin="round"/>
<path d="M240.87 210.84C240.87 210.84 236.905 208.195 234.525 208.195" stroke="#263238" stroke-linecap="round" stroke-linejoin="round"/>
<path d="M279.983 265.031H259.549V294.441H279.983V265.031Z" fill="#263238" stroke="#263238" stroke-width="2" stroke-linecap="round" stroke-linejoin="round"/>
</svg>
