<svg width="477" height="429" viewBox="0 0 477 429" fill="none" xmlns="http://www.w3.org/2000/svg">
<path d="M213.913 206.471C204.078 207.126 194.516 202.92 190.964 200.735H189.325L187.685 209.748V219.58L191.783 230.231C191.783 230.231 195.062 234.328 195.881 234.328C196.701 234.328 184.407 259.727 184.407 259.727V305.609L181.948 327.731L185.227 336.744C182.222 335.924 180.801 335.76 199.16 341.66C217.519 347.559 225.933 329.37 227.846 319.538C228.665 308.613 230.304 287.42 230.304 290.042C230.304 292.664 241.779 297.689 247.516 299.874C261.175 304.244 289.806 312.983 295.052 312.983C300.297 312.983 306.526 310.798 308.985 309.706C317.181 302.332 312.263 281.849 311.444 279.391C310.788 277.424 306.799 274.202 304.887 272.836C302.241 271.32 300.269 270.43 295.051 268.739L272.923 263.004L271.284 267.101C271.2 266.349 270.688 265.807 268.825 264.643L265.546 258.908L262.268 263.004L258.99 264.643V262.185L260.629 257.269L258.99 254.811C258.444 254.538 257.187 253.828 256.531 253.172C255.875 252.517 255.165 251.26 254.892 250.714L254.072 243.34C256.063 239.556 260.204 230.1 263.088 223.676C265.992 217.208 266.366 204.286 265.547 198.277L258.99 189.265C231.944 208.109 226.206 205.651 213.913 206.471Z" fill="#263238"/>
<path d="M194.586 235.836C194.436 235.834 194.288 235.798 194.155 235.73C194.021 235.662 193.905 235.563 193.816 235.442C191.242 231.837 186.538 221.317 186.046 216.467C185.554 211.616 188.325 200.08 188.439 199.556C188.502 199.316 188.655 199.111 188.867 198.982C189.078 198.854 189.332 198.813 189.573 198.869C189.814 198.924 190.024 199.072 190.158 199.279C190.292 199.487 190.34 199.739 190.292 199.982C190.292 200.113 187.489 211.747 187.931 216.368C188.374 220.989 192.964 231.116 195.357 234.393C195.43 234.495 195.483 234.609 195.511 234.731C195.54 234.852 195.545 234.978 195.525 235.101C195.505 235.225 195.462 235.343 195.396 235.449C195.331 235.555 195.245 235.648 195.144 235.721C194.973 235.813 194.779 235.853 194.586 235.836Z" fill="#263238"/>
<path d="M208.077 342.954L201.832 342.512C208.601 340.693 212.798 329.796 215.42 322.307C215.912 320.898 216.387 319.554 216.863 318.325C219.19 312.246 219.404 293.319 219.272 286.043C218.305 282.619 215.699 274.278 213.863 271.574C213.481 271.027 213.214 270.408 213.078 269.754C212.943 269.101 212.942 268.426 213.076 267.772C213.65 265.02 216.469 263.233 218.945 261.677C219.781 261.182 220.586 260.634 221.354 260.038C221.911 256.531 225.993 255.433 229.025 254.63C229.976 254.368 230.878 254.122 231.583 253.86C234.517 251.173 247.368 226.626 250.187 213.435C252.58 202.308 248.548 198.375 248.548 198.343L252.253 194.017C252.941 194.59 258.924 200.08 255.81 214.631C253.384 225.938 239.336 256.908 233.992 259.055C232.866 259.476 231.717 259.831 230.55 260.12C229.325 260.391 228.133 260.792 226.993 261.316C226.632 263.61 224.403 265.02 222.075 266.511C220.924 267.147 219.837 267.894 218.83 268.739C221.518 273.098 224.518 283.618 224.862 284.847L224.96 285.552C224.96 288.239 225.386 312 222.174 320.357C221.731 321.537 221.272 322.815 220.797 324.159C217.863 332.647 217.764 340.365 208.077 342.954Z" fill="white"/>
<path d="M313.722 286.125C309.247 283.93 297.592 281.636 290.609 280.161C287.626 279.538 285.053 278.981 283.118 278.522C279.908 277.76 276.532 278.166 273.595 279.669C272.723 280.051 271.824 280.368 270.907 280.62C267.366 281.504 264.956 278.031 263.219 275.491C263.022 275.212 262.809 274.884 262.58 274.589C260.367 275.884 257.318 277.654 254.384 276.818C253.703 276.613 253.073 276.27 252.531 275.811C251.99 275.351 251.549 274.785 251.236 274.147C250.489 272.536 249.939 270.842 249.597 269.1C249.056 266.822 248.679 265.38 247.548 264.479C243.68 261.398 243.696 259.94 243.614 259.563L246.516 254.827C247.828 256.763 249.369 258.535 251.105 260.104C253.336 262.127 254.766 264.883 255.138 267.871C255.385 269.077 255.747 270.257 256.22 271.394C257.429 270.988 258.584 270.438 259.662 269.755C260.465 269.225 261.336 268.807 262.252 268.51C264.825 267.871 266.399 270.149 267.907 272.328C268.525 273.285 269.227 274.184 270.005 275.015C270.415 274.884 270.907 274.688 271.447 274.458C275.522 272.477 280.163 271.99 284.561 273.082C286.38 273.541 288.905 274.065 291.822 274.72C298.772 276.043 305.547 278.154 312.017 281.013L313.722 286.125Z" fill="white"/>
<path d="M346.014 316.966C345.829 316.965 345.647 316.914 345.489 316.818C334.9 309.92 311.066 307.97 310.804 307.953C310.671 307.957 310.538 307.933 310.415 307.882C310.292 307.831 310.181 307.755 310.089 307.658C309.997 307.561 309.926 307.447 309.882 307.321C309.837 307.195 309.82 307.062 309.83 306.929C309.84 306.796 309.879 306.667 309.942 306.55C310.006 306.433 310.093 306.33 310.199 306.249C310.305 306.168 310.427 306.11 310.556 306.079C310.686 306.048 310.821 306.044 310.952 306.069C311.952 306.069 335.539 308.068 346.522 315.229C346.628 315.295 346.719 315.382 346.791 315.485C346.862 315.587 346.912 315.703 346.938 315.825C346.964 315.948 346.966 316.074 346.942 316.197C346.918 316.319 346.87 316.436 346.8 316.54C346.714 316.67 346.598 316.777 346.46 316.851C346.323 316.925 346.17 316.965 346.014 316.966Z" fill="#263238"/>
<path d="M337.49 298.317C336.75 298.301 336.015 298.179 335.31 297.957C331.916 296.99 314 287.371 313.279 286.961C313.058 286.843 312.893 286.642 312.819 286.403C312.746 286.164 312.77 285.905 312.886 285.683C313.007 285.461 313.211 285.296 313.453 285.222C313.695 285.149 313.956 285.173 314.181 285.29C320.557 288.731 333.277 295.4 335.818 296.138C336.498 296.415 337.244 296.489 337.965 296.351C338.024 296.131 338.16 295.939 338.348 295.811C338.537 295.682 338.765 295.626 338.991 295.652C339.218 295.678 339.427 295.784 339.582 295.951C339.737 296.119 339.826 296.336 339.834 296.564C339.825 296.815 339.758 297.062 339.639 297.283C339.519 297.505 339.35 297.696 339.145 297.842C338.66 298.178 338.079 298.345 337.49 298.317Z" fill="#263238"/>
<path d="M347.505 285.651C347.505 285.651 338.49 294.434 338.49 295.384C338.49 296.335 344.899 302.021 345.374 303.922C345.85 305.823 350.128 303.447 351.308 303.922C352.488 304.397 352.259 307.724 348.931 308.428C345.604 309.133 345.85 317.687 347.03 318.866C348.21 320.046 358.504 325.274 364.126 331.205C369.749 337.137 372.912 343.069 375.273 344.02C377.633 344.97 380.026 345.658 380.731 340.939C381.436 336.22 382.157 325.995 375.994 318.637C369.831 311.279 367.208 310.558 365.307 310.558C363.405 310.558 360.389 310.804 361.52 308.199C362.651 305.593 365.307 303.283 364.356 301.071C363.405 298.858 355.98 284.946 347.505 285.651Z" fill="#263238"/>
<path d="M380.42 347.494C379.727 347.529 379.039 347.373 378.429 347.043C377.819 346.714 377.311 346.224 376.961 345.626C376.905 345.515 376.872 345.394 376.863 345.271C376.854 345.147 376.87 345.023 376.91 344.905C376.949 344.788 377.012 344.68 377.094 344.587C377.176 344.494 377.276 344.418 377.387 344.364C377.609 344.254 377.866 344.236 378.102 344.312C378.337 344.389 378.534 344.554 378.649 344.773C378.731 344.905 379.371 345.97 381.37 345.478C384.108 344.79 386.288 344.003 386.845 340.759C387.613 333.677 386.164 326.532 382.698 320.308C380.592 317.132 378.067 314.255 375.191 311.755C372.617 309.346 370.601 307.445 370.453 305.413C370.453 304.676 370.453 303.938 370.372 303.168C370.51 300.227 369.948 297.296 368.732 294.614C366.585 290.337 361.487 284.782 356.652 282.734C352.209 280.915 350.193 281.718 348.456 286.011C348.358 286.244 348.172 286.428 347.938 286.523C347.704 286.618 347.443 286.617 347.21 286.519C346.977 286.421 346.793 286.235 346.698 286.002C346.603 285.768 346.604 285.506 346.702 285.274C348.915 279.997 352.029 278.719 357.438 280.964C362.848 283.209 368.224 289.158 370.552 293.762C371.922 296.679 372.574 299.882 372.453 303.102C372.453 303.845 372.486 304.566 372.552 305.265C372.634 306.544 374.519 308.313 376.682 310.345C379.69 312.962 382.327 315.978 384.518 319.309C388.239 325.925 389.776 333.546 388.911 341.087C388.091 345.429 385.059 346.543 382.026 347.297C381.503 347.439 380.962 347.506 380.42 347.494Z" fill="#263238"/>
<path d="M211.454 198.834C206.782 198.834 198.34 198.228 193.931 194.131C192.167 192.504 190.624 190.653 189.341 188.625C188.492 187.224 187.461 185.94 186.276 184.807C185.221 183.898 184.461 182.696 184.09 181.355C183.719 180.013 183.756 178.591 184.194 177.27C184.289 177.038 184.471 176.853 184.701 176.755C184.931 176.657 185.191 176.653 185.424 176.745C185.541 176.789 185.649 176.855 185.74 176.941C185.831 177.027 185.904 177.13 185.955 177.245C186.005 177.36 186.032 177.483 186.034 177.609C186.036 177.734 186.012 177.858 185.965 177.974C185.671 178.942 185.67 179.974 185.962 180.942C186.253 181.91 186.825 182.77 187.604 183.415C188.87 184.657 189.971 186.055 190.882 187.577C192.079 189.48 193.523 191.216 195.177 192.739C199.734 196.966 209.929 197.015 212.847 196.917C213.099 196.917 213.341 197.017 213.519 197.195C213.698 197.374 213.798 197.615 213.798 197.868C213.798 198.12 213.698 198.361 213.519 198.54C213.341 198.718 213.099 198.818 212.847 198.818L211.454 198.834Z" fill="#263238"/>
<path d="M218.437 207.289C210.54 207.377 202.685 206.147 195.193 203.652C185.145 199.719 185.358 195.458 185.768 194.295C185.893 193.867 186.04 193.445 186.21 193.033C186.604 192.05 186.751 191.689 186.21 190.805C184.866 188.773 185.965 184.365 186.096 183.873C186.158 183.63 186.313 183.422 186.528 183.293C186.743 183.164 187 183.125 187.243 183.185C187.487 183.25 187.696 183.409 187.825 183.626C187.953 183.844 187.992 184.103 187.932 184.348C187.489 185.987 187.161 188.805 187.8 189.756C188.221 190.325 188.468 191.004 188.512 191.71C188.555 192.417 188.394 193.121 188.046 193.738C187.891 194.081 187.765 194.438 187.669 194.803C187.227 196.441 189.128 199.211 195.865 201.882C204.061 205.159 224.977 207.879 237.353 201.882C257.433 192.214 258.859 188.641 258.81 187.773C258.76 186.904 258.678 186.134 258.58 185.151C258.082 182.53 258.182 179.83 258.875 177.253C259.99 174.369 261.104 171.501 259.957 167.912C259.196 164.629 258.805 161.271 258.793 157.9C258.678 155.672 258.58 153.558 258.351 151.952C258.071 149.058 257.159 146.261 255.679 143.759C255.582 143.681 255.502 143.585 255.442 143.475C255.383 143.366 255.347 143.246 255.334 143.123C255.322 142.999 255.335 142.874 255.371 142.756C255.408 142.637 255.468 142.527 255.548 142.431C255.71 142.239 255.942 142.117 256.193 142.092C256.444 142.068 256.695 142.143 256.892 142.3C258.269 143.464 259.678 148.019 260.17 151.755C260.432 153.394 260.531 155.606 260.645 157.884C260.649 161.093 261.012 164.292 261.727 167.421C263.071 171.649 261.727 174.975 260.645 177.908C260.046 180.239 259.968 182.672 260.416 185.036C260.514 185.987 260.613 186.905 260.662 187.757C260.76 189.887 258.547 193.852 238.123 203.668C232.648 206.29 225.485 207.289 218.437 207.289Z" fill="#263238"/>
<path d="M303.854 208.929C299.596 208.819 295.361 208.27 291.216 207.29C287.397 206.405 286.643 201.408 286.085 197.753C285.988 196.483 285.684 195.238 285.184 194.066C282.922 192.559 282.561 191.231 282.561 187.758C282.372 185.969 281.587 184.295 280.332 183.005C279.532 181.981 278.83 180.883 278.234 179.728C276.906 177.073 272.3 164.095 273.415 160.359C274.201 157.754 271.021 151.855 265.776 149.823C260.072 147.594 248.679 140.548 248.204 140.253C248.097 140.187 248.004 140.102 247.931 140C247.857 139.899 247.805 139.784 247.776 139.662C247.747 139.54 247.742 139.414 247.762 139.29C247.782 139.167 247.827 139.048 247.893 138.942C248.028 138.73 248.24 138.578 248.485 138.52C248.73 138.462 248.988 138.502 249.204 138.631C249.319 138.631 260.924 145.89 266.464 148.053C272.447 150.38 276.3 157.18 275.234 160.9C274.431 163.62 278.267 175.55 279.922 178.925C280.504 179.972 281.179 180.965 281.938 181.891C283.446 183.509 284.364 185.587 284.545 187.79C284.545 191.068 284.856 191.543 286.331 192.526C287.38 193.231 287.659 195.017 287.97 197.442C288.479 200.719 289.101 204.816 291.642 205.406C300.428 207.421 310.362 207.946 311.411 204.373C312.296 201.375 311.919 196.623 311.575 192.428C311.258 189.824 311.192 187.195 311.378 184.579C311.788 181.678 306.46 161.506 303.182 149.462C301.625 143.596 300.395 138.975 300.002 137.139C298.855 131.732 265.71 107.742 257.22 104.366C249.909 101.4 238.992 97.5004 228.501 97.8117C228.362 97.8242 228.222 97.8023 228.094 97.748C227.965 97.6937 227.852 97.6087 227.764 97.5004C226.197 95.6647 224.451 93.9904 222.551 92.5025L221.977 93.1251C219.715 95.5667 214.421 101.318 206.831 100.335C202.659 99.889 198.573 98.8403 194.701 97.2218C194.729 98.0931 194.424 98.9423 193.849 99.5978L193.701 99.7125C193.538 99.8272 189.653 102.252 178.949 101.351C168.622 100.417 162.951 99.9092 153.05 90.0117C150.28 87.2424 147.067 83.8667 143.641 80.2781C135.74 71.8062 126.725 62.3512 123.283 60.6306C119.349 58.6642 112.267 57.8777 109.71 57.6483C109.431 60.647 107.973 69.3974 100.564 72.3962C100.564 73.576 101.088 77.0499 105.629 82.9983L108.137 86.2756C115.792 96.4025 133.74 120.114 139.428 122.555C141.264 123.342 144.346 124.44 147.854 125.702C157.443 129.143 169.393 133.42 172.95 136.992C175.966 139.991 178.556 151.445 180.85 161.572C182.194 167.471 183.588 173.583 184.407 174.566C186.09 176.161 188.044 177.443 190.177 178.352C191.605 178.89 192.897 179.735 193.964 180.826C194.1 181.037 194.147 181.293 194.095 181.539C194.043 181.785 193.895 182 193.685 182.137C193.475 182.27 193.221 182.318 192.977 182.269C192.732 182.22 192.516 182.079 192.374 181.875C191.443 181.131 190.418 180.514 189.325 180.039C186.954 179.027 184.791 177.582 182.949 175.779C181.883 174.517 180.818 169.945 178.998 161.998C177.031 153.051 174.228 140.925 171.605 138.286C168.327 135.009 156.132 130.634 147.214 127.439C143.657 126.16 140.658 125.063 138.674 124.161C132.527 121.523 115.021 98.4016 106.629 87.2915L104.121 84.0142C97.8589 75.8209 98.6293 71.7735 98.7441 71.3474C98.7769 71.1919 98.8503 71.0479 98.9569 70.9299C99.0634 70.8119 99.1992 70.7241 99.3506 70.6756C107.546 67.9226 107.874 56.6323 107.891 56.5176C107.895 56.3913 107.924 56.2671 107.977 56.1523C108.03 56.0375 108.105 55.9344 108.198 55.8489C108.291 55.7635 108.4 55.6974 108.519 55.6547C108.638 55.6119 108.764 55.5933 108.891 55.5999C109.3 55.5999 118.955 56.2718 124.135 58.8772C127.856 60.8109 136.609 69.9709 145.067 78.8361C148.477 82.4083 151.624 85.784 154.443 88.5369C163.852 97.9428 168.966 98.3688 179.162 99.3357C188.145 100.155 191.915 98.4508 192.554 98.1067C192.749 97.6581 192.834 97.1691 192.8 96.681C192.8 96.1403 192.8 94.8949 193.964 94.8949C194.372 94.9464 194.767 95.0743 195.128 95.2718C198.92 96.9053 202.938 97.955 207.044 98.3852C213.601 99.2209 218.519 93.9936 220.568 91.8306C220.932 91.3707 221.363 90.9675 221.846 90.6344C222.403 90.3722 223.485 89.8642 228.862 95.9109C239.549 95.7142 250.548 99.6306 257.924 102.629C266.464 106.12 300.428 130.159 301.838 136.844C302.215 138.631 303.477 143.235 305.001 149.069C309.771 166.897 313.673 181.842 313.197 184.939C313.036 187.42 313.108 189.911 313.41 192.379C313.755 196.737 314.148 201.67 313.165 204.996C312.312 208.011 308.296 208.929 303.854 208.929Z" fill="#263238"/>
<path d="M206.684 108.266C203.758 108.281 200.85 107.81 198.078 106.873C188.604 103.596 188.702 100.4 188.817 99.7941C188.856 99.5442 188.993 99.3201 189.197 99.1711C189.401 99.022 189.657 98.9603 189.907 98.9994C190.157 99.0385 190.381 99.1753 190.53 99.3796C190.679 99.584 190.741 99.8392 190.702 100.089C190.702 100.253 191.079 102.449 198.701 105.005C203.864 106.659 209.41 106.696 214.595 105.112C219.781 103.528 224.358 100.397 227.714 96.1399C227.791 96.0419 227.886 95.9602 227.995 95.8996C228.104 95.839 228.223 95.8007 228.347 95.787C228.471 95.7732 228.596 95.7843 228.715 95.8196C228.835 95.8549 228.946 95.9137 229.042 95.9924C229.237 96.1527 229.362 96.3831 229.39 96.6342C229.417 96.8854 229.345 97.1373 229.189 97.3361C226.5 100.731 223.081 103.476 219.184 105.369C215.288 107.261 211.015 108.251 206.684 108.266Z" fill="#263238"/>
<path d="M123.709 33.2155L6.31082 12.6504L114.841 16.4521L123.709 33.2155Z" fill="#E8E8E8"/>
<path d="M104.383 16.0756V10.75L6.31082 12.6508L104.383 16.0756Z" fill="#D9D9D9"/>
<path d="M110.743 10.6349L90.4825 0L6.31082 12.6504L110.743 10.6349Z" fill="#E8E8E8"/>
<path d="M99.6618 72.5929C99.5244 72.598 99.3877 72.5711 99.2625 72.5142C99.1373 72.4573 99.0271 72.372 98.9406 72.2651C98.7931 72.1013 84.3847 55.3706 80.0901 51.995C79.2049 51.3067 78.287 50.553 77.3363 49.7828C73.5114 46.3483 69.2378 43.4487 64.6327 41.1635C58.7316 38.6727 51.1914 26.5467 50.88 26.0223C50.8154 25.9147 50.7727 25.7954 50.7542 25.6713C50.7357 25.5472 50.7419 25.4207 50.7723 25.2989C50.8028 25.1772 50.8569 25.0627 50.9316 24.9619C51.0063 24.861 51.1002 24.7759 51.2078 24.7114C51.3154 24.6468 51.4347 24.6041 51.5589 24.5856C51.683 24.5671 51.8096 24.5733 51.9314 24.6037C52.0532 24.6342 52.1677 24.6883 52.2686 24.763C52.3694 24.8377 52.4546 24.9315 52.5192 25.0391C52.5192 25.1538 60.0594 37.1488 65.4195 39.4265C70.1075 41.4093 74.5989 45.0798 78.5329 48.308L81.2539 50.5038C85.7125 53.9941 99.7766 70.3315 100.383 71.0362C100.465 71.1293 100.527 71.2378 100.566 71.3553C100.605 71.4728 100.621 71.5969 100.612 71.7204C100.603 71.8439 100.569 71.9644 100.513 72.0748C100.457 72.1852 100.379 72.2833 100.285 72.3635C100.113 72.5149 99.8908 72.5968 99.6618 72.5929Z" fill="#263238"/>
<path d="M70.8943 23.826L8.83514 12.6504L73.1564 31.9865L70.8943 23.826Z" fill="#9E9E9E"/>
<path d="M82.6144 34.8214L105.678 41.7529L107.317 30.3642L79.9098 25.4482C79.9098 25.4482 80.5163 29.0041 80.8605 30.3642C81.3391 31.8895 81.9252 33.3789 82.6144 34.8214Z" fill="#9E9E9E"/>
<path d="M198.34 98.4667H198.078C197.957 98.4327 197.844 98.3752 197.746 98.2974C197.647 98.2196 197.565 98.123 197.504 98.0133C197.443 97.9036 197.405 97.783 197.391 97.6583C197.376 97.5336 197.387 97.4074 197.422 97.2869C197.422 97.2869 199.209 90.978 197.422 86.6356C197.359 86.5178 197.322 86.3882 197.312 86.255C197.303 86.1218 197.322 85.9882 197.367 85.8627C197.413 85.7373 197.485 85.6228 197.577 85.5269C197.67 85.4309 197.782 85.3556 197.906 85.3058C198.03 85.2561 198.163 85.2329 198.297 85.238C198.43 85.243 198.561 85.2761 198.681 85.3351C198.801 85.394 198.907 85.4776 198.992 85.5803C199.077 85.6829 199.14 85.8024 199.176 85.931C201.192 90.8469 199.291 97.5327 199.176 97.8112C199.118 97.9913 199.007 98.1498 198.858 98.2666C198.709 98.3834 198.529 98.453 198.34 98.4667Z" fill="#263238"/>
<path d="M219.518 95.1566C219.368 95.1566 219.219 95.121 219.086 95.0526C218.952 94.9843 218.836 94.8851 218.748 94.7633C216.158 91.1911 211.83 84.9314 211.994 83.178C212.023 82.9302 212.147 82.7032 212.339 82.5444C212.532 82.3856 212.778 82.3073 213.027 82.3259C213.276 82.3548 213.505 82.4777 213.666 82.6696C213.828 82.8616 213.91 83.1079 213.896 83.3583C213.896 84.3579 217.174 89.4869 220.289 93.649C220.362 93.7502 220.414 93.8647 220.443 93.9862C220.472 94.1076 220.477 94.2336 220.457 94.3568C220.437 94.4801 220.393 94.5982 220.328 94.7045C220.262 94.8108 220.177 94.9032 220.075 94.9763C219.912 95.0916 219.718 95.1545 219.518 95.1566Z" fill="#263238"/>
<path d="M325.589 242.767C325.363 242.763 325.138 242.735 324.917 242.685C322.294 242.112 312.033 231.608 310.164 229.051C308.72 227.226 306.875 225.757 304.772 224.758C303.727 226.207 303.072 227.9 302.87 229.674C302.673 232.099 302.296 234.475 300.887 235.442C300.549 235.665 300.165 235.805 299.764 235.854C299.363 235.902 298.956 235.857 298.575 235.721C295.658 234.836 296.1 232.132 296.723 228.396L296.936 227.069C297.586 224.144 298.692 221.341 300.215 218.761C300.477 218.269 300.756 217.728 300.903 217.401C300.149 216.139 297.067 211.059 294.953 207.569C294.824 207.353 294.784 207.095 294.843 206.85C294.901 206.605 295.052 206.393 295.264 206.258C295.371 206.192 295.489 206.148 295.613 206.127C295.737 206.107 295.863 206.112 295.985 206.141C296.107 206.17 296.222 206.223 296.323 206.296C296.424 206.37 296.51 206.462 296.576 206.569C297.576 208.208 302.526 216.286 302.755 216.762C302.985 217.237 302.755 217.892 301.887 219.58C300.469 221.983 299.435 224.593 298.821 227.314L298.592 228.642C297.953 232.542 297.92 233.476 299.116 233.836C299.575 233.984 299.739 233.836 299.821 233.836C300.674 233.263 300.903 230.428 300.985 229.494C301.159 227.038 302.185 224.72 303.886 222.939C304.057 222.822 304.251 222.744 304.455 222.71C304.659 222.676 304.868 222.687 305.067 222.743C307.64 223.866 309.893 225.612 311.623 227.822C314.148 231.1 323.72 240.407 325.31 240.751C325.491 240.751 325.802 240.833 325.884 240.669C325.966 240.506 325.884 239.195 324.474 237.867C322.589 236.229 316.377 228.035 316.918 226.151C316.975 225.946 317.088 225.76 317.244 225.616C317.4 225.471 317.594 225.373 317.803 225.332C318.688 225.151 319.573 225.79 324.638 230.248C327.245 232.558 331.195 236.032 332.179 236.229C332.558 236.304 332.941 236.358 333.326 236.393C333.12 236.028 332.89 235.678 332.638 235.344C331.851 234.246 330.294 232.542 328.785 230.887C326.943 229.029 325.27 227.011 323.786 224.856C323.67 224.635 323.646 224.376 323.72 224.137C323.793 223.897 323.959 223.697 324.179 223.578C324.402 223.46 324.662 223.433 324.903 223.504C325.145 223.574 325.35 223.736 325.474 223.955C326.886 225.964 328.459 227.855 330.179 229.609C331.818 231.378 333.326 233.05 334.178 234.23C335.031 235.409 335.818 236.638 335.146 237.507C334.473 238.375 333.146 238.293 331.867 238.015C330.589 237.736 327.753 235.409 323.442 231.608C322.294 230.592 320.917 229.363 319.803 228.445C321.499 231.31 323.512 233.976 325.802 236.393C327.622 238.031 328.359 240.063 327.638 241.456C327.467 241.855 327.181 242.193 326.815 242.427C326.45 242.66 326.023 242.779 325.589 242.767Z" fill="#263238"/>
<path d="M335.195 234.836C333.852 234.763 332.542 234.394 331.359 233.754C331.174 233.615 331.045 233.414 330.998 233.187C330.951 232.96 330.988 232.724 331.103 232.523C331.218 232.321 331.402 232.169 331.621 232.094C331.841 232.019 332.08 232.027 332.294 232.115C333.288 232.689 334.425 232.967 335.572 232.918L335.654 232.82C335.654 232.82 335.654 232.263 333.834 230.608C330.887 227.516 328.149 224.232 325.639 220.776C325.504 220.587 325.431 220.361 325.431 220.129C325.431 219.897 325.504 219.67 325.639 219.481C326.77 218.105 336.441 222.628 336.539 222.759C336.604 222.772 336.671 222.772 336.736 222.759C336.736 222.759 336.736 221.989 335.523 220.973C334.015 219.744 325.573 216.647 312.919 212.681L312.689 212.599C310.001 211.763 308.87 207.945 308.755 207.519C308.718 207.289 308.768 207.053 308.893 206.856C309.019 206.66 309.213 206.517 309.438 206.454C309.663 206.391 309.903 206.413 310.113 206.516C310.322 206.619 310.487 206.795 310.575 207.011C310.837 207.896 311.804 210.289 313.246 210.797H313.476C322.852 213.746 334.506 217.63 336.719 219.432C338.932 221.235 338.883 222.841 338.359 223.758C338.081 224.166 337.66 224.453 337.18 224.562C336.699 224.672 336.195 224.595 335.769 224.348C334.785 223.857 331.146 222.415 328.72 221.579C330.74 224.257 332.93 226.802 335.277 229.199C336.998 230.837 337.719 231.935 337.686 232.918C337.664 233.219 337.577 233.512 337.429 233.775C337.282 234.038 337.079 234.266 336.834 234.442C336.355 234.772 335.771 234.912 335.195 234.836Z" fill="#263238"/>
<path d="M184.801 16.092C184.801 16.092 173.064 19.1071 171.491 25.5306C169.917 31.9542 171.491 38.6399 176.556 37.968C181.621 37.2962 188.259 32.9046 192.685 33.2159C197.111 33.5273 196.177 35.1987 194.587 38.0008C192.997 40.8029 195.849 45.555 203.766 43.3428C211.683 41.1306 211.962 37.0176 217.683 38.5907C223.403 40.1638 218.191 53.142 219.518 54.9773C220.846 56.8126 221.158 59.4016 224.141 54.9773C227.124 50.5529 231.616 44.539 236.353 46.1285C241.09 47.718 231.927 56.8781 227.19 58.779L222.436 60.6798C222.436 60.6798 220.535 73.9529 217.683 75.8537C217.683 75.8537 236.681 73.3302 243.909 66.6773C251.138 60.0243 244.86 60.1227 246.122 56.5668C247.384 53.0109 254.662 52.8306 254.662 48.521C254.662 44.2113 253.712 44.8504 247.073 41.6878C240.434 38.5252 242.319 36.9521 243.27 35.3626C244.221 33.7731 245.172 30.9382 239.795 29.3487C234.419 27.7592 221.764 23.9739 224.092 20.5C226.419 17.026 227.632 10.0617 219.469 10.668C211.306 11.2743 203.504 16.5836 198.865 16.01C194.226 15.4365 189.948 14.2075 184.801 16.092Z" fill="#263238"/>
<path d="M200.291 87.619H200.061L197.93 87.1438C192.406 85.9312 180.916 83.424 174.785 79.0816C167.294 73.7724 168.655 60.5648 169.999 56.3535C171.343 52.1421 174.376 37.9022 174.408 37.6892C174.433 37.5641 174.484 37.4455 174.557 37.3411C174.631 37.2367 174.725 37.1488 174.834 37.0829C174.939 37.0126 175.058 36.9659 175.182 36.9461C175.307 36.9263 175.434 36.9338 175.556 36.9682C175.747 36.9857 175.939 36.9857 176.129 36.9682C176.227 36.9183 176.332 36.8851 176.441 36.8699C178.93 36.389 181.352 35.6077 183.653 34.543C186.932 33.1993 190.112 31.9211 192.751 32.1178C194.21 32.2325 196.029 32.4946 196.619 33.7564C197.209 35.0182 196.472 36.493 195.423 38.3446C195.186 38.8002 195.09 39.3153 195.145 39.8255C195.2 40.3356 195.405 40.8181 195.734 41.2123C197.045 42.8509 199.963 43.3262 203.504 42.3266C205.906 41.657 208.178 40.5878 210.224 39.164C212.486 37.7056 214.257 36.5585 217.945 37.5253C222.502 38.8035 221.453 45.3089 220.699 50.0774C220.367 51.4831 220.235 52.9283 220.305 54.3707C220.551 54.7148 220.764 55.0917 220.977 55.4522C221.144 55.807 221.365 56.1333 221.633 56.419C222.274 55.8111 222.825 55.116 223.272 54.3543C225.944 50.4707 230.911 43.2442 236.582 45.1451C237.137 45.2882 237.63 45.6093 237.985 46.0592C238.341 46.509 238.539 47.0628 238.549 47.6358C238.664 51.3883 231.615 57.9102 227.452 59.5652L223.157 61.2858C222.584 63.5799 220.125 73.1825 218.437 76.2304L218.109 76.853C217.06 78.9178 214.83 83.2438 210.618 85.4724C210.396 85.5884 210.137 85.6122 209.897 85.5386C209.658 85.4649 209.457 85.2998 209.339 85.0791C209.222 84.8548 209.198 84.5936 209.272 84.3516C209.345 84.1096 209.511 83.906 209.733 83.7846C213.437 81.8346 215.453 77.8854 216.42 75.9846L216.781 75.3127C218.518 72.1337 221.403 60.5648 221.436 60.3682C221.47 60.2223 221.538 60.0866 221.635 59.9725C221.732 59.8584 221.855 59.7693 221.994 59.7127L226.747 57.8119C230.403 56.3535 236.73 50.2577 236.582 47.685C236.582 47.4392 236.582 47.1442 235.91 46.9312C232.124 45.6694 228.321 50.2085 224.78 55.4358C223.321 57.5497 222.305 58.3362 221.321 58.3035C220.338 58.2707 219.682 57.2711 219.174 56.3862C218.994 56.0749 218.814 55.7472 218.6 55.4358C217.945 54.5182 218.174 52.8631 218.6 49.7661C219.256 45.7186 220.141 40.1799 217.224 39.3606C214.306 38.5413 213.191 39.3606 211.044 40.7043C208.917 42.2643 206.547 43.4605 204.028 44.2438C197.816 45.9808 195.111 43.5883 194.193 42.4741C193.636 41.7937 193.293 40.9634 193.209 40.0882C193.124 39.2131 193.301 38.3325 193.718 37.5581C194.291 36.5257 195.078 35.1329 194.882 34.7724C194.882 34.7724 194.587 34.3299 192.57 34.1825C190.554 34.035 187.292 35.264 184.374 36.4766C181.969 37.5583 179.451 38.3716 176.867 38.9018C176.615 38.9946 176.348 39.0391 176.08 39.0329C175.375 42.3102 172.949 53.3547 171.802 56.927C170.655 60.4993 169.343 72.8875 175.884 77.5413C181.686 81.6543 192.931 84.0959 198.324 85.2921L200.504 85.7673C200.626 85.7962 200.74 85.8488 200.842 85.9221C200.943 85.9954 201.029 86.088 201.095 86.1946C201.16 86.3012 201.204 86.4196 201.223 86.5431C201.243 86.6666 201.238 86.7928 201.209 86.9144C201.157 87.1179 201.039 87.298 200.872 87.4259C200.706 87.5537 200.501 87.6217 200.291 87.619Z" fill="#263238"/>
<path d="M172.392 51.9294C172.237 51.9322 172.084 51.8925 171.95 51.8147C169.784 50.5567 167.894 48.8752 166.393 46.8705C164.892 44.8659 163.81 42.5793 163.213 40.1475C162.721 38.7306 162.721 37.1892 163.213 35.7723C163.465 35.4044 163.815 35.1143 164.224 34.9348C164.632 34.7553 165.082 34.6934 165.524 34.7563C167.163 34.9038 169.294 36.395 170.802 39.9181C171.655 42.127 172.755 44.2324 174.081 46.1941C174.235 46.394 174.303 46.647 174.271 46.8975C174.239 47.148 174.108 47.3753 173.908 47.5296C173.708 47.6839 173.455 47.7525 173.205 47.7202C172.954 47.6879 172.727 47.5575 172.573 47.3576C171.114 45.2796 169.909 43.0352 168.983 40.6718C167.704 37.6403 166.049 36.7063 165.262 36.6408C164.885 36.6408 164.754 36.7718 164.721 36.821C164.18 38.0172 166.098 46.6529 172.786 50.1433C172.971 50.2435 173.118 50.4025 173.203 50.5951C173.288 50.7877 173.306 51.0032 173.256 51.2076C173.205 51.412 173.088 51.5938 172.923 51.7244C172.758 51.8551 172.554 51.9272 172.343 51.9294H172.392Z" fill="#263238"/>
<path d="M211.093 49.3074H210.601C210.193 49.236 209.816 49.0404 209.523 48.7471C209.229 48.4539 209.034 48.0773 208.962 47.6687C208.7 46.5544 206.34 44.9649 204.733 44.1948C204.62 44.1405 204.518 44.0643 204.434 43.9704C204.35 43.8766 204.286 43.7671 204.245 43.6482C204.204 43.5293 204.186 43.4034 204.194 43.2778C204.202 43.1522 204.235 43.0295 204.291 42.9166C204.343 42.8037 204.418 42.7024 204.51 42.6187C204.603 42.5351 204.711 42.4708 204.828 42.4295C204.946 42.3883 205.071 42.371 205.195 42.3787C205.319 42.3864 205.441 42.4188 205.553 42.4742C206.34 42.8511 210.257 44.8666 210.814 47.2427C210.814 47.3902 210.814 47.3902 210.946 47.4065C211.153 47.4132 211.358 47.3689 211.544 47.2775C211.73 47.186 211.89 47.0503 212.011 46.8822C212.116 46.7275 212.172 46.5448 212.172 46.3578C212.172 46.1708 212.116 45.9882 212.011 45.8334C210.765 43.5229 209.913 42.2284 208.864 41.9498C208.735 41.9264 208.613 41.8766 208.505 41.8038C208.396 41.731 208.304 41.6365 208.233 41.5265C208.163 41.4164 208.116 41.293 208.096 41.164C208.075 41.0349 208.082 40.9031 208.114 40.7766C208.147 40.6502 208.206 40.5318 208.286 40.429C208.367 40.3261 208.468 40.241 208.582 40.1788C208.697 40.1167 208.824 40.0789 208.954 40.0679C209.084 40.0568 209.215 40.0727 209.339 40.1145C211.241 40.6061 212.388 42.507 213.683 44.9486C213.958 45.4252 214.084 45.9727 214.046 46.5213C214.008 47.07 213.807 47.5949 213.47 48.0292C213.193 48.4052 212.837 48.7149 212.426 48.9359C212.014 49.157 211.559 49.2839 211.093 49.3074Z" fill="#263238"/>
<path d="M177.031 42.7037C176.928 42.7195 176.823 42.7195 176.719 42.7037C176.229 42.596 175.774 42.3627 175.401 42.0266C175.027 41.6905 174.747 41.2632 174.588 40.7865C174.513 40.3083 174.544 39.8192 174.68 39.3546C174.816 38.8899 175.054 38.4611 175.375 38.0991C175.556 37.9249 175.797 37.8275 176.047 37.8275C176.298 37.8275 176.539 37.9249 176.719 38.0991C176.893 38.2766 176.99 38.5148 176.99 38.7628C176.99 39.0107 176.893 39.2489 176.719 39.4264C176.555 39.6231 176.277 40.0983 176.359 40.3604C176.441 40.6226 176.605 40.6882 176.916 40.8357C178.662 40.0387 180.541 39.572 182.457 39.4592C182.737 39.4485 183.007 39.3514 183.23 39.1813C183.453 39.0112 183.618 38.7763 183.702 38.5088C183.949 37.9459 183.995 37.3155 183.833 36.7226C183.618 36.7553 183.398 36.7128 183.21 36.6025C183.022 36.4921 182.877 36.3205 182.801 36.1163C182.714 35.89 182.718 35.6386 182.813 35.4154C182.907 35.1921 183.085 35.0145 183.309 34.9201C183.607 34.7946 183.936 34.7603 184.254 34.8216C184.572 34.8828 184.865 35.0369 185.096 35.2642C185.501 35.8113 185.753 36.4568 185.825 37.1339C185.897 37.8109 185.787 38.495 185.505 39.1151C185.297 39.7458 184.901 40.2982 184.371 40.6991C183.842 41.1 183.202 41.3305 182.538 41.36C180.757 41.4663 179.013 41.9229 177.408 42.7037C177.284 42.7319 177.155 42.7319 177.031 42.7037Z" fill="#263238"/>
<path d="M179.408 48.3564C178.45 47.9607 177.463 47.6375 176.457 47.3896C176.02 47.2728 175.577 47.1798 175.129 47.111C174.621 47.0127 174.08 46.9635 173.375 46.7669C173.748 46.1829 174.296 45.7319 174.941 45.4787C175.586 45.2255 176.295 45.1832 176.965 45.3576C177.654 45.5036 178.271 45.8806 178.716 46.4262C179.16 46.9717 179.404 47.6529 179.408 48.3564Z" fill="#263238"/>
<path d="M196.701 50.9785C197.293 50.1799 198.136 49.6029 199.094 49.3398C200.06 49.0612 201.079 49.0274 202.061 49.2415C203.03 49.4647 203.93 49.9203 204.684 50.5688C205.441 51.1925 206.009 52.0155 206.323 52.9448C205.389 52.6171 204.684 52.2402 203.864 51.9616C203.142 51.6728 202.396 51.448 201.635 51.2898C200.883 51.1039 200.114 50.9941 199.34 50.9621C198.455 50.9621 197.619 50.9621 196.701 50.9785Z" fill="#263238"/>
<path d="M184.948 62.2687H184.768C183.086 61.931 181.44 61.4373 179.85 60.7939C179.557 60.6676 179.295 60.4768 179.085 60.2357C178.875 59.9946 178.722 59.7093 178.637 59.401C178.485 58.2442 178.778 57.0729 179.457 56.1237L184.145 46.8981L184.309 46.6687C184.619 46.3042 185.011 46.0179 185.452 45.8328C185.893 45.6478 186.372 45.5693 186.85 45.6035C187.357 45.7079 187.837 45.918 188.258 46.2201C188.678 46.5222 189.031 46.9095 189.292 47.3569C189.395 47.5473 189.435 47.7651 189.407 47.9796C189.407 47.9796 188.341 54.9603 188.227 57.8115C188.274 58.7785 188.008 59.7348 187.467 60.5381C186.926 61.3413 186.141 61.9483 185.227 62.2687H184.948ZM185.719 47.8485L181.047 57.0414C180.644 57.5685 180.425 58.2132 180.424 58.8767C180.424 58.8767 180.424 58.9914 180.604 59.0569C181.98 59.62 183.408 60.048 184.866 60.3351C185.326 60.0775 185.704 59.694 185.953 59.2296C186.203 58.7651 186.315 58.2391 186.276 57.7132C186.391 55.0914 187.194 49.5199 187.423 48.0288C187.21 47.7451 186.911 47.5381 186.571 47.4388C186.407 47.4467 186.247 47.4887 186.1 47.562C185.953 47.6354 185.823 47.7385 185.719 47.8649V47.8485Z" fill="#263238"/>
<path d="M173.376 50.9292C173.745 50.8087 174.136 50.7669 174.523 50.8064C174.909 50.8459 175.284 50.9659 175.621 51.1586C176.664 51.7317 177.496 52.6224 177.997 53.701C178.498 54.7797 178.642 55.9901 178.408 57.1561C177.883 58.4998 176.179 56.9759 173.72 56.0091C172.917 55.6977 172.835 56.0091 172.081 55.7469L173.376 50.9292Z" fill="#263238"/>
<path d="M192.8 60.0892C192.521 61.7279 195.553 61.3346 199.11 61.9082C202.667 62.4817 205.372 63.8745 205.667 62.1703C205.962 60.4661 203.667 56.2712 200.127 55.6977C196.586 55.1241 193.078 58.385 192.8 60.0892Z" fill="#263238"/>
<path d="M183.932 69.4298C186.079 68.7744 187.898 68.4466 189.636 67.9059C190.508 67.6563 191.362 67.3498 192.193 66.9882C193.062 66.6441 193.832 66.1525 194.914 65.6445C194.696 66.7727 194.122 67.801 193.275 68.5777C192.431 69.3441 191.421 69.9049 190.324 70.2164C189.261 70.5241 188.147 70.6188 187.046 70.495C185.934 70.4104 184.862 70.0438 183.932 69.4298Z" fill="#263238"/>
<path d="M225.6 148.708C225.6 157.786 221.797 165.094 208.175 165.094C198.569 165.094 192.783 157.753 192.783 148.708C192.783 139.662 196.652 132.321 208.175 132.321C219.698 132.321 225.6 139.646 225.6 148.708Z" fill="#E8E8E8"/>
<path d="M206.536 150.757H206.225C205.7 150.757 204.7 150.757 204.405 149.856C204.11 148.954 204.782 148.528 205.241 148.217C205.474 148.031 205.688 147.822 205.88 147.594L205.733 147.496C204.503 146.644 196.275 146.906 189.03 147.66C188.906 147.676 188.78 147.667 188.659 147.633C188.539 147.599 188.426 147.542 188.328 147.464C188.23 147.386 188.149 147.289 188.089 147.179C188.03 147.069 187.993 146.949 187.981 146.824C187.958 146.573 188.034 146.322 188.193 146.126C188.352 145.93 188.582 145.804 188.833 145.775C191.406 145.513 204.389 144.252 206.864 145.939C207.15 146.11 207.388 146.349 207.557 146.635C207.726 146.922 207.82 147.246 207.831 147.578C207.838 147.837 207.794 148.095 207.701 148.337C207.608 148.578 207.469 148.8 207.29 148.987C208.077 148.987 209.159 148.807 210.405 148.66C215.896 148.004 225.157 146.906 233.189 149.053C233.426 149.124 233.626 149.284 233.746 149.5C233.866 149.716 233.898 149.97 233.834 150.209C233.77 150.448 233.616 150.652 233.403 150.779C233.191 150.906 232.938 150.945 232.697 150.888C224.944 148.84 215.994 149.905 210.634 150.544C208.765 150.577 207.405 150.757 206.536 150.757Z" fill="#263238"/>
<path d="M74.0251 39.8517C73.8398 39.853 73.6582 39.7992 73.5035 39.6971C73.3488 39.5949 73.2279 39.4491 73.1564 39.2781C72.4605 36.9569 72.1395 34.5395 72.2057 32.1172L69.96 24.2189C69.9203 24.0642 69.9195 23.902 69.9578 23.7469C69.9961 23.5918 70.0722 23.4486 70.1794 23.3301C70.2865 23.2116 70.4214 23.1215 70.5719 23.0679C70.7224 23.0142 70.8839 22.9987 71.0418 23.0227L78.9755 24.4155C79.3689 24.4155 81.2703 25.0382 81.6145 29.3315C81.7721 31.1508 82.3928 32.8996 83.4176 34.4113C83.4848 34.5168 83.5297 34.6349 83.5496 34.7584C83.5694 34.8819 83.5638 35.0081 83.5331 35.1293C83.5024 35.2505 83.4473 35.3642 83.371 35.4634C83.2948 35.5625 83.1991 35.645 83.0898 35.7059C82.9836 35.7707 82.8655 35.8137 82.7425 35.8323C82.6195 35.8509 82.494 35.8448 82.3734 35.8143C82.2527 35.7838 82.1394 35.7295 82.0401 35.6546C81.9407 35.5797 81.8574 35.4857 81.7948 35.3781C80.616 33.6253 79.905 31.6002 79.7295 29.4954C79.5 26.6605 78.5821 26.218 78.5657 26.218L72.2057 25.1038L74.0743 31.6584C74.0822 31.7511 74.0822 31.8443 74.0743 31.937C74.0011 34.1491 74.2664 36.3595 74.8611 38.4916C74.9601 38.722 74.964 38.9822 74.8718 39.2155C74.7797 39.4488 74.5991 39.6362 74.3694 39.737C74.2624 39.7955 74.1458 39.8344 74.0251 39.8517Z" fill="#263238"/>
<path d="M108.841 57.5655C108.668 57.5729 108.496 57.5272 108.349 57.4344C106.186 56.1563 87.1384 44.7185 84.5813 39.9991C84.4964 39.8522 84.4517 39.6854 84.4517 39.5157C84.4517 39.346 84.4964 39.1793 84.5813 39.0323C85.1121 38.0734 85.4308 37.0116 85.5156 35.9189C85.5264 35.7941 85.5616 35.6726 85.6193 35.5614C85.677 35.4502 85.7561 35.3515 85.852 35.2708C85.9479 35.1902 86.0587 35.1292 86.1782 35.0914C86.2977 35.0536 86.4234 35.0396 86.5483 35.0504C86.6731 35.0612 86.7946 35.0964 86.9059 35.1541C87.0171 35.2118 87.1159 35.2908 87.1965 35.3867C87.2772 35.4826 87.3382 35.5934 87.376 35.7128C87.4139 35.8322 87.4278 35.9579 87.417 36.0828C87.3044 37.2695 86.9884 38.428 86.4827 39.5075C89.2693 43.3912 103.743 52.5021 109.284 55.8941C109.393 55.9549 109.489 56.0375 109.565 56.1366C109.641 56.2358 109.696 56.3494 109.727 56.4707C109.758 56.5919 109.763 56.7181 109.743 56.8416C109.724 56.965 109.679 57.0832 109.611 57.1886C109.522 57.3074 109.405 57.4034 109.271 57.4689C109.137 57.5343 108.99 57.5675 108.841 57.5655Z" fill="#263238"/>
<path d="M205.258 382.429C205.258 382.429 204.356 368.566 203.618 367.895C202.881 367.223 193.455 368.501 191.521 367.534C189.587 366.567 188.522 371.86 187.276 372.45C186.03 373.04 183.407 370.516 185.194 367.223C186.981 363.929 179.637 358.013 177.801 358.161C175.965 358.308 164.262 363.077 155.213 363.634C146.165 364.191 138.969 362.487 136.478 363.798C133.986 365.109 131.675 366.584 135.15 370.582C138.625 374.58 146.624 382.495 157.246 382.593C167.868 382.692 170.359 380.955 171.671 379.414C172.982 377.874 174.949 375.072 176.375 377.939C177.801 380.807 177.834 384.691 180.309 385.428C182.784 386.166 199.734 390.098 205.258 382.429Z" fill="#263238"/>
<path d="M189.423 396.555C186.941 396.574 184.466 396.305 182.047 395.752C178.635 394.803 175.495 393.063 172.884 390.672C172.261 390.164 171.638 389.656 171.015 389.197C169.835 388.329 166.983 388.64 163.704 389.001C159.36 389.645 154.948 389.689 150.591 389.132C142.412 387.519 134.953 383.36 129.282 377.251C126.249 373.499 127.495 370.205 129.02 367.141C129.373 366.194 130.041 365.397 130.913 364.883C131.784 364.37 132.806 364.172 133.806 364.322C134.024 364.403 134.206 364.561 134.315 364.766C134.425 364.972 134.456 365.21 134.401 365.437C134.346 365.663 134.211 365.862 134.019 365.995C133.828 366.127 133.595 366.185 133.363 366.158C133.199 366.158 131.724 365.895 130.708 367.993C129.315 370.795 128.429 373.171 130.708 376.055C136.106 381.796 143.159 385.714 150.886 387.264C155.07 387.779 159.304 387.73 163.475 387.116C167.294 386.69 170.327 386.362 172.097 387.673C172.753 388.148 173.392 388.673 174.048 389.197C176.442 391.415 179.33 393.033 182.473 393.917C187.62 395.195 196.029 394.932 201.176 392.278C205.946 389.82 206.716 387.526 204.454 382.856C204.409 382.65 204.433 382.436 204.523 382.245C204.613 382.055 204.763 381.9 204.951 381.804C205.138 381.709 205.352 381.678 205.559 381.717C205.766 381.756 205.954 381.863 206.094 382.02C208.88 387.591 207.733 391.049 202.061 393.949C198.101 395.766 193.779 396.657 189.423 396.555Z" fill="#263238"/>
<path d="M181.211 364.699C181.036 364.7 180.864 364.651 180.716 364.559C180.568 364.466 180.45 364.332 180.375 364.175C180.318 364.067 180.283 363.949 180.272 363.828C180.261 363.707 180.275 363.586 180.311 363.47C180.348 363.354 180.407 363.246 180.485 363.154C180.564 363.061 180.66 362.985 180.768 362.929C180.899 362.831 185.178 359.914 189.849 340.709C189.865 340.576 189.909 340.448 189.978 340.333C190.048 340.218 190.14 340.119 190.251 340.042C190.361 339.965 190.486 339.913 190.618 339.888C190.75 339.864 190.885 339.867 191.016 339.899C191.146 339.93 191.269 339.989 191.375 340.071C191.481 340.153 191.569 340.257 191.632 340.375C191.695 340.493 191.732 340.624 191.742 340.757C191.751 340.891 191.732 341.026 191.685 341.151C186.768 361.536 182.145 364.355 181.637 364.601C181.504 364.666 181.359 364.7 181.211 364.699Z" fill="#263238"/>
<path d="M200.471 371.32C200.232 371.32 200.001 371.229 199.827 371.064C199.653 370.899 199.549 370.674 199.537 370.435C199.078 363.291 208.519 343.496 208.929 342.66C209.068 342.505 209.254 342.401 209.459 342.362C209.663 342.324 209.875 342.353 210.061 342.446C210.247 342.539 210.397 342.69 210.489 342.877C210.58 343.064 210.608 343.275 210.568 343.479C210.47 343.676 200.946 363.667 201.356 370.304C201.365 370.429 201.349 370.554 201.31 370.673C201.27 370.792 201.207 370.901 201.125 370.996C201.043 371.09 200.942 371.167 200.83 371.223C200.718 371.279 200.596 371.312 200.471 371.32Z" fill="#263238"/>
<path d="M207.88 344.117C201.651 344.117 190.456 340.84 185.096 337.678C179.49 334.4 181.195 322.307 182.686 311.623C182.866 310.312 183.047 309.017 183.211 307.788C183.866 302.709 183.702 292.942 183.522 283.487C183.325 272.328 183.145 261.775 184.178 257.4C186.079 249.207 202.553 219.055 203.258 217.777C203.314 217.666 203.393 217.568 203.489 217.488C203.585 217.408 203.696 217.349 203.816 217.314C203.936 217.278 204.061 217.268 204.185 217.283C204.309 217.298 204.428 217.338 204.536 217.4C204.646 217.459 204.743 217.538 204.821 217.634C204.899 217.73 204.958 217.841 204.993 217.96C205.028 218.079 205.039 218.204 205.025 218.327C205.012 218.451 204.974 218.57 204.913 218.678C204.749 218.99 187.866 249.977 186.014 257.826C185.047 261.972 185.243 272.901 185.424 283.454C185.588 292.975 185.768 302.823 185.096 308.034C184.932 309.28 184.752 310.574 184.555 311.885C183.227 321.471 181.555 333.417 186.046 336.039C191.636 339.316 204.766 342.97 209.601 342.086C211.978 341.66 220.043 339.333 224.551 327.502C228.222 317.883 229.239 286.06 229.239 282.75C228.6 280.822 227.69 278.996 226.534 277.326C224.256 273.491 223.256 271.607 224.174 270.542C225.092 269.477 226.288 270.28 226.78 270.542C228.84 271.576 230.762 272.864 232.501 274.376L233.615 275.245C233.615 275.245 233.615 275.065 233.615 274.966C233.206 273.475 232.747 272.148 232.37 271.083C231.583 268.772 231.14 267.494 231.878 266.642C232.123 266.405 232.427 266.238 232.759 266.16C233.091 266.082 233.438 266.096 233.763 266.199C236.254 266.691 237.615 266.511 238.68 265.511C239.959 264.135 262.465 227.822 264.055 219.957C265.858 211.239 265.694 201.538 263.711 198.359C261.383 194.639 258.564 190.87 258.531 190.838C258.381 190.635 258.318 190.382 258.355 190.133C258.392 189.885 258.526 189.661 258.728 189.51C258.826 189.433 258.939 189.377 259.059 189.344C259.18 189.311 259.306 189.303 259.429 189.32C259.553 189.337 259.672 189.378 259.78 189.442C259.887 189.506 259.981 189.59 260.055 189.691C260.055 189.691 262.957 193.558 265.317 197.343C267.923 201.522 267.579 212.304 265.923 220.284C264.268 228.265 241.287 265.462 239.877 266.871C238.041 268.707 235.664 268.51 233.32 268.084C233.514 268.896 233.76 269.696 234.058 270.476C234.435 271.574 234.91 272.934 235.336 274.491C235.664 275.72 235.91 276.965 235.041 277.523C234.173 278.08 233.091 277.342 231.271 275.884C229.65 274.473 227.861 273.268 225.944 272.295H225.846C226.514 273.736 227.275 275.132 228.124 276.474C229.96 279.587 231.091 281.57 231.091 282.865C231.091 283.192 230.353 317.604 226.288 328.288C221.371 341.053 212.519 343.593 209.896 344.068C209.227 344.146 208.552 344.162 207.88 344.117Z" fill="#263238"/>
<path d="M294.101 314.212C293.265 314.212 292.462 314.212 291.822 314.114C287.888 313.819 274.217 309.329 262.153 305.38C254.908 303.004 248.073 300.759 244.663 299.857C238.742 298.134 233.454 294.716 229.452 290.026C229.357 289.931 229.283 289.818 229.235 289.693C229.187 289.568 229.166 289.434 229.173 289.3C229.18 289.167 229.215 289.036 229.277 288.917C229.338 288.798 229.424 288.693 229.528 288.61C229.633 288.526 229.754 288.465 229.883 288.432C230.013 288.398 230.148 288.392 230.28 288.415C230.412 288.437 230.538 288.487 230.65 288.561C230.761 288.635 230.856 288.732 230.927 288.846C234.7 293.184 239.629 296.36 245.139 298.006C248.614 298.923 255.482 301.168 262.743 303.561C274.119 307.281 288.265 311.934 291.97 312.213C297.51 312.639 306.903 311.459 310.001 306.478C313.099 301.496 313.59 289.354 312.738 286.371L312.623 285.962C311.607 282.373 309.23 273.934 301.477 271.361C291.773 268.084 274.84 263.479 273.037 263.791C272.66 263.791 272.251 264.807 272.005 265.347C271.628 266.199 271.234 267.068 270.365 267.084C269.497 267.101 268.923 266.085 268.726 265.659C268.382 264.97 268.038 264.168 267.694 263.332C267.169 262.07 266.054 259.448 265.448 259.301C264.666 260.021 263.958 260.817 263.333 261.677C261.825 263.61 260.809 264.954 259.662 264.479C258.514 264.004 258.645 262.84 258.645 262.381C258.679 261.234 258.821 260.093 259.072 258.973C259.596 256.318 259.612 255.401 257.842 254.729C253.646 253.09 252.712 246.192 252.712 243.652C252.712 243.4 252.812 243.158 252.99 242.98C253.168 242.801 253.41 242.701 253.662 242.701C253.914 242.701 254.156 242.801 254.335 242.98C254.513 243.158 254.613 243.4 254.613 243.652C254.613 245.29 255.285 251.747 258.514 252.959C261.743 254.172 261.399 256.941 260.94 259.334C260.765 260.275 260.661 261.228 260.629 262.185C261.039 261.726 261.53 261.087 261.907 260.546C262.604 259.56 263.413 258.659 264.317 257.859C264.545 257.679 264.812 257.554 265.095 257.491C265.379 257.429 265.673 257.431 265.956 257.498C267.464 257.908 268.382 260.104 269.448 262.627C269.743 263.332 270.038 264.036 270.316 264.643C270.759 263.66 271.365 262.332 272.644 262.005C275.07 261.415 295.74 267.494 302.149 269.624C310.837 272.525 313.509 281.963 314.508 285.519L314.623 285.913C315.607 289.321 315.246 301.939 311.673 307.559C308.28 312.852 299.674 314.212 294.101 314.212Z" fill="#263238"/>
<path d="M420.793 376.219C420.46 376.243 420.126 376.243 419.793 376.219C419.543 376.182 419.318 376.048 419.167 375.845C419.016 375.642 418.953 375.388 418.99 375.138C419.027 374.888 419.161 374.663 419.364 374.512C419.567 374.362 419.821 374.298 420.071 374.335C420.203 374.335 431.546 375.711 441.528 356.605C450.134 340.218 450.544 335.302 450.413 334.057C450.101 334.286 449.691 334.663 449.314 335.007C448.342 336.001 447.198 336.812 445.938 337.4C444.053 338.153 423.71 355.425 419.547 373.614C419.52 373.735 419.469 373.849 419.397 373.951C419.326 374.052 419.234 374.138 419.129 374.203C419.024 374.269 418.907 374.313 418.784 374.333C418.662 374.352 418.536 374.348 418.416 374.318C418.293 374.293 418.177 374.244 418.074 374.173C417.971 374.102 417.883 374.011 417.816 373.906C417.749 373.8 417.703 373.682 417.682 373.559C417.662 373.436 417.666 373.309 417.695 373.188C422.055 354.147 443.004 336.531 445.233 335.63C446.277 335.135 447.222 334.451 448.019 333.614C448.656 332.856 449.49 332.289 450.429 331.976C450.699 331.917 450.981 331.941 451.238 332.043C451.494 332.145 451.715 332.321 451.871 332.549C454.134 335.564 447.413 349.444 443.2 357.44C434.103 374.745 423.973 376.219 420.793 376.219Z" fill="#263238"/>
<path d="M422.235 373.991C422.097 373.989 421.961 373.958 421.837 373.898C421.712 373.839 421.602 373.753 421.514 373.647C421.433 373.551 421.371 373.44 421.333 373.321C421.295 373.202 421.281 373.076 421.292 372.951C421.302 372.826 421.337 372.704 421.395 372.593C421.453 372.482 421.532 372.383 421.629 372.303C421.76 372.205 434.594 361.308 440.151 349.509C440.265 349.293 440.458 349.129 440.689 349.051C440.921 348.973 441.173 348.987 441.395 349.09C441.616 349.193 441.79 349.378 441.878 349.606C441.967 349.833 441.965 350.086 441.872 350.312C436.135 362.504 423.399 373.253 422.858 373.761C422.684 373.909 422.463 373.99 422.235 373.991Z" fill="#263238"/>
<path d="M419.99 351.098H419.908C419.783 351.089 419.662 351.056 419.551 351.001C419.439 350.945 419.34 350.867 419.259 350.773C419.178 350.678 419.117 350.568 419.079 350.449C419.041 350.331 419.028 350.206 419.039 350.082C420.334 334.498 427.94 318.423 441.643 302.331C442.217 301.643 442.61 301.184 442.774 300.955C443.104 300.425 443.405 299.878 443.676 299.316C444.79 297.219 445.692 295.58 446.954 295.941C448.216 296.301 448.593 297.579 448.249 304.134C447.561 317.243 438.627 342.609 438.25 343.675C438.219 343.804 438.161 343.925 438.08 344.03C438 344.135 437.898 344.223 437.781 344.286C437.665 344.35 437.536 344.388 437.404 344.399C437.271 344.41 437.138 344.393 437.013 344.349C436.888 344.306 436.773 344.236 436.676 344.145C436.579 344.055 436.502 343.945 436.45 343.822C436.399 343.7 436.373 343.568 436.375 343.436C436.378 343.303 436.407 343.172 436.463 343.052C436.562 342.79 445.692 316.915 446.298 304.036C446.448 302.154 446.448 300.264 446.298 298.382C445.954 298.923 445.544 299.693 445.282 300.185C445.02 300.676 444.561 301.545 444.266 301.971C443.971 302.397 443.643 302.741 443.004 303.495C429.562 319.291 422.121 334.99 420.858 350.164C420.855 350.399 420.765 350.625 420.604 350.798C420.444 350.971 420.225 351.077 419.99 351.098Z" fill="#263238"/>
<path d="M420.465 360.504H420.203C419.962 360.432 419.759 360.267 419.639 360.046C419.519 359.825 419.492 359.565 419.563 359.324C425.087 340.414 437.971 316.719 438.102 316.424C438.161 316.315 438.24 316.218 438.337 316.14C438.433 316.061 438.544 316.003 438.663 315.968C438.782 315.933 438.907 315.922 439.03 315.935C439.153 315.949 439.273 315.987 439.381 316.047C439.49 316.106 439.587 316.185 439.666 316.282C439.744 316.378 439.803 316.488 439.838 316.607C439.873 316.726 439.884 316.851 439.87 316.975C439.856 317.098 439.818 317.217 439.758 317.326C439.627 317.571 426.858 341.152 421.383 359.931C421.308 360.11 421.18 360.261 421.015 360.364C420.851 360.467 420.659 360.516 420.465 360.504Z" fill="#263238"/>
<path d="M414.711 374.302C414.467 374.303 414.232 374.209 414.056 374.04C413.4 373.417 398.057 358.39 399.844 339.628C401.401 323.241 405.384 307.822 408.532 305.806C408.742 305.654 408.985 305.554 409.242 305.514C409.498 305.474 409.76 305.495 410.007 305.577C411.892 306.232 412.285 309.001 412.777 312.524C413.046 315.324 413.674 318.078 414.646 320.718C417.285 326.928 423.661 355.375 420.235 370.779C420.167 371.01 420.014 371.206 419.807 371.329C419.599 371.452 419.353 371.491 419.118 371.439C418.883 371.387 418.676 371.247 418.539 371.049C418.403 370.85 418.347 370.607 418.383 370.369C421.661 355.343 415.482 327.535 412.892 321.455C411.862 318.678 411.19 315.782 410.892 312.836C410.581 310.656 410.204 307.92 409.499 307.477C407.728 308.592 403.467 321.635 401.729 339.857C400.09 357.653 415.219 372.516 415.367 372.63C415.514 372.757 415.617 372.927 415.663 373.116C415.709 373.304 415.694 373.503 415.622 373.683C415.55 373.863 415.424 374.016 415.261 374.121C415.097 374.226 414.905 374.278 414.711 374.269V374.302Z" fill="#263238"/>
<path d="M416.023 372.056C415.84 372.055 415.662 372.002 415.508 371.903C415.354 371.805 415.231 371.664 415.154 371.499C406.958 353.375 405.63 327.927 405.63 327.681C405.621 327.557 405.637 327.433 405.677 327.315C405.717 327.197 405.78 327.089 405.863 326.996C405.945 326.902 406.045 326.827 406.157 326.773C406.27 326.719 406.391 326.688 406.515 326.682C406.761 326.677 406.997 326.769 407.175 326.938C407.353 327.106 407.458 327.338 407.466 327.583C407.466 327.829 408.859 352.933 416.842 370.729C416.942 370.957 416.949 371.216 416.86 371.449C416.771 371.682 416.594 371.87 416.367 371.974C416.259 372.025 416.142 372.053 416.023 372.056Z" fill="#263238"/>
<path d="M414.908 325.158C414.667 325.159 414.434 325.068 414.258 324.904C414.081 324.739 413.974 324.514 413.957 324.273C412.498 299.268 422.874 277.686 427.857 267.33C428.771 265.541 429.586 263.703 430.3 261.824C431.398 258.137 432.808 257.515 433.775 257.646C435.201 257.826 437.135 259.563 437.479 272.263C437.922 288.289 433.25 316.31 433.217 316.506C433.197 316.63 433.152 316.748 433.086 316.855C433.02 316.961 432.933 317.054 432.831 317.127C432.729 317.2 432.614 317.252 432.492 317.281C432.369 317.309 432.243 317.313 432.119 317.293C431.995 317.272 431.877 317.228 431.77 317.162C431.664 317.095 431.571 317.009 431.498 316.907C431.425 316.805 431.373 316.689 431.344 316.567C431.316 316.445 431.312 316.319 431.332 316.195C431.332 315.916 436.004 288.059 435.578 272.23C435.266 260.415 433.512 259.448 433.496 259.432C432.811 260.256 432.338 261.234 432.119 262.283C431.384 264.261 430.53 266.192 429.562 268.068C424.644 278.293 414.432 299.563 415.859 324.077C415.865 324.202 415.847 324.327 415.805 324.444C415.764 324.562 415.699 324.671 415.615 324.764C415.531 324.856 415.43 324.932 415.317 324.986C415.204 325.039 415.082 325.07 414.957 325.076L414.908 325.158Z" fill="#263238"/>
<path d="M419.629 347.05C419.394 347.048 419.168 346.96 418.993 346.804C418.818 346.647 418.706 346.432 418.678 346.198C418.367 343.364 419.383 339.037 421.252 331.172C422.186 327.206 423.333 322.274 424.645 316.178C427.384 302.089 429.403 287.868 430.693 273.573C430.722 273.324 430.845 273.095 431.037 272.934C431.229 272.773 431.475 272.69 431.726 272.705C431.85 272.715 431.971 272.75 432.082 272.808C432.193 272.865 432.291 272.945 432.37 273.041C432.45 273.137 432.509 273.248 432.545 273.368C432.58 273.488 432.592 273.613 432.578 273.737C431.285 288.109 429.261 302.406 426.513 316.572C425.186 322.684 424.022 327.616 423.087 331.582C421.284 339.25 420.285 343.462 420.563 345.985C420.591 346.235 420.518 346.486 420.362 346.682C420.205 346.879 419.977 347.005 419.727 347.034L419.629 347.05Z" fill="#263238"/>
<path d="M434.25 380.971C434.046 380.97 433.847 380.905 433.682 380.784C433.517 380.664 433.394 380.494 433.332 380.299C433.261 380.058 433.288 379.798 433.408 379.577C433.528 379.356 433.73 379.192 433.971 379.119L435.906 378.513C435.812 378.463 435.724 378.402 435.643 378.333C435.458 378.162 435.323 377.943 435.254 377.7C435.184 377.457 435.183 377.2 435.25 376.956C435.574 375.978 436.056 375.06 436.676 374.236L436.889 373.925C433.332 375.269 428.398 376.727 425.005 375.252C424.89 375.204 424.785 375.133 424.697 375.044C424.609 374.956 424.54 374.85 424.493 374.735C424.446 374.619 424.422 374.495 424.422 374.37C424.423 374.245 424.448 374.122 424.497 374.007C424.601 373.776 424.792 373.595 425.028 373.503C425.264 373.411 425.526 373.416 425.759 373.515C429.037 374.924 434.709 372.729 436.594 372.008C437.266 371.745 438.496 371.27 439.151 372.106C439.807 372.942 439.151 373.925 438.266 375.285C437.955 375.744 437.61 376.268 437.364 376.727C437.905 376.596 438.643 376.366 439.233 376.186C440.814 375.606 442.47 375.253 444.151 375.137C445.2 375.137 445.511 375.645 445.56 376.072C445.691 376.956 445.79 377.53 434.545 380.987L434.25 380.971Z" fill="#263238"/>
<path d="M411.597 373.745C411.442 373.748 411.289 373.708 411.154 373.63C408.565 372.214 406.21 370.406 404.171 368.272C402.614 366.633 401.467 366.191 400.893 366.338C400.787 366.381 400.696 366.453 400.629 366.546C400.562 366.639 400.523 366.749 400.516 366.863C400.489 367.108 400.395 367.342 400.245 367.538C400.094 367.734 399.894 367.886 399.664 367.977C398.762 368.321 397.877 367.6 396.844 366.764L396.582 366.568C396.582 366.682 396.582 366.797 396.582 366.895C396.746 368.813 397.008 371.697 394.943 372.647C394.829 372.699 394.706 372.727 394.58 372.731C394.455 372.736 394.331 372.715 394.213 372.671C394.096 372.627 393.989 372.56 393.897 372.474C393.806 372.389 393.732 372.286 393.681 372.172C393.629 372.058 393.6 371.935 393.596 371.81C393.592 371.684 393.613 371.56 393.657 371.443C393.701 371.325 393.768 371.218 393.854 371.127C393.939 371.035 394.042 370.962 394.156 370.91C394.992 370.533 394.795 368.354 394.681 367.059C394.566 365.765 394.484 364.716 395.271 364.274C396.058 363.831 396.992 364.487 398.008 365.29L398.795 365.912C398.932 365.58 399.141 365.282 399.408 365.041C399.674 364.8 399.991 364.622 400.336 364.519C401.172 364.274 402.942 364.274 405.466 366.977C407.362 368.928 409.539 370.585 411.925 371.893C412.038 371.95 412.138 372.029 412.22 372.126C412.302 372.222 412.364 372.334 412.402 372.454C412.44 372.575 412.454 372.702 412.442 372.828C412.43 372.954 412.394 373.076 412.334 373.188C412.268 373.335 412.165 373.463 412.037 373.56C411.908 373.658 411.757 373.721 411.597 373.745Z" fill="#263238"/>
<path d="M82.811 372.581C81.1169 372.58 79.4247 372.465 77.746 372.237C70.3041 371.237 59.4528 367.321 50.0767 354.802C34.5209 333.942 33.9144 316.965 33.6849 309.706C33.6849 308.608 33.6849 307.756 33.5374 307.133C33.1276 303.856 33.5374 299.989 35.4553 299.186C35.947 298.956 36.9469 298.792 38.0124 300.087C38.7025 301.049 39.1112 302.183 39.1926 303.364C39.5368 305.462 39.9302 307.854 44.5691 310.558C54.273 316.178 86.5975 336.924 95.5474 367.731C95.5954 367.854 95.6172 367.985 95.6114 368.117C95.6056 368.249 95.5724 368.379 95.5138 368.497C95.4552 368.615 95.3726 368.72 95.2712 368.805C95.1699 368.89 95.0519 368.952 94.925 368.989C94.798 369.026 94.6648 369.035 94.5339 369.018C94.4029 369 94.2771 368.955 94.1645 368.886C94.0519 368.817 93.9549 368.725 93.8797 368.616C93.8045 368.508 93.7529 368.385 93.7279 368.255C84.9747 338.136 53.1583 317.735 43.6184 312.197C38.1927 309.05 37.6845 305.937 37.3239 303.676C37.2743 302.846 37.0087 302.044 36.5535 301.349C36.4438 301.191 36.2976 301.061 36.1273 300.972C35.8159 301.168 34.9635 303.299 35.4225 306.953C35.4225 307.608 35.5372 308.592 35.5864 309.689C35.8323 316.768 36.4224 333.335 51.6175 353.72C60.5674 365.748 70.8614 369.418 77.9263 370.402C82.3916 371.06 86.9447 370.792 91.302 369.615C91.5411 369.537 91.8012 369.558 92.0255 369.671C92.2497 369.785 92.4198 369.983 92.4986 370.221C92.5393 370.34 92.5559 370.465 92.5473 370.59C92.5387 370.714 92.5051 370.836 92.4485 370.948C92.392 371.059 92.3136 371.158 92.218 371.239C92.1224 371.32 92.0116 371.38 91.8921 371.418C88.9398 372.255 85.8791 372.647 82.811 372.581Z" fill="#263238"/>
<path d="M91.7938 369.238H91.6299C91.0234 369.123 76.5331 366.534 60.9118 352.605C51.2316 343.649 44.1907 332.212 40.5532 319.537C40.5241 319.416 40.5193 319.29 40.539 319.166C40.5587 319.043 40.6025 318.924 40.668 318.818C40.7334 318.711 40.8192 318.619 40.9205 318.545C41.0217 318.472 41.1364 318.419 41.258 318.39C41.3797 318.361 41.5058 318.356 41.6293 318.376C41.7528 318.396 41.8712 318.44 41.9777 318.505C42.0843 318.57 42.1769 318.656 42.2503 318.757C42.3237 318.859 42.3764 318.973 42.4055 319.095C45.9328 331.407 52.7703 342.515 62.1739 351.213C77.3527 364.764 91.8102 367.37 91.9577 367.386C92.2032 367.434 92.4207 367.575 92.5643 367.78C92.708 367.984 92.7667 368.237 92.7281 368.484C92.6858 368.699 92.569 368.893 92.3981 369.031C92.2273 369.169 92.0133 369.242 91.7938 369.238Z" fill="#263238"/>
<path d="M101.072 368.91C100.824 368.932 100.578 368.855 100.387 368.695C100.196 368.535 100.077 368.306 100.055 368.058C100.034 367.811 100.111 367.564 100.271 367.374C100.431 367.183 100.66 367.064 100.908 367.042C101.088 367.042 118.939 363.29 119.611 330.205C120.43 293.713 113.054 276.228 108.481 271.656C107.53 270.689 106.694 270.231 106.284 270.395C104.53 271.083 104.383 279.129 104.301 283.93C104.17 290.353 101.022 296.531 96.7934 305.101C95.3345 308.018 93.6954 311.328 91.9742 314.933C85.5651 328.714 89.0073 352.491 89.0401 352.721C89.0747 352.85 89.0815 352.985 89.0602 353.117C89.0388 353.249 88.9898 353.375 88.9164 353.487C88.8429 353.599 88.7466 353.694 88.6338 353.766C88.521 353.839 88.3942 353.886 88.2618 353.906C88.1294 353.926 87.9943 353.917 87.8653 353.881C87.7364 353.845 87.6165 353.782 87.5136 353.696C87.4107 353.611 87.327 353.505 87.268 353.384C87.209 353.264 87.1761 353.133 87.1714 352.999C87.0239 352.016 83.598 328.419 90.2531 314.13C91.8923 310.443 93.6462 307.133 95.1706 304.2C99.3341 295.859 102.35 289.845 102.465 283.848C102.612 275.327 102.924 269.657 105.645 268.576C107.497 267.838 109.3 269.673 109.89 270.214C116.234 276.621 122.299 297.645 121.578 330.14C120.791 364.879 102.104 368.648 101.318 368.796L101.072 368.91Z" fill="#263238"/>
<path d="M78.9262 377.366C73.3366 377.17 73.1399 376.186 73.0416 375.728C72.9432 375.269 73.3366 374.482 74.3037 374.089C75.6604 373.483 77.1545 373.251 78.6311 373.417C79.7337 373.536 80.849 373.43 81.9095 373.106C84.4174 372.336 84.8108 371.385 84.8108 371.385C84.8397 371.266 84.8918 371.153 84.9643 371.053C85.0368 370.954 85.1283 370.87 85.2334 370.806C85.3384 370.742 85.4551 370.7 85.5767 370.681C85.6983 370.662 85.8224 370.668 85.9419 370.697C86.1867 370.763 86.3967 370.92 86.528 371.137C86.6593 371.354 86.7019 371.613 86.6467 371.86C86.6467 372.172 86.0402 373.827 82.4668 374.925C81.1773 375.313 79.8243 375.447 78.4836 375.318C77.7817 375.228 77.0711 375.228 76.3691 375.318C77.1395 375.416 78.0083 375.482 78.9426 375.514C79.1947 375.514 79.4366 375.615 79.6149 375.793C79.7931 375.971 79.8933 376.213 79.8933 376.465C79.8933 376.717 79.7931 376.959 79.6149 377.137C79.4366 377.315 79.1947 377.415 78.9426 377.415L78.9262 377.366Z" fill="#263238"/>
<path d="M107.661 371.975C107.532 371.975 107.405 371.949 107.287 371.898C107.168 371.847 107.061 371.773 106.973 371.68C106.794 371.502 106.694 371.26 106.694 371.008C106.694 370.756 106.794 370.515 106.973 370.336C107.573 369.787 108.122 369.183 108.612 368.534L108.513 368.632C107.841 369.435 106.874 370.631 105.514 369.959C104.981 369.639 104.517 369.217 104.148 368.716C103.779 368.215 103.514 367.647 103.366 367.043C103.308 366.797 103.349 366.538 103.481 366.323C103.613 366.108 103.826 365.954 104.071 365.896C104.317 365.837 104.576 365.878 104.791 366.01C105.006 366.142 105.16 366.355 105.219 366.6C105.396 367.273 105.817 367.857 106.399 368.239C106.596 367.929 106.821 367.639 107.071 367.37C107.759 366.567 108.923 365.207 110.349 366.158C110.551 366.297 110.719 366.479 110.841 366.692C110.963 366.905 111.036 367.142 111.054 367.387C111.153 368.911 109.186 370.91 108.333 371.696C108.151 371.869 107.912 371.968 107.661 371.975Z" fill="#263238"/>
<path d="M100.957 364.765C100.833 364.789 100.704 364.789 100.58 364.765C100.464 364.715 100.36 364.643 100.272 364.552C100.185 364.461 100.118 364.353 100.073 364.235C100.029 364.117 100.009 363.992 100.014 363.866C100.019 363.74 100.05 363.616 100.105 363.503C109.306 340.476 112.76 315.555 110.169 290.894C110.141 290.642 110.213 290.39 110.37 290.191C110.526 289.992 110.754 289.862 111.005 289.829C111.129 289.813 111.255 289.822 111.376 289.856C111.496 289.889 111.609 289.947 111.707 290.025C111.804 290.103 111.886 290.2 111.945 290.309C112.005 290.419 112.042 290.54 112.054 290.665C116.775 330.615 101.973 363.945 101.826 364.289C101.739 364.441 101.611 364.565 101.458 364.649C101.305 364.733 101.132 364.773 100.957 364.765Z" fill="#263238"/>
<path d="M87.5156 349.132C87.3405 349.134 87.1682 349.087 87.0178 348.998C86.8674 348.908 86.7447 348.779 86.6632 348.624C86.5485 348.378 74.1399 323.732 78.1395 286.813C79.7476 270.764 83.4622 254.996 89.1875 239.915C91.089 234.655 92.3347 231.181 91.9905 229.018C91.8102 227.904 90.3513 218.072 93.056 216.859C93.5969 216.613 94.4821 216.581 95.4984 217.826C98.3505 221.333 106.973 247.879 106.464 269.788C106.464 269.913 106.44 270.036 106.392 270.152C106.344 270.267 106.274 270.372 106.186 270.46C106.098 270.548 105.993 270.618 105.878 270.666C105.762 270.714 105.639 270.738 105.514 270.738C105.389 270.738 105.265 270.714 105.15 270.666C105.035 270.618 104.93 270.548 104.841 270.46C104.753 270.372 104.683 270.267 104.635 270.152C104.588 270.036 104.563 269.913 104.563 269.788C105.071 247.699 96.2196 221.759 94.0231 218.99L93.7608 218.711C93.2691 219.76 93.0888 223.758 93.8756 228.69C94.2854 231.329 92.974 234.983 90.9742 240.521C85.3103 255.462 81.6291 271.08 80.0245 286.977C76.0905 323.306 88.2204 347.477 88.3516 347.722C88.4107 347.833 88.447 347.954 88.4583 348.079C88.4696 348.203 88.4558 348.329 88.4176 348.448C88.3793 348.567 88.3175 348.678 88.2358 348.773C88.154 348.868 88.054 348.945 87.9418 349C87.8121 349.077 87.666 349.122 87.5156 349.132Z" fill="#263238"/>
<path d="M87.8269 327.829C87.5804 327.829 87.3434 327.733 87.166 327.562C86.9886 327.391 86.8847 327.157 86.8762 326.911C86.8762 326.567 86.6631 318.587 89.7611 301.315C92.8592 284.044 96.3179 243.159 96.3179 242.733C96.3467 242.484 96.4697 242.256 96.6617 242.094C96.8537 241.933 97.1001 241.851 97.3505 241.865C97.4749 241.875 97.596 241.91 97.7067 241.968C97.8173 242.026 97.9152 242.105 97.9947 242.201C98.0741 242.297 98.1335 242.409 98.1693 242.528C98.205 242.648 98.2165 242.773 98.2029 242.897C98.2029 243.307 94.6787 284.453 91.6462 301.659C88.6137 318.865 88.7776 326.764 88.794 326.846C88.7943 327.098 88.6975 327.341 88.5236 327.524C88.3496 327.707 88.1119 327.816 87.8597 327.829H87.8269Z" fill="#263238"/>
<path d="M64.3868 326.567C64.2504 326.566 64.1159 326.536 63.9917 326.479C63.8675 326.423 63.7565 326.341 63.6656 326.24C63.5344 326.076 49.9293 310.296 46.6017 289.108C43.2742 267.92 41.8645 260.857 39.7172 257.809C38.4714 256.023 38.4223 254.106 39.6025 253.008C40.2417 252.402 42.8808 250.796 48.6999 255.581C56.4204 261.89 74.6152 285.077 79.2049 300.201C79.2603 300.438 79.2234 300.686 79.1017 300.895C78.98 301.105 78.7827 301.26 78.5503 301.33C78.3178 301.399 78.0677 301.376 77.8512 301.267C77.6346 301.158 77.468 300.97 77.3854 300.742C72.9761 286.207 54.8796 263.053 47.4869 257.056C43.7988 254.041 41.5203 253.778 40.9302 254.401C40.5696 254.745 40.5696 255.646 41.3236 256.712C43.7168 260.104 45.0773 266.97 48.5196 288.813C51.7979 309.46 65.0261 324.863 65.1572 324.994C65.2393 325.089 65.3019 325.199 65.3414 325.317C65.3809 325.436 65.3965 325.562 65.3873 325.687C65.3782 325.811 65.3445 325.933 65.2881 326.045C65.2317 326.157 65.1538 326.256 65.0589 326.338C64.872 326.497 64.6318 326.579 64.3868 326.567Z" fill="#263238"/>
<path d="M85.2371 343.905C85.0963 343.905 84.9571 343.875 84.8296 343.815C84.702 343.756 84.5893 343.669 84.4995 343.561C84.4995 343.462 76.5003 333.892 65.9768 318.604C55.4533 303.315 49.7326 275.556 49.4867 274.36C49.4629 274.237 49.4635 274.111 49.4886 273.989C49.5136 273.866 49.5625 273.75 49.6326 273.647C49.7026 273.543 49.7923 273.454 49.8967 273.386C50.0011 273.317 50.118 273.269 50.2407 273.246C50.4857 273.202 50.7383 273.254 50.946 273.391C51.1536 273.528 51.3002 273.74 51.3553 273.983C51.3553 274.278 57.1744 302.43 67.5504 317.522C77.9264 332.614 85.8928 342.233 85.9747 342.332C86.1325 342.528 86.2071 342.779 86.1826 343.03C86.1581 343.281 86.0365 343.513 85.8436 343.675C85.6746 343.82 85.4599 343.902 85.2371 343.905Z" fill="#263238"/>
<path d="M57.5678 267.346C57.3642 267.341 57.1674 267.271 57.0055 267.148C56.8436 267.024 56.7249 266.853 56.6663 266.658C56.6663 266.461 50.6341 246.371 48.7655 233.295C48.3229 230.132 47.8967 227.543 47.5525 225.413C46.6346 219.858 46.2903 217.76 47.3886 216.712C47.6826 216.467 48.0323 216.299 48.4069 216.222C48.7814 216.145 49.1692 216.161 49.5359 216.269C52.6175 216.875 78.5657 236.67 84.8273 259.53C84.8639 259.651 84.8756 259.779 84.8619 259.906C84.8481 260.032 84.809 260.155 84.7471 260.266C84.6851 260.377 84.6014 260.474 84.501 260.553C84.4007 260.631 84.2856 260.688 84.1627 260.721C84.0398 260.754 83.9116 260.762 83.7855 260.744C83.6595 260.727 83.5383 260.684 83.4291 260.619C83.3198 260.553 83.2248 260.467 83.1497 260.364C83.0745 260.262 83.0207 260.145 82.9915 260.021C77.0413 238.358 52.011 218.678 49.1753 218.121C49.0073 218.09 48.8351 218.09 48.6671 218.121C48.3393 218.596 48.8474 221.627 49.4212 225.151C49.7654 227.264 50.1916 229.886 50.6505 233.065C52.4864 246.011 58.4202 265.953 58.4858 266.15C58.5571 266.391 58.5298 266.651 58.41 266.872C58.2902 267.093 58.0875 267.257 57.8465 267.33C57.7554 267.352 57.661 267.358 57.5678 267.346Z" fill="#263238"/>
<path d="M78.4672 295.679C78.2454 295.683 78.0295 295.607 77.8583 295.466C77.6871 295.325 77.5718 295.127 77.5329 294.909C75.7853 287.604 72.6647 280.697 68.3371 274.557C60.7313 263.48 56.1089 238.769 55.9285 237.72C55.9048 237.597 55.9054 237.471 55.9304 237.349C55.9555 237.226 56.0044 237.11 56.0744 237.006C56.1445 236.903 56.2342 236.814 56.3386 236.745C56.4429 236.677 56.5598 236.629 56.6826 236.606C56.9317 236.567 57.1863 236.625 57.3937 236.768C57.6012 236.911 57.7456 237.129 57.7972 237.376C57.7972 237.622 62.518 262.742 69.8943 273.426C74.4005 279.774 77.6295 286.936 79.4015 294.516C79.425 294.639 79.4236 294.765 79.3974 294.887C79.3712 295.009 79.3206 295.125 79.2488 295.228C79.1769 295.33 79.0852 295.417 78.9791 295.483C78.873 295.55 78.7547 295.594 78.6311 295.614L78.4672 295.679Z" fill="#263238"/>
<path d="M89.6628 242.324C89.5379 242.32 89.4151 242.291 89.3013 242.239C89.1876 242.187 89.0852 242.114 88.9999 242.023C88.9147 241.931 88.8483 241.824 88.8045 241.707C88.7607 241.59 88.7404 241.466 88.7448 241.341C89.0891 232.279 87.9744 226.298 84.7616 220.038L84.3846 219.334C78.0574 206.896 70.6319 191.952 69.5501 186.773C68.8452 183.496 67.747 182.169 67.2225 182.152C67.1077 182.152 65.7472 182.267 64.0916 187.757C61.2722 197.031 67.8945 231.591 67.9765 232C68.0243 232.248 67.9717 232.505 67.8303 232.714C67.6889 232.923 67.4703 233.067 67.2225 233.115C66.9747 233.162 66.718 233.11 66.509 232.969C66.2999 232.827 66.1556 232.609 66.1078 232.361C65.8292 230.919 59.3216 196.982 62.2722 187.265C63.6818 182.579 65.3046 180.301 67.1897 180.301H67.2061C69.6648 180.399 70.8286 184.184 71.304 186.429C72.4842 192.017 82.2865 211.271 86.0566 218.514L86.4172 219.235C89.7939 225.79 90.9741 232.099 90.6135 241.505C90.5816 241.733 90.4676 241.943 90.2926 242.093C90.1176 242.244 89.8938 242.326 89.6628 242.324Z" fill="#263238"/>
<path d="M82.8767 257.498C82.6392 257.495 82.411 257.405 82.2357 257.245C82.0603 257.085 81.9501 256.866 81.926 256.629C81.926 256.515 81.008 244.487 80.1065 236.818C79.2049 229.149 70.2714 215.024 70.1403 214.893C70.0055 214.676 69.9626 214.414 70.021 214.165C70.0794 213.916 70.2344 213.7 70.4517 213.566C70.6691 213.431 70.9311 213.388 71.1801 213.446C71.4291 213.505 71.6447 213.66 71.7795 213.877C72.1565 214.467 81.09 228.625 82.0243 236.589C82.9586 244.553 83.8438 256.367 83.8602 256.482C83.8783 256.732 83.7973 256.978 83.6346 257.168C83.472 257.359 83.2409 257.477 82.9914 257.498H82.8767Z" fill="#263238"/>
<ellipse cx="259.809" cy="264.644" rx="0.819595" ry="0.819321" fill="#263238"/>
<ellipse cx="270.464" cy="267.102" rx="1.63918" ry="1.63866" fill="#263238"/>
<ellipse cx="258.99" cy="263.824" rx="1.63918" ry="1.63864" fill="#263238"/>
<ellipse cx="1.23304" cy="6.16403" rx="1.23304" ry="6.16403" transform="matrix(0.895044 0.445977 -0.446202 0.894932 192.66 241.169)" fill="#263238"/>
</svg>
